<svg xmlns="http://www.w3.org/2000/svg" xmlns:xlink="http://www.w3.org/1999/xlink" width="1000" zoomAndPan="magnify" viewBox="0 0 750 749.999995" height="1000" preserveAspectRatio="xMidYMid meet" version="1.0"><defs><g/><clipPath id="2df6c7a7ef"><path d="M 234.660156 270.222656 L 254.789062 270.222656 L 254.789062 336.902344 L 234.660156 336.902344 Z M 234.660156 270.222656 " clip-rule="nonzero"/></clipPath><clipPath id="ff731c71f9"><path d="M 238.558594 303.3125 C 235.289062 292.113281 232.015625 281.167969 238.308594 270.222656 L 250.261719 270.222656 C 244.222656 281.546875 247.617188 292.867188 250.890625 303.816406 C 254.160156 315.011719 257.429688 325.957031 251.140625 336.902344 L 239.1875 336.902344 C 245.226562 325.582031 241.832031 314.257812 238.558594 303.3125 Z M 238.558594 303.3125 " clip-rule="nonzero"/></clipPath><clipPath id="ad77dcc5aa"><path d="M 0.660156 0.222656 L 20.789062 0.222656 L 20.789062 66.902344 L 0.660156 66.902344 Z M 0.660156 0.222656 " clip-rule="nonzero"/></clipPath><clipPath id="446a541394"><path d="M 4.558594 33.3125 C 1.289062 22.113281 -1.984375 11.167969 4.308594 0.222656 L 16.261719 0.222656 C 10.222656 11.546875 13.617188 22.867188 16.890625 33.816406 C 20.160156 45.011719 23.429688 55.957031 17.140625 66.902344 L 5.1875 66.902344 C 11.226562 55.582031 7.832031 44.257812 4.558594 33.3125 Z M 4.558594 33.3125 " clip-rule="nonzero"/></clipPath><clipPath id="5b5a6238a3"><rect x="0" width="21" y="0" height="67"/></clipPath><clipPath id="f3b717ae4a"><rect x="0" width="234" y="0" height="118"/></clipPath><clipPath id="7c3e8d2334"><path d="M 300.542969 281.386719 L 320.675781 281.386719 L 320.675781 336.902344 L 300.542969 336.902344 Z M 300.542969 281.386719 " clip-rule="nonzero"/></clipPath><clipPath id="0d2fcb9f77"><path d="M 304.445312 308.96875 C 301.171875 299.65625 297.902344 290.554688 304.191406 281.453125 L 316.144531 281.453125 C 310.105469 290.867188 313.503906 300.285156 316.773438 309.386719 C 320.046875 318.695312 323.316406 327.796875 317.027344 336.902344 L 305.074219 336.902344 C 311.113281 327.484375 307.714844 318.070312 304.445312 308.96875 Z M 304.445312 308.96875 " clip-rule="nonzero"/></clipPath><clipPath id="681b6f8e33"><path d="M 0.542969 0.386719 L 20.675781 0.386719 L 20.675781 55.902344 L 0.542969 55.902344 Z M 0.542969 0.386719 " clip-rule="nonzero"/></clipPath><clipPath id="511c8660aa"><path d="M 4.445312 27.96875 C 1.171875 18.65625 -2.097656 9.554688 4.191406 0.453125 L 16.144531 0.453125 C 10.105469 9.867188 13.503906 19.285156 16.773438 28.386719 C 20.046875 37.695312 23.316406 46.796875 17.027344 55.902344 L 5.074219 55.902344 C 11.113281 46.484375 7.714844 37.070312 4.445312 27.96875 Z M 4.445312 27.96875 " clip-rule="nonzero"/></clipPath><clipPath id="4c7e13113f"><rect x="0" width="21" y="0" height="56"/></clipPath><clipPath id="e11cb3345a"><path d="M 267.605469 293.65625 L 287.734375 293.65625 L 287.734375 336.902344 L 267.605469 336.902344 Z M 267.605469 293.65625 " clip-rule="nonzero"/></clipPath><clipPath id="d6e4b3333d"><path d="M 271.503906 315.15625 C 268.234375 307.90625 264.960938 300.816406 271.253906 293.730469 L 283.203125 293.730469 C 277.164062 301.0625 280.5625 308.394531 283.832031 315.480469 C 287.105469 322.730469 290.375 329.816406 284.085938 336.902344 L 272.132812 336.902344 C 278.171875 329.574219 274.773438 322.242188 271.503906 315.15625 Z M 271.503906 315.15625 " clip-rule="nonzero"/></clipPath><clipPath id="d1edd5b9d9"><path d="M 0.605469 0.65625 L 20.734375 0.65625 L 20.734375 43.902344 L 0.605469 43.902344 Z M 0.605469 0.65625 " clip-rule="nonzero"/></clipPath><clipPath id="ae0eb79cd7"><path d="M 4.503906 22.15625 C 1.234375 14.90625 -2.039062 7.816406 4.253906 0.730469 L 16.203125 0.730469 C 10.164062 8.0625 13.5625 15.394531 16.832031 22.480469 C 20.105469 29.730469 23.375 36.816406 17.085938 43.902344 L 5.132812 43.902344 C 11.171875 36.574219 7.773438 29.242188 4.503906 22.15625 Z M 4.503906 22.15625 " clip-rule="nonzero"/></clipPath><clipPath id="fe4909410c"><rect x="0" width="21" y="0" height="44"/></clipPath><clipPath id="c34e9381dd"><path d="M 366.429688 315.324219 L 415.171875 315.324219 L 415.171875 359.574219 L 366.429688 359.574219 Z M 366.429688 315.324219 " clip-rule="nonzero"/></clipPath><clipPath id="70fdeaaa2d"><path d="M 390.898438 315.324219 C 377.382812 315.324219 366.429688 325.304688 366.429688 337.617188 C 366.429688 349.929688 377.382812 359.914062 390.898438 359.914062 C 404.414062 359.914062 415.367188 349.929688 415.367188 337.617188 C 415.367188 325.304688 404.414062 315.324219 390.898438 315.324219 Z M 390.898438 315.324219 " clip-rule="nonzero"/></clipPath><clipPath id="7193ecc2a4"><path d="M 420 318 L 478 318 L 478 379 L 420 379 Z M 420 318 " clip-rule="nonzero"/></clipPath><clipPath id="1729cb75c4"><path d="M 442.019531 309.183594 L 489.070312 347.617188 L 455.855469 388.277344 L 408.808594 349.84375 Z M 442.019531 309.183594 " clip-rule="nonzero"/></clipPath><clipPath id="79938d6825"><path d="M 442.019531 309.183594 L 489.121094 347.660156 L 456.058594 388.136719 L 408.957031 349.664062 Z M 442.019531 309.183594 " clip-rule="nonzero"/></clipPath><clipPath id="e67203998e"><path d="M 472.589844 367.898438 L 444.28125 378.519531 L 420.730469 359.28125 L 425.488281 329.425781 L 453.796875 318.804688 L 477.347656 338.042969 Z M 472.589844 367.898438 " clip-rule="nonzero"/></clipPath><clipPath id="882b498bdc"><path d="M 381 310 L 460 310 L 460 387 L 381 387 Z M 381 310 " clip-rule="nonzero"/></clipPath><clipPath id="253a1cc388"><path d="M 412.390625 310.46875 L 459.496094 348.949219 L 428.527344 386.859375 L 381.421875 348.378906 Z M 412.390625 310.46875 " clip-rule="nonzero"/></clipPath><clipPath id="e6d38f63c8"><path d="M 0.359375 0.320312 L 78.601562 0.320312 L 78.601562 76.878906 L 0.359375 76.878906 Z M 0.359375 0.320312 " clip-rule="nonzero"/></clipPath><clipPath id="0f0dcfffb3"><path d="M 31.390625 0.46875 L 78.496094 38.949219 L 47.527344 76.859375 L 0.421875 38.378906 Z M 31.390625 0.46875 " clip-rule="nonzero"/></clipPath><clipPath id="de09e8a2d5"><rect x="0" width="79" y="0" height="77"/></clipPath><clipPath id="bc6557b69b"><path d="M 381 310 L 460 310 L 460 387 L 381 387 Z M 381 310 " clip-rule="nonzero"/></clipPath><clipPath id="f851e6d258"><path d="M 412.390625 310.46875 L 459.4375 348.902344 L 428.597656 386.65625 L 381.550781 348.226562 Z M 412.390625 310.46875 " clip-rule="nonzero"/></clipPath><clipPath id="9e101c06ec"><path d="M 412.390625 310.46875 L 459.492188 348.945312 L 428.527344 386.855469 L 381.425781 348.378906 Z M 412.390625 310.46875 " clip-rule="nonzero"/></clipPath><clipPath id="4f0e553be7"><rect x="0" width="234" y="0" height="118"/></clipPath><clipPath id="bddc8abf7f"><path d="M 375 358.003906 L 465.734375 358.003906 L 465.734375 381.0625 L 375 381.0625 Z M 375 358.003906 " clip-rule="nonzero"/></clipPath><clipPath id="b71886ed23"><path d="M 0 0.00390625 L 90.734375 0.00390625 L 90.734375 23.0625 L 0 23.0625 Z M 0 0.00390625 " clip-rule="nonzero"/></clipPath><clipPath id="5918493747"><rect x="0" width="91" y="0" height="24"/></clipPath><clipPath id="5a4370f19d"><path d="M 394.371094 375.425781 L 446.550781 375.425781 L 446.550781 398.289062 L 394.371094 398.289062 Z M 394.371094 375.425781 " clip-rule="nonzero"/></clipPath><clipPath id="ef981e659f"><path d="M 0.371094 0.425781 L 52.550781 0.425781 L 52.550781 23.289062 L 0.371094 23.289062 Z M 0.371094 0.425781 " clip-rule="nonzero"/></clipPath><clipPath id="c5edba3f84"><rect x="0" width="53" y="0" height="24"/></clipPath><clipPath id="4741c1056c"><rect x="0" width="200" y="0" height="99"/></clipPath></defs><rect x="-75" width="900" fill="#ffffff" y="-74.999999" height="899.999994" fill-opacity="1"/><rect x="-75" width="900" fill="#000000" y="-74.999999" height="899.999994" fill-opacity="1"/><g fill="#f2a254" fill-opacity="1"><g transform="translate(92.513669, 438.576913)"><g><path d="M 116.75 -172.78125 L 116.75 -154.4375 L 41.640625 -154.4375 L 41.640625 -96.1875 L 102.625 -96.1875 L 102.625 -77.84375 L 41.640625 -77.84375 L 41.640625 0 L 19.09375 0 L 19.09375 -172.78125 Z M 116.75 -172.78125 "/></g></g></g><g fill="#000000" fill-opacity="1"><g transform="translate(217.458976, 438.576913)"><g/></g></g><g fill="#000000" fill-opacity="1"><g transform="translate(283.647469, 438.576913)"><g/></g></g><g fill="#000000" fill-opacity="1"><g transform="translate(349.835961, 438.576913)"><g/></g></g><g fill="#000000" fill-opacity="1"><g transform="translate(416.024442, 438.576913)"><g/></g></g><g fill="#a6cd3b" fill-opacity="1"><g transform="translate(482.220685, 438.576913)"><g><path d="M 72.875 -172.78125 C 91.71875 -172.78125 108.035156 -169.265625 121.828125 -162.234375 C 135.628906 -155.210938 146.207031 -145.175781 153.5625 -132.125 C 160.914062 -119.070312 164.59375 -103.703125 164.59375 -86.015625 C 164.59375 -68.335938 160.914062 -53.007812 153.5625 -40.03125 C 146.207031 -27.0625 135.628906 -17.144531 121.828125 -10.28125 C 108.035156 -3.425781 91.71875 0 72.875 0 L 19.09375 0 L 19.09375 -172.78125 Z M 72.875 -18.59375 C 95.1875 -18.59375 112.207031 -24.5 123.9375 -36.3125 C 135.675781 -48.132812 141.546875 -64.703125 141.546875 -86.015625 C 141.546875 -107.503906 135.632812 -124.28125 123.8125 -136.34375 C 112 -148.40625 95.019531 -154.4375 72.875 -154.4375 L 41.640625 -154.4375 L 41.640625 -18.59375 Z M 72.875 -18.59375 "/></g></g></g><g clip-path="url(#2df6c7a7ef)"><g clip-path="url(#ff731c71f9)"><g transform="matrix(1, 0, 0, 1, 234, 270)"><g clip-path="url(#5b5a6238a3)"><g clip-path="url(#ad77dcc5aa)"><g clip-path="url(#446a541394)"><path fill="#a6cd3b" d="M 0.660156 66.902344 L 0.660156 0.222656 L 20.789062 0.222656 L 20.789062 66.902344 Z M 0.660156 66.902344 " fill-opacity="1" fill-rule="nonzero"/></g></g></g></g></g></g><g transform="matrix(1, 0, 0, 1, 159, 330)"><g clip-path="url(#f3b717ae4a)"><g fill="#a6cd3b" fill-opacity="1"><g transform="translate(58.811825, 0.160902)"><g><path d="M 115.71875 48.8125 C 115.71875 61.425781 113.363281 72.351562 108.65625 81.59375 C 103.957031 90.832031 97.234375 97.914062 88.484375 102.84375 C 79.742188 107.769531 69.453125 110.234375 57.609375 110.234375 C 45.765625 110.234375 35.5 107.769531 26.8125 102.84375 C 18.125 97.914062 11.484375 90.832031 6.890625 81.59375 C 2.296875 72.351562 0 61.425781 0 48.8125 L 0 12.78125 L 115.71875 12.78125 Z M 12.453125 48.8125 C 12.453125 63.75 16.40625 75.144531 24.3125 83 C 32.226562 90.863281 43.328125 94.796875 57.609375 94.796875 C 71.992188 94.796875 83.222656 90.835938 91.296875 82.921875 C 99.378906 75.015625 103.421875 63.644531 103.421875 48.8125 L 103.421875 27.890625 L 12.453125 27.890625 Z M 12.453125 48.8125 "/></g></g></g></g></g><g clip-path="url(#7c3e8d2334)"><g clip-path="url(#0d2fcb9f77)"><g transform="matrix(1, 0, 0, 1, 300, 281)"><g clip-path="url(#4c7e13113f)"><g clip-path="url(#681b6f8e33)"><g clip-path="url(#511c8660aa)"><path fill="#a6cd3b" d="M 0.542969 55.902344 L 0.542969 0.464844 L 20.675781 0.464844 L 20.675781 55.902344 Z M 0.542969 55.902344 " fill-opacity="1" fill-rule="nonzero"/></g></g></g></g></g></g><g clip-path="url(#e11cb3345a)"><g clip-path="url(#d6e4b3333d)"><g transform="matrix(1, 0, 0, 1, 267, 293)"><g clip-path="url(#fe4909410c)"><g clip-path="url(#d1edd5b9d9)"><g clip-path="url(#ae0eb79cd7)"><path fill="#a6cd3b" d="M 0.605469 43.902344 L 0.605469 0.734375 L 20.734375 0.734375 L 20.734375 43.902344 Z M 0.605469 43.902344 " fill-opacity="1" fill-rule="nonzero"/></g></g></g></g></g></g><g clip-path="url(#c34e9381dd)"><g clip-path="url(#70fdeaaa2d)"><path stroke-linecap="butt" transform="matrix(0.75, 0, 0, 0.75, 366.428627, 315.322505)" fill="none" stroke-linejoin="miter" d="M 32.626415 0.00228549 C 14.605581 0.00228549 0.00141374 13.309578 0.00141374 29.726245 C 0.00141374 46.142913 14.605581 59.455413 32.626415 59.455413 C 50.64725 59.455413 65.251417 46.142913 65.251417 29.726245 C 65.251417 13.309578 50.64725 0.00228549 32.626415 0.00228549 Z M 32.626415 0.00228549 " stroke="#f2a254" stroke-width="28" stroke-opacity="1" stroke-miterlimit="4"/></g></g><g clip-path="url(#7193ecc2a4)"><g clip-path="url(#1729cb75c4)"><g clip-path="url(#79938d6825)"><g clip-path="url(#e67203998e)"><path stroke-linecap="butt" transform="matrix(0.580844, 0.474468, -0.474468, 0.580844, 442.021013, 309.185484)" fill="none" stroke-linejoin="miter" d="M 81.090066 34.842882 L 60.817172 69.688627 L 20.270886 69.688026 L 0.000788744 34.845713 L 20.273683 -0.0000320216 L 60.819969 0.000569383 Z M 81.090066 34.842882 " stroke="#f2a254" stroke-width="28" stroke-opacity="1" stroke-miterlimit="4"/></g></g></g></g><g clip-path="url(#882b498bdc)"><g clip-path="url(#253a1cc388)"><g transform="matrix(1, 0, 0, 1, 381, 310)"><g clip-path="url(#de09e8a2d5)"><g clip-path="url(#e6d38f63c8)"><g clip-path="url(#0f0dcfffb3)"><path fill="#000000" d="M 31.390625 0.46875 L 78.484375 38.9375 L 47.515625 76.847656 L 0.421875 38.378906 Z M 31.390625 0.46875 " fill-opacity="1" fill-rule="nonzero"/></g></g></g></g></g></g><g clip-path="url(#bc6557b69b)"><g clip-path="url(#f851e6d258)"><g clip-path="url(#9e101c06ec)"><path stroke-linecap="butt" transform="matrix(0.580844, 0.474468, -0.474468, 0.580844, 412.390591, 310.470005)" fill="none" stroke-linejoin="miter" d="M -0.00102291 -0.00132485 L 81.091561 -0.000128238 L 81.094105 65.265172 L 0.00152109 65.263975 Z M -0.00102291 -0.00132485 " stroke="#f2a254" stroke-width="28" stroke-opacity="1" stroke-miterlimit="4"/></g></g></g><g transform="matrix(1, 0, 0, 1, 303, 330)"><g clip-path="url(#4f0e553be7)"><g fill="#f2a254" fill-opacity="1"><g transform="translate(59.329846, 0.160902)"><g><path d="M 115.71875 48.8125 C 115.71875 61.425781 113.363281 72.351562 108.65625 81.59375 C 103.957031 90.832031 97.234375 97.914062 88.484375 102.84375 C 79.742188 107.769531 69.453125 110.234375 57.609375 110.234375 C 45.765625 110.234375 35.5 107.769531 26.8125 102.84375 C 18.125 97.914062 11.484375 90.832031 6.890625 81.59375 C 2.296875 72.351562 0 61.425781 0 48.8125 L 0 12.78125 L 115.71875 12.78125 Z M 12.453125 48.8125 C 12.453125 63.75 16.40625 75.144531 24.3125 83 C 32.226562 90.863281 43.328125 94.796875 57.609375 94.796875 C 71.992188 94.796875 83.222656 90.835938 91.296875 82.921875 C 99.378906 75.015625 103.421875 63.644531 103.421875 48.8125 L 103.421875 27.890625 L 12.453125 27.890625 Z M 12.453125 48.8125 "/></g></g></g></g></g><g clip-path="url(#bddc8abf7f)"><g transform="matrix(1, 0, 0, 1, 375, 358)"><g clip-path="url(#5918493747)"><g clip-path="url(#b71886ed23)"><path fill="#000000" d="M 0 0.00390625 L 90.695312 0.00390625 L 90.695312 23.0625 L 0 23.0625 Z M 0 0.00390625 " fill-opacity="1" fill-rule="nonzero"/></g></g></g></g><g clip-path="url(#5a4370f19d)"><g transform="matrix(1, 0, 0, 1, 394, 375)"><g clip-path="url(#c5edba3f84)"><g clip-path="url(#ef981e659f)"><path fill="#000000" d="M 0.371094 0.425781 L 52.53125 0.425781 L 52.53125 23.289062 L 0.371094 23.289062 Z M 0.371094 0.425781 " fill-opacity="1" fill-rule="nonzero"/></g></g></g></g><g transform="matrix(1, 0, 0, 1, 275, 451)"><g clip-path="url(#4741c1056c)"><g fill="#ffffff" fill-opacity="1"><g transform="translate(1.0127, 74.169113)"><g><path d="M 11.765625 -31.328125 C 13.035156 -33.523438 14.914062 -35.359375 17.40625 -36.828125 C 19.90625 -38.296875 22.816406 -39.03125 26.140625 -39.03125 C 29.546875 -39.03125 32.640625 -38.210938 35.421875 -36.578125 C 38.203125 -34.941406 40.382812 -32.640625 41.96875 -29.671875 C 43.5625 -26.710938 44.359375 -23.269531 44.359375 -19.34375 C 44.359375 -15.46875 43.5625 -12.007812 41.96875 -8.96875 C 40.382812 -5.9375 38.203125 -3.578125 35.421875 -1.890625 C 32.640625 -0.210938 29.546875 0.625 26.140625 0.625 C 22.867188 0.625 19.984375 -0.109375 17.484375 -1.578125 C 14.984375 -3.046875 13.078125 -4.878906 11.765625 -7.078125 L 11.765625 18.21875 L 5.390625 18.21875 L 5.390625 -38.40625 L 11.765625 -38.40625 Z M 37.84375 -19.34375 C 37.84375 -22.238281 37.257812 -24.757812 36.09375 -26.90625 C 34.925781 -29.0625 33.347656 -30.695312 31.359375 -31.8125 C 29.367188 -32.9375 27.1875 -33.5 24.8125 -33.5 C 22.46875 -33.5 20.300781 -32.925781 18.3125 -31.78125 C 16.332031 -30.632812 14.742188 -28.972656 13.546875 -26.796875 C 12.359375 -24.628906 11.765625 -22.117188 11.765625 -19.265625 C 11.765625 -16.367188 12.359375 -13.832031 13.546875 -11.65625 C 14.742188 -9.488281 16.332031 -7.832031 18.3125 -6.6875 C 20.300781 -5.539062 22.46875 -4.96875 24.8125 -4.96875 C 27.1875 -4.96875 29.367188 -5.539062 31.359375 -6.6875 C 33.347656 -7.832031 34.925781 -9.488281 36.09375 -11.65625 C 37.257812 -13.832031 37.84375 -16.394531 37.84375 -19.34375 Z M 37.84375 -19.34375 "/></g></g></g><g fill="#ffffff" fill-opacity="1"><g transform="translate(48.385518, 74.169113)"><g><path d="M 11.765625 -51.859375 L 11.765625 0 L 5.390625 0 L 5.390625 -51.859375 Z M 11.765625 -51.859375 "/></g></g></g><g fill="#ffffff" fill-opacity="1"><g transform="translate(65.624736, 74.169113)"><g><path d="M 3.015625 -19.34375 C 3.015625 -23.269531 3.804688 -26.710938 5.390625 -29.671875 C 6.984375 -32.640625 9.171875 -34.941406 11.953125 -36.578125 C 14.734375 -38.210938 17.828125 -39.03125 21.234375 -39.03125 C 24.597656 -39.03125 27.515625 -38.304688 29.984375 -36.859375 C 32.460938 -35.410156 34.3125 -33.585938 35.53125 -31.390625 L 35.53125 -38.40625 L 41.984375 -38.40625 L 41.984375 0 L 35.53125 0 L 35.53125 -7.140625 C 34.269531 -4.898438 32.390625 -3.046875 29.890625 -1.578125 C 27.390625 -0.109375 24.476562 0.625 21.15625 0.625 C 17.75 0.625 14.664062 -0.210938 11.90625 -1.890625 C 9.15625 -3.578125 6.984375 -5.9375 5.390625 -8.96875 C 3.804688 -12.007812 3.015625 -15.46875 3.015625 -19.34375 Z M 35.53125 -19.265625 C 35.53125 -22.160156 34.945312 -24.679688 33.78125 -26.828125 C 32.613281 -28.984375 31.035156 -30.632812 29.046875 -31.78125 C 27.054688 -32.925781 24.875 -33.5 22.5 -33.5 C 20.113281 -33.5 17.9375 -32.9375 15.96875 -31.8125 C 14.007812 -30.695312 12.445312 -29.0625 11.28125 -26.90625 C 10.113281 -24.757812 9.53125 -22.238281 9.53125 -19.34375 C 9.53125 -16.394531 10.113281 -13.832031 11.28125 -11.65625 C 12.445312 -9.488281 14.007812 -7.832031 15.96875 -6.6875 C 17.9375 -5.539062 20.113281 -4.96875 22.5 -4.96875 C 24.875 -4.96875 27.054688 -5.539062 29.046875 -6.6875 C 31.035156 -7.832031 32.613281 -9.488281 33.78125 -11.65625 C 34.945312 -13.832031 35.53125 -16.367188 35.53125 -19.265625 Z M 35.53125 -19.265625 "/></g></g></g><g fill="#ffffff" fill-opacity="1"><g transform="translate(112.997554, 74.169113)"><g><path d="M 3.015625 -19.265625 C 3.015625 -23.242188 3.804688 -26.710938 5.390625 -29.671875 C 6.984375 -32.640625 9.191406 -34.941406 12.015625 -36.578125 C 14.847656 -38.210938 18.082031 -39.03125 21.71875 -39.03125 C 26.4375 -39.03125 30.328125 -37.882812 33.390625 -35.59375 C 36.453125 -33.3125 38.472656 -30.132812 39.453125 -26.0625 L 32.59375 -26.0625 C 31.9375 -28.40625 30.660156 -30.253906 28.765625 -31.609375 C 26.867188 -32.960938 24.519531 -33.640625 21.71875 -33.640625 C 18.082031 -33.640625 15.140625 -32.390625 12.890625 -29.890625 C 10.648438 -27.390625 9.53125 -23.847656 9.53125 -19.265625 C 9.53125 -14.640625 10.648438 -11.066406 12.890625 -8.546875 C 15.140625 -6.023438 18.082031 -4.765625 21.71875 -4.765625 C 24.519531 -4.765625 26.851562 -5.414062 28.71875 -6.71875 C 30.59375 -8.03125 31.882812 -9.898438 32.59375 -12.328125 L 39.453125 -12.328125 C 38.421875 -8.410156 36.363281 -5.269531 33.28125 -2.90625 C 30.195312 -0.550781 26.34375 0.625 21.71875 0.625 C 18.082031 0.625 14.847656 -0.191406 12.015625 -1.828125 C 9.191406 -3.460938 6.984375 -5.773438 5.390625 -8.765625 C 3.804688 -11.753906 3.015625 -15.253906 3.015625 -19.265625 Z M 3.015625 -19.265625 "/></g></g></g><g fill="#ffffff" fill-opacity="1"><g transform="translate(155.53497, 74.169113)"><g><path d="M 40.4375 -20.671875 C 40.4375 -19.453125 40.363281 -18.164062 40.21875 -16.8125 L 9.53125 -16.8125 C 9.757812 -13.03125 11.050781 -10.078125 13.40625 -7.953125 C 15.769531 -5.828125 18.632812 -4.765625 22 -4.765625 C 24.757812 -4.765625 27.0625 -5.40625 28.90625 -6.6875 C 30.75 -7.976562 32.046875 -9.695312 32.796875 -11.84375 L 39.671875 -11.84375 C 38.640625 -8.15625 36.582031 -5.15625 33.5 -2.84375 C 30.414062 -0.53125 26.582031 0.625 22 0.625 C 18.351562 0.625 15.09375 -0.191406 12.21875 -1.828125 C 9.351562 -3.460938 7.101562 -5.785156 5.46875 -8.796875 C 3.832031 -11.804688 3.015625 -15.296875 3.015625 -19.265625 C 3.015625 -23.242188 3.804688 -26.726562 5.390625 -29.71875 C 6.984375 -32.707031 9.210938 -35.003906 12.078125 -36.609375 C 14.953125 -38.222656 18.257812 -39.03125 22 -39.03125 C 25.644531 -39.03125 28.867188 -38.234375 31.671875 -36.640625 C 34.472656 -35.054688 36.632812 -32.875 38.15625 -30.09375 C 39.675781 -27.3125 40.4375 -24.171875 40.4375 -20.671875 Z M 33.84375 -22 C 33.84375 -24.4375 33.304688 -26.53125 32.234375 -28.28125 C 31.160156 -30.03125 29.703125 -31.359375 27.859375 -32.265625 C 26.015625 -33.179688 23.96875 -33.640625 21.71875 -33.640625 C 18.5 -33.640625 15.753906 -32.609375 13.484375 -30.546875 C 11.222656 -28.492188 9.925781 -25.644531 9.59375 -22 Z M 33.84375 -22 "/></g></g></g></g></g></svg>