<svg xmlns="http://www.w3.org/2000/svg" xmlns:xlink="http://www.w3.org/1999/xlink" width="500" zoomAndPan="magnify" viewBox="0 0 375 374.999991" height="500" preserveAspectRatio="xMidYMid meet" version="1.2"><defs><clipPath id="974175be1d"><path d="M 113 80 L 244 80 L 244 228.832031 L 113 228.832031 Z M 113 80 "/></clipPath></defs><g id="58045e04ba"><rect x="0" width="375" y="0" height="374.999991" style="fill:#ffffff;fill-opacity:1;stroke:none;"/><rect x="0" width="375" y="0" height="374.999991" style="fill:#f4efeb;fill-opacity:1;stroke:none;"/><g clip-rule="nonzero" clip-path="url(#974175be1d)"><path style=" stroke:none;fill-rule:nonzero;fill:#231f20;fill-opacity:1;" d="M 240.691406 110.15625 C 235.003906 98.988281 225.257812 97.972656 219.640625 98.851562 C 216.980469 99.269531 214.371094 100.585938 212.023438 102.402344 C 210.160156 96.609375 206.925781 88.722656 203.734375 86.261719 C 199.605469 83.082031 191.414062 78.816406 180.992188 80.441406 C 179.605469 80.65625 178.265625 81.109375 176.988281 81.675781 C 172.050781 83.855469 167.78125 87.589844 164.078125 91.449219 C 162.257812 93.34375 160.546875 95.34375 158.988281 97.457031 C 156.941406 100.238281 155.394531 103.582031 154.511719 106.90625 C 153.917969 109.136719 153.351562 111.375 152.882812 113.632812 C 151.980469 118 151.09375 122.960938 152.359375 127.347656 C 153.109375 129.945312 154.019531 131.769531 155.082031 133.105469 C 154.757812 132.898438 154.398438 132.695312 153.984375 132.492188 C 150.914062 130.992188 147.335938 130.40625 144.285156 130.363281 C 144.742188 128.636719 145.171875 126.292969 145.523438 122.949219 C 146.46875 113.945312 146.402344 111.238281 143.898438 107.246094 C 141.394531 103.25 135.84375 103.25 133.8125 107.515625 C 131.78125 111.78125 131.171875 114.757812 131.375 115.976562 C 131.578125 117.195312 131.578125 117.195312 131.578125 117.195312 C 131.578125 117.195312 129.75 115.027344 126.367188 114.621094 C 122.984375 114.214844 121.019531 113.742188 119.191406 115.570312 C 117.367188 117.398438 117.027344 120.917969 118.988281 123.558594 C 120.953125 126.195312 124.8125 128.566406 127.585938 129.175781 C 130.359375 129.785156 133.339844 129.3125 133.949219 128.972656 C 133.949219 128.972656 127.585938 129.445312 123.117188 126.46875 C 118.652344 123.488281 117.367188 119.699219 118.988281 116.855469 C 120.613281 114.011719 123.726562 114.554688 125.824219 115.164062 C 127.925781 115.773438 129.683594 115.503906 131.105469 117.332031 C 132.527344 119.15625 132.59375 120.578125 133.203125 121.121094 C 133.8125 121.664062 133.8125 121.257812 133.472656 120.039062 C 133.136719 118.820312 132.253906 118.414062 132.1875 116.179688 C 132.121094 113.945312 132.59375 110.222656 134.355469 108.058594 C 136.113281 105.890625 138.550781 104.199219 141.191406 106.164062 C 143.832031 108.125 144.980469 111.238281 145.25 114.828125 C 145.507812 118.246094 144.71875 125.90625 143.238281 130.367188 C 141.09375 130.425781 139.300781 130.75 138.28125 131.207031 C 135.707031 132.355469 133.472656 133.371094 131.511719 134.457031 C 129.546875 135.539062 125.960938 138.179688 124.675781 139.398438 C 123.390625 140.613281 121.628906 144 121.222656 145.488281 C 120.847656 146.863281 120.238281 149.621094 120.179688 151.097656 C 120.167969 150.152344 120.171875 149.207031 120.207031 148.261719 C 120.273438 146.503906 121.15625 144.269531 118.921875 143.929688 C 116.6875 143.59375 115.671875 146.707031 115.0625 150.226562 C 114.453125 153.746094 112.957031 159.566406 114.519531 164.574219 C 116.058594 169.519531 118.453125 173.660156 121.28125 177.953125 C 122.113281 179.21875 123.257812 180.359375 124.183594 181.570312 C 125.445312 183.222656 126.746094 184.90625 127.789062 186.710938 C 128.53125 187.996094 130.023438 190.09375 130.023438 190.09375 C 130.023438 190.09375 129.480469 188.132812 126.300781 183.664062 C 123.117188 179.195312 118.378906 171.480469 117.09375 168.976562 C 115.808594 166.472656 114.589844 162.410156 114.523438 159.296875 C 114.453125 156.183594 115.199219 151.175781 115.941406 148.738281 C 116.285156 147.625 116.816406 146.355469 117.582031 145.472656 C 118.085938 144.894531 118.976562 144.539062 119.4375 145.371094 C 119.800781 146.019531 119.507812 146.597656 119.453125 147.261719 C 119.320312 148.914062 119.445312 150.539062 119.53125 152.1875 C 119.800781 157.46875 120.070312 162.953125 122.644531 165.863281 C 124.164062 167.582031 125.738281 169.300781 127.53125 170.75 C 128.933594 171.882812 133.117188 174.359375 133 170.667969 C 132.933594 168.503906 132.050781 164.78125 131.917969 162.070312 C 131.78125 159.363281 132.59375 157.128906 133.746094 156.316406 C 134.894531 155.507812 135.707031 154.964844 135.773438 156.722656 C 135.820312 157.914062 135.945312 159.339844 136.179688 160.5 C 136.398438 161.5625 136.988281 162.621094 137.265625 163.695312 C 137.875 166.066406 140.039062 172.832031 140.175781 177.367188 C 140.308594 181.902344 141.054688 185.289062 142.273438 187.453125 C 143.492188 189.621094 145.792969 193.410156 148.363281 196.253906 C 150.9375 199.097656 154.996094 203.96875 165.082031 208.777344 C 175.167969 213.582031 183.019531 215.679688 186.472656 217.441406 C 188.117188 218.277344 189.777344 219.105469 191.285156 220.007812 C 191.710938 221.929688 192.417969 224.707031 193.171875 225.96875 C 194.390625 228 195.675781 228.8125 197.097656 228.472656 C 198.519531 228.132812 198.925781 226.441406 196.558594 223.464844 C 195.351562 221.945312 193.839844 220.675781 192.023438 219.53125 C 191.789062 218.167969 191.574219 216.738281 191.277344 215.339844 C 190.261719 210.535156 189.042969 199.636719 189.382812 195.984375 C 189.671875 192.839844 190.617188 187.34375 192.039062 183.457031 C 193.496094 184.371094 194.84375 185.179688 196.082031 185.828125 C 200.078125 187.929688 206.167969 190.839844 211.246094 190.433594 C 213.210938 190.273438 215.1875 190.09375 217.117188 189.671875 C 222.503906 188.496094 227.132812 184.257812 227.964844 178.722656 C 228.574219 174.660156 227.964844 176.015625 227.964844 176.015625 C 227.964844 176.015625 226.746094 182.308594 224.105469 184.746094 C 221.464844 187.183594 217.335938 188.402344 214.496094 188.875 C 211.652344 189.347656 205.988281 189.957031 198.792969 185.898438 C 196.785156 184.765625 194.660156 183.5 192.535156 182.210938 C 192.613281 182.039062 192.6875 181.863281 192.765625 181.699219 C 194.59375 177.910156 201.5 167.148438 203.933594 163.222656 C 206.371094 159.296875 208.945312 155.101562 210.296875 150.769531 C 211.652344 146.433594 213.34375 139.800781 210.839844 134.183594 C 208.335938 128.566406 204.949219 126.128906 202.988281 125.589844 C 202.910156 125.566406 202.835938 125.550781 202.757812 125.535156 C 202.894531 124.558594 202.925781 123.5 202.773438 122.363281 C 203.632812 122.429688 204.441406 122.445312 205.152344 122.40625 C 208.945312 122.203125 212.734375 120.648438 213.953125 117.804688 C 215.171875 114.960938 214.496094 111.847656 213.277344 106.769531 C 213.046875 105.808594 212.707031 104.589844 212.285156 103.226562 C 214.574219 101.203125 216.996094 100.191406 221.464844 99.597656 C 229.113281 98.582031 236.761719 104.808594 239.539062 110.222656 C 242.3125 115.636719 243.328125 120.511719 240.890625 126.332031 C 238.457031 132.152344 233.242188 134.457031 229.046875 135.742188 C 225.25 136.90625 220.519531 137.230469 217.898438 136.132812 C 217.960938 135.589844 218.042969 134.972656 218.148438 134.253906 C 218.691406 130.597656 218.757812 126.46875 216.523438 125.996094 C 214.289062 125.519531 211.921875 129.109375 213.546875 132.628906 C 214.46875 134.632812 215.242188 136.085938 216.972656 136.90625 C 216.78125 138.832031 216.710938 141.039062 217.335938 142.375 C 218.351562 144.539062 219.164062 145.960938 222.007812 146.300781 C 224.851562 146.636719 227.761719 146.976562 228.234375 146.300781 C 228.234375 146.300781 224.039062 145.960938 221.941406 145.421875 C 219.839844 144.878906 218.21875 143.253906 217.945312 141.089844 C 217.769531 139.664062 217.679688 138.730469 217.792969 137.222656 C 219.035156 137.609375 220.691406 137.753906 223.023438 137.636719 C 229.722656 137.296875 235.003906 135.199219 238.183594 131.746094 C 241.367188 128.296875 246.375 121.324219 240.691406 110.15625 Z M 195.476562 223.394531 C 197.503906 225.898438 198.589844 228.808594 195.476562 227.050781 C 193.503906 225.9375 192.753906 223.464844 192.210938 220.585938 C 193.488281 221.421875 194.617188 222.335938 195.476562 223.394531 Z M 153.035156 123.421875 C 152.429688 116.035156 156.363281 103.253906 160.210938 97.363281 C 162.09375 94.476562 164.621094 91.957031 167.195312 89.6875 C 170.386719 86.875 173.925781 84.339844 177.820312 82.609375 C 178.921875 82.121094 180.066406 81.742188 181.234375 81.460938 C 184.652344 80.640625 188.195312 80.976562 191.617188 81.753906 C 195.304688 82.59375 199.058594 83.835938 202.089844 86.171875 C 203.753906 87.453125 205.132812 89.066406 206.101562 90.933594 C 207.859375 94.324219 209.871094 98.664062 211.363281 102.933594 C 209.03125 104.878906 206.992188 107.304688 205.492188 109.816406 C 204.019531 112.285156 202.542969 115.144531 201.121094 117.71875 C 200.851562 117.257812 200.558594 116.792969 200.214844 116.316406 C 196.898438 111.710938 192.160156 111.171875 190.738281 113.132812 C 189.316406 115.097656 189.113281 118.007812 192.023438 119.632812 C 193.566406 120.492188 196.09375 121.273438 198.695312 121.789062 C 197.980469 122.855469 197.289062 123.726562 196.625 124.300781 C 193.988281 126.601562 191.886719 129.175781 184.441406 132.222656 C 176.996094 135.265625 168.46875 137.703125 162.242188 136.214844 C 156.015625 134.726562 153.640625 130.8125 153.035156 123.421875 Z M 201.113281 119.167969 C 201.46875 119.925781 201.746094 120.683594 201.941406 121.378906 C 201.320312 121.328125 200.699219 121.257812 200.089844 121.167969 C 200.464844 120.5 200.796875 119.835938 201.113281 119.167969 Z M 199.191406 121.023438 C 197.484375 120.726562 195.882812 120.304688 194.59375 119.835938 C 190.492188 118.339844 189.722656 115.976562 191.277344 113.878906 C 192.835938 111.78125 195.40625 113.109375 198.113281 115.164062 C 199.171875 115.964844 200.054688 117.152344 200.734375 118.410156 C 200.210938 119.339844 199.695312 120.226562 199.191406 121.023438 Z M 160.007812 155.363281 C 160.3125 155.089844 160.71875 154.851562 161.113281 154.734375 C 161.304688 154.675781 161.503906 154.671875 161.699219 154.621094 C 162.367188 154.449219 163.023438 154.445312 163.691406 154.316406 C 164.066406 154.242188 164.382812 154.171875 164.746094 154.042969 C 165.066406 153.929688 165.386719 153.8125 165.699219 153.660156 C 166.359375 153.347656 166.804688 152.691406 167.019531 152.007812 C 167.113281 151.703125 167.238281 151.222656 167.0625 150.910156 C 166.828125 150.484375 166.207031 150.773438 165.929688 150.996094 C 165.453125 151.378906 164.957031 151.652344 164.566406 152.144531 C 164.53125 152.1875 163.859375 153.011719 164.148438 153.058594 C 164.628906 153.136719 165.121094 152.566406 165.414062 152.261719 C 165.558594 152.113281 166.476562 151.183594 166.4375 151.691406 C 166.414062 152.007812 166.152344 152.199219 165.921875 152.378906 C 165.691406 152.554688 165.511719 152.75 165.25 152.886719 C 164.652344 153.191406 163.996094 153.332031 163.355469 153.515625 C 163.019531 153.609375 162.691406 153.601562 162.359375 153.707031 C 161.980469 153.828125 161.582031 153.898438 161.203125 154.023438 C 160.921875 154.113281 160.5 154.234375 160.394531 154.546875 C 160.378906 154.332031 160.421875 154.050781 160.539062 153.867188 C 160.667969 153.660156 160.914062 153.527344 161.085938 153.355469 C 161.332031 153.109375 161.628906 152.914062 161.882812 152.664062 C 162.09375 152.449219 162.328125 152.230469 162.5625 152.035156 C 163.234375 151.484375 163.871094 150.914062 164.527344 150.34375 C 164.875 150.039062 165.199219 149.699219 165.457031 149.3125 C 165.585938 149.121094 165.679688 148.925781 165.753906 148.710938 C 165.792969 148.601562 165.988281 148.28125 165.988281 148.195312 C 166.410156 148.703125 166.886719 149.136719 167.335938 149.613281 C 167.6875 149.988281 168.058594 150.191406 168.492188 150.472656 C 168.839844 150.703125 169.175781 150.800781 169.574219 150.859375 C 169.914062 150.90625 170.355469 150.824219 170.679688 150.949219 C 171.441406 151.242188 171.660156 152.046875 171.515625 152.796875 C 171.496094 152.890625 171.457031 152.980469 171.410156 153.066406 C 171.285156 152.972656 171.152344 152.890625 171.007812 152.851562 C 170.308594 152.652344 168.847656 152.742188 168.527344 153.53125 C 168.351562 153.96875 168.40625 154.496094 168.644531 154.898438 C 169.054688 155.585938 169.832031 155.597656 170.402344 155.117188 C 170.683594 154.882812 171.078125 154.65625 171.289062 154.355469 C 171.417969 154.175781 171.511719 153.949219 171.59375 153.726562 C 171.777344 153.945312 171.925781 154.199219 172.082031 154.414062 C 172.433594 154.894531 172.683594 155.445312 172.796875 156.042969 C 172.609375 156.125 172.4375 156.382812 172.238281 156.835938 C 171.746094 157.945312 171.675781 159.257812 171.71875 160.445312 C 171.71875 160.496094 171.722656 160.546875 171.722656 160.597656 C 171.722656 160.753906 171.726562 160.90625 171.746094 161.058594 C 171.796875 161.980469 171.921875 162.847656 172.417969 163.695312 C 172.734375 164.238281 172.914062 165.027344 172.53125 165.882812 C 172.144531 166.742188 171.671875 167.328125 169.734375 168.273438 C 168.464844 168.894531 167.023438 168.863281 165.652344 168.898438 C 164.003906 168.941406 162.613281 168.519531 161.019531 168.136719 C 159.203125 167.703125 157.359375 167.132812 155.492188 167.019531 C 154.523438 166.960938 153.550781 167.015625 152.585938 167.113281 C 151.769531 167.191406 150.726562 167.511719 149.945312 167.429688 C 148.496094 167.28125 146.625 166.769531 145.253906 165.25 C 144.535156 164.460938 144.234375 163.730469 144.207031 163.082031 C 144.339844 163.058594 144.480469 163.039062 144.644531 163.019531 C 146.335938 162.816406 149.042969 162.816406 149.652344 162.816406 C 150.261719 162.816406 152.019531 162.613281 151.546875 161.257812 C 151.074219 159.90625 148.703125 159.363281 146.945312 159.566406 C 145.183594 159.769531 143.964844 161.121094 143.761719 161.867188 C 143.710938 162.066406 143.652344 162.332031 143.621094 162.640625 C 143.128906 162.746094 142.679688 162.882812 142.34375 163.085938 C 141.328125 163.695312 139.839844 164.914062 139.703125 165.386719 C 139.957031 164.492188 139.980469 163.667969 140.46875 162.816406 C 140.847656 162.160156 141.375 161.472656 141.890625 160.921875 C 143.40625 159.292969 145.867188 158.582031 148.027344 158.6875 C 150.871094 158.820312 152.292969 159.226562 153.105469 158.347656 C 153.917969 157.46875 154.660156 156.113281 154.121094 154.015625 C 153.578125 151.917969 152.96875 151.511719 152.019531 150.089844 C 150.679688 148.078125 150.039062 143.226562 152.359375 141.628906 C 153.441406 140.882812 154.730469 140.140625 155.609375 139.394531 C 156.101562 138.976562 157.316406 137.734375 157.289062 136.230469 C 157.507812 136.429688 157.765625 136.585938 158.046875 136.753906 C 159.183594 137.4375 160.355469 138.121094 161.304688 139.058594 C 162.027344 139.777344 162.609375 140.625 163.125 141.496094 C 163.355469 141.886719 163.585938 142.269531 163.816406 142.652344 C 164.078125 143.097656 164.339844 143.539062 164.589844 143.996094 C 164.902344 144.570312 165.1875 145.164062 165.386719 145.789062 C 165.539062 146.269531 165.785156 146.851562 165.742188 147.359375 C 165.652344 148.429688 164.992188 149.578125 164.136719 150.226562 C 163.359375 150.816406 162.632812 151.285156 161.957031 152.039062 C 161.398438 152.660156 160.320312 153.226562 159.988281 153.945312 C 159.824219 154.308594 159.75 155.027344 160.007812 155.363281 Z M 171.207031 153.371094 C 171.144531 153.449219 171.082031 153.523438 171.023438 153.59375 C 170.667969 154.023438 169.355469 155.636719 168.835938 154.53125 C 168.683594 154.203125 168.828125 153.84375 168.964844 153.542969 C 169.097656 153.25 169.5 153.132812 169.792969 153.117188 C 169.960938 153.105469 170.09375 153.164062 170.253906 153.183594 C 170.488281 153.210938 170.714844 153.179688 170.949219 153.25 C 171.042969 153.277344 171.125 153.320312 171.207031 153.371094 Z M 172.894531 157.515625 C 172.761719 157.957031 172.582031 158.347656 172.367188 158.75 C 172.339844 158.808594 172.304688 158.867188 172.269531 158.929688 C 172.269531 158.808594 172.28125 158.679688 172.304688 158.550781 C 172.386719 158.089844 172.460938 157.492188 172.621094 156.996094 C 172.691406 156.769531 172.804688 156.660156 172.90625 156.601562 C 172.960938 156.902344 172.992188 157.199219 172.894531 157.515625 Z M 173.402344 160.113281 C 173.457031 160.25 173.457031 160.535156 173.410156 160.671875 C 173.296875 161.019531 172.746094 160.949219 172.570312 160.65625 C 172.4375 160.441406 172.527344 160.007812 172.632812 159.710938 C 172.933594 159.824219 173.253906 159.707031 173.402344 160.113281 Z M 144.257812 162.523438 C 144.558594 161.148438 146.132812 160.230469 147.417969 160.039062 C 149.425781 159.742188 151.175781 160.957031 150.667969 161.867188 C 150.160156 162.777344 147.6875 162.140625 146.539062 162.273438 C 145.929688 162.34375 145.078125 162.402344 144.257812 162.523438 Z M 131.644531 135.761719 C 133.324219 134.382812 135.351562 133.367188 137.332031 132.492188 C 138.8125 131.839844 140.746094 131.359375 142.925781 131.242188 C 141.300781 135.441406 138.914062 138.265625 136.585938 139.328125 C 134.746094 140.171875 130.699219 141.152344 130.082031 138.140625 C 129.882812 137.164062 131 136.292969 131.644531 135.761719 Z M 140.039062 170.398438 C 139.328125 168.195312 138.621094 165.992188 137.988281 163.765625 C 137.644531 162.550781 137.089844 161.394531 136.851562 160.15625 C 136.625 158.941406 136.628906 157.636719 136.453125 156.453125 C 136.25 155.097656 135.574219 154.21875 133.675781 155.097656 C 131.78125 155.980469 131.039062 158.347656 131.171875 161.53125 C 131.273438 163.9375 131.652344 166.234375 131.988281 168.601562 C 132.175781 169.898438 132.347656 172.433594 130.292969 171.480469 C 128.398438 170.597656 124.132812 166.335938 123.320312 165.320312 C 122.328125 164.078125 121.511719 162.546875 121.304688 160.960938 C 121.132812 159.65625 120.820312 158.363281 120.628906 157.050781 C 120.496094 156.128906 120.402344 155.199219 120.328125 154.265625 C 120.773438 150.347656 121.488281 146.433594 123.1875 142.847656 C 123.648438 141.871094 124.503906 140.964844 125.152344 140.117188 C 125.851562 139.199219 126.890625 138.453125 127.855469 137.839844 C 128.265625 137.578125 128.691406 137.324219 129.074219 137.027344 C 129.160156 136.960938 130.085938 136.339844 130.078125 136.359375 C 129.765625 137.402344 128.957031 138.035156 129.59375 139.199219 C 131.0625 141.859375 133.664062 141.246094 136.113281 140.480469 C 138.28125 139.800781 140.648438 137.5 141.867188 135.605469 C 142.554688 134.535156 143.328125 133.511719 144.039062 131.207031 C 144.914062 131.210938 145.816406 131.273438 146.742188 131.410156 C 148.910156 131.722656 151.125 132.148438 153.15625 132.992188 C 154.339844 133.484375 155.816406 134.214844 156.496094 135.355469 C 157.234375 136.585938 156.414062 138.203125 155.335938 138.921875 C 153.914062 139.871094 151.003906 140.886719 150.53125 142.78125 C 150.007812 144.882812 149.910156 147.285156 150.757812 149.324219 C 151.472656 151.042969 153.304688 152.027344 153.507812 154.015625 C 153.710938 155.980469 153.644531 158.078125 152.019531 158.144531 C 150.394531 158.210938 146.945312 157.398438 143.222656 159.160156 C 139.5 160.917969 138.347656 166.671875 139.429688 167.351562 C 139.429688 167.351562 139.703125 167.484375 140.039062 166.671875 C 140.378906 165.859375 140.3125 165.457031 141.664062 164.507812 C 142.65625 163.8125 142.886719 163.445312 143.605469 163.21875 C 143.636719 163.980469 143.890625 164.898438 144.710938 165.792969 C 146.109375 167.324219 146.789062 167.546875 147.96875 167.746094 C 146.246094 168.09375 144.636719 168.636719 143.425781 169.449219 C 141.382812 170.8125 140.761719 172.027344 140.636719 172.882812 C 140.457031 171.90625 140.261719 171.078125 140.039062 170.398438 Z M 188.910156 203.359375 C 190.195312 213.105469 190.871094 217.980469 190.871094 217.980469 C 190.871094 217.980469 190.941406 218.359375 191.066406 218.960938 C 189.546875 218.089844 187.84375 217.28125 185.929688 216.492188 C 181.195312 214.527344 171.378906 211.078125 168.332031 209.519531 C 167.246094 208.960938 166.140625 208.433594 165.058594 207.867188 C 161.78125 206.164062 158.609375 204.242188 155.683594 201.980469 C 150.5625 198.023438 146.332031 192.808594 143.066406 187.246094 C 141.902344 185.257812 141.585938 183.230469 141.460938 180.953125 C 141.316406 178.257812 141.109375 176.011719 140.847656 174.1875 C 140.847656 174.1875 140.445312 170.875 145.929688 169.179688 C 151.414062 167.480469 155.472656 167.417969 162.175781 169.179688 C 168.875 170.9375 174.628906 172.5625 180.789062 176.285156 C 184.664062 178.628906 188.136719 180.972656 191.175781 182.910156 C 189.914062 186.402344 187.679688 194.039062 188.910156 203.359375 Z M 200.550781 166.742188 C 198.222656 169.828125 193.320312 177.945312 191.664062 181.679688 C 186.476562 178.511719 181.402344 175.289062 178.214844 173.578125 C 175.691406 172.226562 170.738281 170.695312 166.335938 169.5 C 166.609375 169.46875 166.886719 169.476562 167.160156 169.472656 C 167.886719 169.464844 168.5625 169.261719 169.277344 169.09375 C 169.847656 168.957031 170.289062 168.730469 170.808594 168.492188 C 171.324219 168.257812 171.820312 167.9375 172.214844 167.527344 C 172.589844 167.128906 173.011719 166.554688 173.199219 166.042969 C 173.5 165.226562 173.5 163.984375 172.914062 163.289062 C 172.722656 163.0625 172.660156 162.773438 172.65625 162.480469 C 172.949219 162.46875 173.253906 162.226562 173.527344 162.066406 C 173.9375 161.820312 174.316406 161.457031 174.46875 160.992188 C 174.640625 160.464844 174.488281 160.003906 174.15625 159.566406 C 173.929688 159.273438 173.695312 159.007812 173.308594 159.015625 C 173.226562 159.015625 173.132812 159.015625 173.035156 159.019531 C 173.144531 158.863281 173.25 158.707031 173.316406 158.527344 C 173.402344 158.292969 173.363281 158.128906 173.386719 157.890625 C 173.40625 157.6875 173.476562 157.488281 173.476562 157.285156 C 173.480469 156.671875 173.464844 155.972656 173.144531 155.433594 C 172.773438 154.804688 172.496094 154.148438 171.988281 153.613281 C 171.910156 153.53125 171.820312 153.4375 171.730469 153.347656 C 171.949219 152.714844 172.226562 151.917969 171.851562 151.285156 C 171.460938 150.617188 170.691406 150.453125 169.984375 150.335938 C 169.785156 150.300781 169.558594 150.285156 169.367188 150.230469 C 169.160156 150.175781 169.007812 150.027344 168.816406 149.949219 C 168.660156 149.886719 168.535156 149.875 168.386719 149.785156 C 168.046875 149.566406 167.738281 149.261719 167.496094 148.941406 C 167.066406 148.375 166.714844 147.695312 166.4375 147.042969 C 166.191406 146.46875 166.015625 145.871094 165.777344 145.292969 C 165.757812 145.246094 165.429688 144.378906 165.515625 144.386719 C 165.664062 144.394531 166.011719 144.679688 166.265625 144.777344 C 166.335938 145.3125 166.671875 145.75 167.386719 145.824219 C 168.449219 145.941406 169.53125 145.644531 170.636719 145.757812 C 170.917969 145.785156 171.199219 145.796875 171.480469 145.8125 C 172.460938 146.261719 173.707031 147.164062 174.359375 148.9375 C 175.53125 152.144531 175.800781 153.046875 175.890625 153.992188 C 175.980469 154.941406 175.847656 156.25 176.433594 157.105469 C 177.019531 157.964844 178.238281 158.191406 179.277344 157.828125 C 180.3125 157.46875 181.125 156.339844 181.441406 156 C 181.480469 155.960938 181.515625 155.910156 181.546875 155.855469 C 181.875 156.078125 182.238281 156.238281 182.660156 156.292969 C 184.015625 156.476562 184.195312 156.519531 184.195312 156.519531 C 184.195312 156.519531 183.566406 157.46875 184.421875 158.234375 C 185.277344 159.003906 185.863281 158.910156 186.359375 158.910156 C 186.859375 158.910156 187.355469 158.730469 187.355469 158.730469 C 187.355469 158.730469 187.171875 160.175781 188.121094 160.535156 C 189.070312 160.898438 189.292969 160.625 189.789062 160.355469 C 190.285156 160.085938 190.015625 159.902344 190.285156 160.085938 C 190.558594 160.265625 192.136719 160.71875 193.402344 161.664062 C 194.664062 162.613281 196.332031 163.785156 197.914062 164.144531 C 199.492188 164.507812 199.988281 164.640625 200.980469 164.144531 C 201.628906 163.820312 202.601562 163.214844 203.203125 162.828125 C 202.261719 164.328125 201.347656 165.6875 200.550781 166.742188 Z M 179.90625 152.550781 C 179.863281 151.46875 180.492188 150.527344 181.800781 151.105469 C 182.597656 151.457031 183.308594 152.574219 183.007812 153.460938 C 182.808594 154.042969 182.492188 153.949219 182.015625 154.023438 C 181.851562 154.050781 181.742188 154.09375 181.644531 154.160156 C 181.554688 154.21875 181.480469 154.292969 181.386719 154.394531 C 180.691406 155.128906 179.933594 153.132812 179.90625 152.550781 Z M 189.136719 155.542969 C 188.785156 156.003906 188.390625 156.429688 188.03125 156.882812 C 187.171875 157.964844 185.546875 158.101562 184.960938 157.648438 C 184.375 157.199219 184.691406 156.835938 185.367188 156.519531 C 186.042969 156.203125 186.765625 156.160156 187.984375 155.347656 C 188.539062 154.976562 189.125 154.710938 189.703125 154.371094 C 189.527344 154.476562 189.3125 155.308594 189.136719 155.542969 Z M 189.609375 157.421875 C 189.542969 157.9375 189.5625 158.484375 189.332031 158.960938 C 189.234375 159.164062 188.929688 159.824219 188.699219 159.839844 C 188.105469 159.878906 188.042969 158.976562 188.097656 158.566406 C 188.210938 157.691406 188.902344 157.003906 189.570312 156.515625 C 189.628906 156.8125 189.648438 157.125 189.609375 157.421875 Z M 205.019531 127.753906 C 207.457031 129.921875 210.433594 135.0625 211.042969 138.179688 C 211.652344 141.292969 210.636719 148.601562 208.675781 152.867188 C 207.621094 155.152344 206.082031 158.019531 204.496094 160.703125 C 203.558594 161.613281 201.953125 163 200.441406 163.46875 C 198.117188 164.195312 197.054688 162.671875 196.332031 162.484375 C 195.609375 162.296875 193.941406 160.808594 192.769531 160.265625 C 191.59375 159.726562 191.097656 159.8125 190.648438 159.273438 C 190.195312 158.730469 190.332031 158.6875 190.46875 157.015625 C 190.566406 155.800781 190.523438 154.582031 190.617188 153.367188 C 190.632812 153.152344 190.789062 152.839844 190.671875 152.640625 C 190.269531 151.957031 189.316406 153.277344 189.015625 153.511719 C 188.628906 153.8125 188.199219 154.089844 187.800781 154.382812 C 187.179688 154.839844 186.417969 155.507812 185.640625 155.664062 C 184.875 155.816406 183.960938 155.835938 183.199219 155.65625 C 182.859375 155.578125 181.792969 155.058594 182.394531 154.617188 C 182.617188 154.453125 182.980469 154.503906 183.222656 154.296875 C 183.449219 154.105469 183.570312 153.839844 183.621094 153.550781 C 183.734375 152.921875 183.375 152.226562 183.113281 151.683594 C 182.34375 150.113281 180.628906 150.382812 179.910156 150.878906 C 179.1875 151.375 179.140625 152.414062 179.820312 153.675781 C 180.175781 154.34375 180.570312 154.976562 181.0625 155.460938 C 180.792969 155.757812 180.4375 156.074219 180 156.292969 C 179.007812 156.792969 178.328125 156.835938 177.742188 156.699219 C 177.15625 156.566406 177.15625 157.105469 176.929688 155.753906 C 176.703125 154.398438 176.386719 152.007812 175.847656 150.5625 C 175.304688 149.121094 174.675781 147.96875 174.179688 147.132812 C 174.019531 146.867188 173.714844 146.546875 173.324219 146.246094 C 173.441406 146.273438 173.5625 146.296875 173.679688 146.300781 C 175.800781 146.347656 176.015625 142.808594 177.457031 141.839844 C 177.351562 142.792969 177.164062 143.703125 176.675781 144.554688 C 176.316406 145.1875 175.535156 145.738281 175.871094 146.546875 C 176.09375 146.148438 176.554688 145.925781 176.863281 145.605469 C 177.316406 145.136719 177.679688 144.558594 178.03125 144.015625 C 178.796875 142.832031 178.9375 140.890625 178.636719 139.542969 C 178.257812 139.929688 178.015625 140.449219 177.59375 140.84375 C 177.019531 141.386719 176.355469 141.832031 175.898438 142.492188 C 175.390625 143.222656 174.613281 145.277344 173.683594 145.515625 C 173.199219 145.636719 172.335938 145.1875 171.835938 145.101562 C 171.167969 144.988281 170.496094 144.933594 169.824219 144.875 C 169.167969 144.820312 167.71875 145.339844 167.351562 144.613281 C 166.765625 143.453125 168.523438 141.882812 169.265625 141.226562 C 170.652344 139.996094 172.605469 139.480469 174.371094 139.074219 C 175.15625 138.890625 175.957031 138.59375 176.722656 138.464844 C 175.648438 138.390625 174.519531 138.636719 173.476562 138.78125 C 171.660156 139.039062 169.941406 139.457031 168.527344 140.722656 C 167.710938 141.453125 166.996094 142.546875 166.507812 143.519531 C 166.417969 143.695312 166.359375 143.875 166.3125 144.054688 C 165.871094 143.488281 164.96875 142.78125 164.730469 142.457031 C 163.628906 140.949219 163.09375 139.261719 161.613281 138.058594 C 160.699219 137.3125 159.609375 136.628906 158.609375 135.925781 C 158.546875 135.878906 158.457031 135.804688 158.363281 135.71875 C 159.191406 136.121094 160.078125 136.421875 161.023438 136.6875 C 164.882812 137.769531 170.5 138.71875 180.585938 134.589844 C 190.667969 130.460938 194.582031 128.492188 198.25 123.894531 C 198.777344 123.234375 199.222656 122.59375 199.617188 121.960938 C 200.480469 122.109375 201.335938 122.230469 202.15625 122.308594 C 202.246094 122.824219 202.28125 123.277344 202.246094 123.625 C 202.195312 124.109375 202.121094 124.746094 202.011719 125.421875 C 200.414062 125.316406 198.996094 126.085938 198.65625 127.886719 C 198.25 130.054688 198.996094 130.664062 199.671875 130.597656 C 200.347656 130.527344 201.5 130.460938 202.3125 127.617188 C 202.421875 127.234375 202.523438 126.828125 202.609375 126.40625 C 203.339844 126.578125 204.152344 126.984375 205.019531 127.753906 Z M 201.847656 126.3125 C 201.527344 127.875 201.003906 129.40625 200.144531 129.648438 C 198.742188 130.046875 198.792969 128.023438 199.671875 127.144531 C 200.125 126.691406 200.886719 126.296875 201.847656 126.3125 Z M 213.414062 110.96875 C 214.195312 117.160156 213.691406 118.546875 209.824219 120.445312 C 207.960938 121.359375 205.3125 121.59375 202.605469 121.425781 C 202.390625 120.460938 202.027344 119.441406 201.480469 118.378906 C 202.664062 115.796875 203.855469 113.015625 206.914062 109.277344 C 208.816406 106.949219 210.246094 105.175781 211.660156 103.804688 C 212.496094 106.308594 213.132812 108.769531 213.414062 110.96875 Z M 217.339844 133.914062 C 217.285156 134.375 217.195312 135.003906 217.109375 135.71875 C 214.757812 134.148438 213.414062 129.710938 214.15625 128.632812 C 214.902344 127.550781 216.660156 126.46875 217.40625 128.023438 C 218.152344 129.582031 217.542969 132.085938 217.339844 133.914062 Z M 181.617188 154.105469 L 181.710938 154.039062 C 181.652344 154.046875 181.628906 154.070312 181.617188 154.105469 Z M 181.617188 154.105469 "/></g><g style="fill:#000000;fill-opacity:1;"><g transform="translate(141.409748, 260.988031)"><path style="stroke:none" d="M 9.875 -15.9375 C 9.832031 -15.9375 9.800781 -15.929688 9.78125 -15.921875 C 9.769531 -15.910156 9.742188 -15.90625 9.703125 -15.90625 C 9.523438 -15.90625 9.378906 -16.003906 9.265625 -16.203125 C 9.054688 -16.585938 8.867188 -17 8.703125 -17.4375 C 8.535156 -17.882812 8.34375 -18.304688 8.125 -18.703125 C 7.90625 -19.109375 7.59375 -19.4375 7.1875 -19.6875 C 6.78125 -19.9375 6.234375 -20.0625 5.546875 -20.0625 C 5.234375 -20.0625 4.859375 -19.984375 4.421875 -19.828125 C 3.992188 -19.679688 3.601562 -19.457031 3.25 -19.15625 C 2.894531 -18.863281 2.664062 -18.503906 2.5625 -18.078125 L 2.484375 -17.203125 C 2.441406 -16.785156 2.421875 -16.378906 2.421875 -15.984375 C 2.421875 -15.585938 2.410156 -15.195312 2.390625 -14.8125 C 2.390625 -13.988281 2.378906 -13.132812 2.359375 -12.25 C 2.347656 -11.363281 2.34375 -10.46875 2.34375 -9.5625 C 2.34375 -8.75 2.351562 -7.941406 2.375 -7.140625 C 2.40625 -6.347656 2.460938 -5.566406 2.546875 -4.796875 C 2.578125 -4.390625 2.617188 -4.003906 2.671875 -3.640625 C 2.722656 -3.273438 2.8125 -2.898438 2.9375 -2.515625 C 3.15625 -1.898438 3.5 -1.46875 3.96875 -1.21875 C 4.4375 -0.976562 4.960938 -0.859375 5.546875 -0.859375 C 6.097656 -0.859375 6.695312 -0.984375 7.34375 -1.234375 C 7.988281 -1.484375 8.476562 -1.863281 8.8125 -2.375 C 8.925781 -2.539062 9 -2.804688 9.03125 -3.171875 C 9.070312 -3.535156 9.117188 -3.878906 9.171875 -4.203125 C 9.234375 -4.535156 9.34375 -4.703125 9.5 -4.703125 C 9.84375 -4.703125 10.046875 -4.578125 10.109375 -4.328125 C 10.179688 -4.078125 10.21875 -3.816406 10.21875 -3.546875 C 10.21875 -2.390625 9.796875 -1.457031 8.953125 -0.75 C 8.117188 -0.0390625 7.019531 0.3125 5.65625 0.3125 C 4.3125 0.3125 3.257812 -0.195312 2.5 -1.21875 C 1.738281 -2.238281 1.359375 -3.515625 1.359375 -5.046875 C 1.359375 -5.546875 1.351562 -6.050781 1.34375 -6.5625 C 1.332031 -7.070312 1.304688 -7.578125 1.265625 -8.078125 L 1.15625 -12.09375 C 1.132812 -12.25 1.125 -12.398438 1.125 -12.546875 C 1.125 -12.691406 1.125 -12.84375 1.125 -13 C 1.125 -13.726562 1.148438 -14.46875 1.203125 -15.21875 C 1.265625 -15.96875 1.316406 -16.707031 1.359375 -17.4375 C 1.398438 -18.550781 1.742188 -19.429688 2.390625 -20.078125 C 3.046875 -20.722656 3.988281 -21.09375 5.21875 -21.1875 C 5.601562 -21.175781 5.96875 -21.164062 6.3125 -21.15625 C 6.664062 -21.144531 7.035156 -21.0625 7.421875 -20.90625 C 7.859375 -20.707031 8.289062 -20.382812 8.71875 -19.9375 C 9.144531 -19.5 9.492188 -19.007812 9.765625 -18.46875 C 10.046875 -17.9375 10.1875 -17.429688 10.1875 -16.953125 C 10.1875 -16.585938 10.082031 -16.25 9.875 -15.9375 Z M 9.875 -15.9375 "/></g></g><g style="fill:#000000;fill-opacity:1;"><g transform="translate(153.017524, 260.988031)"><path style="stroke:none" d="M 9.875 -20.734375 C 9.914062 -20.785156 10.019531 -20.8125 10.1875 -20.8125 C 10.40625 -20.8125 10.585938 -20.773438 10.734375 -20.703125 C 10.890625 -20.628906 10.96875 -20.539062 10.96875 -20.4375 C 10.96875 -20.425781 10.960938 -20.414062 10.953125 -20.40625 C 10.941406 -20.394531 10.9375 -20.378906 10.9375 -20.359375 L 8.75 -11.296875 L 8.75 -11.265625 L 8.71875 -11.09375 C 8.625 -10.457031 8.4375 -9.640625 8.15625 -8.640625 C 7.875 -7.648438 7.617188 -6.644531 7.390625 -5.625 C 7.160156 -4.664062 6.945312 -3.867188 6.75 -3.234375 C 6.5625 -2.597656 6.296875 -2.039062 5.953125 -1.5625 C 5.484375 -0.84375 4.921875 -0.296875 4.265625 0.078125 C 3.617188 0.453125 2.925781 0.640625 2.1875 0.640625 C 2.039062 0.640625 1.890625 0.625 1.734375 0.59375 C 1.578125 0.5625 1.421875 0.535156 1.265625 0.515625 L 1.0625 0.46875 C 0.800781 0.40625 0.554688 0.328125 0.328125 0.234375 C 0.109375 0.140625 0.0078125 -0.00390625 0.03125 -0.203125 L 0.0625 -0.3125 C 0.15625 -0.46875 0.296875 -0.628906 0.484375 -0.796875 C 0.679688 -0.972656 0.875 -1.035156 1.0625 -0.984375 C 1.21875 -0.960938 1.316406 -0.925781 1.359375 -0.875 C 1.398438 -0.832031 1.492188 -0.789062 1.640625 -0.75 C 1.796875 -0.707031 1.941406 -0.675781 2.078125 -0.65625 C 2.210938 -0.644531 2.335938 -0.640625 2.453125 -0.640625 C 2.953125 -0.640625 3.363281 -0.753906 3.6875 -0.984375 C 4.019531 -1.210938 4.304688 -1.492188 4.546875 -1.828125 C 4.785156 -2.171875 5.03125 -2.476562 5.28125 -2.75 C 5.5 -3.007812 5.632812 -3.394531 5.6875 -3.90625 C 5.75 -4.414062 5.882812 -5.144531 6.09375 -6.09375 C 6.019531 -6.25 5.957031 -6.398438 5.90625 -6.546875 C 5.851562 -6.703125 5.816406 -6.835938 5.796875 -6.953125 L 5.75 -7.21875 C 5.65625 -7.71875 5.519531 -8.210938 5.34375 -8.703125 C 5.164062 -9.191406 5.007812 -9.675781 4.875 -10.15625 C 4.59375 -11.28125 4.265625 -12.34375 3.890625 -13.34375 C 3.523438 -14.34375 3.171875 -15.390625 2.828125 -16.484375 C 2.648438 -17.066406 2.460938 -17.632812 2.265625 -18.1875 C 2.066406 -18.75 1.914062 -19.367188 1.8125 -20.046875 C 1.800781 -20.078125 1.796875 -20.171875 1.796875 -20.328125 C 1.796875 -20.597656 1.925781 -20.769531 2.1875 -20.84375 L 2.390625 -20.84375 C 2.523438 -20.84375 2.640625 -20.820312 2.734375 -20.78125 C 2.835938 -20.75 2.90625 -20.65625 2.9375 -20.5 L 3.296875 -19.515625 C 3.484375 -18.960938 3.632812 -18.472656 3.75 -18.046875 L 4.625 -15.046875 C 4.90625 -13.960938 5.253906 -12.867188 5.671875 -11.765625 C 6.085938 -10.660156 6.429688 -9.554688 6.703125 -8.453125 C 6.972656 -9.554688 7.296875 -10.6875 7.671875 -11.84375 C 8.046875 -13 8.328125 -14.125 8.515625 -15.21875 C 8.628906 -15.832031 8.753906 -16.4375 8.890625 -17.03125 C 9.023438 -17.632812 9.140625 -18.253906 9.234375 -18.890625 C 9.316406 -19.328125 9.398438 -19.675781 9.484375 -19.9375 C 9.566406 -20.195312 9.695312 -20.460938 9.875 -20.734375 Z M 9.875 -20.734375 "/></g></g><g style="fill:#000000;fill-opacity:1;"><g transform="translate(164.365416, 260.988031)"><path style="stroke:none" d="M 2.890625 0.0625 L 2.828125 0.546875 C 2.828125 0.992188 2.835938 1.375 2.859375 1.6875 C 2.878906 2.007812 2.890625 2.421875 2.890625 2.921875 C 2.890625 3.285156 2.84375 3.628906 2.75 3.953125 C 2.664062 4.285156 2.460938 4.453125 2.140625 4.453125 C 1.890625 4.453125 1.734375 4.269531 1.671875 3.90625 C 1.617188 3.550781 1.59375 3.210938 1.59375 2.890625 C 1.59375 2.523438 1.597656 2.191406 1.609375 1.890625 C 1.628906 1.585938 1.640625 1.390625 1.640625 1.296875 L 1.640625 1.125 C 1.617188 0.5625 1.582031 0.175781 1.53125 -0.03125 C 1.488281 -0.238281 1.453125 -0.382812 1.421875 -0.46875 C 1.398438 -0.5625 1.390625 -0.703125 1.390625 -0.890625 C 1.390625 -0.992188 1.445312 -1.046875 1.5625 -1.046875 C 1.675781 -1.054688 1.734375 -1.101562 1.734375 -1.1875 L 1.765625 -1.15625 L 1.765625 -1.1875 L 2.34375 -1.09375 C 2.875 -1.15625 3.25 -1.304688 3.46875 -1.546875 C 3.695312 -1.785156 3.867188 -2.078125 3.984375 -2.421875 C 4.097656 -2.765625 4.242188 -3.113281 4.421875 -3.46875 C 4.648438 -3.90625 4.800781 -4.488281 4.875 -5.21875 C 4.957031 -5.957031 5.015625 -6.734375 5.046875 -7.546875 C 5.085938 -8.367188 5.15625 -9.132812 5.25 -9.84375 C 5.289062 -10.1875 5.320312 -10.554688 5.34375 -10.953125 C 5.363281 -11.347656 5.375 -11.796875 5.375 -12.296875 L 5.375 -12.96875 C 5.351562 -13.125 5.34375 -13.3125 5.34375 -13.53125 C 5.34375 -13.75 5.34375 -13.984375 5.34375 -14.234375 L 5.34375 -16.046875 C 5.34375 -16.066406 5.34375 -16.109375 5.34375 -16.171875 C 5.34375 -16.242188 5.351562 -16.347656 5.375 -16.484375 L 5.453125 -17.703125 C 5.453125 -17.835938 5.457031 -17.957031 5.46875 -18.0625 C 5.476562 -18.164062 5.484375 -18.273438 5.484375 -18.390625 C 5.484375 -18.722656 5.460938 -19.015625 5.421875 -19.265625 C 5.390625 -19.515625 5.375 -19.734375 5.375 -19.921875 C 5.375 -20.210938 5.410156 -20.445312 5.484375 -20.625 C 5.566406 -20.8125 5.671875 -20.90625 5.796875 -20.90625 C 5.859375 -20.90625 5.945312 -20.882812 6.0625 -20.84375 L 6.265625 -20.84375 C 6.609375 -20.820312 7.054688 -20.789062 7.609375 -20.75 C 8.160156 -20.71875 8.703125 -20.703125 9.234375 -20.703125 C 9.472656 -20.703125 9.707031 -20.703125 9.9375 -20.703125 C 10.164062 -20.703125 10.484375 -20.710938 10.890625 -20.734375 C 11.304688 -20.753906 11.898438 -20.789062 12.671875 -20.84375 L 12.671875 -20.8125 L 12.703125 -20.84375 C 12.742188 -20.65625 12.773438 -20.46875 12.796875 -20.28125 C 12.816406 -20.101562 12.832031 -19.914062 12.84375 -19.71875 L 12.796875 -18.53125 L 12.796875 -18.359375 C 12.773438 -18.085938 12.757812 -17.742188 12.75 -17.328125 C 12.738281 -16.921875 12.734375 -16.445312 12.734375 -15.90625 L 12.734375 -14.375 C 12.734375 -14.09375 12.726562 -13.660156 12.71875 -13.078125 C 12.707031 -12.503906 12.695312 -11.875 12.6875 -11.1875 C 12.675781 -10.5 12.664062 -9.851562 12.65625 -9.25 C 12.644531 -8.644531 12.640625 -8.160156 12.640625 -7.796875 C 12.640625 -7.085938 12.664062 -6.394531 12.71875 -5.71875 C 12.769531 -5.039062 12.796875 -4.429688 12.796875 -3.890625 L 12.796875 -3.296875 C 12.796875 -2.890625 12.765625 -2.503906 12.703125 -2.140625 C 12.648438 -1.773438 12.570312 -1.425781 12.46875 -1.09375 C 12.644531 -1.132812 12.867188 -1.164062 13.140625 -1.1875 C 13.410156 -1.21875 13.71875 -1.234375 14.0625 -1.234375 C 14.21875 -1.234375 14.328125 -1.140625 14.390625 -0.953125 C 14.460938 -0.773438 14.5 -0.546875 14.5 -0.265625 C 14.5 -0.0664062 14.476562 0.222656 14.4375 0.609375 C 14.394531 0.992188 14.375 1.40625 14.375 1.84375 C 14.375 1.957031 14.378906 2.066406 14.390625 2.171875 C 14.398438 2.285156 14.40625 2.410156 14.40625 2.546875 L 14.34375 4.1875 C 14.21875 4.320312 14.054688 4.390625 13.859375 4.390625 C 13.566406 4.390625 13.382812 4.28125 13.3125 4.0625 C 13.238281 3.851562 13.203125 3.644531 13.203125 3.4375 C 13.203125 2.988281 13.207031 2.691406 13.21875 2.546875 C 13.238281 2.410156 13.25 2.332031 13.25 2.3125 L 13.25 2.25 L 13.21875 0.78125 C 13.21875 0.644531 13.222656 0.515625 13.234375 0.390625 C 13.242188 0.265625 13.257812 0.132812 13.28125 0 L 12.125 0 C 11.988281 0 11.742188 0.00390625 11.390625 0.015625 C 11.035156 0.0234375 10.632812 0.03125 10.1875 0.03125 C 10.039062 0.03125 9.878906 0.03125 9.703125 0.03125 C 9.523438 0.03125 9.351562 0.0195312 9.1875 0 L 7.5 0 C 7.125 0.0195312 6.539062 0.0351562 5.75 0.046875 C 4.957031 0.0546875 4.1875 0.0625 3.4375 0.0625 Z M 11.3125 -8.71875 L 11.375 -9.90625 C 11.457031 -10.632812 11.503906 -11.316406 11.515625 -11.953125 C 11.535156 -12.585938 11.546875 -13.234375 11.546875 -13.890625 L 11.546875 -19.609375 L 11 -19.609375 C 10.320312 -19.609375 9.617188 -19.613281 8.890625 -19.625 C 8.160156 -19.644531 7.601562 -19.65625 7.21875 -19.65625 L 6.578125 -19.65625 C 6.597656 -19.53125 6.613281 -19.40625 6.625 -19.28125 C 6.632812 -19.15625 6.640625 -19.023438 6.640625 -18.890625 C 6.640625 -18.398438 6.613281 -17.972656 6.5625 -17.609375 C 6.519531 -17.242188 6.5 -16.957031 6.5 -16.75 L 6.5 -16.203125 C 6.5 -15.773438 6.519531 -15.253906 6.5625 -14.640625 C 6.613281 -14.023438 6.640625 -13.535156 6.640625 -13.171875 L 6.640625 -12.46875 C 6.640625 -11.9375 6.59375 -11.351562 6.5 -10.71875 C 6.414062 -10.09375 6.375 -9.570312 6.375 -9.15625 C 6.375 -9.132812 6.378906 -9.113281 6.390625 -9.09375 C 6.398438 -9.070312 6.40625 -9.0625 6.40625 -9.0625 L 6.09375 -5.71875 C 6.019531 -4.851562 5.890625 -4.015625 5.703125 -3.203125 C 5.515625 -2.398438 5.15625 -1.6875 4.625 -1.0625 L 5.71875 -1.0625 C 5.875 -1.0625 6.1875 -1.054688 6.65625 -1.046875 C 7.125 -1.046875 7.660156 -1.039062 8.265625 -1.03125 C 8.878906 -1.019531 9.445312 -1.007812 9.96875 -1 C 10.5 -0.988281 10.878906 -0.984375 11.109375 -0.984375 C 11.328125 -1.398438 11.453125 -1.8125 11.484375 -2.21875 C 11.523438 -2.625 11.546875 -3.179688 11.546875 -3.890625 C 11.546875 -4.609375 11.53125 -5.363281 11.5 -6.15625 C 11.476562 -6.957031 11.414062 -7.8125 11.3125 -8.71875 Z M 11.3125 -8.71875 "/></g></g><g style="fill:#000000;fill-opacity:1;"><g transform="translate(180.24669, 260.988031)"><path style="stroke:none" d="M 2.34375 -14.203125 C 2.363281 -15.421875 2.390625 -16.539062 2.421875 -17.5625 C 2.460938 -18.59375 2.503906 -19.570312 2.546875 -20.5 C 2.554688 -20.695312 2.679688 -20.84375 2.921875 -20.9375 L 3.03125 -20.9375 C 3.351562 -20.9375 3.550781 -20.875 3.625 -20.75 C 3.707031 -20.625 3.769531 -20.425781 3.8125 -20.15625 L 3.5 -10.734375 C 4.019531 -11.296875 4.597656 -11.941406 5.234375 -12.671875 C 5.878906 -13.398438 6.535156 -14.132812 7.203125 -14.875 C 7.867188 -15.625 8.472656 -16.304688 9.015625 -16.921875 C 9.203125 -17.128906 9.398438 -17.328125 9.609375 -17.515625 C 9.828125 -17.710938 10.039062 -17.898438 10.25 -18.078125 C 10.957031 -18.671875 11.488281 -19.429688 11.84375 -20.359375 C 12.1875 -20.796875 12.578125 -21.015625 13.015625 -21.015625 C 13.171875 -21.015625 13.316406 -20.988281 13.453125 -20.9375 C 13.398438 -20.125 13.363281 -19.3125 13.34375 -18.5 C 13.320312 -17.695312 13.3125 -16.863281 13.3125 -16 L 13.3125 -13.890625 C 13.3125 -13.410156 13.3125 -12.9375 13.3125 -12.46875 C 13.3125 -12.007812 13.289062 -11.566406 13.25 -11.140625 C 13.21875 -10.253906 13.1875 -9.390625 13.15625 -8.546875 C 13.125 -7.703125 13.109375 -6.863281 13.109375 -6.03125 C 13.109375 -5.207031 13.097656 -4.347656 13.078125 -3.453125 C 13.054688 -2.554688 13.046875 -1.460938 13.046875 -0.171875 C 13.023438 -0.078125 12.972656 -0.015625 12.890625 0.015625 C 12.804688 0.046875 12.71875 0.0625 12.625 0.0625 C 12.40625 0.0625 12.25 0.0195312 12.15625 -0.0625 C 12.019531 -0.175781 11.914062 -0.300781 11.84375 -0.4375 C 11.78125 -0.570312 11.75 -0.773438 11.75 -1.046875 C 11.75 -1.273438 11.757812 -1.414062 11.78125 -1.46875 C 11.851562 -1.945312 11.910156 -2.46875 11.953125 -3.03125 C 11.992188 -3.59375 12.015625 -4.304688 12.015625 -5.171875 C 12.015625 -6.285156 12.019531 -7.359375 12.03125 -8.390625 C 12.050781 -9.421875 12.082031 -10.414062 12.125 -11.375 C 12.144531 -11.875 12.160156 -12.375 12.171875 -12.875 C 12.179688 -13.375 12.1875 -13.882812 12.1875 -14.40625 C 12.1875 -15.082031 12.175781 -15.757812 12.15625 -16.4375 C 12.132812 -17.125 12.101562 -17.832031 12.0625 -18.5625 L 4.015625 -9.4375 C 3.835938 -9.34375 3.726562 -9.210938 3.6875 -9.046875 C 3.65625 -8.890625 3.640625 -8.734375 3.640625 -8.578125 C 3.640625 -7.535156 3.550781 -6.273438 3.375 -4.796875 C 3.375 -4.753906 3.367188 -4.71875 3.359375 -4.6875 C 3.347656 -4.664062 3.34375 -4.632812 3.34375 -4.59375 C 3.3125 -4.1875 3.28125 -3.847656 3.25 -3.578125 C 3.21875 -3.304688 3.203125 -2.960938 3.203125 -2.546875 C 3.203125 -1.960938 3.234375 -1.382812 3.296875 -0.8125 L 3.328125 -0.234375 C 3.203125 -0.00390625 2.941406 0.109375 2.546875 0.109375 L 2.421875 0.109375 C 2.148438 -0.00390625 1.988281 -0.28125 1.9375 -0.71875 C 1.914062 -0.875 1.90625 -1.023438 1.90625 -1.171875 C 1.90625 -1.316406 1.90625 -1.460938 1.90625 -1.609375 C 1.90625 -1.941406 1.921875 -2.257812 1.953125 -2.5625 C 1.984375 -2.875 2.015625 -3.191406 2.046875 -3.515625 C 2.128906 -4.023438 2.1875 -4.554688 2.21875 -5.109375 C 2.257812 -5.671875 2.28125 -6.46875 2.28125 -7.5 C 2.300781 -8.539062 2.316406 -9.613281 2.328125 -10.71875 C 2.335938 -11.832031 2.34375 -12.992188 2.34375 -14.203125 Z M 2.34375 -14.203125 "/></g></g><g style="fill:#000000;fill-opacity:1;"><g transform="translate(195.030716, 260.988031)"><path style="stroke:none" d="M 13.421875 -20.390625 C 14.035156 -20.160156 14.628906 -19.8125 15.203125 -19.34375 C 15.785156 -18.882812 16.210938 -18.316406 16.484375 -17.640625 C 16.753906 -16.929688 16.984375 -16.300781 17.171875 -15.75 C 17.367188 -15.195312 17.503906 -14.703125 17.578125 -14.265625 C 17.710938 -13.398438 17.773438 -12.488281 17.765625 -11.53125 C 17.765625 -10.582031 17.789062 -9.617188 17.84375 -8.640625 C 17.84375 -7.554688 17.679688 -6.5 17.359375 -5.46875 C 17.046875 -4.4375 16.546875 -3.46875 15.859375 -2.5625 C 15.390625 -1.875 14.800781 -1.347656 14.09375 -0.984375 L 13 -0.28125 L 11.578125 0.28125 C 10.890625 0.457031 10.1875 0.546875 9.46875 0.546875 C 9.039062 0.546875 8.609375 0.519531 8.171875 0.46875 C 7.359375 0.332031 6.640625 0.113281 6.015625 -0.1875 C 5.390625 -0.488281 4.828125 -0.820312 4.328125 -1.1875 C 3.441406 -1.976562 2.753906 -2.878906 2.265625 -3.890625 C 1.773438 -4.910156 1.429688 -5.988281 1.234375 -7.125 C 1.046875 -8.257812 0.953125 -9.40625 0.953125 -10.5625 C 1.066406 -12.28125 1.316406 -13.832031 1.703125 -15.21875 C 2.085938 -16.601562 2.664062 -17.796875 3.4375 -18.796875 C 3.863281 -19.335938 4.367188 -19.769531 4.953125 -20.09375 C 5.535156 -20.425781 6.132812 -20.664062 6.75 -20.8125 C 7.695312 -21.0625 8.601562 -21.1875 9.46875 -21.1875 C 9.582031 -21.1875 9.691406 -21.1875 9.796875 -21.1875 C 9.910156 -21.1875 10.015625 -21.179688 10.109375 -21.171875 C 10.609375 -21.109375 11.117188 -21.015625 11.640625 -20.890625 C 12.171875 -20.765625 12.765625 -20.597656 13.421875 -20.390625 Z M 12.5 -19.515625 C 11.957031 -19.609375 11.460938 -19.695312 11.015625 -19.78125 C 10.578125 -19.875 10.117188 -19.921875 9.640625 -19.921875 C 9.367188 -19.921875 9.117188 -19.90625 8.890625 -19.875 C 8.660156 -19.851562 8.390625 -19.8125 8.078125 -19.75 C 5.140625 -19.207031 3.351562 -17.484375 2.71875 -14.578125 C 2.5625 -13.804688 2.453125 -13.035156 2.390625 -12.265625 C 2.335938 -11.492188 2.265625 -10.742188 2.171875 -10.015625 L 2.171875 -9.609375 C 2.171875 -9.109375 2.226562 -8.5625 2.34375 -7.96875 C 2.457031 -7.375 2.582031 -6.75 2.71875 -6.09375 C 2.863281 -5.363281 3.113281 -4.707031 3.46875 -4.125 C 3.832031 -3.550781 4.367188 -2.9375 5.078125 -2.28125 C 5.410156 -1.988281 5.738281 -1.738281 6.0625 -1.53125 C 6.382812 -1.320312 6.789062 -1.164062 7.28125 -1.0625 C 7.664062 -0.988281 8.035156 -0.929688 8.390625 -0.890625 C 8.742188 -0.859375 9.082031 -0.84375 9.40625 -0.84375 C 9.5625 -0.84375 9.71875 -0.84375 9.875 -0.84375 C 10.03125 -0.851562 10.1875 -0.867188 10.34375 -0.890625 C 11.007812 -0.953125 11.539062 -1.050781 11.9375 -1.1875 C 12.332031 -1.320312 12.703125 -1.519531 13.046875 -1.78125 C 13.398438 -2.050781 13.84375 -2.398438 14.375 -2.828125 C 14.53125 -2.984375 14.691406 -3.160156 14.859375 -3.359375 C 15.023438 -3.566406 15.203125 -3.796875 15.390625 -4.046875 C 15.597656 -4.347656 15.785156 -4.75 15.953125 -5.25 C 16.117188 -5.75 16.28125 -6.382812 16.4375 -7.15625 C 16.550781 -7.738281 16.609375 -8.347656 16.609375 -8.984375 C 16.609375 -9.234375 16.609375 -9.503906 16.609375 -9.796875 C 16.617188 -10.097656 16.625 -10.40625 16.625 -10.71875 C 16.625 -11.0625 16.613281 -11.414062 16.59375 -11.78125 C 16.582031 -12.144531 16.53125 -12.507812 16.4375 -12.875 L 16.171875 -14.4375 L 15.9375 -15.25 C 15.632812 -16.363281 15.238281 -17.265625 14.75 -17.953125 C 14.269531 -18.648438 13.519531 -19.171875 12.5 -19.515625 Z M 12.5 -19.515625 "/></g></g><g style="fill:#000000;fill-opacity:1;"><g transform="translate(222.028883, 260.988031)"><path style="stroke:none" d="M 9.015625 -12.46875 C 8.859375 -12.1875 8.726562 -11.976562 8.625 -11.84375 C 8.53125 -11.707031 8.410156 -11.585938 8.265625 -11.484375 C 8.128906 -11.390625 7.90625 -11.238281 7.59375 -11.03125 L 7.3125 -10.859375 L 7.59375 -10.6875 C 7.90625 -10.488281 8.128906 -10.335938 8.265625 -10.234375 C 8.410156 -10.128906 8.53125 -10.015625 8.625 -9.890625 C 8.726562 -9.765625 8.859375 -9.546875 9.015625 -9.234375 C 9.546875 -7.984375 9.8125 -6.664062 9.8125 -5.28125 C 9.8125 -4.914062 9.785156 -4.550781 9.734375 -4.1875 C 9.691406 -3.820312 9.613281 -3.46875 9.5 -3.125 C 9.320312 -2.632812 9.054688 -2.140625 8.703125 -1.640625 C 8.347656 -1.140625 7.929688 -0.726562 7.453125 -0.40625 C 7.117188 -0.15625 6.773438 0.0078125 6.421875 0.09375 C 6.066406 0.1875 5.695312 0.234375 5.3125 0.234375 C 4.519531 0.234375 3.796875 0.171875 3.140625 0.046875 C 2.492188 -0.078125 1.878906 -0.46875 1.296875 -1.125 C 1.140625 -1.28125 0.972656 -1.46875 0.796875 -1.6875 C 0.628906 -1.90625 0.546875 -2.125 0.546875 -2.34375 C 0.546875 -2.550781 0.625 -2.679688 0.78125 -2.734375 C 0.9375 -2.796875 1.050781 -2.90625 1.125 -3.0625 C 1.394531 -2.726562 1.65625 -2.414062 1.90625 -2.125 C 2.15625 -1.84375 2.492188 -1.597656 2.921875 -1.390625 C 3.242188 -1.191406 3.582031 -1.050781 3.9375 -0.96875 C 4.289062 -0.894531 4.65625 -0.859375 5.03125 -0.859375 C 5.8125 -0.859375 6.539062 -1.125 7.21875 -1.65625 C 7.894531 -2.1875 8.316406 -2.816406 8.484375 -3.546875 C 8.585938 -3.953125 8.648438 -4.3125 8.671875 -4.625 C 8.703125 -4.945312 8.71875 -5.300781 8.71875 -5.6875 C 8.71875 -6.226562 8.703125 -6.664062 8.671875 -7 C 8.648438 -7.332031 8.550781 -7.6875 8.375 -8.0625 C 8.175781 -8.425781 7.96875 -8.773438 7.75 -9.109375 C 7.53125 -9.441406 7.242188 -9.722656 6.890625 -9.953125 C 6.546875 -10.191406 6.054688 -10.3125 5.421875 -10.3125 L 5 -10.3125 C 4.476562 -10.34375 4.125 -10.359375 3.9375 -10.359375 C 3.757812 -10.359375 3.664062 -10.375 3.65625 -10.40625 C 3.644531 -10.4375 3.640625 -10.5 3.640625 -10.59375 C 3.640625 -10.6875 3.5625 -10.851562 3.40625 -11.09375 C 3.40625 -11.257812 3.597656 -11.363281 3.984375 -11.40625 L 4.046875 -11.46875 C 4.203125 -11.46875 4.359375 -11.46875 4.515625 -11.46875 C 4.679688 -11.46875 4.84375 -11.457031 5 -11.4375 L 5.421875 -11.4375 C 6.054688 -11.4375 6.546875 -11.550781 6.890625 -11.78125 C 7.242188 -12.007812 7.53125 -12.289062 7.75 -12.625 C 7.96875 -12.96875 8.175781 -13.3125 8.375 -13.65625 C 8.550781 -14.019531 8.648438 -14.328125 8.671875 -14.578125 C 8.703125 -14.828125 8.71875 -15.222656 8.71875 -15.765625 C 8.71875 -16.148438 8.710938 -16.425781 8.703125 -16.59375 C 8.691406 -16.769531 8.640625 -17.0625 8.546875 -17.46875 C 8.367188 -18.195312 7.988281 -18.800781 7.40625 -19.28125 C 6.820312 -19.769531 6.132812 -20.015625 5.34375 -20.015625 C 4.976562 -20.015625 4.578125 -19.992188 4.140625 -19.953125 C 3.710938 -19.910156 3.332031 -19.804688 3 -19.640625 C 2.582031 -19.421875 2.285156 -19.15625 2.109375 -18.84375 C 1.929688 -18.539062 1.707031 -18.226562 1.4375 -17.90625 C 1.363281 -18.0625 1.25 -18.164062 1.09375 -18.21875 C 0.9375 -18.28125 0.859375 -18.40625 0.859375 -18.59375 C 0.859375 -18.800781 0.945312 -19.019531 1.125 -19.25 C 1.300781 -19.488281 1.460938 -19.675781 1.609375 -19.8125 C 1.992188 -20.25 2.367188 -20.550781 2.734375 -20.71875 C 3.109375 -20.882812 3.5 -20.972656 3.90625 -20.984375 C 4.320312 -21.003906 4.789062 -21.015625 5.3125 -21.015625 C 5.695312 -21.015625 6.066406 -20.972656 6.421875 -20.890625 C 6.773438 -20.804688 7.117188 -20.648438 7.453125 -20.421875 C 7.929688 -20.085938 8.347656 -19.726562 8.703125 -19.34375 C 9.054688 -18.957031 9.320312 -18.515625 9.5 -18.015625 C 9.613281 -17.671875 9.691406 -17.367188 9.734375 -17.109375 C 9.785156 -16.847656 9.8125 -16.523438 9.8125 -16.140625 C 9.8125 -15.429688 9.742188 -14.800781 9.609375 -14.25 C 9.472656 -13.695312 9.273438 -13.101562 9.015625 -12.46875 Z M 9.015625 -12.46875 "/></g></g><g style="fill:#000000;fill-opacity:1;"><g transform="translate(232.972524, 260.988031)"><path style="stroke:none" d="M 4.9375 -20.609375 C 5 -20.804688 5.160156 -20.914062 5.421875 -20.9375 C 5.691406 -20.957031 5.894531 -20.867188 6.03125 -20.671875 C 6.363281 -20.304688 6.632812 -19.84375 6.84375 -19.28125 C 7.050781 -18.726562 7.242188 -18.15625 7.421875 -17.5625 C 7.597656 -16.976562 7.757812 -16.425781 7.90625 -15.90625 C 8.238281 -14.90625 8.453125 -13.898438 8.546875 -12.890625 C 8.640625 -11.878906 8.84375 -10.835938 9.15625 -9.765625 C 9.3125 -9.222656 9.425781 -8.71875 9.5 -8.25 C 9.570312 -7.789062 9.675781 -7.234375 9.8125 -6.578125 L 11.40625 -0.375 C 11.40625 -0.332031 11.367188 -0.269531 11.296875 -0.1875 C 11.234375 -0.101562 11.191406 -0.0507812 11.171875 -0.03125 C 11.097656 0.0507812 10.992188 0.09375 10.859375 0.09375 C 10.773438 0.09375 10.703125 0.0625 10.640625 0 C 10.578125 -0.0703125 10.503906 -0.140625 10.421875 -0.203125 C 10.035156 -1.429688 9.660156 -2.6875 9.296875 -3.96875 C 8.929688 -5.25 8.585938 -6.613281 8.265625 -8.0625 C 8.046875 -8.0625 7.832031 -8.0625 7.625 -8.0625 C 7.414062 -8.070312 7.203125 -8.078125 6.984375 -8.078125 L 5.046875 -8.078125 C 4.722656 -8.078125 4.390625 -8.078125 4.046875 -8.078125 C 3.710938 -8.078125 3.382812 -8.0625 3.0625 -8.03125 C 2.945312 -7.300781 2.8125 -6.566406 2.65625 -5.828125 C 2.5 -5.097656 2.34375 -4.378906 2.1875 -3.671875 C 2.09375 -3.128906 1.988281 -2.597656 1.875 -2.078125 C 1.757812 -1.554688 1.664062 -1.019531 1.59375 -0.46875 C 1.550781 0 1.328125 0.257812 0.921875 0.3125 C 0.753906 0.289062 0.59375 0.226562 0.4375 0.125 C 0.28125 0.0195312 0.203125 -0.15625 0.203125 -0.40625 L 0.265625 -0.546875 C 0.796875 -2.359375 1.226562 -4.15625 1.5625 -5.9375 C 1.90625 -7.71875 2.234375 -9.632812 2.546875 -11.6875 C 2.578125 -11.9375 2.632812 -12.242188 2.71875 -12.609375 C 2.8125 -12.984375 2.910156 -13.351562 3.015625 -13.71875 C 3.117188 -14.082031 3.191406 -14.390625 3.234375 -14.640625 C 3.441406 -15.796875 3.679688 -16.828125 3.953125 -17.734375 C 4.222656 -18.648438 4.550781 -19.609375 4.9375 -20.609375 Z M 4.84375 -16.625 C 4.59375 -15.507812 4.351562 -14.382812 4.125 -13.25 C 3.894531 -12.113281 3.664062 -10.96875 3.4375 -9.8125 L 3.40625 -9.328125 C 3.726562 -9.285156 4.046875 -9.265625 4.359375 -9.265625 C 4.671875 -9.265625 4.976562 -9.265625 5.28125 -9.265625 C 6.257812 -9.265625 7.1875 -9.320312 8.0625 -9.4375 C 7.90625 -10.269531 7.753906 -11.101562 7.609375 -11.9375 C 7.460938 -12.78125 7.300781 -13.613281 7.125 -14.4375 C 6.976562 -15.25 6.773438 -16.019531 6.515625 -16.75 C 6.253906 -17.476562 5.957031 -18.171875 5.625 -18.828125 C 5.4375 -18.492188 5.28125 -18.15625 5.15625 -17.8125 C 5.03125 -17.46875 4.925781 -17.070312 4.84375 -16.625 Z M 4.84375 -16.625 "/></g></g><g style="fill:#000000;fill-opacity:1;"><g transform="translate(148.246314, 284.627559)"><path style="stroke:none" d="M 13.5 -5.890625 C 12.84375 -4.859375 12.3125 -4.023438 11.90625 -3.390625 C 11.507812 -2.753906 11.203125 -2.257812 10.984375 -1.90625 C 10.765625 -1.5625 10.613281 -1.296875 10.53125 -1.109375 C 10.457031 -0.929688 10.421875 -0.765625 10.421875 -0.609375 C 10.421875 -0.367188 10.539062 -0.25 10.78125 -0.25 C 10.9375 -0.25 11.179688 -0.363281 11.515625 -0.59375 C 11.859375 -0.820312 12.28125 -1.195312 12.78125 -1.71875 C 13.195312 -2.15625 13.492188 -2.472656 13.671875 -2.671875 C 13.847656 -2.867188 13.960938 -2.992188 14.015625 -3.046875 C 14.066406 -3.109375 14.101562 -3.140625 14.125 -3.140625 C 14.195312 -3.140625 14.234375 -3.101562 14.234375 -3.03125 C 14.234375 -3.019531 14.160156 -2.925781 14.015625 -2.75 C 13.878906 -2.582031 13.710938 -2.390625 13.515625 -2.171875 C 13.316406 -1.960938 13.140625 -1.773438 12.984375 -1.609375 C 12.453125 -1.054688 12.003906 -0.648438 11.640625 -0.390625 C 11.285156 -0.128906 10.960938 0 10.671875 0 C 10.429688 0 10.242188 -0.078125 10.109375 -0.234375 C 9.984375 -0.390625 9.894531 -0.570312 9.84375 -0.78125 C 9.800781 -1 9.78125 -1.191406 9.78125 -1.359375 C 9.78125 -1.628906 9.894531 -1.984375 10.125 -2.421875 C 10.351562 -2.859375 10.632812 -3.316406 10.96875 -3.796875 C 11.3125 -4.285156 11.644531 -4.726562 11.96875 -5.125 L 11.921875 -5.171875 C 11.554688 -4.804688 11.191406 -4.40625 10.828125 -3.96875 C 10.472656 -3.53125 10.148438 -3.113281 9.859375 -2.71875 C 9.566406 -2.332031 9.332031 -2.023438 9.15625 -1.796875 C 9.09375 -1.710938 8.988281 -1.578125 8.84375 -1.390625 C 8.695312 -1.203125 8.535156 -0.992188 8.359375 -0.765625 C 8.179688 -0.546875 8.015625 -0.363281 7.859375 -0.21875 C 7.703125 -0.0703125 7.578125 0 7.484375 0 C 7.171875 0 6.972656 -0.0859375 6.890625 -0.265625 C 6.804688 -0.453125 6.765625 -0.65625 6.765625 -0.875 C 6.765625 -1.3125 6.875 -1.78125 7.09375 -2.28125 C 7.3125 -2.78125 7.578125 -3.28125 7.890625 -3.78125 C 8.210938 -4.28125 8.519531 -4.726562 8.8125 -5.125 L 8.765625 -5.171875 C 8.242188 -4.617188 7.78125 -4.078125 7.375 -3.546875 C 6.96875 -3.015625 6.546875 -2.472656 6.109375 -1.921875 C 5.878906 -1.640625 5.660156 -1.394531 5.453125 -1.1875 C 5.253906 -0.976562 5.109375 -0.835938 5.015625 -0.765625 C 4.765625 -0.546875 4.519531 -0.363281 4.28125 -0.21875 C 4.050781 -0.0703125 3.796875 0 3.515625 0 C 3.203125 0 2.929688 -0.117188 2.703125 -0.359375 C 2.484375 -0.609375 2.375 -0.96875 2.375 -1.4375 C 2.375 -1.894531 2.503906 -2.289062 2.765625 -2.625 C 3.023438 -2.96875 3.359375 -3.125 3.765625 -3.09375 C 3.921875 -3.082031 4.054688 -3.03125 4.171875 -2.9375 C 4.296875 -2.851562 4.359375 -2.722656 4.359375 -2.546875 C 4.359375 -2.316406 4.296875 -2.148438 4.171875 -2.046875 C 4.054688 -1.953125 3.96875 -1.90625 3.90625 -1.90625 C 3.800781 -1.90625 3.710938 -1.914062 3.640625 -1.9375 C 3.566406 -1.96875 3.476562 -1.984375 3.375 -1.984375 C 3.15625 -1.984375 2.992188 -1.882812 2.890625 -1.6875 C 2.796875 -1.488281 2.75 -1.28125 2.75 -1.0625 C 2.75 -0.84375 2.828125 -0.648438 2.984375 -0.484375 C 3.140625 -0.328125 3.335938 -0.25 3.578125 -0.25 C 3.773438 -0.25 4.003906 -0.328125 4.265625 -0.484375 C 4.523438 -0.648438 4.773438 -0.847656 5.015625 -1.078125 C 5.316406 -1.347656 5.585938 -1.632812 5.828125 -1.9375 C 6.066406 -2.238281 6.335938 -2.585938 6.640625 -2.984375 C 6.941406 -3.378906 7.328125 -3.851562 7.796875 -4.40625 C 7.992188 -4.644531 8.179688 -4.859375 8.359375 -5.046875 C 8.535156 -5.242188 8.800781 -5.5 9.15625 -5.8125 L 10.34375 -5.890625 C 10.0625 -5.421875 9.75 -4.914062 9.40625 -4.375 C 9.070312 -3.832031 8.75 -3.296875 8.4375 -2.765625 C 8.132812 -2.242188 7.890625 -1.78125 7.703125 -1.375 C 7.515625 -0.96875 7.421875 -0.65625 7.421875 -0.4375 C 7.421875 -0.375 7.441406 -0.328125 7.484375 -0.296875 C 7.523438 -0.265625 7.554688 -0.25 7.578125 -0.25 C 7.609375 -0.25 7.707031 -0.351562 7.875 -0.5625 C 8.050781 -0.769531 8.257812 -1.035156 8.5 -1.359375 C 8.75 -1.679688 9.019531 -2.03125 9.3125 -2.40625 C 9.601562 -2.78125 9.882812 -3.132812 10.15625 -3.46875 C 10.300781 -3.664062 10.5 -3.910156 10.75 -4.203125 C 11 -4.492188 11.257812 -4.785156 11.53125 -5.078125 C 11.8125 -5.367188 12.070312 -5.613281 12.3125 -5.8125 Z M 13.5 -5.890625 "/></g></g><g style="fill:#000000;fill-opacity:1;"><g transform="translate(158.712931, 284.627559)"><path style="stroke:none" d="M 10.234375 -5.734375 L 11.25 -5.78125 C 11.132812 -5.644531 10.957031 -5.398438 10.71875 -5.046875 C 10.476562 -4.691406 10.210938 -4.289062 9.921875 -3.84375 C 9.628906 -3.394531 9.351562 -2.945312 9.09375 -2.5 C 8.832031 -2.050781 8.617188 -1.648438 8.453125 -1.296875 C 8.285156 -0.953125 8.203125 -0.703125 8.203125 -0.546875 C 8.203125 -0.347656 8.320312 -0.25 8.5625 -0.25 C 8.882812 -0.25 9.3125 -0.492188 9.84375 -0.984375 C 10.382812 -1.472656 10.957031 -2.078125 11.5625 -2.796875 C 11.695312 -2.953125 11.78125 -3.046875 11.8125 -3.078125 C 11.84375 -3.117188 11.867188 -3.140625 11.890625 -3.140625 C 11.972656 -3.140625 12.015625 -3.097656 12.015625 -3.015625 C 12.015625 -2.992188 11.945312 -2.910156 11.8125 -2.765625 C 11.6875 -2.617188 11.535156 -2.445312 11.359375 -2.25 C 11.191406 -2.050781 11.019531 -1.859375 10.84375 -1.671875 C 10.363281 -1.160156 9.921875 -0.753906 9.515625 -0.453125 C 9.117188 -0.148438 8.78125 0 8.5 0 C 8.21875 0 7.988281 -0.0976562 7.8125 -0.296875 C 7.644531 -0.492188 7.5625 -0.882812 7.5625 -1.46875 C 7.5625 -1.53125 7.5625 -1.59375 7.5625 -1.65625 C 7.570312 -1.726562 7.578125 -1.789062 7.578125 -1.84375 C 7.367188 -1.632812 7.109375 -1.382812 6.796875 -1.09375 C 6.484375 -0.800781 6.164062 -0.546875 5.84375 -0.328125 C 5.519531 -0.109375 5.222656 0 4.953125 0 C 4.597656 0 4.320312 -0.09375 4.125 -0.28125 C 3.925781 -0.476562 3.789062 -0.722656 3.71875 -1.015625 C 3.65625 -1.316406 3.625 -1.617188 3.625 -1.921875 C 3.625 -2.097656 3.632812 -2.265625 3.65625 -2.421875 C 3.675781 -2.585938 3.703125 -2.753906 3.734375 -2.921875 C 3.710938 -2.921875 3.691406 -2.910156 3.671875 -2.890625 C 3.648438 -2.867188 3.628906 -2.859375 3.609375 -2.859375 C 3.546875 -2.859375 3.515625 -2.894531 3.515625 -2.96875 C 3.515625 -3.007812 3.535156 -3.050781 3.578125 -3.09375 C 3.617188 -3.132812 3.710938 -3.238281 3.859375 -3.40625 C 4.429688 -4.113281 5.109375 -4.703125 5.890625 -5.171875 C 6.679688 -5.648438 7.441406 -5.890625 8.171875 -5.890625 C 8.503906 -5.890625 8.738281 -5.785156 8.875 -5.578125 C 9.019531 -5.378906 9.09375 -5.140625 9.09375 -4.859375 C 9.09375 -4.597656 9.070312 -4.40625 9.03125 -4.28125 L 9.0625 -4.234375 C 9.320312 -4.648438 9.503906 -4.960938 9.609375 -5.171875 C 9.722656 -5.378906 9.816406 -5.523438 9.890625 -5.609375 C 9.972656 -5.691406 10.085938 -5.734375 10.234375 -5.734375 Z M 4.46875 -0.9375 C 4.46875 -0.738281 4.503906 -0.570312 4.578125 -0.4375 C 4.660156 -0.3125 4.785156 -0.25 4.953125 -0.25 C 5.191406 -0.25 5.476562 -0.351562 5.8125 -0.5625 C 6.15625 -0.78125 6.5 -1.066406 6.84375 -1.421875 C 7.195312 -1.773438 7.523438 -2.160156 7.828125 -2.578125 C 8.128906 -2.992188 8.367188 -3.398438 8.546875 -3.796875 C 8.734375 -4.203125 8.828125 -4.5625 8.828125 -4.875 C 8.828125 -5.082031 8.773438 -5.257812 8.671875 -5.40625 C 8.566406 -5.5625 8.398438 -5.640625 8.171875 -5.640625 C 7.753906 -5.640625 7.328125 -5.46875 6.890625 -5.125 C 6.453125 -4.789062 6.046875 -4.367188 5.671875 -3.859375 C 5.304688 -3.347656 5.015625 -2.828125 4.796875 -2.296875 C 4.578125 -1.765625 4.46875 -1.3125 4.46875 -0.9375 Z M 4.46875 -0.9375 "/></g></g><g style="fill:#000000;fill-opacity:1;"><g transform="translate(166.954862, 284.627559)"><path style="stroke:none" d="M 11.375 -5.890625 C 11.257812 -5.691406 11.078125 -5.410156 10.828125 -5.046875 C 10.585938 -4.691406 10.316406 -4.296875 10.015625 -3.859375 C 9.710938 -3.429688 9.421875 -3.003906 9.140625 -2.578125 C 8.867188 -2.160156 8.640625 -1.773438 8.453125 -1.421875 C 8.265625 -1.066406 8.171875 -0.796875 8.171875 -0.609375 C 8.171875 -0.367188 8.289062 -0.25 8.53125 -0.25 C 8.6875 -0.25 8.929688 -0.363281 9.265625 -0.59375 C 9.609375 -0.820312 10.03125 -1.195312 10.53125 -1.71875 C 10.957031 -2.15625 11.257812 -2.472656 11.4375 -2.671875 C 11.613281 -2.867188 11.722656 -2.992188 11.765625 -3.046875 C 11.816406 -3.109375 11.859375 -3.140625 11.890625 -3.140625 C 11.953125 -3.140625 11.984375 -3.101562 11.984375 -3.03125 C 11.984375 -3.019531 11.910156 -2.925781 11.765625 -2.75 C 11.628906 -2.582031 11.460938 -2.390625 11.265625 -2.171875 C 11.066406 -1.960938 10.890625 -1.773438 10.734375 -1.609375 C 10.203125 -1.054688 9.753906 -0.648438 9.390625 -0.390625 C 9.035156 -0.128906 8.71875 0 8.4375 0 C 8.195312 0 8.007812 -0.078125 7.875 -0.234375 C 7.738281 -0.390625 7.648438 -0.570312 7.609375 -0.78125 C 7.566406 -1 7.546875 -1.191406 7.546875 -1.359375 C 7.546875 -1.515625 7.554688 -1.65625 7.578125 -1.78125 C 7.609375 -1.914062 7.644531 -2.039062 7.6875 -2.15625 L 7.65625 -2.203125 C 7.457031 -1.992188 7.191406 -1.710938 6.859375 -1.359375 C 6.523438 -1.003906 6.171875 -0.6875 5.796875 -0.40625 C 5.421875 -0.132812 5.070312 0 4.75 0 C 4.40625 0 4.15625 -0.109375 4 -0.328125 C 3.84375 -0.554688 3.765625 -0.828125 3.765625 -1.140625 C 3.765625 -1.679688 3.890625 -2.175781 4.140625 -2.625 C 4.398438 -3.082031 4.695312 -3.515625 5.03125 -3.921875 C 5.375 -4.328125 5.679688 -4.726562 5.953125 -5.125 L 5.90625 -5.171875 C 5.59375 -4.941406 5.269531 -4.644531 4.9375 -4.28125 C 4.613281 -3.925781 4.289062 -3.578125 3.96875 -3.234375 C 3.820312 -3.085938 3.734375 -2.988281 3.703125 -2.9375 C 3.679688 -2.894531 3.648438 -2.875 3.609375 -2.875 C 3.546875 -2.875 3.515625 -2.921875 3.515625 -3.015625 C 3.515625 -3.035156 3.570312 -3.113281 3.6875 -3.25 C 3.8125 -3.382812 4.113281 -3.707031 4.59375 -4.21875 C 4.8125 -4.445312 5.0625 -4.691406 5.34375 -4.953125 C 5.625 -5.222656 5.941406 -5.507812 6.296875 -5.8125 L 7.484375 -5.890625 C 6.828125 -4.859375 6.296875 -4.035156 5.890625 -3.421875 C 5.492188 -2.804688 5.1875 -2.332031 4.96875 -2 C 4.75 -1.664062 4.597656 -1.40625 4.515625 -1.21875 C 4.441406 -1.03125 4.40625 -0.828125 4.40625 -0.609375 C 4.40625 -0.484375 4.441406 -0.390625 4.515625 -0.328125 C 4.597656 -0.273438 4.679688 -0.25 4.765625 -0.25 C 5.046875 -0.25 5.410156 -0.425781 5.859375 -0.78125 C 6.316406 -1.144531 6.800781 -1.609375 7.3125 -2.171875 C 7.832031 -2.742188 8.332031 -3.347656 8.8125 -3.984375 C 9.289062 -4.628906 9.691406 -5.238281 10.015625 -5.8125 Z M 8.578125 -6.953125 C 7.960938 -6.953125 7.507812 -7.101562 7.21875 -7.40625 C 6.9375 -7.707031 6.804688 -7.976562 6.828125 -8.21875 C 6.847656 -8.414062 6.90625 -8.570312 7 -8.6875 C 7.09375 -8.8125 7.253906 -8.875 7.484375 -8.875 C 7.722656 -8.875 7.863281 -8.789062 7.90625 -8.625 C 7.945312 -8.457031 7.9375 -8.265625 7.875 -8.046875 C 7.769531 -7.722656 7.847656 -7.476562 8.109375 -7.3125 C 8.179688 -7.269531 8.285156 -7.238281 8.421875 -7.21875 C 8.554688 -7.195312 8.671875 -7.1875 8.765625 -7.1875 C 9.179688 -7.1875 9.53125 -7.289062 9.8125 -7.5 C 10.101562 -7.707031 10.257812 -8 10.28125 -8.375 C 10.289062 -8.695312 10.34375 -8.9375 10.4375 -9.09375 C 10.539062 -9.25 10.71875 -9.328125 10.96875 -9.328125 C 11.257812 -9.328125 11.390625 -9.210938 11.359375 -8.984375 C 11.328125 -8.628906 11.171875 -8.296875 10.890625 -7.984375 C 10.609375 -7.671875 10.257812 -7.421875 9.84375 -7.234375 C 9.4375 -7.046875 9.015625 -6.953125 8.578125 -6.953125 Z M 8.578125 -6.953125 "/></g></g><g style="fill:#000000;fill-opacity:1;"><g transform="translate(175.17561, 284.627559)"><path style="stroke:none" d="M 10.84375 -4.65625 C 10.625 -4.65625 10.476562 -4.722656 10.40625 -4.859375 C 10.34375 -5.003906 10.304688 -5.191406 10.296875 -5.421875 C 10.066406 -5.378906 9.890625 -5.289062 9.765625 -5.15625 C 9.640625 -5.019531 9.492188 -4.8125 9.328125 -4.53125 C 9.140625 -4.25 8.878906 -4.003906 8.546875 -3.796875 C 8.210938 -3.597656 7.878906 -3.460938 7.546875 -3.390625 L 7.546875 -3.34375 C 7.828125 -3.289062 8.082031 -3.125 8.3125 -2.84375 C 8.550781 -2.5625 8.671875 -2.300781 8.671875 -2.0625 C 8.671875 -1.914062 8.628906 -1.734375 8.546875 -1.515625 C 8.472656 -1.296875 8.394531 -1.097656 8.3125 -0.921875 C 8.238281 -0.742188 8.203125 -0.628906 8.203125 -0.578125 C 8.203125 -0.484375 8.234375 -0.40625 8.296875 -0.34375 C 8.359375 -0.28125 8.429688 -0.25 8.515625 -0.25 C 8.742188 -0.25 8.992188 -0.34375 9.265625 -0.53125 C 9.546875 -0.726562 9.8125 -0.945312 10.0625 -1.1875 C 10.320312 -1.425781 10.515625 -1.617188 10.640625 -1.765625 C 11.035156 -2.171875 11.3125 -2.472656 11.46875 -2.671875 C 11.632812 -2.867188 11.738281 -2.992188 11.78125 -3.046875 C 11.820312 -3.109375 11.859375 -3.140625 11.890625 -3.140625 C 11.972656 -3.140625 12.015625 -3.101562 12.015625 -3.03125 C 12.015625 -3 11.894531 -2.84375 11.65625 -2.5625 C 11.414062 -2.289062 11.175781 -2.023438 10.9375 -1.765625 C 10.695312 -1.492188 10.421875 -1.222656 10.109375 -0.953125 C 9.804688 -0.679688 9.507812 -0.453125 9.21875 -0.265625 C 8.9375 -0.0859375 8.675781 0 8.4375 0 C 8.175781 0 7.960938 -0.0859375 7.796875 -0.265625 C 7.628906 -0.441406 7.503906 -0.648438 7.421875 -0.890625 C 7.347656 -1.140625 7.3125 -1.375 7.3125 -1.59375 C 7.3125 -1.914062 7.378906 -2.171875 7.515625 -2.359375 C 7.660156 -2.554688 7.734375 -2.742188 7.734375 -2.921875 C 7.734375 -3.003906 7.691406 -3.082031 7.609375 -3.15625 C 7.523438 -3.226562 7.441406 -3.265625 7.359375 -3.265625 C 7.242188 -3.265625 7.125 -3.210938 7 -3.109375 C 6.882812 -3.015625 6.726562 -2.96875 6.53125 -2.96875 C 6.3125 -2.96875 6.203125 -3.050781 6.203125 -3.21875 C 6.203125 -3.289062 6.25 -3.363281 6.34375 -3.4375 C 6.4375 -3.519531 6.640625 -3.5625 6.953125 -3.5625 C 7.003906 -3.5625 7.054688 -3.550781 7.109375 -3.53125 C 7.171875 -3.519531 7.253906 -3.515625 7.359375 -3.515625 C 7.503906 -3.515625 7.773438 -3.648438 8.171875 -3.921875 C 8.566406 -4.191406 8.914062 -4.523438 9.21875 -4.921875 C 9.53125 -5.328125 9.785156 -5.585938 9.984375 -5.703125 C 10.179688 -5.828125 10.398438 -5.890625 10.640625 -5.890625 C 10.878906 -5.890625 11.070312 -5.828125 11.21875 -5.703125 C 11.363281 -5.585938 11.4375 -5.429688 11.4375 -5.234375 C 11.4375 -5.046875 11.375 -4.898438 11.25 -4.796875 C 11.132812 -4.703125 11 -4.65625 10.84375 -4.65625 Z M 2.625 0 L 5.953125 -5.125 L 5.90625 -5.171875 C 5.695312 -5.003906 5.4375 -4.765625 5.125 -4.453125 C 4.8125 -4.148438 4.40625 -3.710938 3.90625 -3.140625 C 3.800781 -3.003906 3.707031 -2.890625 3.625 -2.796875 C 3.539062 -2.710938 3.484375 -2.671875 3.453125 -2.671875 C 3.398438 -2.671875 3.375 -2.710938 3.375 -2.796875 C 3.375 -2.847656 3.425781 -2.929688 3.53125 -3.046875 C 3.644531 -3.160156 3.851562 -3.390625 4.15625 -3.734375 C 4.5625 -4.179688 4.945312 -4.570312 5.3125 -4.90625 C 5.6875 -5.238281 5.960938 -5.539062 6.140625 -5.8125 L 7.484375 -5.890625 L 4.0625 -0.078125 Z M 2.625 0 "/></g></g><g style="fill:#000000;fill-opacity:1;"><g transform="translate(183.417542, 284.627559)"><path style="stroke:none" d="M 10.234375 -5.734375 L 11.25 -5.78125 C 11.132812 -5.644531 10.957031 -5.398438 10.71875 -5.046875 C 10.476562 -4.691406 10.210938 -4.289062 9.921875 -3.84375 C 9.628906 -3.394531 9.351562 -2.945312 9.09375 -2.5 C 8.832031 -2.050781 8.617188 -1.648438 8.453125 -1.296875 C 8.285156 -0.953125 8.203125 -0.703125 8.203125 -0.546875 C 8.203125 -0.347656 8.320312 -0.25 8.5625 -0.25 C 8.882812 -0.25 9.3125 -0.492188 9.84375 -0.984375 C 10.382812 -1.472656 10.957031 -2.078125 11.5625 -2.796875 C 11.695312 -2.953125 11.78125 -3.046875 11.8125 -3.078125 C 11.84375 -3.117188 11.867188 -3.140625 11.890625 -3.140625 C 11.972656 -3.140625 12.015625 -3.097656 12.015625 -3.015625 C 12.015625 -2.992188 11.945312 -2.910156 11.8125 -2.765625 C 11.6875 -2.617188 11.535156 -2.445312 11.359375 -2.25 C 11.191406 -2.050781 11.019531 -1.859375 10.84375 -1.671875 C 10.363281 -1.160156 9.921875 -0.753906 9.515625 -0.453125 C 9.117188 -0.148438 8.78125 0 8.5 0 C 8.21875 0 7.988281 -0.0976562 7.8125 -0.296875 C 7.644531 -0.492188 7.5625 -0.882812 7.5625 -1.46875 C 7.5625 -1.53125 7.5625 -1.59375 7.5625 -1.65625 C 7.570312 -1.726562 7.578125 -1.789062 7.578125 -1.84375 C 7.367188 -1.632812 7.109375 -1.382812 6.796875 -1.09375 C 6.484375 -0.800781 6.164062 -0.546875 5.84375 -0.328125 C 5.519531 -0.109375 5.222656 0 4.953125 0 C 4.597656 0 4.320312 -0.09375 4.125 -0.28125 C 3.925781 -0.476562 3.789062 -0.722656 3.71875 -1.015625 C 3.65625 -1.316406 3.625 -1.617188 3.625 -1.921875 C 3.625 -2.097656 3.632812 -2.265625 3.65625 -2.421875 C 3.675781 -2.585938 3.703125 -2.753906 3.734375 -2.921875 C 3.710938 -2.921875 3.691406 -2.910156 3.671875 -2.890625 C 3.648438 -2.867188 3.628906 -2.859375 3.609375 -2.859375 C 3.546875 -2.859375 3.515625 -2.894531 3.515625 -2.96875 C 3.515625 -3.007812 3.535156 -3.050781 3.578125 -3.09375 C 3.617188 -3.132812 3.710938 -3.238281 3.859375 -3.40625 C 4.429688 -4.113281 5.109375 -4.703125 5.890625 -5.171875 C 6.679688 -5.648438 7.441406 -5.890625 8.171875 -5.890625 C 8.503906 -5.890625 8.738281 -5.785156 8.875 -5.578125 C 9.019531 -5.378906 9.09375 -5.140625 9.09375 -4.859375 C 9.09375 -4.597656 9.070312 -4.40625 9.03125 -4.28125 L 9.0625 -4.234375 C 9.320312 -4.648438 9.503906 -4.960938 9.609375 -5.171875 C 9.722656 -5.378906 9.816406 -5.523438 9.890625 -5.609375 C 9.972656 -5.691406 10.085938 -5.734375 10.234375 -5.734375 Z M 4.46875 -0.9375 C 4.46875 -0.738281 4.503906 -0.570312 4.578125 -0.4375 C 4.660156 -0.3125 4.785156 -0.25 4.953125 -0.25 C 5.191406 -0.25 5.476562 -0.351562 5.8125 -0.5625 C 6.15625 -0.78125 6.5 -1.066406 6.84375 -1.421875 C 7.195312 -1.773438 7.523438 -2.160156 7.828125 -2.578125 C 8.128906 -2.992188 8.367188 -3.398438 8.546875 -3.796875 C 8.734375 -4.203125 8.828125 -4.5625 8.828125 -4.875 C 8.828125 -5.082031 8.773438 -5.257812 8.671875 -5.40625 C 8.566406 -5.5625 8.398438 -5.640625 8.171875 -5.640625 C 7.753906 -5.640625 7.328125 -5.46875 6.890625 -5.125 C 6.453125 -4.789062 6.046875 -4.367188 5.671875 -3.859375 C 5.304688 -3.347656 5.015625 -2.828125 4.796875 -2.296875 C 4.578125 -1.765625 4.46875 -1.3125 4.46875 -0.9375 Z M 4.46875 -0.9375 "/></g></g><g style="fill:#000000;fill-opacity:1;"><g transform="translate(191.659473, 284.627559)"><path style="stroke:none" d=""/></g></g><g style="fill:#000000;fill-opacity:1;"><g transform="translate(195.769847, 284.627559)"><path style="stroke:none" d="M 11.375 -5.890625 C 11.257812 -5.691406 11.078125 -5.410156 10.828125 -5.046875 C 10.585938 -4.691406 10.316406 -4.296875 10.015625 -3.859375 C 9.710938 -3.429688 9.421875 -3.003906 9.140625 -2.578125 C 8.867188 -2.160156 8.640625 -1.773438 8.453125 -1.421875 C 8.265625 -1.066406 8.171875 -0.796875 8.171875 -0.609375 C 8.171875 -0.367188 8.289062 -0.25 8.53125 -0.25 C 8.6875 -0.25 8.929688 -0.363281 9.265625 -0.59375 C 9.609375 -0.820312 10.03125 -1.195312 10.53125 -1.71875 C 10.957031 -2.15625 11.257812 -2.472656 11.4375 -2.671875 C 11.613281 -2.867188 11.722656 -2.992188 11.765625 -3.046875 C 11.816406 -3.109375 11.859375 -3.140625 11.890625 -3.140625 C 11.953125 -3.140625 11.984375 -3.101562 11.984375 -3.03125 C 11.984375 -3.019531 11.910156 -2.925781 11.765625 -2.75 C 11.628906 -2.582031 11.460938 -2.390625 11.265625 -2.171875 C 11.066406 -1.960938 10.890625 -1.773438 10.734375 -1.609375 C 10.203125 -1.054688 9.753906 -0.648438 9.390625 -0.390625 C 9.035156 -0.128906 8.71875 0 8.4375 0 C 8.195312 0 8.007812 -0.078125 7.875 -0.234375 C 7.738281 -0.390625 7.648438 -0.570312 7.609375 -0.78125 C 7.566406 -1 7.546875 -1.191406 7.546875 -1.359375 C 7.546875 -1.515625 7.554688 -1.65625 7.578125 -1.78125 C 7.609375 -1.914062 7.644531 -2.039062 7.6875 -2.15625 L 7.65625 -2.203125 C 7.457031 -1.992188 7.191406 -1.710938 6.859375 -1.359375 C 6.523438 -1.003906 6.171875 -0.6875 5.796875 -0.40625 C 5.421875 -0.132812 5.070312 0 4.75 0 C 4.40625 0 4.15625 -0.109375 4 -0.328125 C 3.84375 -0.554688 3.765625 -0.828125 3.765625 -1.140625 C 3.765625 -1.679688 3.890625 -2.175781 4.140625 -2.625 C 4.398438 -3.082031 4.695312 -3.515625 5.03125 -3.921875 C 5.375 -4.328125 5.679688 -4.726562 5.953125 -5.125 L 5.90625 -5.171875 C 5.59375 -4.941406 5.269531 -4.644531 4.9375 -4.28125 C 4.613281 -3.925781 4.289062 -3.578125 3.96875 -3.234375 C 3.820312 -3.085938 3.734375 -2.988281 3.703125 -2.9375 C 3.679688 -2.894531 3.648438 -2.875 3.609375 -2.875 C 3.546875 -2.875 3.515625 -2.921875 3.515625 -3.015625 C 3.515625 -3.035156 3.570312 -3.113281 3.6875 -3.25 C 3.8125 -3.382812 4.113281 -3.707031 4.59375 -4.21875 C 4.8125 -4.445312 5.0625 -4.691406 5.34375 -4.953125 C 5.625 -5.222656 5.941406 -5.507812 6.296875 -5.8125 L 7.484375 -5.890625 C 6.828125 -4.859375 6.296875 -4.035156 5.890625 -3.421875 C 5.492188 -2.804688 5.1875 -2.332031 4.96875 -2 C 4.75 -1.664062 4.597656 -1.40625 4.515625 -1.21875 C 4.441406 -1.03125 4.40625 -0.828125 4.40625 -0.609375 C 4.40625 -0.484375 4.441406 -0.390625 4.515625 -0.328125 C 4.597656 -0.273438 4.679688 -0.25 4.765625 -0.25 C 5.046875 -0.25 5.410156 -0.425781 5.859375 -0.78125 C 6.316406 -1.144531 6.800781 -1.609375 7.3125 -2.171875 C 7.832031 -2.742188 8.332031 -3.347656 8.8125 -3.984375 C 9.289062 -4.628906 9.691406 -5.238281 10.015625 -5.8125 Z M 11.375 -5.890625 "/></g></g><g style="fill:#000000;fill-opacity:1;"><g transform="translate(203.990596, 284.627559)"><path style="stroke:none" d=""/></g></g><g style="fill:#000000;fill-opacity:1;"><g transform="translate(208.10097, 284.627559)"><path style="stroke:none" d="M 3.5 -2.734375 C 3.425781 -2.734375 3.390625 -2.757812 3.390625 -2.8125 C 3.390625 -2.84375 3.476562 -2.960938 3.65625 -3.171875 C 3.84375 -3.390625 4.0625 -3.640625 4.3125 -3.921875 C 4.5625 -4.203125 4.789062 -4.460938 5 -4.703125 C 5.207031 -4.941406 5.347656 -5.101562 5.421875 -5.1875 C 5.691406 -5.5 5.9375 -5.789062 6.15625 -6.0625 C 6.375 -6.332031 6.601562 -6.628906 6.84375 -6.953125 C 7.007812 -7.171875 7.253906 -7.441406 7.578125 -7.765625 C 7.910156 -8.097656 8.265625 -8.425781 8.640625 -8.75 C 9.023438 -9.070312 9.378906 -9.367188 9.703125 -9.640625 C 10.023438 -9.910156 10.273438 -10.101562 10.453125 -10.21875 C 10.890625 -10.507812 11.289062 -10.757812 11.65625 -10.96875 C 12.019531 -11.1875 12.484375 -11.351562 13.046875 -11.46875 C 13.316406 -11.519531 13.519531 -11.585938 13.65625 -11.671875 C 13.800781 -11.753906 13.894531 -11.8125 13.9375 -11.84375 C 14.113281 -12.007812 14.253906 -12.164062 14.359375 -12.3125 C 14.472656 -12.46875 14.601562 -12.613281 14.75 -12.75 C 14.757812 -12.769531 14.785156 -12.769531 14.828125 -12.75 C 14.867188 -12.726562 14.898438 -12.6875 14.921875 -12.625 L 13.6875 -11.25 C 13.457031 -10.976562 13.242188 -10.75 13.046875 -10.5625 C 12.847656 -10.382812 12.546875 -10.238281 12.140625 -10.125 C 11.929688 -10.070312 11.691406 -10.03125 11.421875 -10 C 11.160156 -9.96875 10.898438 -9.910156 10.640625 -9.828125 C 10.097656 -9.648438 9.710938 -9.4375 9.484375 -9.1875 C 9.265625 -8.9375 9.054688 -8.675781 8.859375 -8.40625 C 8.796875 -8.320312 8.628906 -8.078125 8.359375 -7.671875 C 8.085938 -7.265625 7.765625 -6.765625 7.390625 -6.171875 C 7.023438 -5.578125 6.660156 -4.960938 6.296875 -4.328125 C 6.472656 -4.523438 6.671875 -4.722656 6.890625 -4.921875 C 7.109375 -5.128906 7.363281 -5.328125 7.65625 -5.515625 C 7.945312 -5.691406 8.210938 -5.796875 8.453125 -5.828125 C 8.703125 -5.867188 8.863281 -5.890625 8.9375 -5.890625 C 9.351562 -5.890625 9.644531 -5.789062 9.8125 -5.59375 C 9.988281 -5.40625 10.078125 -5.144531 10.078125 -4.8125 C 10.078125 -4.382812 9.972656 -3.972656 9.765625 -3.578125 C 9.566406 -3.179688 9.34375 -2.828125 9.09375 -2.515625 C 8.851562 -2.210938 8.660156 -1.972656 8.515625 -1.796875 C 8.554688 -1.785156 8.617188 -1.78125 8.703125 -1.78125 C 9.210938 -1.78125 9.703125 -2.046875 10.171875 -2.578125 C 10.367188 -2.796875 10.5 -2.941406 10.5625 -3.015625 C 10.625 -3.097656 10.660156 -3.140625 10.671875 -3.140625 C 10.765625 -3.140625 10.8125 -3.101562 10.8125 -3.03125 C 10.8125 -2.988281 10.765625 -2.914062 10.671875 -2.8125 C 10.578125 -2.71875 10.472656 -2.609375 10.359375 -2.484375 C 10.046875 -2.128906 9.738281 -1.878906 9.4375 -1.734375 C 9.144531 -1.597656 8.835938 -1.53125 8.515625 -1.53125 C 8.460938 -1.53125 8.414062 -1.535156 8.375 -1.546875 C 8.332031 -1.554688 8.300781 -1.554688 8.28125 -1.546875 C 8.125 -1.378906 7.90625 -1.175781 7.625 -0.9375 C 7.351562 -0.695312 7.050781 -0.476562 6.71875 -0.28125 C 6.394531 -0.09375 6.0625 0 5.71875 0 C 5.195312 0 4.773438 -0.101562 4.453125 -0.3125 C 4.128906 -0.53125 3.96875 -0.9375 3.96875 -1.53125 C 3.96875 -1.832031 4.046875 -2.171875 4.203125 -2.546875 C 4.367188 -2.921875 4.566406 -3.285156 4.796875 -3.640625 C 5.035156 -4.003906 5.25 -4.320312 5.4375 -4.59375 C 5.632812 -4.875 5.78125 -5.070312 5.875 -5.1875 C 5.894531 -5.25 5.878906 -5.28125 5.828125 -5.28125 C 5.816406 -5.28125 5.675781 -5.132812 5.40625 -4.84375 C 5.144531 -4.5625 4.828125 -4.195312 4.453125 -3.75 C 4.140625 -3.394531 3.914062 -3.132812 3.78125 -2.96875 C 3.644531 -2.8125 3.550781 -2.734375 3.5 -2.734375 Z M 8.171875 -5.28125 C 7.890625 -5.28125 7.585938 -5.160156 7.265625 -4.921875 C 6.941406 -4.679688 6.644531 -4.410156 6.375 -4.109375 C 6.101562 -3.816406 5.898438 -3.582031 5.765625 -3.40625 C 5.578125 -3.082031 5.421875 -2.789062 5.296875 -2.53125 C 5.171875 -2.28125 5.085938 -2.097656 5.046875 -1.984375 C 4.859375 -1.460938 4.832031 -1.039062 4.96875 -0.71875 C 5.101562 -0.40625 5.3125 -0.25 5.59375 -0.25 C 5.957031 -0.25 6.335938 -0.375 6.734375 -0.625 C 7.128906 -0.875 7.492188 -1.195312 7.828125 -1.59375 C 8.160156 -1.988281 8.425781 -2.421875 8.625 -2.890625 C 8.832031 -3.367188 8.9375 -3.828125 8.9375 -4.265625 C 8.9375 -4.710938 8.859375 -4.992188 8.703125 -5.109375 C 8.546875 -5.222656 8.367188 -5.28125 8.171875 -5.28125 Z M 8.171875 -5.28125 "/></g></g><g style="fill:#000000;fill-opacity:1;"><g transform="translate(215.135218, 284.627559)"><path style="stroke:none" d="M 9.03125 -4.875 C 9.03125 -4.476562 8.863281 -4.117188 8.53125 -3.796875 C 8.195312 -3.484375 7.789062 -3.207031 7.3125 -2.96875 C 6.832031 -2.738281 6.347656 -2.550781 5.859375 -2.40625 C 5.367188 -2.257812 4.96875 -2.148438 4.65625 -2.078125 C 4.644531 -1.960938 4.628906 -1.84375 4.609375 -1.71875 C 4.585938 -1.601562 4.578125 -1.488281 4.578125 -1.375 C 4.578125 -0.96875 4.644531 -0.679688 4.78125 -0.515625 C 4.914062 -0.359375 5.144531 -0.269531 5.46875 -0.25 C 5.75 -0.238281 6.148438 -0.351562 6.671875 -0.59375 C 7.191406 -0.84375 7.78125 -1.285156 8.4375 -1.921875 C 8.84375 -2.347656 9.117188 -2.660156 9.265625 -2.859375 C 9.410156 -3.054688 9.507812 -3.15625 9.5625 -3.15625 C 9.625 -3.15625 9.65625 -3.113281 9.65625 -3.03125 C 9.65625 -3 9.578125 -2.890625 9.421875 -2.703125 C 9.273438 -2.515625 9.085938 -2.296875 8.859375 -2.046875 C 8.628906 -1.804688 8.410156 -1.585938 8.203125 -1.390625 C 7.679688 -0.910156 7.191406 -0.5625 6.734375 -0.34375 C 6.285156 -0.125 5.8125 -0.0078125 5.3125 0 C 4.9375 0 4.625 -0.109375 4.375 -0.328125 C 4.125 -0.546875 3.9375 -0.828125 3.8125 -1.171875 C 3.695312 -1.515625 3.640625 -1.875 3.640625 -2.25 C 3.640625 -2.40625 3.648438 -2.535156 3.671875 -2.640625 C 3.691406 -2.753906 3.703125 -2.828125 3.703125 -2.859375 C 3.703125 -2.890625 3.695312 -2.90625 3.6875 -2.90625 C 3.644531 -2.863281 3.625 -2.84375 3.625 -2.84375 C 3.613281 -2.84375 3.59375 -2.859375 3.5625 -2.890625 C 3.53125 -2.921875 3.515625 -2.945312 3.515625 -2.96875 C 3.515625 -3 3.566406 -3.078125 3.671875 -3.203125 C 3.773438 -3.328125 3.890625 -3.457031 4.015625 -3.59375 C 4.148438 -3.726562 4.242188 -3.820312 4.296875 -3.875 C 4.878906 -4.46875 5.492188 -4.953125 6.140625 -5.328125 C 6.796875 -5.703125 7.40625 -5.890625 7.96875 -5.890625 C 8.289062 -5.890625 8.546875 -5.789062 8.734375 -5.59375 C 8.929688 -5.40625 9.03125 -5.164062 9.03125 -4.875 Z M 7.96875 -5.640625 C 7.6875 -5.640625 7.375 -5.523438 7.03125 -5.296875 C 6.695312 -5.066406 6.367188 -4.773438 6.046875 -4.421875 C 5.734375 -4.078125 5.457031 -3.71875 5.21875 -3.34375 C 4.976562 -2.96875 4.820312 -2.628906 4.75 -2.328125 C 5.101562 -2.367188 5.488281 -2.46875 5.90625 -2.625 C 6.320312 -2.789062 6.71875 -3.003906 7.09375 -3.265625 C 7.476562 -3.535156 7.789062 -3.832031 8.03125 -4.15625 C 8.269531 -4.488281 8.390625 -4.847656 8.390625 -5.234375 C 8.390625 -5.503906 8.25 -5.640625 7.96875 -5.640625 Z M 7.96875 -5.640625 "/></g></g><g style="fill:#000000;fill-opacity:1;"><g transform="translate(221.025343, 284.627559)"><path style="stroke:none" d="M 3.5 -2.734375 C 3.425781 -2.734375 3.390625 -2.757812 3.390625 -2.8125 C 3.390625 -2.84375 3.476562 -2.960938 3.65625 -3.171875 C 3.84375 -3.390625 4.0625 -3.640625 4.3125 -3.921875 C 4.5625 -4.203125 4.789062 -4.460938 5 -4.703125 C 5.207031 -4.941406 5.347656 -5.101562 5.421875 -5.1875 C 5.691406 -5.5 5.9375 -5.789062 6.15625 -6.0625 C 6.375 -6.332031 6.601562 -6.628906 6.84375 -6.953125 C 7.007812 -7.171875 7.253906 -7.441406 7.578125 -7.765625 C 7.910156 -8.097656 8.265625 -8.425781 8.640625 -8.75 C 9.023438 -9.070312 9.378906 -9.367188 9.703125 -9.640625 C 10.023438 -9.910156 10.273438 -10.101562 10.453125 -10.21875 C 10.890625 -10.507812 11.289062 -10.757812 11.65625 -10.96875 C 12.019531 -11.1875 12.484375 -11.351562 13.046875 -11.46875 C 13.316406 -11.519531 13.519531 -11.585938 13.65625 -11.671875 C 13.800781 -11.753906 13.894531 -11.8125 13.9375 -11.84375 C 14.113281 -12.007812 14.253906 -12.164062 14.359375 -12.3125 C 14.472656 -12.46875 14.601562 -12.613281 14.75 -12.75 C 14.757812 -12.769531 14.785156 -12.769531 14.828125 -12.75 C 14.867188 -12.726562 14.898438 -12.6875 14.921875 -12.625 L 13.6875 -11.25 C 13.457031 -10.976562 13.242188 -10.75 13.046875 -10.5625 C 12.847656 -10.382812 12.546875 -10.238281 12.140625 -10.125 C 11.929688 -10.070312 11.691406 -10.03125 11.421875 -10 C 11.160156 -9.96875 10.898438 -9.910156 10.640625 -9.828125 C 10.097656 -9.648438 9.710938 -9.4375 9.484375 -9.1875 C 9.265625 -8.9375 9.054688 -8.675781 8.859375 -8.40625 C 8.796875 -8.320312 8.628906 -8.078125 8.359375 -7.671875 C 8.085938 -7.265625 7.765625 -6.765625 7.390625 -6.171875 C 7.023438 -5.578125 6.660156 -4.960938 6.296875 -4.328125 C 6.472656 -4.523438 6.671875 -4.722656 6.890625 -4.921875 C 7.109375 -5.128906 7.363281 -5.328125 7.65625 -5.515625 C 7.945312 -5.691406 8.210938 -5.796875 8.453125 -5.828125 C 8.703125 -5.867188 8.863281 -5.890625 8.9375 -5.890625 C 9.351562 -5.890625 9.644531 -5.789062 9.8125 -5.59375 C 9.988281 -5.40625 10.078125 -5.144531 10.078125 -4.8125 C 10.078125 -4.382812 9.972656 -3.972656 9.765625 -3.578125 C 9.566406 -3.179688 9.34375 -2.828125 9.09375 -2.515625 C 8.851562 -2.210938 8.660156 -1.972656 8.515625 -1.796875 C 8.554688 -1.785156 8.617188 -1.78125 8.703125 -1.78125 C 9.210938 -1.78125 9.703125 -2.046875 10.171875 -2.578125 C 10.367188 -2.796875 10.5 -2.941406 10.5625 -3.015625 C 10.625 -3.097656 10.660156 -3.140625 10.671875 -3.140625 C 10.765625 -3.140625 10.8125 -3.101562 10.8125 -3.03125 C 10.8125 -2.988281 10.765625 -2.914062 10.671875 -2.8125 C 10.578125 -2.71875 10.472656 -2.609375 10.359375 -2.484375 C 10.046875 -2.128906 9.738281 -1.878906 9.4375 -1.734375 C 9.144531 -1.597656 8.835938 -1.53125 8.515625 -1.53125 C 8.460938 -1.53125 8.414062 -1.535156 8.375 -1.546875 C 8.332031 -1.554688 8.300781 -1.554688 8.28125 -1.546875 C 8.125 -1.378906 7.90625 -1.175781 7.625 -0.9375 C 7.351562 -0.695312 7.050781 -0.476562 6.71875 -0.28125 C 6.394531 -0.09375 6.0625 0 5.71875 0 C 5.195312 0 4.773438 -0.101562 4.453125 -0.3125 C 4.128906 -0.53125 3.96875 -0.9375 3.96875 -1.53125 C 3.96875 -1.832031 4.046875 -2.171875 4.203125 -2.546875 C 4.367188 -2.921875 4.566406 -3.285156 4.796875 -3.640625 C 5.035156 -4.003906 5.25 -4.320312 5.4375 -4.59375 C 5.632812 -4.875 5.78125 -5.070312 5.875 -5.1875 C 5.894531 -5.25 5.878906 -5.28125 5.828125 -5.28125 C 5.816406 -5.28125 5.675781 -5.132812 5.40625 -4.84375 C 5.144531 -4.5625 4.828125 -4.195312 4.453125 -3.75 C 4.140625 -3.394531 3.914062 -3.132812 3.78125 -2.96875 C 3.644531 -2.8125 3.550781 -2.734375 3.5 -2.734375 Z M 8.171875 -5.28125 C 7.890625 -5.28125 7.585938 -5.160156 7.265625 -4.921875 C 6.941406 -4.679688 6.644531 -4.410156 6.375 -4.109375 C 6.101562 -3.816406 5.898438 -3.582031 5.765625 -3.40625 C 5.578125 -3.082031 5.421875 -2.789062 5.296875 -2.53125 C 5.171875 -2.28125 5.085938 -2.097656 5.046875 -1.984375 C 4.859375 -1.460938 4.832031 -1.039062 4.96875 -0.71875 C 5.101562 -0.40625 5.3125 -0.25 5.59375 -0.25 C 5.957031 -0.25 6.335938 -0.375 6.734375 -0.625 C 7.128906 -0.875 7.492188 -1.195312 7.828125 -1.59375 C 8.160156 -1.988281 8.425781 -2.421875 8.625 -2.890625 C 8.832031 -3.367188 8.9375 -3.828125 8.9375 -4.265625 C 8.9375 -4.710938 8.859375 -4.992188 8.703125 -5.109375 C 8.546875 -5.222656 8.367188 -5.28125 8.171875 -5.28125 Z M 8.171875 -5.28125 "/></g></g><g style="fill:#000000;fill-opacity:1;"><g transform="translate(228.059591, 284.627559)"><path style="stroke:none" d="M 9.03125 -4.875 C 9.03125 -4.476562 8.863281 -4.117188 8.53125 -3.796875 C 8.195312 -3.484375 7.789062 -3.207031 7.3125 -2.96875 C 6.832031 -2.738281 6.347656 -2.550781 5.859375 -2.40625 C 5.367188 -2.257812 4.96875 -2.148438 4.65625 -2.078125 C 4.644531 -1.960938 4.628906 -1.84375 4.609375 -1.71875 C 4.585938 -1.601562 4.578125 -1.488281 4.578125 -1.375 C 4.578125 -0.96875 4.644531 -0.679688 4.78125 -0.515625 C 4.914062 -0.359375 5.144531 -0.269531 5.46875 -0.25 C 5.75 -0.238281 6.148438 -0.351562 6.671875 -0.59375 C 7.191406 -0.84375 7.78125 -1.285156 8.4375 -1.921875 C 8.84375 -2.347656 9.117188 -2.660156 9.265625 -2.859375 C 9.410156 -3.054688 9.507812 -3.15625 9.5625 -3.15625 C 9.625 -3.15625 9.65625 -3.113281 9.65625 -3.03125 C 9.65625 -3 9.578125 -2.890625 9.421875 -2.703125 C 9.273438 -2.515625 9.085938 -2.296875 8.859375 -2.046875 C 8.628906 -1.804688 8.410156 -1.585938 8.203125 -1.390625 C 7.679688 -0.910156 7.191406 -0.5625 6.734375 -0.34375 C 6.285156 -0.125 5.8125 -0.0078125 5.3125 0 C 4.9375 0 4.625 -0.109375 4.375 -0.328125 C 4.125 -0.546875 3.9375 -0.828125 3.8125 -1.171875 C 3.695312 -1.515625 3.640625 -1.875 3.640625 -2.25 C 3.640625 -2.40625 3.648438 -2.535156 3.671875 -2.640625 C 3.691406 -2.753906 3.703125 -2.828125 3.703125 -2.859375 C 3.703125 -2.890625 3.695312 -2.90625 3.6875 -2.90625 C 3.644531 -2.863281 3.625 -2.84375 3.625 -2.84375 C 3.613281 -2.84375 3.59375 -2.859375 3.5625 -2.890625 C 3.53125 -2.921875 3.515625 -2.945312 3.515625 -2.96875 C 3.515625 -3 3.566406 -3.078125 3.671875 -3.203125 C 3.773438 -3.328125 3.890625 -3.457031 4.015625 -3.59375 C 4.148438 -3.726562 4.242188 -3.820312 4.296875 -3.875 C 4.878906 -4.46875 5.492188 -4.953125 6.140625 -5.328125 C 6.796875 -5.703125 7.40625 -5.890625 7.96875 -5.890625 C 8.289062 -5.890625 8.546875 -5.789062 8.734375 -5.59375 C 8.929688 -5.40625 9.03125 -5.164062 9.03125 -4.875 Z M 7.96875 -5.640625 C 7.6875 -5.640625 7.375 -5.523438 7.03125 -5.296875 C 6.695312 -5.066406 6.367188 -4.773438 6.046875 -4.421875 C 5.734375 -4.078125 5.457031 -3.71875 5.21875 -3.34375 C 4.976562 -2.96875 4.820312 -2.628906 4.75 -2.328125 C 5.101562 -2.367188 5.488281 -2.46875 5.90625 -2.625 C 6.320312 -2.789062 6.71875 -3.003906 7.09375 -3.265625 C 7.476562 -3.535156 7.789062 -3.832031 8.03125 -4.15625 C 8.269531 -4.488281 8.390625 -4.847656 8.390625 -5.234375 C 8.390625 -5.503906 8.25 -5.640625 7.96875 -5.640625 Z M 7.96875 -5.640625 "/></g></g></g></svg>