<svg xmlns="http://www.w3.org/2000/svg" xmlns:xlink="http://www.w3.org/1999/xlink" width="500" zoomAndPan="magnify" viewBox="0 0 375 374.999991" height="500" preserveAspectRatio="xMidYMid meet" version="1.2"><defs><clipPath id="29f64c609f"><path d="M 193 125 L 275 125 L 275 198 L 193 198 Z M 193 125 "/></clipPath><clipPath id="460db3451e"><path d="M 288.757812 134.917969 L 277.054688 209 L 182.972656 194.132812 L 194.675781 120.054688 Z M 288.757812 134.917969 "/></clipPath><clipPath id="f9909657f4"><path d="M 277.015625 209.242188 L 288.722656 135.164062 L 194.636719 120.296875 L 182.933594 194.375 Z M 277.015625 209.242188 "/></clipPath></defs><g id="633b69953d"><rect x="0" width="375" y="0" height="374.999991" style="fill:#ffffff;fill-opacity:1;stroke:none;"/><rect x="0" width="375" y="0" height="374.999991" style="fill:#ffffff;fill-opacity:1;stroke:none;"/><g clip-rule="nonzero" clip-path="url(#29f64c609f)"><g clip-rule="nonzero" clip-path="url(#460db3451e)"><g clip-rule="nonzero" clip-path="url(#f9909657f4)"><path style=" stroke:none;fill-rule:evenodd;fill:#ffc0cb;fill-opacity:1;" d="M 193.558594 196.046875 C 205.625 178.015625 250.988281 200.707031 260.429688 180.742188 C 263.042969 175.238281 261.722656 170.335938 258.3125 167.738281 C 249.605469 161.09375 236.585938 164.492188 226.710938 163.949219 C 230.082031 160.21875 235.148438 155.863281 234.015625 146.722656 C 233.089844 139.324219 226.863281 133.761719 217.863281 134.492188 C 201.894531 135.789062 208.875 168.367188 201.472656 175.300781 C 203.648438 157.078125 194.585938 123.003906 224.566406 125.535156 C 231.175781 126.078125 236.792969 129.488281 239.210938 134.617188 C 244.257812 145.28125 240.085938 152.320312 234.730469 159.339844 C 240.378906 157.746094 243.644531 155.628906 251.179688 156.1875 C 274.945312 157.902344 281.527344 180.699219 267.195312 192.734375 C 255.5 202.550781 227.828125 193.042969 210.292969 192.851562 C 202.40625 192.773438 199.285156 194.097656 193.558594 196.046875 Z M 193.558594 196.046875 "/></g></g></g><g style="fill:#000000;fill-opacity:1;"><g transform="translate(54.046383, 230.871899)"><path style="stroke:none" d="M 3.078125 -42.25 L 18.484375 -42.25 C 22.785156 -42.25 26.265625 -41.140625 28.921875 -38.921875 C 31.585938 -36.703125 32.921875 -33.472656 32.921875 -29.234375 C 32.921875 -25.003906 31.570312 -21.6875 28.875 -19.28125 C 26.175781 -16.875 22.710938 -15.671875 18.484375 -15.671875 L 12.703125 -15.671875 L 12.703125 0 L 3.078125 0 Z M 12.703125 -23.34375 L 15.40625 -23.34375 C 17.5625 -23.34375 19.328125 -23.773438 20.703125 -24.640625 C 22.085938 -25.515625 22.78125 -26.945312 22.78125 -28.9375 C 22.78125 -30.945312 22.085938 -32.382812 20.703125 -33.25 C 19.328125 -34.125 17.5625 -34.5625 15.40625 -34.5625 L 12.703125 -34.5625 Z M 12.703125 -23.34375 "/></g></g><g style="fill:#000000;fill-opacity:1;"><g transform="translate(83.330954, 230.871899)"><path style="stroke:none" d="M 11.625 -26.265625 L 11.625 -13.78125 C 11.625 -11.175781 12.015625 -9.328125 12.796875 -8.234375 C 13.585938 -7.148438 14.921875 -6.609375 16.796875 -6.609375 C 18.671875 -6.609375 20 -7.148438 20.78125 -8.234375 C 21.570312 -9.328125 21.96875 -11.175781 21.96875 -13.78125 L 21.96875 -26.265625 L 31.03125 -26.265625 L 31.03125 -11.578125 C 31.03125 -7.203125 29.894531 -4.050781 27.625 -2.125 C 25.351562 -0.195312 21.742188 0.765625 16.796875 0.765625 C 11.847656 0.765625 8.238281 -0.195312 5.96875 -2.125 C 3.695312 -4.050781 2.5625 -7.203125 2.5625 -11.578125 L 2.5625 -26.265625 Z M 11.625 -26.265625 "/></g></g><g style="fill:#000000;fill-opacity:1;"><g transform="translate(112.103539, 230.871899)"><path style="stroke:none" d="M 3.078125 0 L 3.078125 -26.265625 L 12.140625 -26.265625 L 12.140625 -22.484375 L 12.234375 -22.484375 C 12.304688 -22.617188 12.414062 -22.785156 12.5625 -22.984375 C 12.71875 -23.191406 13.050781 -23.550781 13.5625 -24.0625 C 14.082031 -24.570312 14.628906 -25.03125 15.203125 -25.4375 C 15.785156 -25.851562 16.535156 -26.222656 17.453125 -26.546875 C 18.378906 -26.867188 19.320312 -27.03125 20.28125 -27.03125 C 21.269531 -27.03125 22.238281 -26.894531 23.1875 -26.625 C 24.144531 -26.351562 24.847656 -26.082031 25.296875 -25.8125 L 26.015625 -25.390625 L 22.21875 -17.71875 C 21.09375 -18.675781 19.523438 -19.15625 17.515625 -19.15625 C 16.421875 -19.15625 15.476562 -18.914062 14.6875 -18.4375 C 13.90625 -17.957031 13.351562 -17.375 13.03125 -16.6875 C 12.707031 -16.007812 12.476562 -15.429688 12.34375 -14.953125 C 12.207031 -14.472656 12.140625 -14.097656 12.140625 -13.828125 L 12.140625 0 Z M 3.078125 0 "/></g></g><g style="fill:#000000;fill-opacity:1;"><g transform="translate(132.786639, 230.871899)"><path style="stroke:none" d="M 29.640625 -11.875 L 10.59375 -11.875 C 10.59375 -10.03125 11.191406 -8.664062 12.390625 -7.78125 C 13.585938 -6.894531 14.882812 -6.453125 16.28125 -6.453125 C 17.75 -6.453125 18.910156 -6.644531 19.765625 -7.03125 C 20.617188 -7.425781 21.59375 -8.207031 22.6875 -9.375 L 29.234375 -6.09375 C 26.503906 -1.519531 21.960938 0.765625 15.609375 0.765625 C 11.648438 0.765625 8.253906 -0.585938 5.421875 -3.296875 C 2.585938 -6.015625 1.171875 -9.285156 1.171875 -13.109375 C 1.171875 -16.929688 2.585938 -20.207031 5.421875 -22.9375 C 8.253906 -25.664062 11.648438 -27.03125 15.609375 -27.03125 C 19.773438 -27.03125 23.164062 -25.828125 25.78125 -23.421875 C 28.394531 -21.015625 29.703125 -17.578125 29.703125 -13.109375 C 29.703125 -12.492188 29.679688 -12.082031 29.640625 -11.875 Z M 10.859375 -16.890625 L 20.84375 -16.890625 C 20.632812 -18.253906 20.09375 -19.300781 19.21875 -20.03125 C 18.351562 -20.769531 17.238281 -21.140625 15.875 -21.140625 C 14.375 -21.140625 13.175781 -20.75 12.28125 -19.96875 C 11.394531 -19.1875 10.921875 -18.160156 10.859375 -16.890625 Z M 10.859375 -16.890625 "/></g></g><g style="fill:#000000;fill-opacity:1;"><g transform="translate(158.845658, 230.871899)"><path style="stroke:none" d="M 3.078125 -42.25 L 16.1875 -42.25 C 20.144531 -42.25 23.300781 -41.398438 25.65625 -39.703125 C 28.007812 -38.015625 29.1875 -35.273438 29.1875 -31.484375 C 29.1875 -27.253906 27.425781 -24.234375 23.90625 -22.421875 C 29.914062 -21.367188 32.921875 -17.820312 32.921875 -11.78125 C 32.921875 -8.226562 31.691406 -5.375 29.234375 -3.21875 C 26.773438 -1.070312 23.394531 0 19.09375 0 L 3.078125 0 Z M 12.703125 -25.703125 L 13.46875 -25.703125 C 15.613281 -25.703125 17.210938 -26.078125 18.265625 -26.828125 C 19.328125 -27.578125 19.859375 -28.804688 19.859375 -30.515625 C 19.859375 -33.378906 17.726562 -34.8125 13.46875 -34.8125 L 12.703125 -34.8125 Z M 12.703125 -7.421875 L 15.71875 -7.421875 C 20.425781 -7.421875 22.78125 -8.992188 22.78125 -12.140625 C 22.78125 -14.015625 22.191406 -15.359375 21.015625 -16.171875 C 19.835938 -16.992188 18.070312 -17.40625 15.71875 -17.40625 L 12.703125 -17.40625 Z M 12.703125 -7.421875 "/></g></g><g style="fill:#000000;fill-opacity:1;"><g transform="translate(188.130229, 230.871899)"><path style="stroke:none" d="M 29.640625 -11.875 L 10.59375 -11.875 C 10.59375 -10.03125 11.191406 -8.664062 12.390625 -7.78125 C 13.585938 -6.894531 14.882812 -6.453125 16.28125 -6.453125 C 17.75 -6.453125 18.910156 -6.644531 19.765625 -7.03125 C 20.617188 -7.425781 21.59375 -8.207031 22.6875 -9.375 L 29.234375 -6.09375 C 26.503906 -1.519531 21.960938 0.765625 15.609375 0.765625 C 11.648438 0.765625 8.253906 -0.585938 5.421875 -3.296875 C 2.585938 -6.015625 1.171875 -9.285156 1.171875 -13.109375 C 1.171875 -16.929688 2.585938 -20.207031 5.421875 -22.9375 C 8.253906 -25.664062 11.648438 -27.03125 15.609375 -27.03125 C 19.773438 -27.03125 23.164062 -25.828125 25.78125 -23.421875 C 28.394531 -21.015625 29.703125 -17.578125 29.703125 -13.109375 C 29.703125 -12.492188 29.679688 -12.082031 29.640625 -11.875 Z M 10.859375 -16.890625 L 20.84375 -16.890625 C 20.632812 -18.253906 20.09375 -19.300781 19.21875 -20.03125 C 18.351562 -20.769531 17.238281 -21.140625 15.875 -21.140625 C 14.375 -21.140625 13.175781 -20.75 12.28125 -19.96875 C 11.394531 -19.1875 10.921875 -18.160156 10.859375 -16.890625 Z M 10.859375 -16.890625 "/></g></g><g style="fill:#000000;fill-opacity:1;"><g transform="translate(214.189248, 230.871899)"><path style="stroke:none" d="M 4.859375 -3.25 C 2.398438 -5.925781 1.171875 -9.207031 1.171875 -13.09375 C 1.171875 -16.988281 2.398438 -20.285156 4.859375 -22.984375 C 7.316406 -25.679688 10.441406 -27.03125 14.234375 -27.03125 C 17.710938 -27.03125 20.582031 -25.941406 22.84375 -23.765625 L 22.84375 -26.265625 L 31.90625 -26.265625 L 31.90625 0 L 22.9375 0 L 22.9375 -2.96875 L 22.84375 -2.96875 C 20.582031 -0.476562 17.710938 0.765625 14.234375 0.765625 C 10.441406 0.765625 7.316406 -0.570312 4.859375 -3.25 Z M 12.5625 -17.5625 C 11.382812 -16.40625 10.796875 -14.921875 10.796875 -13.109375 C 10.796875 -11.296875 11.359375 -9.816406 12.484375 -8.671875 C 13.617188 -7.535156 15.109375 -6.96875 16.953125 -6.96875 C 18.722656 -6.96875 20.179688 -7.546875 21.328125 -8.703125 C 22.472656 -9.867188 23.046875 -11.335938 23.046875 -13.109375 C 23.046875 -14.921875 22.457031 -16.40625 21.28125 -17.5625 C 20.101562 -18.71875 18.660156 -19.296875 16.953125 -19.296875 C 15.210938 -19.296875 13.75 -18.71875 12.5625 -17.5625 Z M 12.5625 -17.5625 "/></g></g><g style="fill:#000000;fill-opacity:1;"><g transform="translate(244.344211, 230.871899)"><path style="stroke:none" d="M 11.625 -26.265625 L 11.625 -13.78125 C 11.625 -11.175781 12.015625 -9.328125 12.796875 -8.234375 C 13.585938 -7.148438 14.921875 -6.609375 16.796875 -6.609375 C 18.671875 -6.609375 20 -7.148438 20.78125 -8.234375 C 21.570312 -9.328125 21.96875 -11.175781 21.96875 -13.78125 L 21.96875 -26.265625 L 31.03125 -26.265625 L 31.03125 -11.578125 C 31.03125 -7.203125 29.894531 -4.050781 27.625 -2.125 C 25.351562 -0.195312 21.742188 0.765625 16.796875 0.765625 C 11.847656 0.765625 8.238281 -0.195312 5.96875 -2.125 C 3.695312 -4.050781 2.5625 -7.203125 2.5625 -11.578125 L 2.5625 -26.265625 Z M 11.625 -26.265625 "/></g></g><g style="fill:#000000;fill-opacity:1;"><g transform="translate(273.116795, 230.871899)"><path style="stroke:none" d="M 4.609375 -26.265625 L 4.609375 -36.046875 L 13.671875 -36.046875 L 13.671875 -26.265625 L 19.203125 -26.265625 L 19.203125 -19.359375 L 13.671875 -19.359375 L 13.671875 -11.015625 C 13.671875 -8.585938 14.351562 -7.375 15.71875 -7.375 C 16.0625 -7.375 16.421875 -7.441406 16.796875 -7.578125 C 17.171875 -7.710938 17.460938 -7.847656 17.671875 -7.984375 L 17.96875 -8.1875 L 20.21875 -0.875 C 18.28125 0.21875 16.0625 0.765625 13.5625 0.765625 C 11.863281 0.765625 10.398438 0.46875 9.171875 -0.125 C 7.941406 -0.726562 7.007812 -1.53125 6.375 -2.53125 C 5.738281 -3.539062 5.285156 -4.597656 5.015625 -5.703125 C 4.742188 -6.816406 4.609375 -8.003906 4.609375 -9.265625 L 4.609375 -19.359375 L 0.8125 -19.359375 L 0.8125 -26.265625 Z M 4.609375 -26.265625 "/></g></g><g style="fill:#000000;fill-opacity:1;"><g transform="translate(288.526378, 230.871899)"><path style="stroke:none" d="M 22.984375 -26.265625 L 33.4375 -26.265625 L 12.796875 13.3125 L 2.359375 13.3125 L 11.421875 -4.09375 L -1.03125 -26.265625 L 9.421875 -26.265625 L 16.75 -12.796875 Z M 22.984375 -26.265625 "/></g></g><g style="fill:#000000;fill-opacity:1;"><g transform="translate(132.916886, 244.029886)"><path style="stroke:none" d="M 3.296875 0.140625 C 2.753906 0.140625 2.273438 0.0195312 1.859375 -0.21875 C 1.453125 -0.46875 1.128906 -0.800781 0.890625 -1.21875 C 0.648438 -1.644531 0.53125 -2.132812 0.53125 -2.6875 C 0.53125 -3.226562 0.648438 -3.707031 0.890625 -4.125 C 1.128906 -4.550781 1.453125 -4.882812 1.859375 -5.125 C 2.273438 -5.363281 2.753906 -5.484375 3.296875 -5.484375 C 3.734375 -5.484375 4.140625 -5.398438 4.515625 -5.234375 C 4.890625 -5.066406 5.203125 -4.832031 5.453125 -4.53125 C 5.710938 -4.226562 5.882812 -3.875 5.96875 -3.46875 L 5.09375 -3.46875 C 4.9375 -3.84375 4.695312 -4.132812 4.375 -4.34375 C 4.050781 -4.550781 3.691406 -4.65625 3.296875 -4.65625 C 2.929688 -4.65625 2.601562 -4.570312 2.3125 -4.40625 C 2.03125 -4.238281 1.804688 -4.003906 1.640625 -3.703125 C 1.484375 -3.410156 1.40625 -3.070312 1.40625 -2.6875 C 1.40625 -2.300781 1.484375 -1.957031 1.640625 -1.65625 C 1.804688 -1.351562 2.03125 -1.117188 2.3125 -0.953125 C 2.601562 -0.785156 2.929688 -0.703125 3.296875 -0.703125 C 3.722656 -0.703125 4.097656 -0.816406 4.421875 -1.046875 C 4.753906 -1.273438 4.984375 -1.582031 5.109375 -1.96875 L 6.03125 -1.96875 C 5.851562 -1.320312 5.519531 -0.804688 5.03125 -0.421875 C 4.539062 -0.046875 3.960938 0.140625 3.296875 0.140625 Z M 3.296875 0.140625 "/></g></g><g style="fill:#000000;fill-opacity:1;"><g transform="translate(146.167782, 244.029886)"><path style="stroke:none" d="M 3.375 0.140625 C 2.8125 0.140625 2.316406 0.0195312 1.890625 -0.21875 C 1.472656 -0.46875 1.140625 -0.800781 0.890625 -1.21875 C 0.648438 -1.644531 0.53125 -2.132812 0.53125 -2.6875 C 0.53125 -3.226562 0.648438 -3.707031 0.890625 -4.125 C 1.140625 -4.550781 1.472656 -4.882812 1.890625 -5.125 C 2.316406 -5.363281 2.8125 -5.484375 3.375 -5.484375 C 3.925781 -5.484375 4.414062 -5.363281 4.84375 -5.125 C 5.269531 -4.882812 5.601562 -4.550781 5.84375 -4.125 C 6.082031 -3.707031 6.203125 -3.226562 6.203125 -2.6875 C 6.203125 -2.132812 6.082031 -1.644531 5.84375 -1.21875 C 5.601562 -0.800781 5.269531 -0.46875 4.84375 -0.21875 C 4.414062 0.0195312 3.925781 0.140625 3.375 0.140625 Z M 1.40625 -2.6875 C 1.40625 -2.289062 1.488281 -1.941406 1.65625 -1.640625 C 1.820312 -1.347656 2.050781 -1.117188 2.34375 -0.953125 C 2.644531 -0.785156 2.988281 -0.703125 3.375 -0.703125 C 3.757812 -0.703125 4.097656 -0.785156 4.390625 -0.953125 C 4.691406 -1.117188 4.925781 -1.347656 5.09375 -1.640625 C 5.257812 -1.941406 5.34375 -2.289062 5.34375 -2.6875 C 5.34375 -3.070312 5.257812 -3.410156 5.09375 -3.703125 C 4.925781 -4.003906 4.691406 -4.238281 4.390625 -4.40625 C 4.097656 -4.570312 3.757812 -4.65625 3.375 -4.65625 C 2.988281 -4.65625 2.644531 -4.570312 2.34375 -4.40625 C 2.050781 -4.238281 1.820312 -4.003906 1.65625 -3.703125 C 1.488281 -3.410156 1.40625 -3.070312 1.40625 -2.6875 Z M 1.40625 -2.6875 "/></g></g><g style="fill:#000000;fill-opacity:1;"><g transform="translate(159.624694, 244.029886)"><path style="stroke:none" d="M 2.890625 0.140625 C 2.191406 0.140625 1.628906 -0.0234375 1.203125 -0.359375 C 0.785156 -0.691406 0.570312 -1.132812 0.5625 -1.6875 L 1.40625 -1.6875 C 1.425781 -1.363281 1.566406 -1.109375 1.828125 -0.921875 C 2.085938 -0.734375 2.445312 -0.640625 2.90625 -0.640625 C 3.3125 -0.640625 3.628906 -0.707031 3.859375 -0.84375 C 4.097656 -0.988281 4.21875 -1.179688 4.21875 -1.421875 C 4.21875 -1.660156 4.09375 -1.851562 3.84375 -2 C 3.601562 -2.15625 3.222656 -2.28125 2.703125 -2.375 C 2.015625 -2.488281 1.503906 -2.675781 1.171875 -2.9375 C 0.835938 -3.195312 0.671875 -3.535156 0.671875 -3.953125 C 0.671875 -4.441406 0.851562 -4.816406 1.21875 -5.078125 C 1.59375 -5.347656 2.101562 -5.484375 2.75 -5.484375 C 3.40625 -5.484375 3.929688 -5.335938 4.328125 -5.046875 C 4.722656 -4.753906 4.9375 -4.34375 4.96875 -3.8125 L 4.109375 -3.8125 C 4.085938 -4.113281 3.957031 -4.335938 3.71875 -4.484375 C 3.476562 -4.640625 3.15625 -4.71875 2.75 -4.71875 C 2.363281 -4.71875 2.0625 -4.648438 1.84375 -4.515625 C 1.632812 -4.390625 1.53125 -4.203125 1.53125 -3.953125 C 1.53125 -3.734375 1.640625 -3.554688 1.859375 -3.421875 C 2.078125 -3.296875 2.460938 -3.179688 3.015625 -3.078125 C 4.390625 -2.804688 5.078125 -2.25 5.078125 -1.40625 C 5.078125 -0.945312 4.878906 -0.570312 4.484375 -0.28125 C 4.085938 0 3.554688 0.140625 2.890625 0.140625 Z M 2.890625 0.140625 "/></g></g><g style="fill:#000000;fill-opacity:1;"><g transform="translate(171.969126, 244.029886)"><path style="stroke:none" d="M 0.953125 0 L 0.953125 -5.359375 L 1.671875 -5.359375 L 1.75 -4.6875 C 2.164062 -5.21875 2.75 -5.484375 3.5 -5.484375 C 3.925781 -5.484375 4.300781 -5.394531 4.625 -5.21875 C 4.945312 -5.039062 5.195312 -4.78125 5.375 -4.4375 C 5.800781 -5.132812 6.460938 -5.484375 7.359375 -5.484375 C 8.035156 -5.484375 8.570312 -5.265625 8.96875 -4.828125 C 9.375 -4.398438 9.578125 -3.8125 9.578125 -3.0625 L 9.578125 0 L 8.71875 0 L 8.71875 -2.921875 C 8.71875 -3.453125 8.582031 -3.875 8.3125 -4.1875 C 8.050781 -4.5 7.695312 -4.65625 7.25 -4.65625 C 6.789062 -4.65625 6.414062 -4.488281 6.125 -4.15625 C 5.84375 -3.832031 5.703125 -3.394531 5.703125 -2.84375 L 5.703125 0 L 4.84375 0 L 4.84375 -2.921875 C 4.84375 -3.453125 4.707031 -3.875 4.4375 -4.1875 C 4.175781 -4.5 3.820312 -4.65625 3.375 -4.65625 C 2.914062 -4.65625 2.539062 -4.488281 2.25 -4.15625 C 1.96875 -3.832031 1.828125 -3.394531 1.828125 -2.84375 L 1.828125 0 Z M 0.953125 0 "/></g></g><g style="fill:#000000;fill-opacity:1;"><g transform="translate(189.113714, 244.029886)"><path style="stroke:none" d="M 3.28125 0.140625 C 2.738281 0.140625 2.257812 0.0195312 1.84375 -0.21875 C 1.4375 -0.457031 1.113281 -0.789062 0.875 -1.21875 C 0.644531 -1.644531 0.53125 -2.132812 0.53125 -2.6875 C 0.53125 -3.226562 0.644531 -3.710938 0.875 -4.140625 C 1.113281 -4.566406 1.441406 -4.894531 1.859375 -5.125 C 2.273438 -5.363281 2.753906 -5.484375 3.296875 -5.484375 C 3.859375 -5.484375 4.347656 -5.347656 4.765625 -5.078125 C 5.191406 -4.816406 5.515625 -4.445312 5.734375 -3.96875 C 5.960938 -3.5 6.066406 -2.953125 6.046875 -2.328125 L 1.40625 -2.328125 C 1.476562 -1.828125 1.679688 -1.425781 2.015625 -1.125 C 2.359375 -0.832031 2.785156 -0.6875 3.296875 -0.6875 C 3.640625 -0.6875 3.957031 -0.757812 4.25 -0.90625 C 4.539062 -1.0625 4.765625 -1.28125 4.921875 -1.5625 L 5.90625 -1.5625 C 5.695312 -1.039062 5.359375 -0.625 4.890625 -0.3125 C 4.421875 -0.0078125 3.882812 0.140625 3.28125 0.140625 Z M 1.421875 -3.09375 L 5.171875 -3.09375 C 5.085938 -3.582031 4.875 -3.96875 4.53125 -4.25 C 4.1875 -4.53125 3.773438 -4.671875 3.296875 -4.671875 C 2.796875 -4.671875 2.375 -4.523438 2.03125 -4.234375 C 1.695312 -3.953125 1.492188 -3.570312 1.421875 -3.09375 Z M 1.421875 -3.09375 "/></g></g><g style="fill:#000000;fill-opacity:1;"><g transform="translate(202.38522, 244.029886)"><path style="stroke:none" d="M 3.265625 0 C 2.671875 0 2.210938 -0.164062 1.890625 -0.5 C 1.566406 -0.84375 1.40625 -1.316406 1.40625 -1.921875 L 1.40625 -4.5625 L 0.28125 -4.5625 L 0.28125 -5.359375 L 0.8125 -5.359375 C 1.0625 -5.359375 1.234375 -5.394531 1.328125 -5.46875 C 1.421875 -5.550781 1.484375 -5.710938 1.515625 -5.953125 L 1.59375 -6.6875 L 2.265625 -6.6875 L 2.265625 -5.359375 L 4 -5.359375 L 4 -4.5625 L 2.265625 -4.5625 L 2.265625 -1.96875 C 2.265625 -1.207031 2.613281 -0.828125 3.3125 -0.828125 L 4.078125 -0.828125 L 4.078125 0 Z M 3.265625 0 "/></g></g><g style="fill:#000000;fill-opacity:1;"><g transform="translate(213.678981, 244.029886)"><path style="stroke:none" d="M 0.953125 0 L 0.953125 -5.359375 L 1.828125 -5.359375 L 1.828125 0 Z M 0.6875 -6.90625 C 0.6875 -7.101562 0.75 -7.265625 0.875 -7.390625 C 1.007812 -7.523438 1.179688 -7.59375 1.390625 -7.59375 C 1.609375 -7.59375 1.773438 -7.523438 1.890625 -7.390625 C 2.015625 -7.265625 2.078125 -7.101562 2.078125 -6.90625 C 2.078125 -6.71875 2.015625 -6.554688 1.890625 -6.421875 C 1.773438 -6.296875 1.609375 -6.234375 1.390625 -6.234375 C 1.179688 -6.234375 1.007812 -6.296875 0.875 -6.421875 C 0.75 -6.554688 0.6875 -6.71875 0.6875 -6.90625 Z M 0.6875 -6.90625 "/></g></g><g style="fill:#000000;fill-opacity:1;"><g transform="translate(223.180404, 244.029886)"><path style="stroke:none" d="M 3.296875 0.140625 C 2.753906 0.140625 2.273438 0.0195312 1.859375 -0.21875 C 1.453125 -0.46875 1.128906 -0.800781 0.890625 -1.21875 C 0.648438 -1.644531 0.53125 -2.132812 0.53125 -2.6875 C 0.53125 -3.226562 0.648438 -3.707031 0.890625 -4.125 C 1.128906 -4.550781 1.453125 -4.882812 1.859375 -5.125 C 2.273438 -5.363281 2.753906 -5.484375 3.296875 -5.484375 C 3.734375 -5.484375 4.140625 -5.398438 4.515625 -5.234375 C 4.890625 -5.066406 5.203125 -4.832031 5.453125 -4.53125 C 5.710938 -4.226562 5.882812 -3.875 5.96875 -3.46875 L 5.09375 -3.46875 C 4.9375 -3.84375 4.695312 -4.132812 4.375 -4.34375 C 4.050781 -4.550781 3.691406 -4.65625 3.296875 -4.65625 C 2.929688 -4.65625 2.601562 -4.570312 2.3125 -4.40625 C 2.03125 -4.238281 1.804688 -4.003906 1.640625 -3.703125 C 1.484375 -3.410156 1.40625 -3.070312 1.40625 -2.6875 C 1.40625 -2.300781 1.484375 -1.957031 1.640625 -1.65625 C 1.804688 -1.351562 2.03125 -1.117188 2.3125 -0.953125 C 2.601562 -0.785156 2.929688 -0.703125 3.296875 -0.703125 C 3.722656 -0.703125 4.097656 -0.816406 4.421875 -1.046875 C 4.753906 -1.273438 4.984375 -1.582031 5.109375 -1.96875 L 6.03125 -1.96875 C 5.851562 -1.320312 5.519531 -0.804688 5.03125 -0.421875 C 4.539062 -0.046875 3.960938 0.140625 3.296875 0.140625 Z M 3.296875 0.140625 "/></g></g><g style="fill:#000000;fill-opacity:1;"><g transform="translate(236.431299, 244.029886)"><path style="stroke:none" d="M 2.890625 0.140625 C 2.191406 0.140625 1.628906 -0.0234375 1.203125 -0.359375 C 0.785156 -0.691406 0.570312 -1.132812 0.5625 -1.6875 L 1.40625 -1.6875 C 1.425781 -1.363281 1.566406 -1.109375 1.828125 -0.921875 C 2.085938 -0.734375 2.445312 -0.640625 2.90625 -0.640625 C 3.3125 -0.640625 3.628906 -0.707031 3.859375 -0.84375 C 4.097656 -0.988281 4.21875 -1.179688 4.21875 -1.421875 C 4.21875 -1.660156 4.09375 -1.851562 3.84375 -2 C 3.601562 -2.15625 3.222656 -2.28125 2.703125 -2.375 C 2.015625 -2.488281 1.503906 -2.675781 1.171875 -2.9375 C 0.835938 -3.195312 0.671875 -3.535156 0.671875 -3.953125 C 0.671875 -4.441406 0.851562 -4.816406 1.21875 -5.078125 C 1.59375 -5.347656 2.101562 -5.484375 2.75 -5.484375 C 3.40625 -5.484375 3.929688 -5.335938 4.328125 -5.046875 C 4.722656 -4.753906 4.9375 -4.34375 4.96875 -3.8125 L 4.109375 -3.8125 C 4.085938 -4.113281 3.957031 -4.335938 3.71875 -4.484375 C 3.476562 -4.640625 3.15625 -4.71875 2.75 -4.71875 C 2.363281 -4.71875 2.0625 -4.648438 1.84375 -4.515625 C 1.632812 -4.390625 1.53125 -4.203125 1.53125 -3.953125 C 1.53125 -3.734375 1.640625 -3.554688 1.859375 -3.421875 C 2.078125 -3.296875 2.460938 -3.179688 3.015625 -3.078125 C 4.390625 -2.804688 5.078125 -2.25 5.078125 -1.40625 C 5.078125 -0.945312 4.878906 -0.570312 4.484375 -0.28125 C 4.085938 0 3.554688 0.140625 2.890625 0.140625 Z M 2.890625 0.140625 "/></g></g></g></svg>