<svg xmlns="http://www.w3.org/2000/svg" xmlns:xlink="http://www.w3.org/1999/xlink" width="300" zoomAndPan="magnify" viewBox="0 0 224.87999 225" height="300" preserveAspectRatio="xMidYMid meet" version="1.2"><defs><clipPath id="2a0cf3f97e"><path d="M 82 65.648438 L 143 65.648438 L 143 159.351562 L 82 159.351562 Z M 82 65.648438 "/></clipPath></defs><g id="f35e1594b4"><g clip-rule="nonzero" clip-path="url(#2a0cf3f97e)"><path style=" stroke:none;fill-rule:evenodd;fill:#000000;fill-opacity:1;" d="M 123.386719 108.929688 C 119.746094 109.476562 116.296875 110.519531 112.847656 112.265625 C 112.003906 111.222656 111.136719 110.226562 110.476562 109.570312 C 107.757812 106.867188 104.832031 104.316406 101.542969 102.316406 C 101.152344 102.078125 100.078125 101.355469 99.214844 101.015625 C 98.769531 100.835938 98.367188 100.773438 98.101562 100.855469 C 97.878906 100.925781 97.664062 101.125 97.484375 101.386719 C 97.289062 101.675781 97.128906 102.046875 97.011719 102.25 C 96.34375 103.382812 95.210938 105.152344 94.878906 105.886719 C 94.6875 106.304688 94.738281 106.578125 94.839844 106.761719 C 94.910156 106.886719 95.015625 106.980469 95.140625 107.050781 C 95.253906 107.117188 95.386719 107.160156 95.480469 107.199219 C 96.011719 107.441406 96.535156 107.699219 97.050781 107.980469 C 98.519531 108.777344 99.992188 109.570312 101.429688 110.421875 C 103.742188 111.792969 106.003906 113.378906 108.050781 115.125 L 108.058594 115.132812 C 107.726562 115.367188 107.476562 115.566406 107.09375 115.84375 C 105.363281 117.105469 102.328125 119.660156 101.011719 121.648438 C 100.648438 122.199219 100.410156 122.714844 100.347656 123.152344 C 100.308594 123.421875 100.328125 123.664062 100.414062 123.882812 C 100.425781 123.9375 100.460938 124.007812 100.519531 124.085938 L 100.539062 124.109375 C 100.570312 124.148438 100.660156 124.261719 100.769531 124.402344 C 100.773438 124.410156 100.777344 124.414062 100.78125 124.417969 C 101.011719 124.707031 101.328125 125.101562 101.4375 125.21875 C 102.058594 125.890625 102.652344 126.589844 103.273438 127.261719 C 105.265625 129.417969 106.890625 131.835938 108.871094 134.003906 C 114.890625 140.589844 120.773438 147.390625 126.976562 153.8125 C 128.367188 155.257812 129.785156 156.660156 131.371094 157.898438 C 131.601562 158.078125 132.632812 159.007812 133.035156 159.1875 C 133.328125 159.316406 133.589844 159.332031 133.820312 159.265625 C 134.140625 159.175781 134.414062 158.917969 134.625 158.53125 C 135.269531 157.34375 135.355469 154.785156 135.460938 153.914062 C 135.980469 149.621094 136.433594 145.476562 137.003906 141.191406 C 137.34375 138.667969 137.644531 136.15625 137.929688 133.648438 L 137.949219 133.601562 C 137.984375 133.523438 137.984375 133.4375 137.960938 133.363281 C 138.511719 128.449219 139.003906 123.546875 139.558594 118.59375 C 139.730469 117.109375 139.929688 113.164062 139.773438 111.359375 C 139.746094 111.015625 139.699219 110.742188 139.644531 110.566406 C 139.609375 110.449219 139.5625 110.363281 139.515625 110.308594 C 139.148438 109.847656 138.289062 109.457031 137.144531 109.179688 C 134.804688 108.605469 131.25 108.402344 128.789062 108.460938 C 128.929688 108 129.089844 107.542969 129.265625 107.089844 C 130.132812 104.855469 131.257812 102.703125 132.542969 100.632812 C 132.898438 100.058594 133.269531 99.492188 133.644531 98.929688 C 133.714844 98.820312 133.921875 98.59375 134.015625 98.398438 C 134.101562 98.226562 134.113281 98.0625 134.066406 97.933594 C 134.003906 97.769531 133.851562 97.609375 133.632812 97.484375 C 133.28125 97.285156 132.742188 97.152344 132.492188 97.082031 C 131.078125 96.667969 129.617188 96.191406 128.140625 95.960938 C 127.695312 95.890625 127.289062 96.128906 126.949219 96.558594 C 126.335938 97.347656 125.945312 98.820312 125.773438 99.265625 C 124.585938 102.410156 123.695312 105.628906 123.386719 108.929688 Z M 135.496094 148.007812 C 134.347656 149.847656 132.808594 151.632812 131.15625 152.882812 C 130.5625 153.335938 129.464844 154.09375 128.664062 154.59375 C 129.652344 155.578125 130.671875 156.519531 131.773438 157.382812 C 131.988281 157.546875 132.933594 158.421875 133.304688 158.585938 C 133.429688 158.644531 133.539062 158.660156 133.640625 158.632812 C 133.742188 158.605469 133.828125 158.53125 133.90625 158.433594 C 134.050781 158.253906 134.164062 158 134.257812 157.707031 C 134.664062 156.457031 134.722656 154.550781 134.808594 153.832031 C 135.046875 151.871094 135.269531 149.933594 135.496094 148.007812 Z M 137.070312 135.328125 C 134.988281 139.027344 131.628906 142.648438 128.46875 145.132812 C 127.207031 146.121094 125.863281 147.015625 124.515625 147.890625 L 123.132812 148.789062 C 124.554688 150.324219 125.992188 151.855469 127.449219 153.359375 C 127.695312 153.613281 127.941406 153.867188 128.1875 154.117188 C 128.976562 153.632812 130.144531 152.828125 130.757812 152.363281 C 132.746094 150.851562 134.566406 148.542969 135.695312 146.324219 C 135.902344 144.59375 136.117188 142.863281 136.351562 141.105469 C 136.609375 139.175781 136.847656 137.25 137.070312 135.328125 Z M 139.054688 116.722656 C 138.269531 118.796875 137.234375 120.753906 136.199219 122.722656 C 133.308594 128.21875 129.601562 133.546875 124.734375 137.492188 C 122.910156 138.972656 120.878906 140.316406 118.808594 141.441406 C 118.730469 141.484375 117.753906 142.003906 117.226562 142.289062 C 119.035156 144.300781 120.847656 146.308594 122.679688 148.296875 L 124.160156 147.339844 C 125.488281 146.476562 126.816406 145.59375 128.066406 144.613281 C 131.597656 141.839844 135.390625 137.605469 137.285156 133.46875 C 137.847656 128.496094 138.339844 123.535156 138.90625 118.519531 C 138.957031 118.09375 139.007812 117.457031 139.054688 116.722656 Z M 139.144531 111.757812 C 138.070312 113.214844 136.671875 114.324219 135.292969 115.507812 C 132.476562 117.925781 129.070312 119.835938 125.46875 121.324219 C 125.460938 121.363281 125.445312 121.402344 125.421875 121.4375 C 122.921875 125.265625 120.394531 129.050781 116.941406 132.113281 C 115.738281 133.183594 114.441406 134.109375 113.109375 135.003906 C 112.773438 135.230469 112.039062 135.660156 111.53125 135.953125 C 113.285156 137.890625 115.027344 139.839844 116.773438 141.789062 C 117.246094 141.535156 118.40625 140.910156 118.496094 140.863281 C 120.53125 139.761719 122.523438 138.4375 124.320312 136.984375 C 129.117188 133.09375 132.765625 127.835938 135.617188 122.414062 C 136.972656 119.835938 138.339844 117.269531 139.105469 114.4375 C 139.117188 114.402344 139.132812 114.367188 139.15625 114.335938 C 139.175781 113.554688 139.179688 112.792969 139.160156 112.160156 C 139.15625 112.019531 139.148438 111.886719 139.144531 111.757812 Z M 124.441406 121.734375 C 121.09375 123.03125 117.613281 123.976562 114.3125 124.636719 C 111.476562 125.203125 108.414062 125.886719 105.503906 125.609375 C 104.46875 125.511719 103.421875 125.308594 102.410156 125.070312 C 102.332031 125.050781 102.226562 125.019531 102.109375 124.976562 C 102.664062 125.585938 103.199219 126.210938 103.757812 126.816406 C 105.75 128.972656 107.375 131.390625 109.359375 133.558594 C 109.933594 134.191406 110.507812 134.820312 111.082031 135.457031 C 111.578125 135.167969 112.382812 134.699219 112.742188 134.460938 C 114.046875 133.582031 115.324219 132.671875 116.503906 131.625 C 119.71875 128.773438 122.113281 125.289062 124.441406 121.734375 Z M 139.019531 110.773438 C 139.007812 110.742188 139 110.71875 138.996094 110.710938 C 138.6875 110.328125 137.941406 110.050781 136.984375 109.816406 C 134.628906 109.238281 131.007812 109.046875 128.589844 109.121094 C 128.171875 110.597656 127.882812 112.109375 127.621094 113.605469 C 127.578125 113.847656 127.527344 114.8125 127.355469 115.445312 C 127.304688 115.640625 127.238281 115.808594 127.164062 115.929688 C 127.085938 116.054688 126.992188 116.140625 126.898438 116.1875 C 126.722656 116.277344 126.417969 116.328125 126.054688 116.335938 C 125.324219 116.347656 124.34375 116.203125 123.960938 116.101562 C 123.761719 116.046875 123.601562 115.90625 123.492188 115.71875 C 123.371094 115.503906 123.3125 115.238281 123.300781 115.082031 C 123.273438 114.730469 123.253906 114.378906 123.25 114.027344 C 123.230469 112.960938 123.246094 111.890625 123.273438 110.824219 C 123.28125 110.414062 123.300781 110.007812 123.332031 109.601562 C 119.859375 110.136719 116.5625 111.136719 113.269531 112.785156 C 113.949219 113.644531 114.589844 114.503906 115.078125 115.210938 C 115.304688 115.539062 115.304688 115.839844 115.152344 116.171875 C 115.042969 116.410156 114.828125 116.679688 114.554688 117.011719 C 114.292969 117.332031 113.972656 117.851562 113.59375 118.242188 C 113.292969 118.554688 112.953125 118.78125 112.582031 118.839844 C 112.390625 118.867188 112.175781 118.8125 111.964844 118.691406 C 111.621094 118.492188 111.265625 118.097656 111.070312 117.914062 C 110.25 117.125 109.425781 116.332031 108.570312 115.578125 C 108.167969 115.855469 107.910156 116.0625 107.484375 116.371094 C 105.796875 117.601562 102.839844 120.078125 101.5625 122.007812 C 101.308594 122.394531 101.121094 122.753906 101.035156 123.078125 C 100.96875 123.324219 100.960938 123.535156 101.058594 123.710938 C 101.089844 123.746094 101.152344 123.828125 101.238281 123.933594 C 101.589844 124.070312 102.265625 124.363281 102.5625 124.433594 C 103.546875 124.664062 104.5625 124.859375 105.566406 124.953125 C 108.414062 125.226562 111.410156 124.546875 114.183594 123.992188 C 121.300781 122.570312 129.273438 119.8125 134.863281 115.011719 C 136.382812 113.703125 137.941406 112.503906 139.019531 110.773438 Z M 95.476562 106.15625 C 95.804688 105.433594 96.921875 103.699219 97.578125 102.578125 C 97.691406 102.386719 97.839844 102.03125 98.03125 101.75 C 98.113281 101.628906 98.191406 101.515625 98.296875 101.484375 C 98.367188 101.460938 98.457031 101.472656 98.558594 101.492188 C 98.785156 101.539062 99.046875 101.644531 99.324219 101.777344 C 100.070312 102.132812 100.878906 102.679688 101.203125 102.878906 C 104.445312 104.847656 107.328125 107.371094 110.011719 110.035156 C 111.304688 111.320312 113.375 113.898438 114.535156 115.582031 C 114.632812 115.726562 114.589844 115.851562 114.5 116.003906 C 114.394531 116.175781 114.234375 116.367188 114.046875 116.597656 C 113.792969 116.90625 113.488281 117.410156 113.125 117.785156 C 112.929688 117.984375 112.722656 118.152344 112.484375 118.191406 C 112.390625 118.203125 112.289062 118.125 112.1875 118.050781 C 111.921875 117.863281 111.675781 117.578125 111.527344 117.4375 C 110.53125 116.484375 109.53125 115.523438 108.476562 114.625 C 106.398438 112.855469 104.109375 111.246094 101.765625 109.855469 C 100.320312 109.003906 98.839844 108.203125 97.367188 107.402344 C 96.835938 107.113281 96.300781 106.851562 95.75 106.601562 C 95.691406 106.574219 95.617188 106.550781 95.539062 106.519531 C 95.492188 106.5 95.4375 106.484375 95.414062 106.441406 C 95.402344 106.421875 95.40625 106.394531 95.410156 106.359375 C 95.417969 106.300781 95.441406 106.234375 95.476562 106.15625 Z M 124.011719 109.351562 C 123.96875 109.84375 123.941406 110.339844 123.929688 110.839844 C 123.90625 111.898438 123.890625 112.957031 123.910156 114.015625 C 123.914062 114.355469 123.933594 114.695312 123.957031 115.03125 C 123.964844 115.105469 123.988281 115.226562 124.035156 115.332031 C 124.058594 115.386719 124.078125 115.453125 124.132812 115.46875 C 124.480469 115.5625 125.378906 115.691406 126.042969 115.679688 C 126.273438 115.675781 126.46875 115.664062 126.585938 115.613281 C 126.59375 115.601562 126.609375 115.574219 126.621094 115.554688 C 126.660156 115.480469 126.691406 115.382812 126.71875 115.277344 C 126.886719 114.664062 126.929688 113.726562 126.972656 113.492188 C 127.363281 111.261719 127.824219 108.992188 128.652344 106.855469 C 129.535156 104.582031 130.679688 102.390625 131.984375 100.289062 C 132.34375 99.710938 132.714844 99.136719 133.09375 98.566406 C 133.132812 98.503906 133.21875 98.40625 133.304688 98.292969 C 133.339844 98.25 133.386719 98.171875 133.414062 98.125 C 133.40625 98.121094 133.402344 98.117188 133.394531 98.113281 C 133.335938 98.066406 133.261719 98.027344 133.179688 97.992188 C 132.878906 97.855469 132.496094 97.765625 132.308594 97.710938 C 130.917969 97.308594 129.488281 96.835938 128.042969 96.609375 C 127.910156 96.589844 127.792969 96.648438 127.683594 96.738281 C 127.523438 96.867188 127.382812 97.0625 127.253906 97.289062 C 126.8125 98.054688 126.527344 99.136719 126.390625 99.5 C 125.207031 102.632812 124.320312 105.835938 124.027344 109.125 C 124.03125 109.140625 124.035156 109.152344 124.035156 109.164062 C 124.046875 109.230469 124.035156 109.292969 124.011719 109.351562 Z M 116.425781 105.769531 C 116.785156 105.992188 117.523438 106.050781 118.25 105.941406 C 118.972656 105.832031 119.671875 105.5625 119.972656 105.226562 C 120.019531 105.175781 120.050781 105.109375 120.054688 105.042969 C 120.054688 105.042969 120.230469 103.285156 120.1875 102.601562 C 120.132812 101.777344 120.164062 100.75 119.410156 100.023438 C 119.070312 99.695312 117.796875 99.023438 116.945312 98.777344 C 116.644531 98.691406 116.390625 98.660156 116.222656 98.683594 C 116.078125 98.703125 115.976562 98.761719 115.902344 98.835938 C 115.667969 99.078125 115.542969 99.386719 115.488281 99.714844 C 115.414062 100.128906 115.460938 100.574219 115.476562 100.90625 C 115.503906 101.492188 115.554688 102.078125 115.609375 102.667969 C 115.65625 103.167969 115.660156 103.96875 115.792969 104.617188 C 115.902344 105.144531 116.109375 105.570312 116.425781 105.769531 Z M 116.339844 99.332031 C 116.367188 99.332031 116.40625 99.332031 116.441406 99.335938 C 116.53125 99.347656 116.640625 99.375 116.761719 99.410156 C 117.515625 99.628906 118.652344 100.207031 118.953125 100.496094 C 119.242188 100.773438 119.371094 101.117188 119.4375 101.46875 C 119.511719 101.867188 119.503906 102.28125 119.53125 102.644531 C 119.566406 103.191406 119.449219 104.460938 119.414062 104.855469 C 119.152344 105.074219 118.652344 105.21875 118.152344 105.292969 C 117.605469 105.375 117.046875 105.382812 116.773438 105.210938 C 116.695312 105.164062 116.640625 105.078125 116.589844 104.980469 C 116.523438 104.839844 116.476562 104.667969 116.4375 104.484375 C 116.308594 103.863281 116.308594 103.089844 116.265625 102.609375 C 116.210938 102.03125 116.164062 101.453125 116.132812 100.871094 C 116.121094 100.628906 116.089844 100.308594 116.113281 99.992188 C 116.136719 99.753906 116.1875 99.515625 116.339844 99.332031 Z M 93.082031 85.605469 C 93.140625 85.554688 93.449219 85.289062 93.496094 85.242188 C 94.039062 84.710938 94.652344 84.253906 95.277344 83.832031 C 96.351562 83.113281 97.949219 82.3125 99.496094 82.066406 C 100.960938 81.832031 102.390625 82.097656 103.21875 83.496094 C 103.496094 83.957031 103.617188 84.449219 103.625 84.953125 C 103.535156 84.96875 103.445312 84.988281 103.351562 85.011719 C 101.800781 85.386719 100.230469 86.492188 99.324219 87.398438 C 98.90625 87.820312 98.367188 88.480469 98.15625 89.15625 C 97.992188 89.675781 98.007812 90.199219 98.335938 90.664062 C 98.699219 91.1875 99.265625 91.25 99.871094 91.046875 C 100.597656 90.804688 101.382812 90.167969 101.746094 89.851562 C 102.769531 88.953125 103.777344 87.5625 104.140625 86.121094 C 104.191406 85.925781 104.226562 85.730469 104.25 85.535156 C 104.886719 85.5 105.496094 85.640625 106.011719 86.058594 C 106.675781 86.605469 106.753906 87.488281 106.683594 88.292969 C 106.664062 88.558594 106.621094 88.824219 106.5625 89.085938 C 105.296875 89.355469 104.074219 89.917969 103.308594 90.554688 C 102.882812 90.90625 101.933594 91.875 101.445312 92.828125 C 101.066406 93.570312 100.988281 94.304688 101.445312 94.816406 C 101.726562 95.132812 102.128906 95.203125 102.582031 95.085938 C 103.382812 94.878906 104.367188 94.039062 104.683594 93.714844 C 105.765625 92.617188 106.671875 91.175781 107.101562 89.652344 C 107.394531 89.609375 107.6875 89.582031 107.972656 89.578125 C 108.859375 89.566406 109.6875 89.761719 110.246094 90.300781 C 110.609375 90.648438 110.855469 91.144531 110.9375 91.808594 C 110.992188 92.273438 110.96875 92.75 110.875 93.207031 C 110.742188 93.851562 110.488281 94.476562 110.164062 95.046875 C 109.601562 96.039062 108.75 96.933594 107.921875 97.710938 C 107.789062 97.835938 107.78125 98.042969 107.90625 98.175781 C 108.03125 98.308594 108.238281 98.3125 108.371094 98.191406 C 109.25 97.367188 110.140625 96.421875 110.734375 95.371094 C 111.09375 94.742188 111.375 94.050781 111.519531 93.339844 C 111.628906 92.8125 111.65625 92.261719 111.589844 91.730469 C 111.386719 90.050781 110.320312 89.242188 108.976562 89 C 108.4375 88.902344 107.851562 88.902344 107.257812 88.972656 C 107.296875 88.765625 107.324219 88.558594 107.339844 88.351562 C 107.429688 87.332031 107.269531 86.238281 106.425781 85.550781 C 105.796875 85.039062 105.058594 84.847656 104.28125 84.875 C 104.261719 84.285156 104.109375 83.703125 103.785156 83.160156 C 102.992188 81.828125 101.753906 81.335938 100.394531 81.335938 C 98.464844 81.335938 96.285156 82.367188 94.914062 83.285156 C 94.25 83.730469 93.605469 84.214844 93.035156 84.773438 C 92.972656 84.832031 92.671875 85.058594 92.554688 85.210938 C 92.460938 85.328125 92.4375 85.441406 92.441406 85.515625 C 92.449219 85.699219 92.601562 85.835938 92.785156 85.828125 C 92.925781 85.824219 93.039062 85.730469 93.082031 85.605469 Z M 106.367188 89.800781 C 105.335938 90.066406 104.359375 90.535156 103.730469 91.054688 C 103.34375 91.378906 102.476562 92.257812 102.03125 93.125 C 101.898438 93.386719 101.804688 93.644531 101.789062 93.882812 C 101.773438 94.070312 101.8125 94.238281 101.9375 94.378906 C 102.003906 94.457031 102.09375 94.480469 102.191406 94.480469 C 102.347656 94.480469 102.515625 94.429688 102.691406 94.351562 C 103.316406 94.078125 103.976562 93.496094 104.214844 93.253906 C 105.144531 92.3125 105.941406 91.097656 106.367188 89.800781 Z M 115.175781 90.628906 C 115.515625 90.796875 115.945312 90.804688 116.363281 90.703125 C 116.957031 90.558594 117.515625 90.203125 117.726562 89.929688 C 117.863281 89.75 117.925781 89.503906 117.9375 89.238281 C 117.949219 88.933594 117.894531 88.601562 117.878906 88.371094 C 117.796875 87.164062 117.753906 85.957031 117.628906 84.753906 C 117.191406 80.566406 116.164062 76.640625 114.65625 72.691406 C 114.082031 71.1875 113.535156 69.34375 112.824219 67.894531 C 112.644531 67.527344 112.394531 67.222656 112.121094 67.046875 C 111.898438 66.902344 111.65625 66.839844 111.417969 66.871094 C 110.664062 66.964844 109.929688 67.261719 109.253906 67.59375 C 108.765625 67.832031 107.960938 68.164062 107.3125 68.585938 C 106.824219 68.898438 106.429688 69.269531 106.253906 69.675781 C 106.132812 69.964844 106.191406 70.292969 106.363281 70.617188 C 106.550781 70.964844 106.871094 71.304688 107.019531 71.539062 C 107.929688 72.945312 108.644531 74.496094 109.351562 76.007812 C 110.933594 79.402344 112.472656 82.820312 113.65625 86.375 C 113.976562 87.332031 114.453125 89.273438 114.792969 90.09375 C 114.867188 90.273438 114.941406 90.40625 115.003906 90.484375 C 115.0625 90.558594 115.125 90.605469 115.175781 90.628906 Z M 103.570312 85.632812 L 103.507812 85.648438 C 102.074219 85.996094 100.628906 87.023438 99.792969 87.863281 C 99.488281 88.164062 99.113281 88.605469 98.890625 89.085938 C 98.703125 89.488281 98.617188 89.917969 98.875 90.289062 C 99.058594 90.554688 99.355469 90.527344 99.664062 90.425781 C 100.304688 90.214844 100.992188 89.636719 101.3125 89.355469 C 102.246094 88.539062 103.171875 87.277344 103.503906 85.960938 C 103.53125 85.851562 103.554688 85.742188 103.570312 85.632812 Z M 115.515625 90.066406 C 115.484375 90 115.359375 89.742188 115.277344 89.507812 C 114.953125 88.578125 114.558594 86.996094 114.28125 86.167969 C 113.089844 82.589844 111.542969 79.148438 109.945312 75.734375 C 109.230469 74.191406 108.5 72.617188 107.574219 71.183594 C 107.453125 70.992188 107.214844 70.730469 107.03125 70.453125 C 106.957031 70.339844 106.894531 70.230469 106.863281 70.117188 C 106.84375 70.054688 106.835938 69.988281 106.859375 69.933594 C 106.992188 69.628906 107.308594 69.371094 107.671875 69.132812 C 108.296875 68.726562 109.074219 68.414062 109.542969 68.183594 C 110.15625 67.882812 110.816406 67.609375 111.503906 67.519531 C 111.621094 67.503906 111.734375 67.566406 111.84375 67.65625 C 111.996094 67.78125 112.128906 67.972656 112.234375 68.183594 C 112.9375 69.617188 113.472656 71.4375 114.042969 72.925781 C 115.527344 76.820312 116.542969 80.695312 116.976562 84.820312 C 117.101562 86.015625 117.140625 87.21875 117.222656 88.414062 C 117.234375 88.59375 117.277344 88.84375 117.28125 89.085938 C 117.285156 89.253906 117.285156 89.421875 117.203125 89.53125 C 117.050781 89.730469 116.636719 89.960938 116.207031 90.066406 C 115.964844 90.125 115.714844 90.148438 115.515625 90.066406 Z M 85.238281 85.144531 C 84.421875 84.902344 83.234375 85.214844 82.589844 85.960938 C 82.214844 86.398438 82.121094 86.914062 82.183594 87.441406 C 82.238281 87.910156 82.417969 88.386719 82.597656 88.796875 C 82.679688 88.992188 82.773438 89.226562 82.917969 89.40625 C 83.046875 89.566406 83.214844 89.6875 83.425781 89.734375 C 83.878906 89.832031 84.332031 89.730469 84.773438 89.53125 C 85.339844 89.273438 85.882812 88.847656 86.347656 88.597656 C 86.558594 88.484375 86.871094 88.332031 87.09375 88.125 C 87.292969 87.933594 87.421875 87.703125 87.417969 87.429688 C 87.410156 87.15625 87.195312 86.742188 86.851562 86.34375 C 86.386719 85.804688 85.703125 85.28125 85.238281 85.144531 Z M 137.429688 88.515625 C 137.957031 88.742188 139.667969 89.507812 140.9375 89.632812 C 141.589844 89.699219 142.136719 89.585938 142.445312 89.253906 C 142.792969 88.882812 142.933594 88.386719 142.941406 87.855469 C 142.953125 87.152344 142.738281 86.386719 142.605469 85.824219 C 142.511719 85.433594 142.402344 85.042969 142.265625 84.664062 C 142.1875 84.4375 142.066406 84.074219 141.898438 83.78125 C 141.75 83.527344 141.5625 83.328125 141.34375 83.238281 C 141.0625 83.121094 140.6875 83.21875 140.308594 83.496094 C 139.679688 83.964844 138.976562 84.945312 138.722656 85.21875 C 138.230469 85.75 137.929688 86.339844 137.515625 86.929688 C 137.253906 87.296875 137.082031 87.636719 137.058594 87.882812 C 137.03125 88.171875 137.136719 88.390625 137.429688 88.515625 Z M 85.046875 85.773438 C 85.429688 85.886719 85.972656 86.332031 86.351562 86.773438 C 86.476562 86.914062 86.585938 87.0625 86.660156 87.195312 C 86.714844 87.289062 86.757812 87.375 86.757812 87.445312 C 86.761719 87.5625 86.660156 87.640625 86.5625 87.714844 C 86.390625 87.847656 86.179688 87.941406 86.035156 88.019531 C 85.652344 88.226562 85.214844 88.554688 84.757812 88.804688 C 84.371094 89.015625 83.96875 89.179688 83.566406 89.09375 C 83.484375 89.074219 83.4375 89.007812 83.394531 88.941406 C 83.3125 88.816406 83.257812 88.664062 83.203125 88.539062 C 83.046875 88.183594 82.886719 87.773438 82.839844 87.367188 C 82.796875 87.019531 82.84375 86.675781 83.089844 86.386719 C 83.566406 85.835938 84.445312 85.59375 85.046875 85.773438 Z M 137.71875 87.925781 C 137.726562 87.894531 137.738281 87.847656 137.753906 87.8125 C 137.816406 87.664062 137.925781 87.492188 138.054688 87.304688 C 138.453125 86.742188 138.734375 86.175781 139.207031 85.664062 C 139.414062 85.4375 139.9375 84.710938 140.464844 84.222656 C 140.617188 84.082031 140.769531 83.960938 140.910156 83.890625 C 140.980469 83.855469 141.039062 83.820312 141.09375 83.84375 C 141.191406 83.886719 141.261719 83.992188 141.328125 84.109375 C 141.476562 84.367188 141.574219 84.6875 141.648438 84.886719 C 141.777344 85.242188 141.878906 85.609375 141.964844 85.976562 C 142.066406 86.414062 142.230469 86.980469 142.273438 87.535156 C 142.3125 88.011719 142.273438 88.480469 141.964844 88.804688 C 141.847656 88.929688 141.664062 88.976562 141.445312 88.992188 C 141.164062 89.011719 140.832031 88.972656 140.488281 88.898438 C 139.398438 88.671875 138.175781 88.125 137.71875 87.925781 Z M 126.398438 74.148438 C 125.679688 74.328125 125.015625 74.726562 124.511719 75.394531 C 123.785156 76.351562 123.660156 77.535156 123.894531 78.734375 C 123.996094 79.25 124.164062 79.765625 124.378906 80.265625 C 124.347656 80.273438 124.320312 80.277344 124.289062 80.285156 C 122.90625 80.59375 121.824219 81.535156 121.929688 83.296875 C 121.960938 83.804688 122.125 84.292969 122.324219 84.753906 C 122.625 85.4375 123.035156 86.050781 123.542969 86.597656 C 123.8125 86.886719 124.550781 87.722656 125.207031 88.171875 C 125.5625 88.417969 125.90625 88.542969 126.164062 88.511719 C 126.34375 88.492188 126.476562 88.328125 126.453125 88.148438 C 126.433594 87.96875 126.269531 87.839844 126.089844 87.859375 C 126.007812 87.871094 125.917969 87.828125 125.8125 87.773438 C 125.660156 87.695312 125.492188 87.574219 125.328125 87.441406 C 124.785156 87 124.242188 86.382812 124.023438 86.148438 C 123.566406 85.660156 123.199219 85.105469 122.929688 84.492188 C 122.757812 84.101562 122.613281 83.6875 122.589844 83.257812 C 122.507812 81.886719 123.359375 81.167969 124.433594 80.925781 C 124.507812 80.910156 124.585938 80.894531 124.664062 80.882812 C 125.136719 81.808594 125.738281 82.648438 126.308594 83.257812 C 126.648438 83.628906 127.542969 84.332031 128.339844 84.535156 C 128.722656 84.632812 129.085938 84.617188 129.382812 84.453125 C 129.589844 84.335938 129.769531 84.152344 129.898438 83.867188 C 130.109375 83.394531 129.996094 82.882812 129.699219 82.410156 C 129.320312 81.804688 128.648438 81.261719 128.234375 80.984375 C 127.398438 80.421875 126.183594 80.117188 125.054688 80.179688 C 124.824219 79.667969 124.644531 79.140625 124.539062 78.609375 C 124.34375 77.597656 124.425781 76.597656 125.035156 75.792969 C 125.460938 75.230469 126.019531 74.90625 126.628906 74.769531 C 126.824219 75.257812 127.058594 75.722656 127.308594 76.136719 C 127.941406 77.195312 128.832031 78.222656 130.09375 78.5 C 130.902344 78.679688 131.371094 78.433594 131.59375 78.066406 C 131.730469 77.84375 131.78125 77.554688 131.753906 77.238281 C 131.710938 76.832031 131.527344 76.375 131.238281 75.988281 C 130.492188 74.988281 129.253906 74.269531 127.992188 74.085938 C 127.675781 74.039062 127.363281 74.023438 127.050781 74.046875 C 126.46875 72.371094 126.351562 70.453125 127.441406 69.046875 C 127.933594 68.410156 128.648438 68.09375 129.421875 67.945312 C 130.246094 67.789062 131.132812 67.824219 131.910156 67.894531 C 132.09375 67.910156 132.253906 67.777344 132.269531 67.597656 C 132.285156 67.417969 132.152344 67.257812 131.972656 67.238281 C 131.136719 67.164062 130.183594 67.132812 129.300781 67.300781 C 128.367188 67.476562 127.511719 67.878906 126.917969 68.644531 C 125.722656 70.195312 125.792969 72.300781 126.398438 74.148438 Z M 125.375 80.828125 C 125.796875 81.601562 126.304688 82.292969 126.789062 82.816406 C 127.078125 83.125 127.832031 83.730469 128.5 83.898438 C 128.707031 83.949219 128.902344 83.964844 129.0625 83.878906 C 129.160156 83.824219 129.234375 83.730469 129.296875 83.597656 C 129.417969 83.324219 129.3125 83.03125 129.140625 82.753906 C 128.8125 82.234375 128.226562 81.769531 127.871094 81.527344 C 127.207031 81.082031 126.277344 80.828125 125.375 80.828125 Z M 127.304688 74.695312 C 127.476562 75.089844 127.667969 75.460938 127.875 75.800781 C 128.417969 76.707031 129.152344 77.621094 130.234375 77.859375 C 130.65625 77.953125 130.914062 77.914062 131.03125 77.722656 C 131.101562 77.609375 131.113281 77.464844 131.097656 77.304688 C 131.066406 77.003906 130.921875 76.667969 130.710938 76.378906 C 130.066406 75.511719 128.988281 74.894531 127.894531 74.734375 C 127.699219 74.707031 127.5 74.691406 127.304688 74.695312 Z M 93.511719 66.089844 C 93.34375 66.640625 92.78125 68.421875 92.800781 69.695312 C 92.8125 70.347656 92.992188 70.878906 93.355469 71.144531 C 93.765625 71.449219 94.273438 71.527344 94.808594 71.472656 C 95.503906 71.402344 96.246094 71.101562 96.789062 70.90625 C 97.167969 70.769531 97.546875 70.613281 97.910156 70.433594 C 98.121094 70.328125 98.472656 70.171875 98.746094 69.96875 C 98.980469 69.792969 99.15625 69.582031 99.21875 69.359375 C 99.304688 69.0625 99.167969 68.703125 98.84375 68.367188 C 98.304688 67.796875 97.246094 67.210938 96.945312 66.992188 C 96.355469 66.566406 95.734375 66.335938 95.101562 65.992188 C 94.703125 65.777344 94.34375 65.644531 94.097656 65.648438 C 93.808594 65.65625 93.601562 65.789062 93.511719 66.089844 Z M 94.132812 66.308594 C 94.164062 66.3125 94.210938 66.320312 94.25 66.328125 C 94.40625 66.375 94.585938 66.460938 94.789062 66.570312 C 95.398438 66.898438 95.996094 67.113281 96.558594 67.523438 C 96.808594 67.703125 97.59375 68.136719 98.140625 68.601562 C 98.296875 68.734375 98.433594 68.871094 98.519531 69.003906 C 98.5625 69.066406 98.605469 69.121094 98.589844 69.179688 C 98.558594 69.28125 98.460938 69.363281 98.351562 69.441406 C 98.113281 69.617188 97.804688 69.753906 97.617188 69.847656 C 97.277344 70.015625 96.921875 70.160156 96.5625 70.289062 C 96.140625 70.441406 95.59375 70.667969 95.046875 70.773438 C 94.578125 70.867188 94.105469 70.882812 93.746094 70.617188 C 93.609375 70.515625 93.542969 70.335938 93.5 70.125 C 93.449219 69.847656 93.449219 69.515625 93.484375 69.164062 C 93.585938 68.0625 93.988281 66.785156 94.132812 66.308594 Z M 94.132812 66.308594 "/></g></g></svg>