<svg xmlns="http://www.w3.org/2000/svg" xmlns:xlink="http://www.w3.org/1999/xlink" width="300" zoomAndPan="magnify" viewBox="0 0 224.87999 225" height="300" preserveAspectRatio="xMidYMid meet" version="1.2"><defs><clipPath id="5405e2c23a"><path d="M 79.644531 65.648438 L 145.234375 65.648438 L 145.234375 159.351562 L 79.644531 159.351562 Z M 79.644531 65.648438 "/></clipPath></defs><g id="0d867d826d"><g clip-rule="nonzero" clip-path="url(#5405e2c23a)"><path style=" stroke:none;fill-rule:nonzero;fill:#000000;fill-opacity:1;" d="M 143.671875 81.265625 L 135.863281 81.265625 L 135.863281 67.210938 C 135.863281 66.347656 135.164062 65.648438 134.304688 65.648438 C 134.152344 65.648438 134.003906 65.671875 133.863281 65.714844 L 80.765625 81.332031 C 80.734375 81.332031 80.710938 81.363281 80.679688 81.375 C 80.597656 81.40625 80.523438 81.445312 80.453125 81.488281 C 80.355469 81.539062 80.269531 81.597656 80.1875 81.667969 C 80.125 81.722656 80.070312 81.785156 80.015625 81.851562 C 79.949219 81.933594 79.886719 82.023438 79.835938 82.117188 C 79.800781 82.191406 79.769531 82.265625 79.742188 82.34375 C 79.707031 82.453125 79.683594 82.566406 79.675781 82.683594 C 79.675781 82.734375 79.644531 82.777344 79.644531 82.828125 L 79.644531 157.789062 C 79.644531 158.652344 80.34375 159.351562 81.207031 159.351562 L 143.671875 159.351562 C 144.535156 159.351562 145.234375 158.652344 145.234375 157.789062 L 145.234375 82.828125 C 145.234375 81.964844 144.535156 81.265625 143.671875 81.265625 Z M 132.742188 69.296875 L 132.742188 81.265625 L 92.050781 81.265625 Z M 142.113281 156.226562 L 82.769531 156.226562 L 82.769531 84.390625 L 142.113281 84.390625 Z M 142.113281 156.226562 "/></g><path style=" stroke:none;fill-rule:nonzero;fill:#000000;fill-opacity:1;" d="M 101.507812 90.636719 C 100.960938 90.636719 100.453125 90.925781 100.167969 91.394531 L 96.824219 96.972656 L 93.476562 91.394531 C 93.03125 90.65625 92.070312 90.417969 91.332031 90.859375 C 90.863281 91.144531 90.578125 91.652344 90.578125 92.199219 L 90.578125 104.691406 C 90.578125 105.554688 91.277344 106.253906 92.136719 106.253906 C 93 106.253906 93.699219 105.554688 93.699219 104.691406 L 93.699219 97.835938 L 95.484375 100.8125 C 95.992188 101.550781 97 101.738281 97.742188 101.234375 C 97.90625 101.121094 98.046875 100.976562 98.160156 100.8125 L 99.945312 97.835938 L 99.945312 104.691406 C 99.945312 105.554688 100.644531 106.253906 101.507812 106.253906 C 102.371094 106.253906 103.070312 105.554688 103.070312 104.691406 L 103.070312 92.199219 C 103.070312 91.335938 102.371094 90.636719 101.507812 90.636719 Z M 101.507812 90.636719 "/><path style=" stroke:none;fill-rule:nonzero;fill:#000000;fill-opacity:1;" d="M 110.878906 100.007812 C 111.742188 100.007812 112.441406 99.308594 112.441406 98.445312 C 112.441406 97.582031 111.742188 96.882812 110.878906 96.882812 L 107.753906 96.882812 L 107.753906 93.761719 L 110.878906 93.761719 C 111.742188 93.761719 112.441406 93.0625 112.441406 92.199219 C 112.441406 91.335938 111.742188 90.636719 110.878906 90.636719 L 106.191406 90.636719 C 105.332031 90.636719 104.632812 91.335938 104.632812 92.199219 L 104.632812 104.691406 C 104.632812 105.554688 105.332031 106.253906 106.191406 106.253906 L 110.878906 106.253906 C 111.742188 106.253906 112.441406 105.554688 112.441406 104.691406 C 112.441406 103.832031 111.742188 103.128906 110.878906 103.128906 L 107.753906 103.128906 L 107.753906 100.007812 Z M 110.878906 100.007812 "/><path style=" stroke:none;fill-rule:nonzero;fill:#000000;fill-opacity:1;" d="M 121.808594 90.636719 C 120.945312 90.636719 120.25 91.335938 120.25 92.199219 L 120.25 98.074219 L 116.96875 91.5 C 116.59375 90.722656 115.660156 90.402344 114.882812 90.773438 C 114.335938 91.039062 113.992188 91.59375 114 92.199219 L 114 104.691406 C 114 105.554688 114.699219 106.253906 115.5625 106.253906 C 116.425781 106.253906 117.125 105.554688 117.125 104.691406 L 117.125 98.8125 L 120.40625 105.390625 C 120.78125 106.164062 121.714844 106.492188 122.488281 106.113281 C 123.035156 105.851562 123.378906 105.296875 123.371094 104.691406 L 123.371094 92.199219 C 123.371094 91.335938 122.671875 90.636719 121.808594 90.636719 Z M 121.808594 90.636719 "/><path style=" stroke:none;fill-rule:nonzero;fill:#000000;fill-opacity:1;" d="M 132.742188 90.636719 C 131.878906 90.636719 131.179688 91.335938 131.179688 92.199219 L 131.179688 101.566406 C 131.179688 102.429688 130.480469 103.128906 129.617188 103.128906 C 128.753906 103.128906 128.058594 102.429688 128.058594 101.566406 L 128.058594 92.199219 C 128.058594 91.335938 127.359375 90.636719 126.496094 90.636719 C 125.632812 90.636719 124.933594 91.335938 124.933594 92.199219 L 124.933594 101.566406 C 124.933594 104.15625 127.03125 106.253906 129.617188 106.253906 C 132.203125 106.253906 134.304688 104.15625 134.304688 101.566406 L 134.304688 92.199219 C 134.304688 91.335938 133.605469 90.636719 132.742188 90.636719 Z M 132.742188 90.636719 "/><path style=" stroke:none;fill-rule:nonzero;fill:#000000;fill-opacity:1;" d="M 137.425781 120.308594 L 87.453125 120.308594 C 86.589844 120.308594 85.890625 121.007812 85.890625 121.871094 C 85.890625 122.734375 86.589844 123.433594 87.453125 123.433594 L 137.425781 123.433594 C 138.289062 123.433594 138.988281 122.734375 138.988281 121.871094 C 138.988281 121.007812 138.289062 120.308594 137.425781 120.308594 Z M 137.425781 120.308594 "/><path style=" stroke:none;fill-rule:nonzero;fill:#000000;fill-opacity:1;" d="M 137.425781 129.679688 L 87.453125 129.679688 C 86.589844 129.679688 85.890625 130.378906 85.890625 131.238281 C 85.890625 132.101562 86.589844 132.800781 87.453125 132.800781 L 137.425781 132.800781 C 138.289062 132.800781 138.988281 132.101562 138.988281 131.238281 C 138.988281 130.378906 138.289062 129.679688 137.425781 129.679688 Z M 137.425781 129.679688 "/><path style=" stroke:none;fill-rule:nonzero;fill:#000000;fill-opacity:1;" d="M 137.425781 139.046875 L 87.453125 139.046875 C 86.589844 139.046875 85.890625 139.746094 85.890625 140.609375 C 85.890625 141.472656 86.589844 142.171875 87.453125 142.171875 L 137.425781 142.171875 C 138.289062 142.171875 138.988281 141.472656 138.988281 140.609375 C 138.988281 139.746094 138.289062 139.046875 137.425781 139.046875 Z M 137.425781 139.046875 "/></g></svg>