<svg xmlns="http://www.w3.org/2000/svg" xmlns:xlink="http://www.w3.org/1999/xlink" width="300" zoomAndPan="magnify" viewBox="0 0 224.87999 225" height="300" preserveAspectRatio="xMidYMid meet" version="1.2"><defs><clipPath id="bbb9bd65a0"><path d="M 24 66 L 204 66 L 204 159.351562 L 24 159.351562 Z M 24 66 "/></clipPath></defs><g id="a78c5569d5"><g clip-rule="nonzero" clip-path="url(#bbb9bd65a0)"><path style=" stroke:none;fill-rule:nonzero;fill:#000000;fill-opacity:1;" d="M 203.726562 67.203125 C 203.375 66.355469 202.316406 65.6875 200.835938 66.285156 C 197.523438 67.625 184.902344 72.171875 161.140625 75.203125 C 160.859375 73.6875 158.707031 72.066406 156.277344 72.3125 C 153.914062 72.558594 152.574219 74.746094 152.257812 76.15625 C 152.257812 76.191406 152.257812 76.191406 152.257812 76.226562 C 141.257812 77.320312 129.238281 77.953125 117.144531 78.058594 C 117.113281 76.507812 115.808594 74.148438 113.023438 74.039062 C 110.023438 73.863281 108.296875 76.648438 107.910156 77.742188 C 107.875 77.847656 107.839844 77.988281 107.804688 78.09375 C 107.132812 78.09375 106.464844 78.128906 106.394531 78.09375 L 106.394531 78.765625 L 106.359375 78.09375 C 94.234375 77.988281 82.953125 77.460938 72.800781 76.542969 C 72.90625 74.992188 71.953125 72.59375 69.273438 72.101562 C 66.3125 71.539062 64.269531 74.003906 63.703125 75.0625 C 63.597656 75.273438 63.527344 75.453125 63.527344 75.628906 C 40.613281 72.488281 29.296875 68.15625 27.148438 66.636719 C 25.984375 65.933594 23.976562 66.957031 24.082031 68.402344 C 24.503906 71.75 42.199219 77.070312 66.558594 79.820312 C 66.136719 80.351562 65.890625 81.089844 65.75 81.832031 C 65.609375 81.832031 65.433594 81.867188 65.292969 81.902344 C 63.316406 82.21875 61.871094 83.839844 60.636719 85.285156 C 59.933594 86.097656 59.261719 86.839844 58.625 87.222656 C 58.453125 87.328125 58.101562 87.507812 57.640625 87.71875 C 56.40625 87.363281 55.417969 87.753906 53.941406 88.316406 C 51.859375 89.058594 47.980469 90.46875 45.621094 90.714844 C 42.375 91.066406 40.964844 91.949219 39.484375 93.078125 C 37.722656 94.378906 28.242188 101.570312 26.652344 102.699219 C 25.492188 103.546875 24.75 104.074219 24.855469 105.027344 C 24.925781 105.730469 25.699219 106.929688 27.007812 108.835938 C 27.675781 109.890625 31.308594 112.957031 32.011719 114.015625 C 32.578125 115.003906 33.703125 115.992188 35.855469 115.003906 C 36.980469 114.507812 39.203125 114.191406 40.191406 114.15625 C 39.0625 123.746094 35.363281 145.039062 34.867188 152.546875 C 34.832031 153.003906 35.007812 153.320312 35.148438 153.496094 C 35.609375 154.027344 36.453125 154.097656 37.511719 154.132812 C 39.414062 154.238281 67.230469 158.222656 75.761719 159.242188 C 77.734375 159.3125 77.839844 157.339844 78.015625 155.753906 C 78.121094 155.117188 78.757812 150.746094 79.425781 145.882812 C 79.886719 146.941406 81.648438 147.152344 83.09375 147.363281 C 85.417969 147.785156 95.359375 149.125 99.238281 149.335938 C 102.726562 149.441406 105.480469 151.664062 107.417969 146.339844 C 108.652344 142.851562 110.90625 133.828125 112 129.351562 C 113.234375 134.25 115.808594 144.683594 116.125 147.292969 C 116.40625 149.511719 117.007812 150.605469 118.945312 150.640625 C 121.164062 150.429688 138.332031 148.316406 141.894531 147.539062 C 143.550781 147.011719 142.707031 144.507812 142.246094 142.710938 C 141.789062 141.054688 140.308594 127.199219 140.023438 123.289062 C 139.988281 122.863281 139.953125 122.441406 139.953125 122.019531 C 140.34375 121.734375 140.730469 121.3125 140.976562 120.996094 C 141.402344 125.472656 142.601562 137.742188 143.867188 144.789062 C 144.609375 148.878906 144.925781 151.628906 145.171875 153.601562 C 145.773438 157.480469 145.277344 159.207031 149.578125 159.207031 C 151.941406 159.242188 156.949219 158.46875 160.296875 158.078125 C 166.675781 157.304688 178.699219 155.894531 182.71875 155.296875 C 186.875 154.660156 187.367188 153.425781 186.980469 150.710938 C 186.523438 147.539062 182.46875 118.808594 182.117188 115.957031 C 184.160156 117.398438 186.207031 117.894531 188.285156 115.566406 C 189.695312 114.121094 193.960938 109.398438 194.453125 107.601562 C 195.125 103.933594 190.613281 100.972656 188.179688 98.1875 C 185.820312 95.753906 183.171875 93.042969 182.117188 92.195312 C 180.566406 90.960938 177.214844 88.882812 174.398438 88.175781 C 172.070312 87.578125 168.578125 86.976562 167.664062 86.804688 C 167.171875 86.308594 165.792969 84.898438 164.386719 84.15625 C 164.386719 84.15625 164.351562 84.15625 164.351562 84.121094 C 164.28125 84.085938 164.175781 84.050781 164.101562 83.980469 C 164.066406 83.980469 164.03125 83.945312 163.996094 83.945312 C 163.925781 83.910156 163.855469 83.875 163.785156 83.875 C 163.75 83.839844 163.679688 83.839844 163.644531 83.804688 C 163.609375 83.804688 163.539062 83.769531 163.503906 83.769531 C 163.433594 83.734375 163.363281 83.734375 163.292969 83.699219 C 163.257812 83.699219 163.222656 83.699219 163.1875 83.664062 C 163.117188 83.664062 163.046875 83.628906 162.976562 83.628906 C 162.976562 83.628906 162.976562 83.628906 162.941406 83.628906 C 162.941406 83.628906 162.902344 83.628906 162.832031 83.628906 C 161.953125 83.558594 160.507812 83.488281 158.957031 83.523438 L 158.921875 83.347656 C 158.851562 82.890625 159.273438 81.726562 159.695312 81.585938 C 161.105469 81.054688 161.597656 80.066406 161.667969 79.046875 C 185.820312 75.980469 199.039062 71.222656 202.386719 69.84375 C 203.761719 69.351562 204.078125 68.121094 203.726562 67.203125 Z M 155.605469 83.804688 C 155.535156 83.839844 155.5 83.839844 155.429688 83.875 C 155.429688 83.875 155.394531 83.875 155.394531 83.875 C 155.183594 83.910156 154.972656 83.945312 154.761719 83.980469 C 154.726562 83.980469 154.691406 83.980469 154.621094 84.015625 C 154.40625 84.050781 154.195312 84.121094 153.984375 84.15625 C 153.949219 84.15625 153.914062 84.15625 153.878906 84.191406 C 153.667969 84.226562 153.492188 84.296875 153.316406 84.367188 C 153.28125 84.367188 153.246094 84.40625 153.246094 84.40625 C 153.070312 84.476562 152.894531 84.546875 152.714844 84.617188 C 151.660156 85.039062 150.953125 85.390625 150.390625 85.816406 C 150.355469 85.851562 150.316406 85.851562 150.316406 85.886719 C 150.316406 85.886719 150.28125 85.921875 150.28125 85.921875 C 150.246094 85.957031 150.175781 85.992188 150.140625 86.0625 C 150.105469 86.097656 150.070312 86.097656 150.039062 86.132812 C 149.828125 86.308594 149.613281 86.554688 149.4375 86.839844 C 149.015625 87.4375 148.628906 88.175781 148.0625 89.199219 C 146.96875 89.691406 142 91.914062 138.792969 94.625 C 137.097656 96.039062 135.375 98.152344 133.574219 100.902344 C 133.503906 100.726562 133.46875 100.515625 133.398438 100.304688 C 133.152344 98.855469 132.164062 98.714844 130.578125 99.351562 C 130.261719 99.492188 129.980469 99.597656 129.625 99.703125 L 128.601562 99.175781 C 126.101562 97.90625 123.773438 96.671875 122.503906 95.933594 C 119.71875 94.238281 119.367188 92.582031 117.957031 90.433594 C 117.113281 89.199219 115.703125 88.105469 113.9375 87.683594 C 113.9375 87.578125 113.9375 87.507812 113.9375 87.472656 C 113.9375 87.046875 114.820312 85.746094 115.417969 85.640625 C 116.511719 85.53125 117.078125 84.652344 117.144531 84.15625 C 117.144531 84.121094 117.144531 84.085938 117.179688 84.050781 C 117.179688 84.015625 117.179688 83.171875 117.179688 82.113281 C 131.035156 81.972656 145.066406 81.125 157.402344 79.714844 C 157.300781 79.820312 157.195312 79.925781 157.054688 79.996094 C 155.570312 80.5625 155.535156 82.75 155.605469 83.804688 Z M 166.957031 94.839844 C 166.605469 95.121094 165.9375 95.402344 165.230469 95.71875 C 164.597656 96.003906 163.925781 96.285156 163.46875 96.601562 C 163.152344 96.8125 162.902344 97.023438 162.867188 97.273438 C 162.867188 97.308594 162.832031 97.34375 162.796875 97.378906 C 162.796875 97.414062 162.761719 97.414062 162.761719 97.449219 C 162.726562 97.484375 162.691406 97.519531 162.65625 97.554688 C 162.65625 97.554688 162.621094 97.589844 162.621094 97.589844 C 162.585938 97.660156 162.515625 97.695312 162.480469 97.765625 C 162.164062 97.871094 161.988281 97.941406 161.847656 98.046875 C 161.492188 98.257812 160.964844 98.609375 160.367188 99 C 160.824219 98.433594 161.386719 97.765625 162.058594 96.953125 C 163.785156 94.910156 164.351562 93.183594 164.457031 91.242188 C 164.457031 91.207031 164.457031 91.207031 164.457031 91.171875 C 164.457031 90.996094 164.457031 90.820312 164.492188 90.609375 C 164.492188 90.574219 164.492188 90.539062 164.492188 90.539062 C 164.492188 90.117188 164.492188 89.691406 164.457031 89.234375 C 164.457031 89.058594 164.421875 88.882812 164.421875 88.707031 C 164.421875 88.671875 164.421875 88.636719 164.421875 88.597656 C 164.421875 88.597656 164.421875 88.5625 164.421875 88.5625 C 164.421875 88.351562 164.386719 88.175781 164.386719 87.964844 C 164.316406 87.117188 164.175781 86.273438 163.925781 85.53125 C 164.03125 85.605469 164.175781 85.675781 164.28125 85.746094 C 164.351562 85.816406 164.457031 85.851562 164.527344 85.921875 C 164.5625 85.957031 164.597656 85.957031 164.632812 85.992188 C 164.84375 86.132812 165.054688 86.308594 165.230469 86.484375 C 165.300781 86.519531 165.335938 86.589844 165.40625 86.625 C 165.582031 86.765625 165.722656 86.90625 165.863281 87.046875 C 165.898438 87.082031 165.9375 87.117188 165.972656 87.152344 C 166.042969 87.222656 166.113281 87.257812 166.148438 87.328125 C 166.21875 87.398438 166.253906 87.4375 166.324219 87.507812 C 166.429688 87.613281 166.535156 87.71875 166.605469 87.824219 C 167.382812 91.03125 167.382812 94.378906 166.957031 94.839844 Z M 161.492188 104.179688 C 161.632812 105.273438 162.058594 105.976562 160.859375 106.4375 C 160.296875 106.578125 159.132812 106.859375 158.53125 106.789062 C 158.320312 105.554688 158.285156 104.535156 158.039062 102.945312 C 157.96875 102.488281 157.898438 102.066406 157.828125 101.710938 C 157.933594 101.746094 158.039062 101.78125 158.179688 101.816406 C 158.355469 101.816406 158.636719 101.746094 158.816406 101.640625 C 158.851562 101.640625 159.980469 100.867188 161.035156 100.164062 C 160.859375 101.148438 161.210938 102.3125 161.492188 104.179688 Z M 152.292969 96.496094 C 151.941406 96.566406 151.554688 96.707031 151.164062 96.8125 C 150.636719 96.917969 150.175781 96.953125 149.933594 96.671875 C 149.863281 96.601562 149.828125 96.496094 149.792969 96.390625 C 149.542969 95.507812 149.261719 93.183594 149.015625 89.941406 C 149.015625 89.941406 149.015625 89.941406 149.015625 89.90625 C 149.015625 89.871094 149.050781 89.871094 149.050781 89.835938 C 149.402344 89.234375 149.828125 88.421875 150.105469 87.929688 C 150.140625 87.894531 150.175781 87.824219 150.210938 87.789062 C 150.460938 88.386719 150.707031 88.988281 150.953125 89.410156 C 150.953125 89.445312 150.988281 89.445312 150.988281 89.445312 C 151.023438 89.480469 151.023438 89.515625 151.058594 89.550781 C 151.304688 89.941406 151.90625 90.855469 152.644531 91.949219 C 153.984375 93.957031 155.113281 95.542969 155.960938 96.566406 C 155.75 96.460938 155.535156 96.355469 155.324219 96.285156 C 154.726562 95.898438 154.054688 95.933594 153.386719 96.109375 C 153.070312 96.285156 152.679688 96.390625 152.292969 96.496094 Z M 162.832031 88.492188 C 162.941406 88.597656 163.046875 88.742188 163.117188 88.847656 C 163.117188 88.847656 163.117188 88.882812 163.117188 88.882812 C 163.117188 89.09375 163.152344 89.304688 163.152344 89.480469 C 163.152344 89.691406 163.152344 89.941406 163.152344 90.152344 L 157.863281 87.964844 C 157.652344 87.894531 157.402344 87.894531 157.230469 88.035156 L 153.351562 90.714844 C 153.035156 90.222656 152.679688 89.691406 152.292969 89.128906 C 152.398438 88.917969 152.503906 88.742188 152.609375 88.527344 C 152.644531 88.457031 152.679688 88.421875 152.714844 88.351562 C 152.789062 88.210938 152.894531 88.070312 152.964844 87.929688 C 153 87.824219 153.070312 87.753906 153.140625 87.648438 C 153.210938 87.542969 153.28125 87.4375 153.351562 87.328125 C 153.421875 87.257812 153.457031 87.152344 153.527344 87.082031 C 153.597656 86.976562 153.667969 86.875 153.738281 86.765625 C 153.808594 86.695312 153.84375 86.625 153.914062 86.554688 C 153.984375 86.449219 154.089844 86.34375 154.160156 86.238281 C 154.230469 86.167969 154.265625 86.132812 154.335938 86.0625 C 154.441406 85.957031 154.511719 85.886719 154.621094 85.78125 C 154.691406 85.710938 154.761719 85.675781 154.832031 85.640625 C 154.9375 85.566406 155.042969 85.496094 155.148438 85.425781 C 155.21875 85.390625 155.324219 85.320312 155.394531 85.285156 C 155.5 85.214844 155.605469 85.179688 155.75 85.109375 C 156.734375 84.96875 157.792969 84.898438 158.78125 84.863281 C 158.851562 84.863281 158.886719 84.898438 158.957031 84.898438 C 159.414062 85.039062 159.800781 85.214844 160.191406 85.460938 C 160.789062 85.886719 161.28125 86.414062 161.742188 87.011719 C 162.09375 87.542969 162.410156 88 162.832031 88.492188 Z M 159.132812 98.363281 C 158.78125 97.90625 158.179688 97.167969 157.265625 96.144531 C 156.699219 95.472656 155.710938 94.238281 154.125 91.84375 L 157.722656 89.339844 L 163.117188 91.558594 C 162.941406 93.113281 162.410156 94.449219 161.035156 96.074219 C 160.261719 97.023438 159.625 97.800781 159.132812 98.363281 Z M 152.753906 85.992188 C 152.753906 85.992188 152.714844 86.027344 152.714844 86.027344 C 152.609375 86.167969 152.503906 86.34375 152.398438 86.519531 C 152.363281 86.589844 152.292969 86.660156 152.257812 86.730469 C 152.1875 86.875 152.117188 86.976562 152.011719 87.117188 C 151.941406 87.222656 151.871094 87.363281 151.800781 87.472656 C 151.800781 87.472656 151.800781 87.507812 151.765625 87.507812 C 151.730469 87.578125 151.660156 87.683594 151.625 87.753906 C 151.480469 87.472656 151.375 87.117188 151.234375 86.765625 C 151.515625 86.554688 151.835938 86.34375 152.257812 86.167969 C 152.398438 86.097656 152.574219 86.0625 152.753906 85.992188 Z M 158.179688 99.5625 C 157.863281 99.949219 157.722656 100.128906 157.722656 100.164062 C 157.617188 100.304688 157.507812 100.480469 157.472656 100.621094 C 157.195312 99.84375 156.875 99.175781 156.488281 98.433594 C 157.160156 98.855469 157.792969 99.28125 158.179688 99.5625 Z M 162.304688 84.96875 C 162.480469 85.390625 162.65625 85.816406 162.761719 86.308594 C 162.585938 86.0625 162.410156 85.816406 162.199219 85.605469 C 162.164062 85.566406 162.164062 85.53125 162.128906 85.496094 C 162.09375 85.425781 162.023438 85.390625 161.953125 85.320312 C 161.953125 85.320312 161.917969 85.285156 161.917969 85.285156 C 161.8125 85.179688 161.742188 85.109375 161.632812 85.003906 C 161.597656 84.96875 161.5625 84.933594 161.5625 84.933594 C 161.847656 84.933594 162.09375 84.96875 162.304688 84.96875 Z M 92.011719 98.929688 C 91.308594 98.929688 90.777344 99.351562 90.179688 99.878906 C 89.753906 99.386719 89.402344 99 89.191406 98.785156 C 87.570312 97.378906 80.308594 93.253906 76.113281 90.925781 C 75.515625 90.609375 74.808594 90.398438 73.996094 90.328125 C 72.554688 88.707031 72.375 87.1875 71.601562 85.390625 C 71.070312 84.191406 70.085938 83.066406 68.746094 82.394531 C 68.746094 82.324219 68.746094 82.253906 68.78125 82.21875 C 69.203125 82.183594 69.835938 82.289062 70.296875 82.253906 C 71.496094 82.253906 72.058594 81.480469 72.234375 80.914062 C 72.234375 80.914062 72.269531 80.667969 72.304688 80.28125 C 83.796875 81.832031 97.40625 81.867188 111.082031 82.042969 C 112.105469 82.042969 113.128906 82.042969 114.148438 82.042969 C 114.148438 82.429688 114.113281 82.679688 114.113281 82.679688 C 113.972656 82.785156 113.269531 82.785156 112.988281 82.785156 C 111.011719 82.960938 110.90625 85.746094 110.835938 87.542969 C 110.625 87.578125 110.414062 87.648438 110.164062 87.683594 C 106.921875 88.5625 105.585938 92.335938 103.328125 94.238281 C 102.480469 94.875 99.308594 96.425781 96.207031 97.941406 C 95.324219 98.363281 94.410156 98.820312 93.492188 99.246094 C 93 99.175781 92.503906 99.035156 92.011719 98.929688 Z M 111.613281 88.742188 C 111.71875 88.742188 111.824219 88.707031 111.929688 88.707031 C 111.964844 88.707031 112 88.707031 112.035156 88.707031 C 112.421875 88.707031 112.8125 88.707031 113.199219 88.777344 C 114.890625 89.058594 116.125 90.046875 116.832031 91.101562 C 118.273438 93.324219 118.664062 95.085938 121.800781 96.988281 C 123.035156 97.730469 125.253906 98.890625 127.652344 100.128906 C 127.230469 100.234375 126.804688 100.339844 126.382812 100.445312 L 112.707031 92.652344 C 112.597656 92.582031 112.492188 92.582031 112.386719 92.582031 C 112.28125 92.582031 112.175781 92.617188 112.070312 92.652344 L 97.863281 100.128906 C 97.125 100.019531 96.382812 99.878906 95.675781 99.738281 C 98.746094 98.257812 103.328125 96.039062 104.171875 95.332031 C 106.359375 93.605469 107.734375 89.761719 110.554688 88.988281 C 110.941406 88.847656 111.257812 88.8125 111.613281 88.742188 Z M 112.421875 93.957031 L 124.511719 100.832031 C 117.285156 101.925781 107.769531 101.503906 100.085938 100.445312 Z M 154.65625 77.460938 C 154.65625 77.460938 154.691406 77.460938 154.691406 77.425781 C 154.761719 77.390625 154.832031 77.355469 154.867188 77.320312 C 154.902344 77.285156 154.9375 77.285156 154.972656 77.25 C 155.996094 77.144531 157.019531 77.035156 158.003906 76.894531 C 158.003906 77 158.039062 77.144531 158.039062 77.25 C 158.039062 77.320312 158.039062 77.355469 158.039062 77.425781 C 158.039062 77.460938 158.039062 77.496094 158.039062 77.53125 C 158.039062 77.601562 158.039062 77.636719 158.039062 77.707031 C 158.039062 77.742188 158.039062 77.8125 158.039062 77.847656 C 158.039062 77.917969 158.003906 77.988281 158.003906 78.058594 C 158.003906 78.09375 158.003906 78.128906 157.96875 78.164062 C 145.488281 79.609375 131.285156 80.457031 117.113281 80.632812 C 117.113281 80.632812 117.113281 80.597656 117.113281 80.597656 L 117.113281 79.292969 C 129.695312 79.363281 142 78.199219 153.457031 77.53125 C 153.878906 77.671875 154.300781 77.601562 154.65625 77.460938 Z M 155.675781 75.875 C 155.855469 75.699219 156.136719 75.558594 156.628906 75.523438 C 157.054688 75.488281 157.335938 75.523438 157.507812 75.664062 C 156.910156 75.734375 156.3125 75.804688 155.675781 75.875 Z M 112.882812 75.347656 C 115.101562 75.417969 115.84375 77.285156 115.84375 78.164062 L 115.84375 83.839844 C 115.808594 83.980469 115.667969 84.226562 115.242188 84.261719 C 113.902344 84.441406 112.597656 86.378906 112.597656 87.4375 C 112.492188 87.4375 112.386719 87.4375 112.28125 87.4375 C 112.246094 87.4375 112.210938 87.4375 112.175781 87.4375 C 112.28125 85.78125 112.386719 84.476562 113.023438 84.121094 C 114.113281 84.121094 115.523438 84.121094 115.523438 82.359375 L 115.523438 78.34375 C 115.558594 77.671875 115.03125 76.332031 112.953125 76.261719 C 110.730469 76.191406 110.273438 77.53125 109.988281 78.234375 C 109.953125 78.234375 109.953125 78.234375 109.917969 78.269531 C 109.917969 78.269531 109.882812 78.269531 109.882812 78.269531 C 109.8125 78.269531 109.78125 78.269531 109.710938 78.269531 C 109.710938 78.269531 109.675781 78.269531 109.675781 78.269531 C 109.601562 78.269531 109.53125 78.269531 109.496094 78.269531 C 109.460938 78.269531 109.460938 78.269531 109.425781 78.269531 C 109.355469 78.269531 109.285156 78.234375 109.214844 78.199219 C 109.496094 77.285156 110.730469 75.273438 112.882812 75.347656 Z M 114.148438 78.09375 C 113.234375 78.09375 112.351562 78.058594 111.472656 78.058594 C 111.683594 77.742188 112.035156 77.496094 112.8125 77.496094 C 113.691406 77.53125 114.042969 77.882812 114.148438 78.09375 Z M 108.863281 79.433594 C 109.355469 79.609375 109.953125 79.609375 110.414062 79.433594 C 111.683594 79.433594 112.953125 79.433594 114.183594 79.398438 L 114.183594 80.738281 C 99.90625 80.84375 84.714844 80.28125 72.484375 79.152344 L 72.660156 77.882812 C 83.375 78.835938 96.488281 79.398438 108.863281 79.433594 Z M 68.992188 73.40625 C 71.210938 73.792969 71.636719 75.734375 71.53125 76.613281 C 71.53125 76.613281 71.285156 78.304688 71.140625 79.46875 C 71.140625 79.46875 71.105469 79.609375 71.105469 79.609375 C 71.035156 80.175781 70.964844 80.5625 70.964844 80.5625 C 70.824219 80.949219 70.121094 80.914062 69.695312 80.878906 C 68.957031 80.808594 67.6875 80.738281 67.511719 81.902344 C 67.371094 81.867188 67.230469 81.867188 67.089844 81.832031 C 67.265625 81.160156 67.371094 80.351562 68.109375 80.421875 C 69.414062 80.667969 70.085938 80.457031 70.4375 79.960938 C 70.648438 79.785156 70.71875 79.46875 70.789062 79.152344 C 70.894531 78.765625 70.929688 78.269531 71 77.777344 C 71.035156 77.425781 71.105469 77.035156 71.105469 77.035156 C 71.105469 77.035156 71.105469 77 71.105469 77 C 71.105469 76.894531 71.140625 76.789062 71.175781 76.648438 C 71.285156 75.980469 70.964844 74.605469 68.921875 74.21875 C 66.734375 73.828125 66.101562 75.132812 65.714844 75.769531 C 65.503906 75.804688 65.113281 75.734375 64.9375 75.628906 C 65.363281 74.886719 66.839844 73.054688 68.992188 73.40625 Z M 68.570312 75.558594 C 69.730469 75.734375 69.871094 76.296875 69.835938 76.472656 C 68.886719 76.367188 67.933594 76.261719 67.015625 76.121094 C 67.300781 75.699219 67.652344 75.417969 68.570312 75.558594 Z M 26.230469 67.765625 C 29.507812 69.28125 39.484375 74.113281 64.867188 77.070312 C 65.113281 77.144531 65.363281 77.179688 65.609375 77.144531 C 66.910156 77.285156 68.289062 77.425781 69.660156 77.566406 L 69.523438 78.695312 C 69.523438 78.765625 69.523438 78.800781 69.488281 78.835938 C 46.253906 76.964844 20.800781 69.175781 26.230469 67.765625 Z M 65.503906 83.207031 C 65.820312 83.136719 66.136719 83.136719 66.417969 83.136719 C 66.417969 83.136719 66.453125 83.136719 66.453125 83.136719 C 66.558594 83.136719 66.699219 83.136719 66.804688 83.171875 C 66.910156 83.171875 67.015625 83.207031 67.125 83.207031 C 67.160156 83.207031 67.195312 83.207031 67.195312 83.207031 C 67.230469 83.207031 67.265625 83.207031 67.300781 83.242188 C 68.851562 83.59375 69.90625 84.757812 70.402344 85.886719 C 71.035156 87.363281 71.246094 88.671875 72.234375 90.1875 C 72.234375 90.1875 72.199219 90.1875 72.199219 90.1875 C 71.777344 90.1875 71.320312 90.1875 70.894531 90.222656 C 70.894531 90.222656 70.894531 90.222656 70.859375 90.222656 L 66.875 86.875 C 66.769531 86.765625 66.59375 86.730469 66.453125 86.730469 C 66.382812 86.730469 66.277344 86.730469 66.207031 86.765625 L 60.882812 88.917969 C 60.25 88.707031 59.683594 88.527344 59.261719 88.386719 C 61.34375 87.117188 63.035156 83.628906 65.503906 83.207031 Z M 68.957031 90.292969 C 68.535156 90.292969 68.109375 90.328125 67.722656 90.328125 C 66.523438 90.328125 64.691406 89.941406 62.964844 89.480469 L 66.382812 88.105469 Z M 76.679688 155.578125 C 76.570312 156.246094 76.535156 157.550781 76.183594 157.867188 C 76.042969 157.972656 75.726562 158.007812 75.300781 157.9375 C 74.84375 157.867188 72.730469 157.585938 69.695312 157.164062 C 53.480469 154.941406 38.394531 152.863281 37.546875 152.828125 C 37.230469 152.828125 36.417969 152.792969 36.171875 152.6875 C 36.628906 145.460938 40.507812 123.074219 41.53125 114.050781 C 41.601562 113.699219 41.601562 113.308594 41.28125 113.0625 C 40.507812 112.464844 36.597656 113.203125 35.289062 113.804688 C 33.878906 114.4375 33.457031 113.910156 33.140625 113.34375 C 32.824219 112.816406 31.941406 111.9375 30.53125 110.5625 C 29.542969 109.609375 28.453125 108.550781 28.097656 108.058594 C 27.640625 107.390625 26.230469 105.378906 26.195312 104.851562 C 26.160156 104.675781 26.863281 104.179688 27.464844 103.722656 C 29.050781 102.558594 38.535156 95.402344 40.296875 94.101562 C 41.707031 93.042969 42.871094 92.300781 45.796875 91.984375 C 48.296875 91.703125 52.140625 90.328125 54.398438 89.515625 C 55.703125 89.09375 56.300781 88.636719 57.394531 88.988281 C 57.429688 88.988281 57.429688 89.023438 57.464844 89.023438 C 57.605469 89.09375 57.78125 89.164062 57.992188 89.234375 C 57.992188 89.234375 58.027344 89.234375 58.027344 89.234375 C 58.699219 89.515625 59.402344 89.761719 60.425781 90.082031 C 60.53125 90.117188 60.671875 90.152344 60.777344 90.1875 C 60.777344 90.1875 60.8125 90.1875 60.8125 90.1875 C 63.070312 90.855469 65.925781 91.558594 67.792969 91.59375 C 68.675781 91.59375 69.695312 91.523438 70.753906 91.488281 C 71.460938 91.453125 72.234375 91.453125 72.976562 91.488281 C 73.011719 91.488281 73.011719 91.488281 73.046875 91.488281 C 73.222656 91.488281 73.363281 91.523438 73.503906 91.523438 C 74.28125 91.59375 74.984375 91.738281 75.515625 92.019531 C 82.457031 95.859375 87.253906 98.75 88.34375 99.703125 C 88.625 99.949219 89.050781 100.445312 89.648438 101.148438 C 89.648438 101.148438 89.648438 101.148438 89.648438 101.183594 C 92.75 105.027344 98.992188 113.804688 99.800781 115.074219 C 99.835938 115.109375 99.835938 115.144531 99.871094 115.179688 C 100.011719 115.425781 100.085938 115.53125 99.90625 115.707031 C 99.800781 115.8125 99.625 115.957031 99.34375 116.167969 L 99.167969 116.304688 C 98.78125 116.554688 98.039062 116.976562 97.125 117.46875 C 95.324219 118.421875 92.644531 119.726562 90.636719 120.640625 C 89.332031 121.242188 88.273438 121.664062 87.921875 121.734375 C 87.605469 121.734375 87.394531 121.734375 87.183594 121.664062 C 86.792969 121.558594 86.441406 121.3125 85.738281 120.679688 C 85.558594 120.535156 85.417969 120.394531 85.242188 120.289062 C 84.996094 120.078125 84.679688 119.867188 84.394531 119.761719 C 83.410156 119.199219 82.457031 118.882812 82.421875 118.882812 C 82.070312 118.738281 81.613281 118.988281 81.578125 119.375 C 81.507812 119.726562 80.097656 128.046875 79.816406 132.347656 C 79.460938 136.648438 76.992188 153.53125 76.679688 155.578125 Z M 81.046875 132.488281 C 81.257812 129.03125 82.28125 122.6875 82.671875 120.464844 C 82.847656 120.535156 83.023438 120.640625 83.234375 120.714844 C 82.28125 127.976562 81.859375 137.882812 79.710938 143.769531 C 80.308594 139.148438 80.90625 134.496094 81.046875 132.488281 Z M 140.976562 143.484375 C 141.152344 144.15625 141.753906 146.234375 141.402344 146.339844 C 140.414062 146.65625 126.664062 148.386719 120.566406 149.160156 C 118.203125 149.511719 117.675781 149.617188 117.355469 147.152344 C 116.9375 143.625 112.742188 127.164062 112.527344 126.460938 C 112.457031 126.179688 112.175781 125.964844 111.894531 125.964844 C 111.578125 125.964844 111.328125 126.179688 111.257812 126.460938 C 111.222656 126.601562 107.734375 141.335938 106.113281 145.882812 C 105.019531 148.914062 104.066406 148.738281 101.777344 148.351562 C 97.265625 147.820312 86.582031 146.765625 83.269531 146.058594 C 82.527344 145.882812 80.871094 145.742188 80.589844 145.390625 C 80.554688 145.355469 80.519531 145.214844 80.660156 144.753906 C 81.292969 142.957031 82.175781 140.453125 82.707031 136.363281 C 83.128906 133.226562 83.90625 125.613281 84.394531 121.382812 C 84.429688 121.417969 84.503906 121.453125 84.539062 121.488281 C 84.820312 121.734375 85.101562 121.949219 85.347656 122.160156 C 85.773438 122.476562 86.125 122.722656 86.476562 122.828125 C 86.546875 122.863281 86.652344 122.898438 86.757812 122.898438 C 87.078125 123.003906 87.429688 123.039062 87.851562 123.003906 C 89.226562 123.003906 99.027344 118 99.800781 117.363281 C 100.191406 117.046875 100.648438 116.765625 100.929688 116.339844 C 101.25 115.886719 101.390625 115.320312 100.894531 114.472656 C 100.859375 114.4375 100.859375 114.402344 100.824219 114.332031 C 100.789062 114.296875 100.753906 114.226562 100.71875 114.15625 C 100.71875 114.121094 100.683594 114.121094 100.683594 114.085938 C 100.648438 114.050781 100.613281 114.015625 100.613281 113.945312 C 99.414062 112.148438 95.464844 106.578125 92.46875 102.664062 C 91.941406 101.960938 91.449219 101.328125 90.988281 100.761719 C 91.308594 100.480469 91.585938 100.269531 91.871094 100.128906 C 92.328125 100.234375 92.859375 100.375 93.492188 100.480469 C 93.5625 100.515625 93.667969 100.515625 93.738281 100.550781 C 93.84375 100.585938 93.984375 100.585938 94.09375 100.621094 C 94.304688 100.65625 94.480469 100.691406 94.691406 100.726562 C 94.691406 100.726562 94.726562 100.726562 94.726562 100.726562 C 95.710938 100.902344 96.769531 101.113281 97.828125 101.253906 C 97.828125 101.253906 97.828125 101.253906 97.863281 101.253906 C 101.140625 101.78125 105.445312 102.277344 110.730469 102.59375 C 118.699219 102.980469 123.492188 102.3125 126.984375 101.46875 C 127.863281 101.289062 128.707031 101.007812 129.589844 100.761719 C 129.625 100.761719 129.660156 100.726562 129.660156 100.726562 C 130.472656 100.480469 131.179688 100.269531 131.917969 100.054688 C 132.058594 100.867188 132.339844 101.605469 132.726562 102.347656 C 132.761719 102.453125 132.832031 102.59375 132.902344 102.699219 C 133.503906 103.792969 134.246094 104.710938 134.914062 105.660156 C 135.265625 106.191406 135.652344 106.683594 135.972656 107.246094 C 135.972656 107.28125 136.007812 107.316406 136.007812 107.351562 C 136.113281 107.566406 136.253906 107.742188 136.359375 107.953125 C 136.5 108.199219 136.640625 108.480469 136.746094 108.765625 C 136.746094 108.800781 136.78125 108.835938 136.78125 108.867188 C 136.921875 109.1875 137.027344 109.539062 137.171875 109.890625 C 137.242188 110.066406 137.277344 110.277344 137.347656 110.492188 C 137.347656 110.527344 137.382812 110.597656 137.382812 110.632812 C 137.417969 110.773438 137.453125 110.949219 137.488281 111.125 C 137.488281 111.195312 137.523438 111.265625 137.523438 111.335938 C 137.558594 111.476562 137.59375 111.621094 137.59375 111.796875 C 137.59375 111.902344 137.628906 111.972656 137.628906 112.078125 C 137.664062 112.21875 137.664062 112.359375 137.699219 112.5 C 137.734375 112.746094 137.769531 112.992188 137.804688 113.238281 C 137.804688 113.308594 137.839844 113.417969 137.839844 113.488281 C 137.875 113.664062 137.875 113.804688 137.910156 113.980469 C 137.910156 114.085938 137.945312 114.15625 137.945312 114.261719 C 137.945312 114.4375 137.980469 114.578125 137.980469 114.757812 C 137.980469 114.863281 138.015625 114.96875 138.015625 115.074219 C 138.015625 115.214844 138.050781 115.355469 138.050781 115.53125 C 138.085938 115.742188 138.085938 115.957031 138.085938 116.167969 C 138.085938 116.199219 138.085938 116.269531 138.085938 116.304688 C 138.226562 117.929688 138.296875 119.585938 138.40625 121.136719 C 138.40625 121.382812 138.441406 121.628906 138.441406 121.628906 C 138.476562 122.230469 138.511719 122.792969 138.546875 123.324219 C 138.933594 127.339844 140.34375 141.371094 140.976562 143.484375 Z M 187.191406 99.105469 C 189.554688 101.675781 193.574219 104.816406 193.152344 107.246094 C 192.761719 108.589844 189.097656 112.851562 187.296875 114.652344 C 185.925781 116.0625 185.183594 116.097656 184.160156 115.636719 C 182.929688 115.109375 181.660156 114.050781 181.660156 114.015625 C 181.234375 113.628906 180.496094 114.015625 180.601562 114.613281 L 180.953125 117.292969 C 181.269531 119.761719 185.289062 148.386719 185.679688 150.925781 C 185.960938 152.828125 186.066406 153.496094 182.503906 154.027344 C 177.464844 154.765625 164.210938 156.316406 157.089844 157.199219 C 153.351562 157.691406 147.746094 158.433594 147.214844 157.480469 C 146.828125 156.738281 146.6875 155.578125 146.441406 153.496094 C 146.195312 151.488281 145.878906 148.738281 145.136719 144.613281 C 143.585938 136.011719 142.105469 119.410156 142.105469 119.269531 C 142.070312 118.917969 141.789062 118.632812 141.4375 118.632812 C 141.152344 118.632812 140.90625 118.773438 140.835938 119.058594 C 140.835938 119.058594 140.660156 119.410156 139.8125 120.359375 C 139.742188 119.339844 139.707031 118.246094 139.601562 117.152344 C 139.601562 117.152344 139.601562 117.117188 139.601562 117.117188 C 139.566406 116.835938 139.566406 116.554688 139.53125 116.269531 C 139.53125 116.234375 139.53125 116.199219 139.53125 116.167969 C 139.496094 115.886719 139.496094 115.601562 139.460938 115.320312 C 139.460938 115.25 139.460938 115.179688 139.425781 115.109375 C 139.390625 114.898438 139.390625 114.722656 139.355469 114.507812 C 139.355469 114.402344 139.320312 114.261719 139.320312 114.15625 C 139.320312 114.015625 139.285156 113.839844 139.25 113.699219 C 139.25 113.59375 139.214844 113.488281 139.214844 113.34375 C 139.179688 113.167969 139.179688 112.992188 139.144531 112.78125 C 139.144531 112.710938 139.109375 112.640625 139.109375 112.570312 C 139.074219 112.324219 139.039062 112.078125 139.003906 111.832031 C 139.003906 111.796875 139.003906 111.761719 138.96875 111.726562 C 138.933594 111.511719 138.898438 111.300781 138.863281 111.089844 C 138.863281 111.054688 138.828125 110.984375 138.828125 110.949219 C 138.792969 110.738281 138.757812 110.5625 138.6875 110.382812 C 138.6875 110.347656 138.6875 110.3125 138.652344 110.277344 C 138.582031 110.066406 138.546875 109.855469 138.476562 109.644531 C 138.191406 108.550781 137.699219 107.601562 137.167969 106.71875 C 136.289062 105.238281 135.230469 104.039062 134.316406 102.523438 C 134.28125 102.417969 134.210938 102.347656 134.171875 102.242188 C 136.078125 99.246094 137.875 96.953125 139.601562 95.507812 C 142.28125 93.21875 145.914062 91.558594 147.78125 90.644531 C 147.886719 91.984375 148.027344 93.394531 148.167969 94.589844 C 148.203125 94.875 148.238281 95.15625 148.273438 95.4375 C 148.308594 95.683594 148.34375 95.933594 148.378906 96.144531 C 148.414062 96.355469 148.449219 96.566406 148.519531 96.707031 C 148.734375 97.484375 149.15625 97.871094 149.648438 98.011719 C 150.210938 98.1875 150.847656 98.117188 151.554688 97.976562 C 152.152344 97.835938 152.753906 97.660156 153.351562 97.519531 C 153.773438 97.414062 154.160156 97.34375 154.550781 97.34375 C 155.464844 99.386719 156.417969 100.621094 156.734375 103.085938 C 157.019531 104.710938 157.054688 105.90625 157.300781 107.175781 C 157.472656 107.847656 158.039062 108.058594 158.746094 108.058594 C 159.519531 108.058594 160.402344 107.8125 161.140625 107.636719 C 162.375 107.351562 163.082031 106.191406 163.011719 105.238281 C 162.867188 104.109375 162.234375 100.9375 162.304688 100.128906 C 162.375 99.703125 162.867188 99.210938 163.363281 98.714844 C 163.398438 98.679688 163.398438 98.679688 163.433594 98.644531 C 163.46875 98.609375 163.503906 98.574219 163.539062 98.539062 C 163.609375 98.46875 163.644531 98.433594 163.714844 98.363281 C 163.75 98.328125 163.785156 98.257812 163.820312 98.222656 C 163.855469 98.1875 163.890625 98.117188 163.925781 98.082031 C 163.960938 98.046875 163.996094 97.976562 164.03125 97.941406 C 164.066406 97.871094 164.101562 97.800781 164.140625 97.730469 C 164.140625 97.730469 164.140625 97.695312 164.175781 97.695312 C 164.351562 97.589844 164.5625 97.449219 164.808594 97.34375 C 165.40625 97.058594 166.148438 96.742188 166.78125 96.460938 C 167.207031 96.25 167.558594 96.074219 167.839844 95.859375 C 169.144531 94.875 168.507812 90.292969 168.15625 88.210938 C 169.53125 88.457031 172.246094 88.953125 174.113281 89.445312 C 180.496094 91.59375 182.117188 93.992188 187.191406 99.105469 Z M 159.203125 80.421875 C 158.074219 80.84375 157.546875 82.609375 157.582031 83.488281 C 157.335938 83.488281 157.125 83.488281 156.875 83.523438 C 156.839844 82.429688 157.054688 81.300781 157.546875 81.089844 C 158.285156 80.773438 158.816406 79.996094 159.097656 79.117188 C 159.132812 79.082031 159.132812 79.046875 159.132812 79.011719 C 159.308594 78.414062 159.414062 77.8125 159.378906 77.320312 C 159.34375 75.664062 158.566406 74.113281 156.839844 74.183594 C 154.902344 74.113281 154.195312 75.523438 154.089844 76.261719 C 154.089844 76.261719 154.054688 76.261719 154.054688 76.261719 C 153.984375 76.261719 153.949219 76.296875 153.878906 76.296875 C 153.878906 76.296875 153.84375 76.296875 153.84375 76.296875 C 153.773438 76.296875 153.667969 76.296875 153.597656 76.296875 C 153.808594 75.523438 154.65625 73.792969 156.417969 73.617188 C 158.285156 73.441406 159.765625 74.710938 159.871094 75.488281 C 159.90625 75.699219 159.945312 75.910156 159.980469 76.121094 C 159.980469 76.367188 160.050781 76.648438 160.121094 76.859375 C 160.15625 77.105469 160.226562 77.355469 160.261719 77.601562 C 160.296875 77.777344 160.296875 77.917969 160.332031 78.09375 C 160.332031 78.128906 160.332031 78.128906 160.332031 78.164062 C 160.4375 79.222656 160.261719 80.136719 159.203125 80.421875 Z M 161.597656 77.777344 C 161.597656 77.707031 161.5625 77.671875 161.5625 77.601562 C 161.527344 77.460938 161.527344 77.320312 161.492188 77.179688 C 161.492188 77.144531 161.457031 77.070312 161.457031 77.035156 C 161.421875 76.859375 161.386719 76.71875 161.351562 76.578125 C 161.351562 76.542969 161.351562 76.542969 161.351562 76.507812 C 185.21875 73.441406 197.945312 68.859375 201.296875 67.519531 C 201.894531 67.273438 202.351562 67.34375 202.492188 67.695312 C 203.164062 69.5625 183.28125 74.957031 161.597656 77.777344 Z M 161.597656 77.777344 "/></g></g></svg>