<svg xmlns="http://www.w3.org/2000/svg" xmlns:xlink="http://www.w3.org/1999/xlink" width="300" zoomAndPan="magnify" viewBox="0 0 224.87999 225" height="300" preserveAspectRatio="xMidYMid meet" version="1.2"><defs><clipPath id="535c7409df"><path d="M 57 56.457031 L 168.835938 56.457031 L 168.835938 168 L 57 168 Z M 57 56.457031 "/></clipPath></defs><g id="3d45480ee0"><g clip-rule="nonzero" clip-path="url(#535c7409df)"><path style=" stroke:none;fill-rule:evenodd;fill:#000000;fill-opacity:1;" d="M 121.375 56.414062 C 119.113281 56.472656 116.9375 57.40625 115.320312 59.023438 L 59.667969 114.675781 C 56.222656 118.121094 56.214844 123.757812 59.652344 127.203125 C 59.660156 127.203125 59.664062 127.203125 59.667969 127.203125 L 97.613281 165.15625 C 101.058594 168.597656 106.707031 168.589844 110.148438 165.148438 L 165.800781 109.492188 C 167.652344 107.648438 168.585938 105.070312 168.367188 102.464844 L 165.347656 67.554688 L 165.347656 67.539062 C 164.976562 63.253906 161.558594 59.824219 157.273438 59.460938 L 122.351562 56.445312 C 122.023438 56.417969 121.699219 56.40625 121.375 56.414062 Z M 121.46875 60.253906 C 121.652344 60.25 121.839844 60.257812 122.023438 60.273438 L 156.949219 63.289062 C 159.398438 63.496094 161.316406 65.425781 161.523438 67.878906 L 164.542969 102.804688 C 164.664062 104.277344 164.144531 105.726562 163.097656 106.773438 C 163.09375 106.777344 163.089844 106.78125 163.085938 106.785156 L 107.429688 162.441406 C 105.457031 164.417969 102.308594 164.414062 100.332031 162.441406 L 62.375 124.496094 L 62.375 124.480469 C 60.414062 122.503906 60.402344 119.355469 62.375 117.382812 L 118.042969 61.730469 C 118.960938 60.8125 120.1875 60.285156 121.46875 60.253906 Z M 143.527344 73.222656 C 141.453125 73.222656 139.375 74.007812 137.804688 75.578125 C 134.667969 78.71875 134.675781 83.871094 137.820312 87.011719 C 140.960938 90.152344 146.101562 90.152344 149.242188 87.011719 C 152.382812 83.871094 152.390625 78.71875 149.25 75.578125 C 147.679688 74.007812 145.605469 73.222656 143.53125 73.222656 Z M 143.527344 77.039062 C 144.609375 77.039062 145.695312 77.457031 146.53125 78.292969 C 148.207031 79.964844 148.195312 82.621094 146.519531 84.292969 C 144.84375 85.96875 142.203125 85.96875 140.527344 84.292969 C 138.855469 82.621094 138.84375 79.964844 140.515625 78.292969 C 141.351562 77.457031 142.4375 77.039062 143.519531 77.039062 Z M 143.527344 77.039062 "/></g></g></svg>