<svg xmlns="http://www.w3.org/2000/svg" xmlns:xlink="http://www.w3.org/1999/xlink" width="300" zoomAndPan="magnify" viewBox="0 0 224.87999 225" height="300" preserveAspectRatio="xMidYMid meet" version="1.2"><defs><clipPath id="cd5d06dda2"><path d="M 48.039062 65.648438 L 176.972656 65.648438 L 176.972656 159.351562 L 48.039062 159.351562 Z M 48.039062 65.648438 "/></clipPath><clipPath id="a855679aec"><path d="M 80.207031 65.648438 L 118.1875 65.648438 L 118.1875 88.761719 L 80.207031 88.761719 Z M 80.207031 65.648438 "/></clipPath><clipPath id="01aa13d477"><path d="M 110 65.648438 L 148.671875 65.648438 L 148.671875 88.761719 L 110 88.761719 Z M 110 65.648438 "/></clipPath></defs><g id="fa4f7affd8"><g clip-rule="nonzero" clip-path="url(#cd5d06dda2)"><path style=" stroke:none;fill-rule:nonzero;fill:#000000;fill-opacity:1;" d="M 160.378906 79.027344 C 160.375 79.011719 160.367188 78.996094 160.363281 78.980469 C 160.351562 78.933594 160.332031 78.886719 160.316406 78.84375 C 160.296875 78.785156 160.273438 78.726562 160.246094 78.671875 C 160.226562 78.632812 160.203125 78.59375 160.179688 78.554688 C 160.148438 78.5 160.109375 78.449219 160.070312 78.398438 C 160.058594 78.382812 160.050781 78.363281 160.035156 78.347656 C 160.019531 78.328125 160 78.3125 159.980469 78.296875 C 159.9375 78.25 159.894531 78.210938 159.847656 78.171875 C 159.8125 78.140625 159.773438 78.113281 159.734375 78.085938 C 159.6875 78.050781 159.636719 78.019531 159.582031 77.996094 C 159.542969 77.972656 159.5 77.949219 159.457031 77.929688 C 159.398438 77.90625 159.339844 77.886719 159.28125 77.871094 C 159.238281 77.859375 159.199219 77.84375 159.15625 77.835938 C 159.085938 77.824219 159.011719 77.816406 158.941406 77.8125 C 158.910156 77.8125 158.878906 77.800781 158.847656 77.800781 L 142.253906 77.800781 C 142.046875 77.800781 141.847656 77.84375 141.652344 77.921875 C 141.460938 78 141.292969 78.113281 141.144531 78.261719 C 140.996094 78.410156 140.882812 78.578125 140.804688 78.769531 C 140.726562 78.960938 140.683594 79.164062 140.683594 79.371094 C 140.683594 79.578125 140.726562 79.777344 140.804688 79.96875 C 140.882812 80.160156 140.996094 80.332031 141.144531 80.476562 C 141.292969 80.625 141.460938 80.738281 141.652344 80.816406 C 141.847656 80.898438 142.046875 80.9375 142.253906 80.9375 L 157.03125 80.9375 L 145.871094 156.210938 L 51.535156 156.210938 L 62.695312 80.9375 L 73.660156 80.9375 C 73.867188 83.535156 74.542969 85.878906 75.617188 87.625 C 75.726562 87.804688 75.867188 87.953125 76.035156 88.074219 C 76.203125 88.195312 76.390625 88.28125 76.589844 88.328125 C 76.792969 88.378906 76.996094 88.382812 77.199219 88.351562 C 77.40625 88.320312 77.597656 88.246094 77.773438 88.140625 C 77.949219 88.03125 78.101562 87.890625 78.222656 87.722656 C 78.34375 87.554688 78.429688 87.371094 78.476562 87.167969 C 78.527344 86.964844 78.535156 86.761719 78.5 86.558594 C 78.46875 86.351562 78.398438 86.160156 78.289062 85.984375 C 77.136719 84.113281 76.570312 81.121094 76.765625 77.976562 C 76.929688 75.351562 77.628906 72.84375 78.679688 71.09375 C 79.53125 69.671875 80.542969 68.855469 81.421875 68.910156 C 82.652344 68.988281 83.890625 70.777344 84.511719 73.359375 C 84.558594 73.5625 84.644531 73.746094 84.765625 73.914062 C 84.886719 74.082031 85.039062 74.222656 85.214844 74.332031 C 85.390625 74.441406 85.582031 74.511719 85.789062 74.542969 C 85.996094 74.574219 86.199219 74.566406 86.402344 74.519531 C 86.601562 74.46875 86.789062 74.386719 86.957031 74.261719 C 87.125 74.140625 87.261719 73.992188 87.371094 73.8125 C 87.480469 73.636719 87.550781 73.445312 87.585938 73.242188 C 87.617188 73.035156 87.609375 72.832031 87.5625 72.628906 C 86.574219 68.515625 84.351562 65.953125 81.617188 65.78125 C 79.503906 65.648438 77.5 66.960938 75.992188 69.480469 C 74.671875 71.679688 73.835938 74.628906 73.636719 77.78125 L 73.636719 77.804688 L 61.34375 77.804688 C 61.15625 77.804688 60.972656 77.835938 60.796875 77.902344 C 60.621094 77.96875 60.460938 78.0625 60.316406 78.183594 C 60.175781 78.308594 60.058594 78.453125 59.96875 78.617188 C 59.878906 78.78125 59.820312 78.957031 59.792969 79.144531 L 48.167969 157.546875 C 48.148438 157.660156 48.144531 157.769531 48.152344 157.882812 C 48.160156 157.996094 48.179688 158.105469 48.210938 158.214844 C 48.242188 158.320312 48.285156 158.425781 48.339844 158.523438 C 48.394531 158.625 48.457031 158.714844 48.53125 158.800781 C 48.605469 158.886719 48.6875 158.964844 48.777344 159.03125 C 48.867188 159.097656 48.960938 159.15625 49.066406 159.203125 C 49.167969 159.25 49.273438 159.285156 49.382812 159.308594 C 49.496094 159.332031 49.605469 159.34375 49.71875 159.34375 L 147.222656 159.34375 C 147.410156 159.34375 147.59375 159.3125 147.769531 159.246094 C 147.945312 159.179688 148.105469 159.085938 148.246094 158.964844 C 148.390625 158.839844 148.507812 158.699219 148.597656 158.53125 C 148.6875 158.367188 148.746094 158.191406 148.773438 158.007812 L 159.164062 87.921875 L 173.160156 150.15625 L 155.800781 150.15625 C 155.59375 150.15625 155.394531 150.195312 155.203125 150.273438 C 155.007812 150.351562 154.839844 150.464844 154.691406 150.613281 C 154.546875 150.761719 154.433594 150.929688 154.351562 151.121094 C 154.273438 151.316406 154.234375 151.515625 154.234375 151.722656 C 154.234375 151.929688 154.273438 152.128906 154.351562 152.324219 C 154.433594 152.515625 154.546875 152.683594 154.691406 152.828125 C 154.839844 152.976562 155.007812 153.089844 155.203125 153.167969 C 155.394531 153.25 155.59375 153.289062 155.800781 153.289062 L 175.121094 153.289062 C 175.238281 153.289062 175.355469 153.277344 175.472656 153.25 C 175.585938 153.222656 175.695312 153.183594 175.800781 153.132812 C 175.90625 153.082031 176.003906 153.019531 176.097656 152.949219 C 176.1875 152.875 176.269531 152.792969 176.34375 152.703125 C 176.417969 152.609375 176.480469 152.511719 176.53125 152.40625 C 176.582031 152.300781 176.621094 152.191406 176.648438 152.074219 C 176.675781 151.960938 176.6875 151.84375 176.6875 151.726562 C 176.6875 151.609375 176.675781 151.492188 176.648438 151.378906 Z M 160.378906 79.027344 "/></g><path style=" stroke:none;fill-rule:nonzero;fill:#000000;fill-opacity:1;" d="M 74.777344 128.152344 C 74.984375 128.152344 75.183594 128.109375 75.375 128.03125 C 75.570312 127.953125 75.738281 127.839844 75.886719 127.691406 C 76.03125 127.542969 76.144531 127.375 76.226562 127.183594 C 76.304688 126.992188 76.34375 126.792969 76.34375 126.585938 C 76.34375 126.375 76.304688 126.175781 76.226562 125.984375 C 76.144531 125.792969 76.03125 125.621094 75.886719 125.476562 C 75.738281 125.328125 75.570312 125.214844 75.375 125.136719 C 75.183594 125.054688 74.984375 125.015625 74.777344 125.015625 L 68.257812 125.015625 C 68.070312 125.015625 67.886719 125.046875 67.710938 125.113281 C 67.535156 125.179688 67.375 125.273438 67.234375 125.398438 C 67.089844 125.519531 66.976562 125.664062 66.882812 125.828125 C 66.792969 125.992188 66.734375 126.167969 66.707031 126.355469 L 64.695312 139.921875 C 64.679688 140.03125 64.675781 140.144531 64.683594 140.257812 C 64.691406 140.371094 64.710938 140.480469 64.742188 140.589844 C 64.773438 140.695312 64.816406 140.800781 64.871094 140.898438 C 64.921875 141 64.988281 141.089844 65.058594 141.175781 C 65.132812 141.261719 65.214844 141.335938 65.304688 141.40625 C 65.394531 141.472656 65.492188 141.53125 65.59375 141.578125 C 65.699219 141.625 65.804688 141.660156 65.910156 141.683594 C 66.023438 141.707031 66.132812 141.71875 66.246094 141.71875 L 80.46875 141.71875 C 80.65625 141.71875 80.839844 141.6875 81.015625 141.621094 C 81.191406 141.554688 81.351562 141.460938 81.492188 141.339844 C 81.636719 141.214844 81.75 141.074219 81.84375 140.910156 C 81.933594 140.742188 81.992188 140.570312 82.019531 140.382812 L 84.019531 126.910156 L 85.734375 125.195312 C 85.878906 125.046875 85.988281 124.878906 86.066406 124.6875 C 86.144531 124.496094 86.183594 124.296875 86.179688 124.089844 C 86.179688 123.882812 86.140625 123.6875 86.058594 123.496094 C 85.980469 123.304688 85.867188 123.136719 85.722656 122.992188 C 85.574219 122.847656 85.40625 122.734375 85.214844 122.652344 C 85.027344 122.574219 84.828125 122.535156 84.621094 122.53125 C 84.414062 122.53125 84.214844 122.570312 84.027344 122.648438 C 83.835938 122.726562 83.664062 122.835938 83.519531 122.980469 L 74.667969 131.824219 L 74.191406 131.347656 C 74.042969 131.199219 73.875 131.085938 73.683594 131.007812 C 73.488281 130.929688 73.289062 130.886719 73.082031 130.886719 C 72.875 130.886719 72.675781 130.929688 72.484375 131.007812 C 72.292969 131.085938 72.121094 131.199219 71.972656 131.347656 C 71.828125 131.496094 71.714844 131.664062 71.632812 131.855469 C 71.554688 132.046875 71.515625 132.25 71.515625 132.457031 C 71.515625 132.664062 71.554688 132.863281 71.632812 133.058594 C 71.714844 133.25 71.828125 133.417969 71.972656 133.566406 L 73.558594 135.148438 C 73.707031 135.296875 73.875 135.410156 74.066406 135.488281 C 74.261719 135.570312 74.460938 135.609375 74.667969 135.609375 C 74.875 135.609375 75.074219 135.570312 75.269531 135.488281 C 75.460938 135.410156 75.628906 135.296875 75.777344 135.148438 L 80.296875 130.632812 L 79.117188 138.582031 L 68.0625 138.582031 L 69.609375 128.152344 Z M 74.777344 128.152344 "/><path style=" stroke:none;fill-rule:nonzero;fill:#000000;fill-opacity:1;" d="M 87.363281 100.957031 C 87.050781 100.59375 86.65625 100.410156 86.175781 100.410156 L 71.953125 100.410156 C 71.765625 100.410156 71.582031 100.445312 71.40625 100.507812 C 71.230469 100.574219 71.070312 100.667969 70.929688 100.792969 C 70.785156 100.914062 70.671875 101.058594 70.578125 101.222656 C 70.488281 101.386719 70.429688 101.5625 70.402344 101.746094 L 68.390625 115.316406 C 68.375 115.425781 68.371094 115.539062 68.378906 115.652344 C 68.386719 115.765625 68.40625 115.875 68.4375 115.984375 C 68.46875 116.089844 68.511719 116.191406 68.5625 116.292969 C 68.617188 116.390625 68.683594 116.484375 68.753906 116.570312 C 68.828125 116.652344 68.910156 116.730469 69 116.796875 C 69.089844 116.867188 69.1875 116.921875 69.289062 116.96875 C 69.390625 117.015625 69.5 117.050781 69.605469 117.078125 C 69.71875 117.101562 69.828125 117.113281 69.941406 117.113281 L 84.164062 117.113281 C 84.351562 117.113281 84.535156 117.078125 84.710938 117.015625 C 84.886719 116.949219 85.046875 116.855469 85.1875 116.730469 C 85.332031 116.609375 85.449219 116.464844 85.539062 116.300781 C 85.628906 116.136719 85.6875 115.960938 85.714844 115.777344 L 87.726562 102.207031 C 87.796875 101.734375 87.675781 101.316406 87.363281 100.957031 Z M 82.8125 113.980469 L 71.757812 113.980469 L 73.304688 103.546875 L 84.359375 103.546875 Z M 82.8125 113.980469 "/><path style=" stroke:none;fill-rule:nonzero;fill:#000000;fill-opacity:1;" d="M 93.566406 141.621094 L 107.789062 141.621094 C 107.976562 141.621094 108.15625 141.589844 108.332031 141.523438 C 108.511719 141.457031 108.667969 141.363281 108.8125 141.242188 C 108.953125 141.117188 109.070312 140.972656 109.160156 140.808594 C 109.25 140.644531 109.3125 140.46875 109.339844 140.285156 L 111.347656 126.714844 C 111.367188 126.605469 111.371094 126.492188 111.363281 126.378906 C 111.355469 126.269531 111.335938 126.15625 111.304688 126.050781 C 111.273438 125.941406 111.230469 125.835938 111.175781 125.738281 C 111.121094 125.640625 111.058594 125.546875 110.984375 125.460938 C 110.910156 125.375 110.832031 125.300781 110.738281 125.230469 C 110.648438 125.164062 110.554688 125.105469 110.449219 125.058594 C 110.347656 125.011719 110.242188 124.976562 110.132812 124.953125 C 110.023438 124.929688 109.910156 124.917969 109.796875 124.917969 L 95.574219 124.917969 C 95.386719 124.917969 95.207031 124.949219 95.03125 125.015625 C 94.855469 125.082031 94.695312 125.175781 94.554688 125.296875 C 94.410156 125.421875 94.292969 125.566406 94.203125 125.730469 C 94.113281 125.894531 94.054688 126.070312 94.027344 126.257812 L 92.011719 139.824219 C 91.996094 139.933594 91.992188 140.046875 92 140.160156 C 92.007812 140.269531 92.027344 140.382812 92.058594 140.488281 C 92.089844 140.597656 92.132812 140.703125 92.1875 140.800781 C 92.238281 140.898438 92.304688 140.992188 92.378906 141.078125 C 92.449219 141.164062 92.53125 141.238281 92.621094 141.308594 C 92.710938 141.375 92.808594 141.433594 92.910156 141.480469 C 93.015625 141.527344 93.121094 141.5625 93.230469 141.585938 C 93.339844 141.609375 93.453125 141.621094 93.566406 141.621094 Z M 96.929688 128.050781 L 107.980469 128.050781 L 106.433594 138.484375 L 95.378906 138.484375 Z M 96.929688 128.050781 "/><path style=" stroke:none;fill-rule:nonzero;fill:#000000;fill-opacity:1;" d="M 113.035156 115.679688 L 115.042969 102.109375 C 115.0625 102 115.066406 101.886719 115.058594 101.773438 C 115.050781 101.664062 115.03125 101.550781 115 101.445312 C 114.96875 101.335938 114.925781 101.234375 114.871094 101.136719 C 114.816406 101.035156 114.753906 100.945312 114.679688 100.859375 C 114.605469 100.773438 114.523438 100.695312 114.433594 100.628906 C 114.34375 100.5625 114.25 100.503906 114.144531 100.457031 C 114.042969 100.410156 113.9375 100.375 113.828125 100.351562 C 113.71875 100.328125 113.605469 100.3125 113.492188 100.3125 L 99.269531 100.3125 C 99.082031 100.3125 98.898438 100.347656 98.726562 100.414062 C 98.550781 100.476562 98.390625 100.570312 98.246094 100.695312 C 98.105469 100.816406 97.988281 100.960938 97.898438 101.125 C 97.808594 101.292969 97.75 101.464844 97.722656 101.652344 L 95.707031 115.21875 C 95.691406 115.332031 95.6875 115.441406 95.695312 115.554688 C 95.703125 115.667969 95.722656 115.777344 95.753906 115.886719 C 95.785156 115.996094 95.828125 116.097656 95.882812 116.195312 C 95.933594 116.292969 96 116.386719 96.070312 116.472656 C 96.144531 116.558594 96.226562 116.632812 96.316406 116.703125 C 96.40625 116.769531 96.503906 116.828125 96.605469 116.875 C 96.707031 116.921875 96.816406 116.957031 96.925781 116.980469 C 97.035156 117.003906 97.148438 117.015625 97.257812 117.015625 L 111.480469 117.015625 C 111.671875 117.015625 111.851562 116.984375 112.027344 116.917969 C 112.203125 116.851562 112.363281 116.757812 112.507812 116.636719 C 112.648438 116.511719 112.765625 116.367188 112.855469 116.203125 C 112.945312 116.042969 113.007812 115.867188 113.035156 115.679688 Z M 99.074219 113.882812 L 100.625 103.449219 L 111.675781 103.449219 L 110.128906 113.882812 Z M 99.074219 113.882812 "/><path style=" stroke:none;fill-rule:nonzero;fill:#000000;fill-opacity:1;" d="M 122.894531 125.015625 C 122.707031 125.015625 122.523438 125.046875 122.347656 125.113281 C 122.171875 125.179688 122.011719 125.273438 121.871094 125.398438 C 121.726562 125.519531 121.609375 125.664062 121.519531 125.828125 C 121.429688 125.992188 121.371094 126.167969 121.34375 126.355469 L 119.332031 139.921875 C 119.316406 140.03125 119.3125 140.144531 119.320312 140.257812 C 119.324219 140.371094 119.34375 140.480469 119.378906 140.589844 C 119.410156 140.695312 119.449219 140.800781 119.503906 140.898438 C 119.558594 141 119.621094 141.089844 119.695312 141.175781 C 119.769531 141.261719 119.851562 141.335938 119.941406 141.40625 C 120.03125 141.472656 120.128906 141.53125 120.230469 141.578125 C 120.332031 141.625 120.4375 141.660156 120.550781 141.683594 C 120.660156 141.707031 120.769531 141.71875 120.882812 141.71875 L 135.105469 141.71875 C 135.292969 141.71875 135.472656 141.6875 135.648438 141.621094 C 135.828125 141.554688 135.984375 141.460938 136.128906 141.339844 C 136.269531 141.214844 136.386719 141.074219 136.476562 140.910156 C 136.570312 140.742188 136.628906 140.570312 136.65625 140.382812 L 138.667969 126.816406 C 138.683594 126.703125 138.6875 126.59375 138.679688 126.480469 C 138.675781 126.367188 138.65625 126.257812 138.625 126.148438 C 138.589844 126.039062 138.550781 125.9375 138.496094 125.839844 C 138.441406 125.738281 138.378906 125.648438 138.304688 125.5625 C 138.230469 125.476562 138.148438 125.398438 138.058594 125.332031 C 137.96875 125.265625 137.871094 125.207031 137.769531 125.160156 C 137.667969 125.113281 137.5625 125.078125 137.449219 125.054688 C 137.339844 125.03125 137.230469 125.015625 137.117188 125.015625 Z M 133.753906 138.582031 L 122.699219 138.582031 L 124.246094 128.152344 L 135.300781 128.152344 Z M 133.753906 138.582031 "/><path style=" stroke:none;fill-rule:nonzero;fill:#000000;fill-opacity:1;" d="M 140.351562 115.777344 L 142.273438 102.816406 L 144.777344 100.308594 C 144.921875 100.164062 145.035156 99.992188 145.113281 99.800781 C 145.1875 99.609375 145.226562 99.410156 145.226562 99.203125 C 145.226562 99 145.183594 98.800781 145.105469 98.609375 C 145.023438 98.417969 144.914062 98.25 144.765625 98.105469 C 144.621094 97.957031 144.453125 97.847656 144.261719 97.769531 C 144.070312 97.6875 143.871094 97.648438 143.667969 97.648438 C 143.460938 97.644531 143.261719 97.683594 143.070312 97.761719 C 142.878906 97.839844 142.710938 97.949219 142.5625 98.09375 L 140.023438 100.632812 C 139.78125 100.769531 139.59375 100.960938 139.453125 101.203125 L 133.714844 106.941406 L 133.238281 106.464844 C 133.089844 106.316406 132.921875 106.203125 132.730469 106.125 C 132.535156 106.042969 132.335938 106.003906 132.128906 106.003906 C 131.921875 106.003906 131.722656 106.042969 131.53125 106.125 C 131.339844 106.203125 131.167969 106.316406 131.023438 106.464844 C 130.875 106.609375 130.761719 106.78125 130.683594 106.972656 C 130.601562 107.164062 130.5625 107.363281 130.5625 107.574219 C 130.5625 107.78125 130.601562 107.980469 130.683594 108.171875 C 130.761719 108.363281 130.875 108.535156 131.023438 108.679688 L 132.605469 110.265625 C 132.753906 110.414062 132.921875 110.527344 133.113281 110.605469 C 133.308594 110.683594 133.507812 110.726562 133.714844 110.726562 C 133.921875 110.726562 134.125 110.683594 134.316406 110.605469 C 134.507812 110.527344 134.675781 110.414062 134.824219 110.265625 L 138.550781 106.539062 L 137.449219 113.980469 L 126.394531 113.980469 L 127.941406 103.546875 L 133.417969 103.546875 C 133.628906 103.546875 133.828125 103.503906 134.019531 103.425781 C 134.210938 103.347656 134.382812 103.234375 134.527344 103.085938 C 134.675781 102.9375 134.789062 102.769531 134.867188 102.578125 C 134.949219 102.386719 134.988281 102.183594 134.988281 101.976562 C 134.988281 101.769531 134.949219 101.570312 134.867188 101.378906 C 134.789062 101.1875 134.675781 101.015625 134.527344 100.871094 C 134.382812 100.722656 134.210938 100.609375 134.019531 100.53125 C 133.828125 100.449219 133.628906 100.410156 133.417969 100.410156 L 126.589844 100.410156 C 126.402344 100.410156 126.21875 100.445312 126.042969 100.507812 C 125.867188 100.574219 125.707031 100.667969 125.5625 100.792969 C 125.421875 100.914062 125.304688 101.058594 125.214844 101.222656 C 125.125 101.386719 125.066406 101.5625 125.039062 101.746094 L 123.027344 115.316406 C 123.011719 115.425781 123.007812 115.539062 123.011719 115.652344 C 123.019531 115.765625 123.039062 115.875 123.070312 115.984375 C 123.101562 116.089844 123.144531 116.191406 123.199219 116.292969 C 123.253906 116.390625 123.316406 116.484375 123.390625 116.566406 C 123.464844 116.652344 123.546875 116.730469 123.636719 116.796875 C 123.726562 116.867188 123.824219 116.921875 123.925781 116.96875 C 124.027344 117.015625 124.132812 117.050781 124.242188 117.078125 C 124.355469 117.101562 124.464844 117.113281 124.578125 117.113281 L 138.800781 117.113281 C 138.988281 117.113281 139.167969 117.078125 139.34375 117.015625 C 139.519531 116.949219 139.679688 116.855469 139.824219 116.730469 C 139.964844 116.609375 140.082031 116.464844 140.171875 116.300781 C 140.261719 116.140625 140.324219 115.964844 140.351562 115.777344 Z M 140.351562 115.777344 "/><g clip-rule="nonzero" clip-path="url(#a855679aec)"><path style=" stroke:none;fill-rule:nonzero;fill:#000000;fill-opacity:1;" d="M 106.03125 87.625 C 106.140625 87.804688 106.277344 87.953125 106.445312 88.074219 C 106.613281 88.195312 106.796875 88.28125 107 88.328125 C 107.203125 88.375 107.40625 88.382812 107.613281 88.351562 C 107.816406 88.320312 108.007812 88.246094 108.183594 88.140625 C 108.363281 88.03125 108.511719 87.890625 108.632812 87.722656 C 108.757812 87.554688 108.839844 87.371094 108.890625 87.167969 C 108.9375 86.964844 108.945312 86.761719 108.914062 86.558594 C 108.878906 86.351562 108.808594 86.160156 108.699219 85.984375 C 107.550781 84.113281 106.980469 81.121094 107.175781 77.976562 C 107.339844 75.351562 108.039062 72.84375 109.089844 71.09375 C 109.941406 69.671875 110.957031 68.871094 111.832031 68.910156 C 113.0625 68.988281 114.300781 70.777344 114.921875 73.359375 C 114.96875 73.5625 115.054688 73.746094 115.179688 73.914062 C 115.300781 74.085938 115.449219 74.222656 115.628906 74.332031 C 115.804688 74.441406 115.996094 74.511719 116.203125 74.542969 C 116.40625 74.574219 116.609375 74.566406 116.8125 74.519531 C 117.015625 74.472656 117.199219 74.386719 117.367188 74.265625 C 117.535156 74.140625 117.671875 73.992188 117.78125 73.816406 C 117.890625 73.636719 117.960938 73.445312 117.996094 73.242188 C 118.027344 73.035156 118.019531 72.832031 117.96875 72.628906 C 116.988281 68.515625 114.765625 65.953125 112.03125 65.78125 C 109.910156 65.644531 107.914062 66.960938 106.402344 69.480469 C 105.082031 71.679688 104.246094 74.628906 104.046875 77.78125 L 104.046875 77.804688 L 81.910156 77.804688 C 81.703125 77.804688 81.503906 77.84375 81.3125 77.921875 C 81.121094 78.003906 80.949219 78.117188 80.804688 78.261719 C 80.65625 78.410156 80.542969 78.578125 80.464844 78.773438 C 80.386719 78.964844 80.34375 79.164062 80.34375 79.371094 C 80.34375 79.582031 80.386719 79.777344 80.464844 79.96875 C 80.542969 80.164062 80.65625 80.332031 80.804688 80.480469 C 80.949219 80.625 81.121094 80.738281 81.3125 80.820312 C 81.503906 80.898438 81.703125 80.9375 81.910156 80.9375 L 104.074219 80.9375 C 104.28125 83.535156 104.953125 85.878906 106.03125 87.625 Z M 106.03125 87.625 "/></g><g clip-rule="nonzero" clip-path="url(#01aa13d477)"><path style=" stroke:none;fill-rule:nonzero;fill:#000000;fill-opacity:1;" d="M 145.335938 73.359375 C 145.382812 73.5625 145.46875 73.746094 145.589844 73.914062 C 145.710938 74.085938 145.863281 74.222656 146.039062 74.332031 C 146.214844 74.441406 146.40625 74.511719 146.613281 74.542969 C 146.816406 74.578125 147.019531 74.570312 147.222656 74.519531 C 147.425781 74.472656 147.609375 74.386719 147.777344 74.265625 C 147.949219 74.140625 148.085938 73.992188 148.195312 73.816406 C 148.304688 73.636719 148.375 73.445312 148.40625 73.242188 C 148.441406 73.035156 148.429688 72.832031 148.382812 72.628906 C 147.398438 68.515625 145.175781 65.953125 142.441406 65.78125 C 140.324219 65.648438 138.324219 66.960938 136.8125 69.480469 C 135.492188 71.679688 134.660156 74.628906 134.460938 77.78125 L 134.460938 77.804688 L 111.648438 77.804688 C 111.4375 77.804688 111.238281 77.84375 111.046875 77.921875 C 110.855469 78.003906 110.683594 78.117188 110.539062 78.261719 C 110.390625 78.410156 110.277344 78.578125 110.199219 78.773438 C 110.117188 78.964844 110.078125 79.164062 110.078125 79.371094 C 110.078125 79.582031 110.117188 79.777344 110.199219 79.96875 C 110.277344 80.164062 110.390625 80.332031 110.539062 80.480469 C 110.683594 80.625 110.855469 80.738281 111.046875 80.820312 C 111.238281 80.898438 111.4375 80.9375 111.648438 80.9375 L 134.488281 80.9375 C 134.695312 83.535156 135.367188 85.878906 136.441406 87.625 C 136.550781 87.804688 136.6875 87.953125 136.859375 88.074219 C 137.027344 88.195312 137.210938 88.28125 137.414062 88.328125 C 137.617188 88.375 137.820312 88.382812 138.023438 88.351562 C 138.230469 88.320312 138.421875 88.246094 138.597656 88.140625 C 138.777344 88.03125 138.925781 87.890625 139.046875 87.722656 C 139.167969 87.554688 139.253906 87.371094 139.300781 87.167969 C 139.347656 86.964844 139.355469 86.761719 139.324219 86.558594 C 139.289062 86.351562 139.21875 86.160156 139.113281 85.984375 C 137.960938 84.113281 137.394531 81.121094 137.589844 77.976562 C 137.753906 75.351562 138.453125 72.84375 139.503906 71.09375 C 140.355469 69.671875 141.371094 68.855469 142.246094 68.910156 C 143.472656 68.988281 144.714844 70.777344 145.335938 73.359375 Z M 145.335938 73.359375 "/></g></g></svg>