<svg xmlns="http://www.w3.org/2000/svg" xmlns:xlink="http://www.w3.org/1999/xlink" width="300" zoomAndPan="magnify" viewBox="0 0 224.87999 225" height="300" preserveAspectRatio="xMidYMid meet" version="1.2"><defs><clipPath id="5b122a1f7c"><path d="M 79.300781 65.65625 L 145.625 65.65625 L 145.625 159.339844 L 79.300781 159.339844 Z M 79.300781 65.65625 "/></clipPath></defs><g id="2cdd07fffb"><path style=" stroke:none;fill-rule:nonzero;fill:#000000;fill-opacity:1;" d="M 92.078125 142.625 L 132.667969 142.605469 C 133.125 142.605469 133.496094 142.234375 133.496094 141.777344 L 133.496094 122.601562 C 133.496094 122.484375 133.472656 122.371094 133.421875 122.265625 C 133.03125 121.386719 132.269531 120.78125 131.273438 120.554688 C 131.214844 120.539062 131.148438 120.535156 131.085938 120.535156 C 126.421875 120.582031 121.667969 120.558594 117.058594 120.53125 L 117.058594 108.714844 C 117.058594 108.683594 117.058594 108.65625 117.054688 108.628906 C 116.925781 107.363281 115.925781 107.132812 115.441406 107.019531 C 115.269531 106.980469 114.382812 106.957031 113.339844 106.949219 C 113.339844 106.925781 113.34375 106.90625 113.339844 106.882812 L 113.253906 105.660156 C 113.433594 105.625 113.613281 105.578125 113.796875 105.519531 C 115.679688 104.902344 116.8125 103.199219 116.613281 101.285156 C 116.445312 99.671875 115.300781 97.609375 114.296875 95.789062 C 113.824219 94.945312 113.382812 94.144531 113.101562 93.503906 C 112.957031 93.179688 112.625 92.980469 112.273438 93.011719 C 111.917969 93.042969 111.625 93.292969 111.539062 93.636719 C 111.359375 94.355469 110.84375 95.347656 110.292969 96.394531 C 109.042969 98.800781 107.617188 101.527344 108.8125 103.558594 C 109.476562 104.691406 110.472656 105.417969 111.605469 105.65625 C 111.601562 105.691406 111.597656 105.726562 111.601562 105.765625 L 111.683594 106.949219 C 110.546875 106.957031 109.554688 106.984375 109.386719 107.027344 C 109.039062 107.117188 108.394531 107.285156 108.050781 108.003906 C 108 108.113281 107.972656 108.234375 107.972656 108.355469 L 107.886719 120.5 C 102.992188 120.503906 98.0625 120.554688 93.203125 120.730469 C 93.078125 120.734375 92.957031 120.765625 92.84375 120.824219 C 91.632812 121.464844 91.410156 122.355469 91.261719 123.363281 C 91.253906 123.40625 91.253906 123.445312 91.253906 123.484375 L 91.25 141.796875 C 91.25 142.015625 91.335938 142.226562 91.492188 142.382812 C 91.648438 142.539062 91.859375 142.625 92.078125 142.625 Z M 92.910156 131.496094 C 93.589844 131.441406 94.125 131.777344 94.902344 132.3125 C 95.921875 133.011719 97.1875 133.882812 99 132.964844 C 99.433594 132.746094 99.765625 132.46875 100.058594 132.226562 C 100.464844 131.886719 100.761719 131.644531 101.25 131.554688 C 101.917969 131.433594 102.347656 131.726562 103.042969 132.253906 C 103.664062 132.722656 104.359375 133.25 105.367188 133.332031 C 106.6875 133.445312 107.523438 132.792969 108.191406 132.269531 C 108.628906 131.929688 109.007812 131.636719 109.46875 131.554688 C 110.164062 131.4375 110.597656 131.734375 111.300781 132.269531 C 111.910156 132.730469 112.601562 133.257812 113.597656 133.332031 C 114.875 133.433594 115.710938 132.792969 116.386719 132.277344 C 116.835938 131.929688 117.226562 131.632812 117.6875 131.558594 C 118.375 131.445312 118.765625 131.71875 119.453125 132.253906 C 120.042969 132.710938 120.777344 133.277344 121.847656 133.335938 C 123.117188 133.402344 123.921875 132.777344 124.566406 132.277344 C 125.015625 131.929688 125.402344 131.628906 125.894531 131.558594 C 126.5 131.476562 127.101562 131.867188 127.800781 132.316406 C 128.539062 132.792969 129.445312 133.378906 130.535156 133.378906 C 130.941406 133.378906 131.375 133.296875 131.835938 133.09375 L 131.835938 136.011719 L 92.90625 136.011719 Z M 131.835938 131.179688 C 131.796875 131.203125 131.757812 131.222656 131.722656 131.25 C 130.597656 132.078125 129.914062 131.707031 128.699219 130.925781 C 127.851562 130.375 126.882812 129.75 125.671875 129.917969 C 124.734375 130.046875 124.105469 130.539062 123.550781 130.964844 C 122.9375 131.445312 122.558594 131.714844 121.9375 131.679688 C 121.382812 131.652344 120.980469 131.339844 120.46875 130.941406 C 119.75 130.386719 118.855469 129.691406 117.425781 129.921875 C 116.550781 130.0625 115.925781 130.539062 115.378906 130.960938 C 114.734375 131.453125 114.339844 131.730469 113.730469 131.683594 C 113.21875 131.640625 112.792969 131.320312 112.300781 130.945312 C 111.558594 130.382812 110.628906 129.675781 109.191406 129.921875 C 108.316406 130.070312 107.710938 130.546875 107.171875 130.960938 C 106.539062 131.457031 106.148438 131.734375 105.507812 131.683594 C 104.976562 131.636719 104.542969 131.3125 104.046875 130.933594 C 103.300781 130.371094 102.375 129.667969 100.957031 129.925781 C 100.035156 130.089844 99.460938 130.566406 99 130.949219 C 98.742188 131.164062 98.519531 131.351562 98.253906 131.484375 C 97.355469 131.941406 96.835938 131.632812 95.84375 130.945312 C 95.078125 130.421875 94.152344 129.785156 92.910156 129.835938 L 92.910156 126.792969 L 131.835938 126.792969 Z M 92.910156 140.96875 L 92.910156 137.671875 L 131.835938 137.671875 L 131.835938 140.949219 Z M 110.238281 102.722656 C 109.511719 101.480469 110.761719 99.085938 111.765625 97.164062 C 112 96.714844 112.230469 96.273438 112.433594 95.851562 C 112.566406 96.09375 112.703125 96.34375 112.84375 96.59375 C 113.777344 98.273438 114.832031 100.179688 114.964844 101.457031 C 115.097656 102.75 114.214844 103.636719 113.277344 103.945312 C 112.335938 104.253906 111.046875 104.09375 110.238281 102.722656 Z M 109.757812 108.644531 C 110.355469 108.589844 114.554688 108.589844 115.101562 108.644531 C 115.269531 108.683594 115.351562 108.710938 115.394531 108.730469 C 115.398438 108.738281 115.398438 108.75 115.402344 108.765625 L 115.402344 120.523438 C 113.460938 120.515625 111.507812 120.507812 109.542969 120.503906 L 109.625 108.683594 C 109.667969 108.667969 109.71875 108.652344 109.757812 108.644531 Z M 93.464844 122.378906 C 101.167969 122.105469 109.054688 122.148438 116.683594 122.191406 C 121.375 122.214844 126.230469 122.242188 130.996094 122.191406 C 131.375 122.296875 131.660156 122.5 131.835938 122.796875 L 131.835938 125.132812 L 92.910156 125.132812 L 92.910156 123.546875 C 93.011719 122.867188 93.097656 122.609375 93.464844 122.378906 Z M 93.464844 122.378906 "/><g clip-rule="nonzero" clip-path="url(#5b122a1f7c)"><path style=" stroke:none;fill-rule:nonzero;fill:#000000;fill-opacity:1;" d="M 145.335938 80.582031 C 145.179688 80.425781 144.96875 80.339844 144.75 80.339844 L 137.753906 80.339844 L 137.585938 66.511719 C 137.582031 66.257812 137.460938 66.015625 137.257812 65.863281 C 137.054688 65.707031 136.789062 65.65625 136.546875 65.722656 L 81.554688 80.375 L 81.199219 80.375 C 80.964844 80.375 80.753906 80.46875 80.605469 80.625 L 80.121094 80.753906 C 79.757812 80.851562 79.507812 81.179688 79.503906 81.554688 L 79.3125 158.316406 C 79.308594 158.777344 79.679688 159.148438 80.136719 159.148438 L 144.625 159.34375 C 144.84375 159.34375 145.054688 159.257812 145.210938 159.101562 C 145.363281 158.945312 145.453125 158.734375 145.453125 158.515625 L 145.578125 81.167969 C 145.578125 80.949219 145.492188 80.738281 145.335938 80.582031 Z M 135.941406 67.597656 L 136.097656 80.34375 L 88.003906 80.371094 Z M 143.796875 157.683594 L 80.96875 157.496094 L 81.160156 82.191406 L 81.769531 82.03125 L 143.917969 81.996094 Z M 143.796875 157.683594 "/></g></g></svg>