<svg xmlns="http://www.w3.org/2000/svg" xmlns:xlink="http://www.w3.org/1999/xlink" width="300" zoomAndPan="magnify" viewBox="0 0 224.87999 225" height="300" preserveAspectRatio="xMidYMid meet" version="1.2"><defs><clipPath id="30aab0523f"><path d="M 65.589844 65.648438 L 159.289062 65.648438 L 159.289062 159.351562 L 65.589844 159.351562 Z M 65.589844 65.648438 "/></clipPath></defs><g id="52823f7786"><g clip-rule="nonzero" clip-path="url(#30aab0523f)"><path style=" stroke:none;fill-rule:nonzero;fill:#000000;fill-opacity:1;" d="M 112.441406 67.835938 C 118.46875 67.835938 124.320312 69.015625 129.824219 71.34375 C 135.144531 73.59375 139.921875 76.816406 144.023438 80.917969 C 148.125 85.019531 151.347656 89.796875 153.597656 95.117188 C 155.925781 100.625 157.109375 106.472656 157.109375 112.503906 C 157.109375 118.53125 155.925781 124.382812 153.597656 129.886719 C 151.347656 135.207031 148.125 139.984375 144.023438 144.085938 C 139.921875 148.191406 135.144531 151.410156 129.824219 153.660156 C 124.320312 155.988281 118.46875 157.167969 112.441406 157.167969 C 106.410156 157.167969 100.558594 155.988281 95.054688 153.660156 C 89.734375 151.410156 84.957031 148.191406 80.855469 144.085938 C 76.753906 139.984375 73.53125 135.207031 71.28125 129.886719 C 68.953125 124.382812 67.773438 118.53125 67.773438 112.503906 C 67.773438 106.472656 68.953125 100.625 71.28125 95.117188 C 73.53125 89.796875 76.753906 85.019531 80.855469 80.917969 C 84.957031 76.816406 89.734375 73.59375 95.054688 71.34375 C 100.558594 69.015625 106.410156 67.835938 112.441406 67.835938 M 112.441406 65.648438 C 86.566406 65.648438 65.589844 86.625 65.589844 112.5 C 65.589844 138.375 86.566406 159.351562 112.441406 159.351562 C 138.316406 159.351562 159.289062 138.375 159.289062 112.5 C 159.289062 86.625 138.316406 65.648438 112.441406 65.648438 Z M 112.441406 65.648438 "/></g><path style=" stroke:none;fill-rule:nonzero;fill:#000000;fill-opacity:1;" d="M 112.402344 71.3125 C 117.988281 71.3125 123.410156 72.40625 128.507812 74.566406 C 133.4375 76.648438 137.863281 79.632812 141.664062 83.433594 C 145.460938 87.234375 148.445312 91.660156 150.527344 96.585938 C 152.6875 101.683594 153.78125 107.105469 153.78125 112.691406 C 153.78125 118.28125 152.6875 123.699219 150.527344 128.796875 C 148.445312 133.726562 145.460938 138.148438 141.664062 141.949219 C 137.863281 145.75 133.4375 148.734375 128.507812 150.820312 C 123.410156 152.976562 117.988281 154.070312 112.402344 154.070312 C 106.816406 154.070312 101.398438 152.976562 96.296875 150.820312 C 91.371094 148.734375 86.945312 145.75 83.144531 141.949219 C 79.34375 138.148438 76.359375 133.726562 74.277344 128.796875 C 72.117188 123.695312 71.023438 118.28125 71.023438 112.691406 C 71.023438 107.105469 72.117188 101.683594 74.277344 96.585938 C 76.359375 91.660156 79.34375 87.234375 83.144531 83.433594 C 86.945312 79.632812 91.371094 76.648438 96.296875 74.566406 C 101.398438 72.40625 106.816406 71.3125 112.402344 71.3125 M 112.402344 70.222656 C 88.945312 70.222656 69.933594 89.234375 69.933594 112.6875 C 69.933594 136.144531 88.945312 155.160156 112.402344 155.160156 C 135.859375 155.160156 154.871094 136.144531 154.871094 112.6875 C 154.871094 89.234375 135.859375 70.222656 112.402344 70.222656 Z M 112.402344 70.222656 "/><path style=" stroke:none;fill-rule:nonzero;fill:#000000;fill-opacity:1;" d="M 85.441406 120.292969 L 85.441406 106.019531 L 88.472656 106.019531 L 88.472656 117.792969 L 94.257812 117.792969 L 94.257812 120.292969 Z M 85.441406 120.292969 "/><path style=" stroke:none;fill-rule:nonzero;fill:#000000;fill-opacity:1;" d="M 109.6875 113.140625 C 109.6875 115.496094 109.101562 117.3125 107.933594 118.582031 C 106.761719 119.851562 105.082031 120.488281 102.894531 120.488281 C 100.710938 120.488281 99.03125 119.851562 97.859375 118.582031 C 96.6875 117.3125 96.101562 115.488281 96.101562 113.117188 C 96.101562 110.742188 96.6875 108.929688 97.859375 107.683594 C 99.035156 106.429688 100.71875 105.800781 102.910156 105.800781 C 105.105469 105.800781 106.785156 106.433594 107.949219 107.699219 C 109.105469 108.957031 109.6875 110.773438 109.6875 113.140625 Z M 99.273438 113.140625 C 99.273438 114.734375 99.574219 115.933594 100.179688 116.738281 C 100.789062 117.546875 101.691406 117.949219 102.894531 117.949219 C 105.308594 117.949219 106.519531 116.347656 106.519531 113.140625 C 106.519531 109.921875 105.316406 108.3125 102.910156 108.3125 C 101.707031 108.3125 100.800781 108.71875 100.1875 109.53125 C 99.578125 110.339844 99.273438 111.542969 99.273438 113.140625 Z M 99.273438 113.140625 "/><path style=" stroke:none;fill-rule:nonzero;fill:#000000;fill-opacity:1;" d="M 118.0625 112.28125 L 123.722656 112.28125 L 123.722656 119.675781 C 122.804688 119.976562 121.941406 120.1875 121.128906 120.308594 C 120.316406 120.425781 119.492188 120.488281 118.648438 120.488281 C 116.492188 120.488281 114.847656 119.855469 113.710938 118.589844 C 112.578125 117.324219 112.011719 115.507812 112.011719 113.140625 C 112.011719 110.835938 112.667969 109.039062 113.984375 107.75 C 115.300781 106.460938 117.128906 105.816406 119.46875 105.816406 C 120.929688 105.816406 122.339844 106.109375 123.699219 106.699219 L 122.699219 109.117188 C 121.65625 108.597656 120.570312 108.335938 119.445312 108.335938 C 118.136719 108.335938 117.089844 108.777344 116.304688 109.65625 C 115.519531 110.53125 115.125 111.710938 115.125 113.195312 C 115.125 114.746094 115.441406 115.929688 116.070312 116.746094 C 116.703125 117.558594 117.628906 117.964844 118.84375 117.964844 C 119.472656 117.964844 120.113281 117.902344 120.761719 117.769531 L 120.761719 114.796875 L 118.0625 114.796875 Z M 118.0625 112.28125 "/><path style=" stroke:none;fill-rule:nonzero;fill:#000000;fill-opacity:1;" d="M 140.070312 113.140625 C 140.070312 115.496094 139.484375 117.3125 138.3125 118.582031 C 137.140625 119.851562 135.464844 120.488281 133.277344 120.488281 C 131.089844 120.488281 129.410156 119.851562 128.242188 118.582031 C 127.070312 117.3125 126.484375 115.488281 126.484375 113.117188 C 126.484375 110.742188 127.070312 108.929688 128.242188 107.683594 C 129.414062 106.429688 131.101562 105.800781 133.292969 105.800781 C 135.488281 105.800781 137.167969 106.433594 138.328125 107.699219 C 139.488281 108.957031 140.070312 110.773438 140.070312 113.140625 Z M 129.652344 113.140625 C 129.652344 114.734375 129.953125 115.933594 130.558594 116.738281 C 131.167969 117.546875 132.074219 117.949219 133.277344 117.949219 C 135.691406 117.949219 136.898438 116.347656 136.898438 113.140625 C 136.898438 109.921875 135.699219 108.3125 133.292969 108.3125 C 132.089844 108.3125 131.179688 108.71875 130.566406 109.53125 C 129.957031 110.339844 129.652344 111.542969 129.652344 113.140625 Z M 129.652344 113.140625 "/></g></svg>