<svg xmlns="http://www.w3.org/2000/svg" xmlns:xlink="http://www.w3.org/1999/xlink" width="300" zoomAndPan="magnify" viewBox="0 0 224.87999 225" height="300" preserveAspectRatio="xMidYMid meet" version="1.2"><defs><clipPath id="9037fc89d5"><path d="M 71.269531 68.273438 L 153.667969 68.273438 L 153.667969 159.351562 L 71.269531 159.351562 Z M 71.269531 68.273438 "/></clipPath></defs><g id="04089d72d5"><g clip-rule="nonzero" clip-path="url(#9037fc89d5)"><path style=" stroke:none;fill-rule:nonzero;fill:#000000;fill-opacity:1;" d="M 148.546875 91.308594 L 144.554688 91.308594 C 146.386719 89.253906 147.210938 87.15625 146.972656 85.046875 C 146.4375 80.316406 140.769531 77.585938 140.117188 77.285156 C 138.0625 76.257812 138.0625 75.566406 138.0625 74.300781 C 138.0625 72.34375 137.785156 70.453125 134.4375 68.777344 C 128.324219 65.726562 117.628906 79.960938 114.613281 84.21875 L 108.980469 84.21875 C 105.96875 79.964844 95.273438 65.714844 89.152344 68.773438 C 85.804688 70.445312 85.527344 72.339844 85.527344 74.296875 C 85.527344 75.5625 85.527344 76.253906 83.476562 77.28125 C 82.890625 77.546875 77.144531 80.28125 76.605469 85.046875 C 76.367188 87.15625 77.191406 89.253906 79.023438 91.308594 L 76.453125 91.308594 C 73.628906 91.308594 71.332031 93.601562 71.332031 96.421875 L 71.332031 108.871094 C 71.332031 111.398438 73.175781 113.488281 75.589844 113.898438 L 75.589844 153.609375 C 75.589844 156.773438 78.167969 159.351562 81.339844 159.351562 L 143.65625 159.351562 C 146.828125 159.351562 149.40625 156.773438 149.40625 153.609375 L 149.40625 113.902344 C 151.820312 113.488281 153.667969 111.398438 153.667969 108.875 L 153.667969 96.421875 C 153.667969 93.601562 151.367188 91.308594 148.546875 91.308594 Z M 144.152344 85.371094 C 144.359375 87.207031 143.082031 89.207031 140.394531 91.308594 L 125.40625 91.308594 C 130.4375 88.957031 136.921875 85.207031 140.019531 80.441406 C 141.640625 81.410156 143.910156 83.21875 144.152344 85.371094 Z M 103.980469 90.691406 C 100.273438 89.265625 91.957031 85.683594 87.492188 80.867188 C 91.933594 82.140625 99.382812 84.78125 103.980469 89.097656 Z M 106.820312 87.640625 C 106.820312 87.316406 107.082031 87.054688 107.40625 87.054688 L 116.171875 87.054688 C 116.492188 87.054688 116.757812 87.316406 116.757812 87.640625 L 116.757812 91.308594 L 106.820312 91.308594 Z M 136.074219 80.878906 C 131.609375 85.683594 123.300781 89.261719 119.597656 90.691406 L 119.597656 89.109375 C 124.1875 84.796875 131.625 82.152344 136.074219 80.878906 Z M 133.167969 71.316406 C 135.222656 72.339844 135.222656 73.035156 135.222656 74.300781 C 135.222656 75.53125 135.332031 76.734375 136.242188 77.875 C 132.09375 78.992188 124.46875 81.488281 119.058594 85.816406 C 118.746094 85.328125 118.316406 84.929688 117.804688 84.652344 C 122.792969 77.894531 130.3125 69.878906 133.167969 71.316406 Z M 88.367188 74.296875 C 88.367188 73.035156 88.367188 72.335938 90.421875 71.3125 C 93.289062 69.875 100.796875 77.890625 105.78125 84.648438 C 105.269531 84.925781 104.835938 85.320312 104.523438 85.808594 C 99.109375 81.484375 91.496094 78.988281 87.34375 77.871094 C 88.257812 76.730469 88.367188 75.527344 88.367188 74.296875 Z M 79.425781 85.371094 C 79.664062 83.21875 81.9375 81.410156 83.558594 80.4375 C 86.65625 85.207031 93.140625 88.953125 98.171875 91.304688 L 83.183594 91.304688 C 80.496094 89.207031 79.21875 87.207031 79.425781 85.371094 Z M 74.167969 108.875 L 74.167969 96.421875 C 74.167969 95.164062 75.195312 94.144531 76.453125 94.144531 L 101.140625 94.144531 L 101.140625 111.152344 L 76.453125 111.152344 C 75.195312 111.152344 74.167969 110.132812 74.167969 108.875 Z M 78.429688 153.609375 L 78.429688 113.988281 L 101.140625 113.988281 L 101.140625 156.515625 L 81.339844 156.515625 C 79.734375 156.515625 78.429688 155.210938 78.429688 153.609375 Z M 103.980469 112.570312 L 103.980469 94.144531 L 105.398438 94.144531 C 105.398438 94.144531 105.398438 94.144531 105.402344 94.144531 C 105.402344 94.144531 105.402344 94.144531 105.40625 94.144531 L 118.171875 94.144531 C 118.171875 94.144531 118.175781 94.144531 118.175781 94.144531 C 118.179688 94.144531 118.179688 94.144531 118.179688 94.144531 L 121.015625 94.144531 L 121.015625 156.515625 L 103.980469 156.515625 Z M 146.566406 153.609375 C 146.566406 155.210938 145.261719 156.515625 143.65625 156.515625 L 123.855469 156.515625 L 123.855469 113.988281 L 146.566406 113.988281 Z M 150.828125 108.875 C 150.828125 110.132812 149.804688 111.152344 148.546875 111.152344 L 123.855469 111.152344 L 123.855469 94.144531 L 148.546875 94.144531 C 149.804688 94.144531 150.828125 95.164062 150.828125 96.421875 Z M 150.828125 108.875 "/></g></g></svg>