<svg xmlns="http://www.w3.org/2000/svg" xmlns:xlink="http://www.w3.org/1999/xlink" width="300" zoomAndPan="magnify" viewBox="0 0 224.87999 225" height="300" preserveAspectRatio="xMidYMid meet" version="1.2"><defs><clipPath id="7fcb1d9322"><path d="M 79.292969 65.648438 L 145.632812 65.648438 L 145.632812 159.351562 L 79.292969 159.351562 Z M 79.292969 65.648438 "/></clipPath></defs><g id="abb8cacdf8"><path style=" stroke:none;fill-rule:nonzero;fill:#000000;fill-opacity:1;" d="M 92.074219 142.632812 L 132.671875 142.613281 C 133.128906 142.613281 133.5 142.242188 133.5 141.785156 L 133.5 122.605469 C 133.5 122.488281 133.476562 122.371094 133.425781 122.265625 C 133.035156 121.390625 132.273438 120.78125 131.28125 120.554688 C 131.21875 120.542969 131.152344 120.535156 131.089844 120.535156 C 126.425781 120.582031 121.667969 120.558594 117.0625 120.535156 L 117.0625 108.714844 C 117.0625 108.683594 117.058594 108.65625 117.058594 108.628906 C 116.925781 107.363281 115.925781 107.132812 115.445312 107.019531 C 115.269531 106.980469 114.382812 106.957031 113.339844 106.949219 C 113.339844 106.925781 113.34375 106.90625 113.34375 106.882812 L 113.253906 105.65625 C 113.4375 105.621094 113.613281 105.578125 113.796875 105.519531 C 115.679688 104.902344 116.8125 103.199219 116.613281 101.285156 C 116.445312 99.667969 115.304688 97.609375 114.296875 95.789062 C 113.824219 94.941406 113.382812 94.140625 113.101562 93.503906 C 112.960938 93.179688 112.628906 92.980469 112.273438 93.007812 C 111.917969 93.039062 111.625 93.292969 111.539062 93.636719 C 111.359375 94.351562 110.84375 95.34375 110.292969 96.394531 C 109.042969 98.800781 107.617188 101.527344 108.8125 103.558594 C 109.476562 104.691406 110.472656 105.414062 111.605469 105.652344 C 111.601562 105.691406 111.597656 105.726562 111.601562 105.761719 L 111.683594 106.949219 C 110.546875 106.957031 109.554688 106.984375 109.386719 107.027344 C 109.039062 107.117188 108.394531 107.285156 108.050781 108.003906 C 108 108.113281 107.972656 108.234375 107.972656 108.355469 L 107.886719 120.503906 C 102.992188 120.507812 98.0625 120.554688 93.199219 120.730469 C 93.074219 120.734375 92.953125 120.769531 92.839844 120.824219 C 91.628906 121.464844 91.410156 122.355469 91.257812 123.367188 C 91.253906 123.410156 91.25 123.449219 91.25 123.488281 L 91.246094 141.804688 C 91.246094 142.023438 91.335938 142.234375 91.492188 142.386719 C 91.644531 142.542969 91.855469 142.632812 92.074219 142.632812 Z M 92.90625 131.5 C 93.589844 131.445312 94.121094 131.78125 94.902344 132.316406 C 95.917969 133.015625 97.1875 133.890625 99 132.96875 C 99.433594 132.75 99.765625 132.472656 100.058594 132.230469 C 100.464844 131.890625 100.757812 131.648438 101.25 131.558594 C 101.917969 131.4375 102.347656 131.730469 103.042969 132.257812 C 103.660156 132.726562 104.359375 133.253906 105.367188 133.339844 C 106.683594 133.453125 107.523438 132.796875 108.191406 132.273438 C 108.628906 131.933594 109.007812 131.640625 109.46875 131.558594 C 110.164062 131.441406 110.597656 131.738281 111.300781 132.273438 C 111.910156 132.734375 112.605469 133.261719 113.597656 133.339844 C 114.875 133.441406 115.714844 132.796875 116.386719 132.28125 C 116.839844 131.933594 117.226562 131.636719 117.6875 131.5625 C 118.375 131.449219 118.769531 131.722656 119.457031 132.257812 C 120.046875 132.714844 120.78125 133.285156 121.847656 133.339844 C 123.117188 133.40625 123.925781 132.78125 124.570312 132.28125 C 125.015625 131.933594 125.402344 131.632812 125.898438 131.5625 C 126.503906 131.480469 127.105469 131.871094 127.804688 132.320312 C 128.542969 132.796875 129.449219 133.386719 130.539062 133.386719 C 130.945312 133.386719 131.382812 133.300781 131.839844 133.097656 L 131.839844 136.019531 L 92.902344 136.019531 Z M 131.839844 131.183594 C 131.800781 131.207031 131.761719 131.226562 131.730469 131.253906 C 130.601562 132.082031 129.917969 131.710938 128.703125 130.929688 C 127.855469 130.378906 126.886719 129.753906 125.671875 129.921875 C 124.738281 130.050781 124.109375 130.542969 123.554688 130.96875 C 122.9375 131.449219 122.558594 131.71875 121.9375 131.683594 C 121.386719 131.65625 120.980469 131.34375 120.472656 130.945312 C 119.753906 130.390625 118.855469 129.695312 117.425781 129.925781 C 116.550781 130.066406 115.929688 130.542969 115.378906 130.964844 C 114.734375 131.457031 114.339844 131.734375 113.730469 131.6875 C 113.21875 131.644531 112.796875 131.324219 112.304688 130.949219 C 111.558594 130.386719 110.628906 129.679688 109.191406 129.925781 C 108.316406 130.074219 107.710938 130.550781 107.171875 130.964844 C 106.539062 131.460938 106.144531 131.738281 105.507812 131.6875 C 104.976562 131.640625 104.542969 131.316406 104.042969 130.9375 C 103.300781 130.375 102.375 129.671875 100.957031 129.929688 C 100.035156 130.09375 99.457031 130.574219 98.996094 130.953125 C 98.742188 131.167969 98.519531 131.355469 98.25 131.488281 C 97.355469 131.945312 96.835938 131.636719 95.839844 130.949219 C 95.078125 130.425781 94.148438 129.789062 92.90625 129.839844 L 92.90625 126.796875 L 131.839844 126.796875 Z M 92.90625 140.972656 L 92.90625 137.675781 L 131.839844 137.675781 L 131.839844 140.957031 Z M 110.238281 102.71875 C 109.511719 101.480469 110.761719 99.085938 111.765625 97.160156 C 112 96.710938 112.230469 96.273438 112.433594 95.847656 C 112.566406 96.089844 112.707031 96.339844 112.847656 96.59375 C 113.777344 98.273438 114.832031 100.175781 114.964844 101.457031 C 115.097656 102.746094 114.214844 103.636719 113.28125 103.945312 C 112.339844 104.253906 111.046875 104.09375 110.238281 102.71875 Z M 109.761719 108.644531 C 110.355469 108.589844 114.554688 108.589844 115.101562 108.644531 C 115.269531 108.683594 115.355469 108.710938 115.398438 108.730469 C 115.398438 108.738281 115.402344 108.75 115.402344 108.765625 L 115.402344 120.527344 C 113.460938 120.515625 111.507812 120.507812 109.542969 120.503906 L 109.628906 108.683594 C 109.671875 108.667969 109.722656 108.652344 109.761719 108.644531 Z M 93.460938 122.382812 C 101.164062 122.109375 109.054688 122.152344 116.683594 122.191406 C 121.378906 122.214844 126.234375 122.242188 131 122.195312 C 131.382812 122.300781 131.664062 122.503906 131.839844 122.800781 L 131.839844 125.136719 L 92.90625 125.136719 L 92.90625 123.550781 C 93.007812 122.871094 93.09375 122.613281 93.460938 122.382812 Z M 93.460938 122.382812 "/><g clip-rule="nonzero" clip-path="url(#7fcb1d9322)"><path style=" stroke:none;fill-rule:nonzero;fill:#000000;fill-opacity:1;" d="M 145.34375 80.574219 C 145.1875 80.417969 144.976562 80.332031 144.753906 80.332031 L 137.761719 80.335938 L 137.59375 66.503906 C 137.589844 66.25 137.46875 66.007812 137.265625 65.855469 C 137.0625 65.699219 136.796875 65.648438 136.550781 65.714844 L 81.546875 80.367188 L 81.195312 80.367188 C 80.960938 80.367188 80.75 80.464844 80.597656 80.621094 L 80.117188 80.75 C 79.753906 80.847656 79.5 81.171875 79.5 81.546875 L 79.304688 158.328125 C 79.304688 158.785156 79.675781 159.15625 80.132812 159.160156 L 144.628906 159.355469 L 144.632812 159.355469 C 144.851562 159.355469 145.0625 159.265625 145.21875 159.113281 C 145.371094 158.957031 145.460938 158.746094 145.460938 158.527344 L 145.585938 81.164062 C 145.585938 80.941406 145.5 80.730469 145.34375 80.574219 Z M 135.945312 67.589844 L 136.101562 80.335938 L 88 80.363281 Z M 143.804688 157.691406 L 80.964844 157.503906 L 81.15625 82.1875 L 81.765625 82.027344 L 143.925781 81.992188 Z M 143.804688 157.691406 "/></g></g></svg>