<svg xmlns="http://www.w3.org/2000/svg" xmlns:xlink="http://www.w3.org/1999/xlink" width="300" zoomAndPan="magnify" viewBox="0 0 224.87999 225" height="300" preserveAspectRatio="xMidYMid meet" version="1.2"><defs><clipPath id="0ee8bd2ee5"><path d="M 48.585938 56.785156 L 176 56.785156 L 176 168.476562 L 48.585938 168.476562 Z M 48.585938 56.785156 "/></clipPath></defs><g id="d31b73b2d8"><g clip-rule="nonzero" clip-path="url(#0ee8bd2ee5)"><path style=" stroke:none;fill-rule:nonzero;fill:#000000;fill-opacity:1;" d="M 102.085938 160.054688 C 102.085938 160.253906 102.050781 160.445312 101.972656 160.628906 C 101.898438 160.816406 101.789062 160.980469 101.648438 161.121094 C 101.507812 161.261719 101.34375 161.371094 101.160156 161.449219 C 100.976562 161.523438 100.785156 161.5625 100.585938 161.5625 L 90.648438 161.5625 C 90.449219 161.5625 90.253906 161.523438 90.070312 161.449219 C 89.886719 161.371094 89.726562 161.261719 89.585938 161.121094 C 89.441406 160.980469 89.335938 160.816406 89.257812 160.628906 C 89.183594 160.445312 89.144531 160.253906 89.144531 160.054688 C 89.144531 159.851562 89.183594 159.660156 89.257812 159.476562 C 89.335938 159.289062 89.441406 159.128906 89.585938 158.984375 C 89.726562 158.84375 89.886719 158.734375 90.070312 158.660156 C 90.253906 158.582031 90.449219 158.542969 90.648438 158.542969 L 100.585938 158.542969 C 100.785156 158.542969 100.976562 158.582031 101.160156 158.660156 C 101.34375 158.734375 101.507812 158.84375 101.648438 158.984375 C 101.789062 159.128906 101.898438 159.289062 101.972656 159.476562 C 102.050781 159.660156 102.085938 159.851562 102.085938 160.054688 Z M 156.816406 108.167969 C 158.875 115.890625 159.695312 123.476562 159.121094 129.523438 C 158.5 136.070312 156.253906 140.191406 152.800781 141.117188 C 152.320312 141.25 151.828125 141.3125 151.328125 141.3125 C 148.957031 141.3125 146.394531 139.867188 143.855469 137.109375 C 137.953125 134.527344 132.234375 132.851562 126.410156 132.066406 L 126.410156 160.445312 C 126.410156 160.96875 126.359375 161.492188 126.257812 162.007812 C 126.152344 162.523438 126.003906 163.023438 125.800781 163.507812 C 125.601562 163.996094 125.355469 164.457031 125.066406 164.894531 C 124.773438 165.332031 124.445312 165.734375 124.074219 166.105469 C 123.703125 166.480469 123.300781 166.8125 122.867188 167.105469 C 122.429688 167.394531 121.972656 167.644531 121.488281 167.84375 C 121.003906 168.046875 120.503906 168.199219 119.992188 168.300781 C 119.480469 168.40625 118.960938 168.457031 118.4375 168.457031 L 72.796875 168.457031 C 72.273438 168.457031 71.753906 168.40625 71.242188 168.300781 C 70.726562 168.199219 70.230469 168.046875 69.746094 167.84375 C 69.261719 167.644531 68.800781 167.398438 68.367188 167.105469 C 67.929688 166.8125 67.527344 166.480469 67.160156 166.109375 C 66.789062 165.734375 66.457031 165.332031 66.167969 164.894531 C 65.875 164.457031 65.628906 163.996094 65.429688 163.511719 C 65.230469 163.023438 65.078125 162.523438 64.972656 162.007812 C 64.871094 161.492188 64.820312 160.972656 64.820312 160.445312 L 64.820312 150.914062 C 63.722656 150.824219 62.640625 150.628906 61.582031 150.332031 C 60.519531 150.039062 59.492188 149.648438 58.503906 149.160156 C 57.515625 148.671875 56.578125 148.097656 55.695312 147.4375 C 54.8125 146.773438 54 146.035156 53.253906 145.21875 C 52.507812 144.40625 51.84375 143.527344 51.261719 142.589844 C 50.679688 141.652344 50.1875 140.664062 49.789062 139.636719 C 49.386719 138.605469 49.085938 137.542969 48.882812 136.457031 C 48.679688 135.371094 48.578125 134.273438 48.578125 133.164062 C 48.578125 132.058594 48.679688 130.960938 48.882812 129.875 C 49.085938 128.785156 49.386719 127.726562 49.789062 126.695312 C 50.1875 125.664062 50.679688 124.679688 51.261719 123.742188 C 51.84375 122.800781 52.507812 121.925781 53.253906 121.109375 C 54 120.296875 54.8125 119.558594 55.695312 118.894531 C 56.578125 118.234375 57.515625 117.65625 58.503906 117.171875 C 59.492188 116.683594 60.519531 116.292969 61.582031 115.996094 C 62.640625 115.703125 63.722656 115.507812 64.820312 115.414062 L 64.820312 108.828125 L 50.214844 108.828125 C 50.015625 108.828125 49.824219 108.792969 49.640625 108.714844 C 49.457031 108.636719 49.296875 108.527344 49.152344 108.386719 C 49.011719 108.246094 48.90625 108.082031 48.828125 107.898438 C 48.753906 107.710938 48.714844 107.519531 48.714844 107.320312 L 48.714844 82.152344 C 48.714844 81.953125 48.753906 81.761719 48.828125 81.574219 C 48.90625 81.390625 49.011719 81.226562 49.152344 81.085938 C 49.296875 80.945312 49.457031 80.835938 49.640625 80.757812 C 49.824219 80.679688 50.015625 80.644531 50.214844 80.644531 L 64.820312 80.644531 L 64.820312 77.417969 C 64.820312 76.890625 64.871094 76.371094 64.972656 75.855469 C 65.078125 75.339844 65.230469 74.839844 65.429688 74.351562 C 65.628906 73.867188 65.875 73.40625 66.167969 72.96875 C 66.457031 72.53125 66.789062 72.125 67.160156 71.753906 C 67.527344 71.382812 67.929688 71.050781 68.367188 70.757812 C 68.800781 70.464844 69.261719 70.21875 69.746094 70.015625 C 70.230469 69.816406 70.726562 69.664062 71.242188 69.5625 C 71.753906 69.457031 72.273438 69.40625 72.796875 69.40625 L 94.574219 69.40625 L 94.574219 58.316406 C 94.574219 58.113281 94.613281 57.921875 94.6875 57.738281 C 94.765625 57.550781 94.871094 57.386719 95.011719 57.246094 C 95.152344 57.105469 95.316406 56.996094 95.5 56.917969 C 95.683594 56.84375 95.875 56.804688 96.074219 56.804688 L 130.570312 56.804688 C 130.769531 56.804688 130.960938 56.84375 131.144531 56.917969 C 131.328125 56.996094 131.488281 57.105469 131.632812 57.246094 C 131.773438 57.386719 131.878906 57.550781 131.957031 57.738281 C 132.03125 57.921875 132.070312 58.113281 132.070312 58.316406 L 132.070312 82.152344 C 132.070312 82.351562 132.03125 82.546875 131.957031 82.730469 C 131.878906 82.914062 131.773438 83.078125 131.632812 83.21875 C 131.488281 83.363281 131.328125 83.472656 131.144531 83.546875 C 130.960938 83.625 130.769531 83.664062 130.570312 83.664062 L 126.410156 83.664062 L 126.410156 95.464844 C 128.101562 93.59375 129.691406 91.644531 131.183594 89.609375 C 132.1875 85.171875 134.175781 82.386719 136.9375 81.644531 C 140.390625 80.714844 144.382812 83.152344 148.179688 88.511719 C 151.6875 93.464844 154.753906 100.445312 156.816406 108.167969 Z M 137.160156 118.269531 L 142.386719 116.863281 C 142.679688 116.785156 142.960938 116.675781 143.234375 116.542969 C 143.507812 116.40625 143.761719 116.246094 144.003906 116.058594 C 144.246094 115.875 144.464844 115.667969 144.664062 115.4375 C 144.867188 115.207031 145.042969 114.960938 145.191406 114.695312 C 145.34375 114.433594 145.46875 114.15625 145.566406 113.867188 C 145.664062 113.578125 145.734375 113.28125 145.773438 112.980469 C 145.8125 112.675781 145.820312 112.375 145.800781 112.070312 C 145.78125 111.765625 145.734375 111.464844 145.65625 111.171875 C 145.574219 110.875 145.46875 110.589844 145.335938 110.316406 C 145.199219 110.042969 145.042969 109.785156 144.855469 109.542969 C 144.671875 109.300781 144.464844 109.082031 144.238281 108.878906 C 144.007812 108.679688 143.761719 108.5 143.5 108.347656 C 143.238281 108.195312 142.960938 108.070312 142.675781 107.972656 C 142.386719 107.875 142.09375 107.804688 141.792969 107.765625 C 141.488281 107.722656 141.1875 107.714844 140.882812 107.734375 C 140.582031 107.753906 140.285156 107.804688 139.988281 107.882812 L 134.765625 109.289062 C 135.070312 110.78125 135.421875 112.292969 135.828125 113.816406 C 136.234375 115.335938 136.679688 116.824219 137.160156 118.269531 Z M 111.890625 110.695312 L 116.652344 128.539062 C 124.796875 128.292969 132.480469 129.589844 140.371094 132.464844 C 138.292969 129.167969 136.410156 125.167969 134.839844 120.757812 C 134.796875 120.671875 134.761719 120.578125 134.734375 120.484375 C 134.730469 120.46875 134.726562 120.453125 134.722656 120.4375 C 134.0625 118.554688 133.460938 116.601562 132.925781 114.597656 C 132.390625 112.589844 131.941406 110.597656 131.574219 108.632812 C 131.570312 108.617188 131.566406 108.601562 131.5625 108.585938 C 131.535156 108.484375 131.515625 108.382812 131.511719 108.277344 C 130.679688 103.679688 130.324219 99.273438 130.480469 95.382812 C 125.078125 101.835938 119.070312 106.816406 111.890625 110.699219 Z M 111.234375 131.964844 C 108.332031 132.300781 105.457031 132.789062 102.609375 133.4375 L 111.292969 146.707031 L 117.867188 144.9375 L 113.34375 139.980469 C 112.460938 139.027344 111.945312 137.90625 111.800781 136.613281 Z M 99.898438 130.976562 C 104.398438 129.835938 108.957031 129.074219 113.582031 128.699219 L 109.152344 112.097656 C 104.289062 114.402344 99.253906 116.234375 94.050781 117.59375 C 93.597656 117.71875 93.160156 117.886719 92.738281 118.097656 C 92.316406 118.308594 91.921875 118.558594 91.550781 118.84375 C 91.179688 119.132812 90.839844 119.457031 90.527344 119.8125 C 90.21875 120.167969 89.949219 120.550781 89.714844 120.960938 C 89.480469 121.371094 89.289062 121.796875 89.136719 122.246094 C 88.988281 122.691406 88.882812 123.148438 88.820312 123.617188 C 88.761719 124.085938 88.746094 124.554688 88.777344 125.027344 C 88.808594 125.5 88.882812 125.960938 89.003906 126.417969 C 89.128906 126.875 89.292969 127.3125 89.5 127.738281 C 89.707031 128.160156 89.953125 128.558594 90.238281 128.933594 C 90.523438 129.308594 90.84375 129.652344 91.199219 129.964844 C 91.550781 130.277344 91.929688 130.550781 92.335938 130.789062 C 92.742188 131.023438 93.167969 131.21875 93.613281 131.371094 C 94.058594 131.527344 94.511719 131.632812 94.976562 131.699219 C 95.445312 131.761719 95.910156 131.777344 96.378906 131.75 C 96.851562 131.71875 97.3125 131.644531 97.765625 131.523438 C 98.429688 131.347656 99.089844 131.175781 99.746094 131.015625 C 99.796875 131 99.847656 130.988281 99.898438 130.976562 Z M 97.578125 80.644531 L 102.414062 80.644531 C 102.683594 80.644531 102.933594 80.710938 103.167969 80.84375 C 103.398438 80.980469 103.582031 81.164062 103.71875 81.398438 L 106.796875 86.757812 L 109.878906 81.398438 C 110.011719 81.164062 110.195312 80.980469 110.429688 80.84375 C 110.664062 80.710938 110.914062 80.644531 111.179688 80.644531 L 129.066406 80.644531 L 129.066406 59.824219 L 97.578125 59.824219 Z M 67.824219 77.417969 L 67.824219 80.644531 L 94.574219 80.644531 L 94.574219 72.425781 L 72.796875 72.425781 C 72.46875 72.425781 72.148438 72.457031 71.828125 72.519531 C 71.507812 72.585938 71.195312 72.679688 70.894531 72.804688 C 70.59375 72.929688 70.308594 73.085938 70.035156 73.269531 C 69.765625 73.449219 69.511719 73.65625 69.28125 73.886719 C 69.050781 74.121094 68.847656 74.371094 68.664062 74.644531 C 68.484375 74.917969 68.332031 75.207031 68.207031 75.507812 C 68.078125 75.8125 67.984375 76.121094 67.921875 76.445312 C 67.859375 76.765625 67.824219 77.089844 67.824219 77.417969 Z M 51.71875 105.8125 L 80.925781 105.8125 L 80.925781 83.664062 L 51.71875 83.664062 Z M 66.324219 147.964844 C 67.289062 147.964844 68.246094 147.871094 69.195312 147.679688 C 70.144531 147.492188 71.066406 147.210938 71.960938 146.839844 C 72.855469 146.464844 73.703125 146.011719 74.507812 145.46875 C 75.3125 144.929688 76.054688 144.316406 76.738281 143.628906 C 77.425781 142.941406 78.035156 142.195312 78.570312 141.386719 C 79.109375 140.578125 79.5625 139.726562 79.933594 138.828125 C 80.304688 137.929688 80.582031 137.003906 80.773438 136.050781 C 80.960938 135.097656 81.054688 134.136719 81.054688 133.164062 C 81.054688 132.195312 80.960938 131.230469 80.773438 130.277344 C 80.582031 129.324219 80.304688 128.398438 79.933594 127.5 C 79.5625 126.605469 79.109375 125.75 78.570312 124.941406 C 78.035156 124.136719 77.425781 123.386719 76.738281 122.699219 C 76.054688 122.011719 75.3125 121.398438 74.507812 120.859375 C 73.703125 120.320312 72.855469 119.863281 71.960938 119.492188 C 71.066406 119.121094 70.144531 118.839844 69.195312 118.648438 C 68.246094 118.460938 67.289062 118.367188 66.324219 118.367188 C 65.355469 118.367188 64.398438 118.460938 63.449219 118.648438 C 62.5 118.839844 61.578125 119.121094 60.683594 119.492188 C 59.789062 119.863281 58.941406 120.320312 58.136719 120.859375 C 57.332031 121.398438 56.589844 122.011719 55.90625 122.699219 C 55.222656 123.386719 54.609375 124.136719 54.074219 124.941406 C 53.535156 125.75 53.082031 126.605469 52.710938 127.5 C 52.339844 128.398438 52.0625 129.324219 51.871094 130.277344 C 51.683594 131.230469 51.589844 132.195312 51.589844 133.164062 C 51.589844 134.136719 51.6875 135.097656 51.875 136.050781 C 52.066406 137.003906 52.34375 137.929688 52.714844 138.828125 C 53.085938 139.722656 53.539062 140.574219 54.078125 141.382812 C 54.617188 142.191406 55.226562 142.9375 55.910156 143.625 C 56.59375 144.3125 57.335938 144.925781 58.140625 145.464844 C 58.945312 146.003906 59.792969 146.460938 60.6875 146.832031 C 61.582031 147.207031 62.5 147.488281 63.449219 147.675781 C 64.398438 147.867188 65.355469 147.964844 66.324219 147.964844 Z M 123.40625 160.445312 L 123.40625 155.367188 L 67.824219 155.367188 L 67.824219 160.445312 C 67.824219 160.773438 67.859375 161.097656 67.921875 161.417969 C 67.984375 161.742188 68.082031 162.050781 68.207031 162.355469 C 68.332031 162.65625 68.484375 162.945312 68.664062 163.21875 C 68.847656 163.492188 69.050781 163.742188 69.28125 163.972656 C 69.511719 164.207031 69.765625 164.414062 70.035156 164.59375 C 70.308594 164.777344 70.59375 164.929688 70.894531 165.058594 C 71.195312 165.183594 71.507812 165.277344 71.828125 165.339844 C 72.148438 165.40625 72.46875 165.4375 72.796875 165.4375 L 118.4375 165.4375 C 118.761719 165.4375 119.085938 165.40625 119.40625 165.339844 C 119.726562 165.277344 120.035156 165.183594 120.335938 165.054688 C 120.640625 164.929688 120.925781 164.777344 121.195312 164.59375 C 121.46875 164.414062 121.71875 164.207031 121.949219 163.972656 C 122.179688 163.742188 122.386719 163.488281 122.566406 163.21875 C 122.75 162.945312 122.902344 162.65625 123.027344 162.355469 C 123.152344 162.050781 123.246094 161.738281 123.308594 161.417969 C 123.375 161.097656 123.40625 160.773438 123.40625 160.445312 Z M 123.40625 131.738281 C 120.347656 131.492188 117.289062 131.476562 114.230469 131.691406 L 114.785156 136.246094 C 114.851562 136.898438 115.109375 137.464844 115.5625 137.941406 L 120.742188 143.625 C 120.878906 143.777344 121 143.945312 121.09375 144.128906 C 121.191406 144.3125 121.265625 144.507812 121.3125 144.710938 C 121.359375 144.914062 121.378906 145.117188 121.375 145.328125 C 121.367188 145.535156 121.335938 145.738281 121.277344 145.9375 C 121.21875 146.140625 121.136719 146.328125 121.03125 146.507812 C 120.925781 146.6875 120.796875 146.847656 120.648438 146.992188 C 120.5 147.140625 120.335938 147.265625 120.15625 147.367188 C 119.976562 147.46875 119.785156 147.546875 119.585938 147.601562 L 111.660156 149.734375 C 111.15625 149.871094 110.664062 149.847656 110.175781 149.660156 C 109.6875 149.476562 109.304688 149.164062 109.019531 148.726562 L 99.503906 134.191406 C 99.183594 134.277344 98.867188 134.355469 98.542969 134.441406 C 97.898438 134.617188 97.242188 134.726562 96.574219 134.769531 C 95.90625 134.816406 95.242188 134.792969 94.578125 134.707031 C 93.914062 134.617188 93.265625 134.46875 92.632812 134.25 C 92 134.035156 91.390625 133.761719 90.8125 133.425781 C 90.234375 133.089844 89.691406 132.699219 89.1875 132.257812 C 88.6875 131.8125 88.230469 131.324219 87.824219 130.792969 C 87.417969 130.257812 87.066406 129.691406 86.769531 129.089844 C 86.472656 128.484375 86.238281 127.859375 86.066406 127.210938 C 85.890625 126.5625 85.785156 125.902344 85.742188 125.230469 C 85.695312 124.5625 85.71875 123.894531 85.804688 123.226562 C 85.894531 122.558594 86.042969 121.910156 86.257812 121.273438 C 86.476562 120.636719 86.75 120.027344 87.085938 119.445312 C 87.417969 118.863281 87.808594 118.320312 88.25 117.816406 C 88.6875 117.308594 89.175781 116.851562 89.707031 116.445312 C 90.238281 116.035156 90.804688 115.683594 91.402344 115.386719 C 92.003906 115.089844 92.625 114.855469 93.273438 114.679688 C 99.3125 113.054688 104.636719 111.058594 109.425781 108.578125 C 109.4375 108.570312 109.453125 108.5625 109.46875 108.554688 C 114.601562 105.910156 119.246094 102.582031 123.40625 98.566406 L 123.40625 83.664062 L 112.046875 83.664062 L 108.097656 90.53125 C 107.964844 90.765625 107.78125 90.949219 107.550781 91.085938 C 107.316406 91.21875 107.066406 91.289062 106.796875 91.289062 C 106.53125 91.289062 106.277344 91.21875 106.046875 91.085938 C 105.8125 90.949219 105.628906 90.765625 105.496094 90.53125 L 101.546875 83.664062 L 83.929688 83.664062 L 83.929688 107.320312 C 83.929688 107.519531 83.894531 107.710938 83.816406 107.898438 C 83.738281 108.082031 83.632812 108.246094 83.492188 108.386719 C 83.351562 108.527344 83.1875 108.636719 83.003906 108.714844 C 82.820312 108.792969 82.628906 108.828125 82.429688 108.828125 L 67.828125 108.828125 L 67.828125 115.414062 C 68.925781 115.507812 70.003906 115.703125 71.066406 115.996094 C 72.128906 116.292969 73.152344 116.683594 74.140625 117.171875 C 75.132812 117.65625 76.066406 118.230469 76.949219 118.894531 C 77.832031 119.558594 78.648438 120.296875 79.390625 121.109375 C 80.136719 121.925781 80.800781 122.800781 81.382812 123.742188 C 81.96875 124.679688 82.460938 125.664062 82.859375 126.695312 C 83.257812 127.726562 83.5625 128.785156 83.765625 129.875 C 83.96875 130.960938 84.070312 132.058594 84.070312 133.164062 C 84.070312 134.273438 83.96875 135.367188 83.765625 136.457031 C 83.5625 137.542969 83.257812 138.601562 82.859375 139.632812 C 82.460938 140.664062 81.96875 141.652344 81.382812 142.589844 C 80.800781 143.527344 80.136719 144.40625 79.390625 145.21875 C 78.648438 146.035156 77.832031 146.773438 76.949219 147.4375 C 76.066406 148.097656 75.132812 148.671875 74.140625 149.160156 C 73.152344 149.648438 72.128906 150.039062 71.066406 150.332031 C 70.003906 150.628906 68.925781 150.820312 67.828125 150.914062 L 67.828125 152.347656 L 123.40625 152.347656 Z M 153.910156 108.945312 C 151.941406 101.5625 149.035156 94.925781 145.730469 90.261719 C 143.113281 86.566406 140.4375 84.472656 138.410156 84.472656 C 138.171875 84.46875 137.941406 84.5 137.714844 84.558594 C 135.625 85.121094 134.089844 88.472656 133.613281 93.523438 C 133.257812 97.261719 133.476562 101.648438 134.222656 106.308594 L 139.210938 104.964844 C 139.695312 104.835938 140.1875 104.753906 140.6875 104.71875 C 141.1875 104.6875 141.6875 104.703125 142.183594 104.769531 C 142.679688 104.835938 143.167969 104.949219 143.640625 105.109375 C 144.117188 105.273438 144.570312 105.480469 145.003906 105.730469 C 145.4375 105.984375 145.84375 106.273438 146.21875 106.605469 C 146.597656 106.9375 146.9375 107.304688 147.242188 107.703125 C 147.546875 108.105469 147.8125 108.527344 148.035156 108.980469 C 148.253906 109.433594 148.429688 109.902344 148.558594 110.386719 C 148.691406 110.875 148.769531 111.367188 148.804688 111.871094 C 148.835938 112.375 148.820312 112.875 148.753906 113.371094 C 148.691406 113.871094 148.578125 114.359375 148.414062 114.835938 C 148.253906 115.3125 148.046875 115.769531 147.796875 116.207031 C 147.546875 116.640625 147.257812 117.050781 146.925781 117.429688 C 146.597656 117.804688 146.230469 118.148438 145.835938 118.457031 C 145.4375 118.761719 145.011719 119.027344 144.5625 119.25 C 144.113281 119.472656 143.648438 119.648438 143.164062 119.777344 L 138.175781 121.121094 C 139.847656 125.53125 141.839844 129.441406 144.007812 132.5 C 146.9375 136.632812 149.933594 138.765625 152.023438 138.203125 C 154.117188 137.640625 155.648438 134.289062 156.128906 129.238281 C 156.667969 123.539062 155.882812 116.332031 153.910156 108.949219 Z M 157 83.382812 L 153.234375 87.171875 C 153.09375 87.3125 152.984375 87.476562 152.910156 87.660156 C 152.832031 87.84375 152.796875 88.039062 152.796875 88.238281 C 152.796875 88.4375 152.832031 88.628906 152.910156 88.816406 C 152.988281 89 153.09375 89.164062 153.234375 89.304688 C 153.378906 89.445312 153.539062 89.554688 153.722656 89.632812 C 153.90625 89.707031 154.101562 89.746094 154.300781 89.746094 C 154.5 89.746094 154.691406 89.707031 154.875 89.632812 C 155.058594 89.554688 155.21875 89.445312 155.363281 89.304688 L 159.125 85.515625 C 159.269531 85.375 159.378906 85.210938 159.457031 85.027344 C 159.535156 84.839844 159.574219 84.648438 159.574219 84.445312 C 159.574219 84.246094 159.535156 84.050781 159.460938 83.867188 C 159.382812 83.679688 159.273438 83.515625 159.132812 83.375 C 158.992188 83.230469 158.828125 83.121094 158.640625 83.046875 C 158.457031 82.96875 158.265625 82.929688 158.0625 82.933594 C 157.863281 82.933594 157.671875 82.972656 157.484375 83.050781 C 157.300781 83.128906 157.140625 83.238281 157 83.382812 Z M 175.710938 100.234375 C 175.640625 100.046875 175.535156 99.882812 175.398438 99.738281 C 175.257812 99.59375 175.097656 99.480469 174.914062 99.398438 C 174.734375 99.320312 174.542969 99.277344 174.34375 99.273438 C 174.144531 99.269531 173.949219 99.304688 173.765625 99.378906 L 162.113281 103.960938 C 161.929688 104.035156 161.765625 104.140625 161.621094 104.277344 C 161.476562 104.417969 161.363281 104.578125 161.285156 104.761719 C 161.203125 104.945312 161.164062 105.136719 161.160156 105.339844 C 161.15625 105.539062 161.1875 105.730469 161.261719 105.917969 C 161.335938 106.105469 161.441406 106.269531 161.578125 106.414062 C 161.714844 106.558594 161.878906 106.671875 162.058594 106.75 C 162.242188 106.832031 162.433594 106.875 162.632812 106.878906 C 162.832031 106.882812 163.023438 106.847656 163.210938 106.773438 L 174.863281 102.1875 C 175.046875 102.117188 175.210938 102.011719 175.355469 101.871094 C 175.5 101.734375 175.609375 101.570312 175.691406 101.386719 C 175.769531 101.203125 175.8125 101.011719 175.816406 100.8125 C 175.820312 100.613281 175.785156 100.417969 175.710938 100.234375 Z M 170.132812 125.003906 L 165.183594 121.867188 C 165.015625 121.765625 164.835938 121.695312 164.640625 121.664062 C 164.445312 121.632812 164.253906 121.640625 164.058594 121.6875 C 163.867188 121.730469 163.691406 121.8125 163.53125 121.925781 C 163.371094 122.042969 163.238281 122.183594 163.132812 122.351562 C 163.027344 122.519531 162.957031 122.699219 162.925781 122.894531 C 162.890625 123.089844 162.894531 123.285156 162.9375 123.476562 C 162.976562 123.671875 163.054688 123.851562 163.167969 124.011719 C 163.277344 124.175781 163.417969 124.3125 163.582031 124.421875 L 168.53125 127.558594 C 168.699219 127.667969 168.882812 127.742188 169.082031 127.777344 C 169.277344 127.816406 169.476562 127.8125 169.671875 127.769531 C 169.871094 127.726562 170.050781 127.644531 170.214844 127.53125 C 170.378906 127.414062 170.515625 127.269531 170.625 127.097656 C 170.730469 126.925781 170.800781 126.742188 170.835938 126.542969 C 170.867188 126.34375 170.863281 126.144531 170.816406 125.949219 C 170.769531 125.75 170.6875 125.570312 170.570312 125.40625 C 170.453125 125.242188 170.304688 125.109375 170.132812 125.003906 Z M 72.609375 94.738281 C 72.609375 95.007812 72.539062 95.257812 72.40625 95.492188 C 72.273438 95.726562 72.089844 95.910156 71.855469 96.042969 L 62.292969 101.589844 C 62.058594 101.726562 61.808594 101.792969 61.539062 101.792969 C 61.269531 101.792969 61.019531 101.726562 60.789062 101.589844 C 60.554688 101.457031 60.371094 101.273438 60.238281 101.039062 C 60.105469 100.804688 60.035156 100.554688 60.035156 100.28125 L 60.035156 89.1875 C 60.035156 88.917969 60.105469 88.667969 60.238281 88.433594 C 60.371094 88.199219 60.554688 88.015625 60.789062 87.878906 C 61.019531 87.746094 61.269531 87.675781 61.539062 87.675781 C 61.808594 87.675781 62.058594 87.746094 62.292969 87.878906 L 71.855469 93.425781 C 72.089844 93.5625 72.273438 93.746094 72.40625 93.980469 C 72.542969 94.214844 72.609375 94.464844 72.609375 94.738281 Z M 68.097656 94.738281 L 63.042969 91.804688 L 63.042969 97.667969 Z M 66.320312 141.039062 C 65.90625 141.039062 65.550781 140.890625 65.257812 140.597656 L 59.355469 134.664062 C 59.113281 134.421875 58.898438 134.164062 58.710938 133.882812 C 58.519531 133.601562 58.355469 133.308594 58.21875 132.996094 C 58.082031 132.683594 57.976562 132.363281 57.898438 132.035156 C 57.820312 131.703125 57.773438 131.367188 57.757812 131.027344 C 57.742188 130.691406 57.757812 130.351562 57.804688 130.015625 C 57.851562 129.679688 57.929688 129.351562 58.039062 129.027344 C 58.144531 128.707031 58.28125 128.398438 58.449219 128.101562 C 58.613281 127.804688 58.804688 127.527344 59.019531 127.265625 C 59.234375 127.003906 59.472656 126.765625 59.734375 126.546875 C 59.996094 126.332031 60.273438 126.140625 60.570312 125.976562 C 60.863281 125.8125 61.171875 125.675781 61.492188 125.566406 C 61.8125 125.460938 62.140625 125.382812 62.476562 125.335938 C 62.8125 125.292969 63.148438 125.277344 63.484375 125.292969 C 63.824219 125.308594 64.15625 125.355469 64.484375 125.433594 C 64.8125 125.515625 65.132812 125.621094 65.441406 125.761719 C 65.75 125.898438 66.042969 126.0625 66.324219 126.257812 C 66.601562 126.0625 66.894531 125.898438 67.203125 125.761719 C 67.511719 125.625 67.832031 125.515625 68.160156 125.4375 C 68.488281 125.359375 68.824219 125.3125 69.160156 125.296875 C 69.496094 125.28125 69.832031 125.296875 70.167969 125.339844 C 70.503906 125.386719 70.832031 125.464844 71.152344 125.574219 C 71.472656 125.679688 71.78125 125.816406 72.074219 125.980469 C 72.371094 126.144531 72.648438 126.335938 72.910156 126.550781 C 73.167969 126.769531 73.40625 127.007812 73.625 127.269531 C 73.839844 127.527344 74.03125 127.808594 74.195312 128.105469 C 74.359375 128.398438 74.496094 128.710938 74.605469 129.03125 C 74.710938 129.351562 74.789062 129.679688 74.835938 130.015625 C 74.882812 130.355469 74.898438 130.691406 74.882812 131.03125 C 74.867188 131.371094 74.824219 131.703125 74.746094 132.035156 C 74.667969 132.363281 74.5625 132.6875 74.425781 132.996094 C 74.289062 133.308594 74.128906 133.601562 73.9375 133.882812 C 73.746094 134.164062 73.53125 134.421875 73.292969 134.664062 L 67.386719 140.597656 C 67.089844 140.890625 66.738281 141.039062 66.324219 141.039062 Z M 66.320312 137.394531 L 71.164062 132.527344 C 71.386719 132.292969 71.558594 132.027344 71.675781 131.726562 C 71.796875 131.425781 71.851562 131.113281 71.851562 130.789062 C 71.847656 130.46875 71.78125 130.15625 71.65625 129.859375 C 71.53125 129.558594 71.355469 129.296875 71.128906 129.066406 C 70.902344 128.839844 70.640625 128.664062 70.34375 128.535156 C 70.046875 128.410156 69.734375 128.347656 69.414062 128.34375 C 69.09375 128.339844 68.78125 128.398438 68.480469 128.515625 C 68.183594 128.636719 67.917969 128.808594 67.683594 129.03125 L 67.382812 129.332031 C 67.089844 129.625 66.734375 129.773438 66.320312 129.773438 C 65.90625 129.773438 65.550781 129.625 65.257812 129.332031 L 64.960938 129.03125 C 64.726562 128.808594 64.460938 128.636719 64.160156 128.515625 C 63.863281 128.398438 63.550781 128.339844 63.230469 128.34375 C 62.90625 128.347656 62.597656 128.410156 62.300781 128.535156 C 62.003906 128.660156 61.742188 128.839844 61.515625 129.066406 C 61.285156 129.296875 61.109375 129.558594 60.984375 129.859375 C 60.859375 130.15625 60.796875 130.46875 60.792969 130.789062 C 60.789062 131.113281 60.847656 131.425781 60.964844 131.726562 C 61.085938 132.027344 61.253906 132.292969 61.476562 132.527344 Z M 103.03125 67.597656 L 123.613281 67.597656 C 123.8125 67.597656 124.003906 67.558594 124.1875 67.480469 C 124.371094 67.40625 124.535156 67.296875 124.675781 67.152344 C 124.816406 67.011719 124.925781 66.847656 125 66.664062 C 125.078125 66.480469 125.113281 66.285156 125.113281 66.085938 C 125.113281 65.886719 125.078125 65.695312 125 65.507812 C 124.925781 65.324219 124.816406 65.160156 124.675781 65.019531 C 124.535156 64.878906 124.371094 64.769531 124.1875 64.691406 C 124.003906 64.617188 123.8125 64.578125 123.613281 64.578125 L 103.03125 64.578125 C 102.832031 64.578125 102.640625 64.617188 102.457031 64.691406 C 102.273438 64.769531 102.109375 64.878906 101.96875 65.019531 C 101.828125 65.160156 101.71875 65.324219 101.644531 65.507812 C 101.566406 65.695312 101.53125 65.886719 101.53125 66.085938 C 101.53125 66.285156 101.566406 66.480469 101.644531 66.664062 C 101.71875 66.847656 101.828125 67.011719 101.96875 67.152344 C 102.109375 67.296875 102.273438 67.40625 102.457031 67.480469 C 102.640625 67.558594 102.832031 67.597656 103.03125 67.597656 Z M 123.613281 74.777344 C 123.8125 74.777344 124.003906 74.738281 124.1875 74.664062 C 124.371094 74.585938 124.535156 74.476562 124.675781 74.335938 C 124.816406 74.195312 124.925781 74.03125 125 73.847656 C 125.078125 73.660156 125.113281 73.46875 125.113281 73.269531 C 125.113281 73.066406 125.078125 72.875 125 72.691406 C 124.925781 72.503906 124.816406 72.34375 124.675781 72.199219 C 124.535156 72.058594 124.371094 71.949219 124.1875 71.875 C 124.003906 71.796875 123.8125 71.757812 123.613281 71.757812 L 103.03125 71.757812 C 102.832031 71.757812 102.640625 71.796875 102.457031 71.875 C 102.273438 71.949219 102.109375 72.058594 101.96875 72.199219 C 101.828125 72.34375 101.71875 72.503906 101.644531 72.691406 C 101.566406 72.875 101.53125 73.066406 101.53125 73.269531 C 101.53125 73.46875 101.566406 73.660156 101.644531 73.847656 C 101.71875 74.03125 101.828125 74.195312 101.96875 74.335938 C 102.109375 74.476562 102.273438 74.585938 102.457031 74.664062 C 102.640625 74.738281 102.832031 74.777344 103.03125 74.777344 Z M 157.570312 144.429688 L 157.570312 161.492188 C 157.570312 161.691406 157.535156 161.882812 157.457031 162.066406 C 157.382812 162.253906 157.273438 162.417969 157.132812 162.558594 C 156.992188 162.699219 156.828125 162.808594 156.644531 162.886719 C 156.460938 162.960938 156.269531 163 156.070312 163 L 143.058594 163 L 140.355469 167.703125 C 140.292969 167.816406 140.210938 167.921875 140.117188 168.015625 C 140.023438 168.109375 139.921875 168.191406 139.808594 168.253906 C 139.691406 168.320312 139.570312 168.371094 139.445312 168.40625 C 139.316406 168.441406 139.1875 168.457031 139.054688 168.457031 C 138.921875 168.457031 138.792969 168.441406 138.667969 168.40625 C 138.539062 168.371094 138.417969 168.320312 138.304688 168.253906 C 138.191406 168.191406 138.085938 168.109375 137.992188 168.015625 C 137.898438 167.921875 137.820312 167.816406 137.753906 167.703125 L 135.050781 163 L 131.382812 163 C 131.183594 163 130.992188 162.960938 130.804688 162.886719 C 130.621094 162.808594 130.460938 162.699219 130.320312 162.558594 C 130.175781 162.417969 130.070312 162.253906 129.992188 162.066406 C 129.917969 161.882812 129.878906 161.691406 129.878906 161.492188 L 129.878906 144.429688 C 129.878906 144.226562 129.917969 144.035156 129.992188 143.851562 C 130.070312 143.664062 130.175781 143.5 130.320312 143.359375 C 130.460938 143.21875 130.621094 143.109375 130.804688 143.03125 C 130.992188 142.957031 131.183594 142.917969 131.382812 142.917969 L 156.070312 142.917969 C 156.269531 142.917969 156.460938 142.957031 156.644531 143.03125 C 156.828125 143.109375 156.992188 143.21875 157.132812 143.359375 C 157.273438 143.5 157.382812 143.664062 157.457031 143.851562 C 157.535156 144.035156 157.570312 144.226562 157.570312 144.429688 Z M 154.566406 145.9375 L 132.882812 145.9375 L 132.882812 159.980469 L 135.917969 159.980469 C 136.1875 159.980469 136.4375 160.046875 136.671875 160.183594 C 136.902344 160.316406 137.085938 160.503906 137.222656 160.734375 L 139.054688 163.929688 L 140.890625 160.734375 C 141.027344 160.503906 141.210938 160.316406 141.441406 160.183594 C 141.675781 160.046875 141.925781 159.980469 142.195312 159.980469 L 154.566406 159.980469 Z M 136.359375 151.5 L 151.089844 151.5 C 151.289062 151.5 151.480469 151.460938 151.664062 151.386719 C 151.847656 151.308594 152.011719 151.199219 152.152344 151.058594 C 152.292969 150.917969 152.402344 150.753906 152.480469 150.566406 C 152.554688 150.382812 152.59375 150.191406 152.59375 149.992188 C 152.59375 149.789062 152.554688 149.597656 152.480469 149.414062 C 152.402344 149.226562 152.292969 149.066406 152.152344 148.921875 C 152.011719 148.78125 151.847656 148.671875 151.664062 148.597656 C 151.480469 148.519531 151.289062 148.480469 151.089844 148.480469 L 136.359375 148.480469 C 136.160156 148.480469 135.96875 148.519531 135.785156 148.597656 C 135.601562 148.671875 135.4375 148.78125 135.296875 148.921875 C 135.15625 149.066406 135.046875 149.226562 134.972656 149.414062 C 134.894531 149.597656 134.855469 149.789062 134.855469 149.992188 C 134.855469 150.191406 134.894531 150.382812 134.972656 150.566406 C 135.046875 150.753906 135.15625 150.917969 135.296875 151.058594 C 135.4375 151.199219 135.601562 151.308594 135.785156 151.386719 C 135.96875 151.460938 136.160156 151.5 136.359375 151.5 Z M 136.359375 156.640625 L 151.089844 156.640625 C 151.289062 156.640625 151.480469 156.601562 151.664062 156.523438 C 151.847656 156.449219 152.011719 156.339844 152.152344 156.199219 C 152.292969 156.054688 152.402344 155.894531 152.480469 155.707031 C 152.554688 155.523438 152.59375 155.332031 152.59375 155.128906 C 152.59375 154.929688 152.554688 154.738281 152.480469 154.554688 C 152.402344 154.367188 152.292969 154.203125 152.152344 154.0625 C 152.011719 153.921875 151.847656 153.8125 151.664062 153.734375 C 151.480469 153.660156 151.289062 153.621094 151.089844 153.621094 L 136.359375 153.621094 C 136.160156 153.621094 135.96875 153.660156 135.785156 153.734375 C 135.601562 153.8125 135.4375 153.921875 135.296875 154.0625 C 135.15625 154.203125 135.046875 154.367188 134.972656 154.554688 C 134.894531 154.738281 134.855469 154.929688 134.855469 155.128906 C 134.855469 155.332031 134.894531 155.523438 134.972656 155.707031 C 135.046875 155.894531 135.15625 156.054688 135.296875 156.199219 C 135.4375 156.339844 135.601562 156.449219 135.785156 156.523438 C 135.96875 156.601562 136.160156 156.640625 136.359375 156.640625 Z M 136.359375 156.640625 "/></g></g></svg>