<svg xmlns="http://www.w3.org/2000/svg" xmlns:xlink="http://www.w3.org/1999/xlink" width="300" zoomAndPan="magnify" viewBox="0 0 224.87999 225" height="300" preserveAspectRatio="xMidYMid meet" version="1.0"><defs><clipPath id="66451b7f55"><path d="M 63.816406 65.554688 L 161.265625 65.554688 L 161.265625 159.257812 L 63.816406 159.257812 Z M 63.816406 65.554688 " clip-rule="nonzero"/></clipPath></defs><g clip-path="url(#66451b7f55)"><path fill="#000000" d="M 71.691406 73.957031 L 71.691406 73.820312 C 71.691406 72.960938 72.390625 72.265625 73.253906 72.265625 C 74.117188 72.265625 74.820312 72.960938 74.820312 73.820312 L 74.820312 73.957031 C 74.820312 74.816406 74.117188 75.511719 73.253906 75.511719 C 72.390625 75.511719 71.691406 74.816406 71.691406 73.957031 Z M 80.03125 75.375 C 80.894531 75.375 81.597656 74.679688 81.597656 73.820312 L 81.597656 73.6875 C 81.597656 72.828125 80.894531 72.128906 80.03125 72.128906 C 79.167969 72.128906 78.46875 72.828125 78.46875 73.6875 L 78.46875 73.820312 C 78.46875 74.679688 79.167969 75.375 80.03125 75.375 Z M 86.808594 75.375 C 87.671875 75.375 88.371094 74.679688 88.371094 73.820312 L 88.371094 73.6875 C 88.371094 72.828125 87.671875 72.128906 86.808594 72.128906 C 85.945312 72.128906 85.246094 72.828125 85.246094 73.6875 L 85.246094 73.820312 C 85.246094 74.679688 85.945312 75.375 86.808594 75.375 Z M 95.089844 100.621094 C 94.273438 100.351562 93.390625 100.789062 93.117188 101.601562 L 90.195312 110.265625 L 87.277344 101.601562 C 87.125 101.15625 86.773438 100.785156 86.292969 100.625 C 85.480469 100.351562 84.59375 100.792969 84.320312 101.601562 L 81.402344 110.269531 L 78.480469 101.601562 C 78.207031 100.789062 77.324219 100.351562 76.507812 100.625 C 75.695312 100.894531 75.25 101.777344 75.527344 102.589844 L 79.925781 115.640625 C 80.199219 116.453125 81.082031 116.890625 81.898438 116.617188 C 82.378906 116.457031 82.730469 116.085938 82.878906 115.640625 L 85.800781 106.972656 L 88.71875 115.640625 C 88.992188 116.453125 89.878906 116.890625 90.691406 116.617188 C 91.175781 116.457031 91.523438 116.085938 91.675781 115.640625 L 96.070312 102.589844 C 96.347656 101.773438 95.902344 100.894531 95.089844 100.621094 Z M 117.445312 100.621094 C 116.628906 100.351562 115.746094 100.789062 115.472656 101.601562 L 112.554688 110.265625 L 109.632812 101.601562 C 109.480469 101.15625 109.132812 100.78125 108.648438 100.621094 C 107.835938 100.351562 106.949219 100.789062 106.679688 101.601562 L 103.757812 110.265625 L 100.835938 101.601562 C 100.566406 100.785156 99.679688 100.347656 98.867188 100.621094 C 98.050781 100.894531 97.609375 101.773438 97.882812 102.585938 L 102.28125 115.636719 C 102.554688 116.449219 103.4375 116.890625 104.253906 116.617188 C 104.734375 116.457031 105.085938 116.082031 105.234375 115.636719 L 108.15625 106.972656 L 111.078125 115.636719 C 111.347656 116.449219 112.234375 116.890625 113.050781 116.617188 C 113.53125 116.457031 113.878906 116.082031 114.03125 115.636719 L 118.425781 102.585938 C 118.703125 101.773438 118.261719 100.894531 117.445312 100.621094 Z M 126.609375 116.617188 C 127.089844 116.457031 127.4375 116.085938 127.589844 115.640625 L 130.511719 106.972656 L 133.429688 115.640625 C 133.703125 116.453125 134.589844 116.890625 135.402344 116.617188 C 135.882812 116.457031 136.234375 116.085938 136.386719 115.640625 L 140.78125 102.589844 C 141.054688 101.777344 140.613281 100.894531 139.800781 100.625 C 138.984375 100.351562 138.097656 100.792969 137.828125 101.601562 L 134.90625 110.269531 L 131.988281 101.601562 C 131.835938 101.15625 131.484375 100.785156 131.003906 100.625 C 130.1875 100.351562 129.304688 100.792969 129.03125 101.601562 L 126.113281 110.269531 L 123.191406 101.601562 C 122.917969 100.789062 122.035156 100.351562 121.21875 100.625 C 120.40625 100.894531 119.960938 101.777344 120.238281 102.589844 L 124.636719 115.640625 C 124.90625 116.449219 125.792969 116.890625 126.609375 116.617188 Z M 160.644531 150.808594 L 152.769531 158.652344 C 152.160156 159.257812 151.167969 159.257812 150.558594 158.652344 L 142.601562 150.726562 L 136.386719 156.917969 C 135.773438 157.527344 134.785156 157.527344 134.175781 156.917969 C 133.984375 156.726562 133.851562 156.5 133.78125 156.261719 L 129.105469 140.886719 L 65.398438 140.886719 C 64.535156 140.886719 63.835938 140.191406 63.835938 139.328125 L 63.835938 80.617188 C 63.835938 80.617188 63.835938 80.613281 63.835938 80.613281 C 63.835938 80.613281 63.835938 80.609375 63.835938 80.609375 L 63.835938 67.113281 C 63.835938 66.253906 64.535156 65.554688 65.398438 65.554688 L 150.910156 65.554688 C 151.773438 65.554688 152.476562 66.253906 152.476562 67.113281 L 152.476562 130.160156 L 158.253906 131.902344 C 159.078125 132.148438 159.546875 133.019531 159.296875 133.84375 C 159.214844 134.105469 159.070312 134.332031 158.886719 134.511719 L 152.6875 140.6875 L 160.644531 148.609375 C 161.253906 149.214844 161.253906 150.203125 160.644531 150.808594 Z M 66.960938 68.671875 L 66.960938 79.054688 L 149.347656 79.054688 L 149.347656 68.671875 Z M 128.160156 137.769531 L 124 124.09375 C 123.75 123.269531 124.21875 122.402344 125.042969 122.152344 C 125.347656 122.0625 125.660156 122.070312 125.945312 122.152344 L 149.34375 129.214844 L 149.34375 82.171875 L 66.960938 82.171875 L 66.960938 137.773438 L 128.160156 137.773438 Z M 157.328125 149.710938 L 149.371094 141.785156 C 148.757812 141.175781 148.757812 140.191406 149.371094 139.585938 L 154.847656 134.128906 L 150.464844 132.804688 C 150.453125 132.804688 150.441406 132.796875 150.433594 132.796875 L 127.839844 125.976562 L 131.753906 138.859375 C 131.757812 138.863281 131.757812 138.871094 131.761719 138.875 L 136.019531 152.878906 L 141.5 147.421875 C 142.109375 146.816406 143.097656 146.816406 143.710938 147.421875 L 151.664062 155.347656 Z M 157.328125 149.710938 " fill-opacity="1" fill-rule="nonzero"/></g></svg>