<svg xmlns="http://www.w3.org/2000/svg" xmlns:xlink="http://www.w3.org/1999/xlink" width="300" zoomAndPan="magnify" viewBox="0 0 224.87999 225" height="300" preserveAspectRatio="xMidYMid meet" version="1.2"><defs><clipPath id="afce5334da"><path d="M 20.238281 75.019531 L 204.640625 75.019531 L 204.640625 149.980469 L 20.238281 149.980469 Z M 20.238281 75.019531 "/></clipPath></defs><g id="d53847ff4b"><g clip-rule="nonzero" clip-path="url(#afce5334da)"><path style=" stroke:none;fill-rule:nonzero;fill:#000000;fill-opacity:1;" d="M 204.519531 146.183594 L 187.855469 77.371094 C 187.753906 76.941406 187.554688 76.558594 187.300781 76.226562 C 187.292969 76.21875 187.292969 76.203125 187.285156 76.195312 C 187.238281 76.132812 187.160156 76.109375 187.109375 76.050781 C 186.871094 75.792969 186.613281 75.570312 186.308594 75.40625 C 186.1875 75.339844 186.054688 75.3125 185.925781 75.265625 C 185.648438 75.160156 185.371094 75.089844 185.074219 75.070312 C 185.003906 75.0625 184.941406 75.023438 184.871094 75.023438 L 40.007812 75.023438 C 38.589844 75.023438 37.355469 75.992188 37.023438 77.371094 L 20.363281 146.183594 C 20.140625 147.097656 20.351562 148.0625 20.933594 148.804688 C 21.515625 149.542969 22.40625 149.976562 23.347656 149.976562 L 201.53125 149.976562 C 201.53125 149.976562 201.535156 149.976562 201.535156 149.976562 C 201.773438 149.976562 202.011719 149.949219 202.253906 149.890625 C 202.335938 149.871094 202.398438 149.8125 202.476562 149.785156 C 202.683594 149.71875 202.863281 149.628906 203.046875 149.519531 C 203.214844 149.421875 203.371094 149.328125 203.515625 149.203125 C 203.664062 149.078125 203.785156 148.929688 203.910156 148.773438 C 204.03125 148.621094 204.144531 148.46875 204.234375 148.292969 C 204.320312 148.125 204.375 147.949219 204.433594 147.761719 C 204.492188 147.558594 204.539062 147.363281 204.554688 147.148438 C 204.5625 147.0625 204.605469 146.992188 204.605469 146.90625 C 204.605469 146.78125 204.546875 146.671875 204.535156 146.550781 C 204.519531 146.425781 204.550781 146.308594 204.519531 146.183594 Z M 184.871094 91.148438 L 197.628906 143.832031 L 172.117188 143.832031 Z M 139.238281 143.832031 L 27.253906 143.832031 L 42.425781 81.167969 L 180.96875 81.167969 L 165.796875 143.832031 Z M 139.238281 143.832031 "/></g></g></svg>