<svg xmlns="http://www.w3.org/2000/svg" xmlns:xlink="http://www.w3.org/1999/xlink" width="300" zoomAndPan="magnify" viewBox="0 0 224.87999 225" height="300" preserveAspectRatio="xMidYMid meet" version="1.2"><defs><clipPath id="5946b27110"><path d="M 73.210938 65.648438 L 152.929688 65.648438 L 152.929688 159.351562 L 73.210938 159.351562 Z M 73.210938 65.648438 "/></clipPath></defs><g id="5e685c7f72"><g clip-rule="nonzero" clip-path="url(#5946b27110)"><path style=" stroke:none;fill-rule:nonzero;fill:#000000;fill-opacity:1;" d="M 149.253906 76.613281 C 148.46875 76.132812 147.523438 75.875 146.507812 75.828125 L 146.507812 73.371094 C 146.507812 69.113281 143.039062 65.648438 138.773438 65.648438 L 81.027344 65.648438 C 80.164062 65.648438 79.464844 66.347656 79.464844 67.210938 L 79.464844 74.003906 L 77.117188 74.003906 C 74.882812 74 73.113281 75.910156 73.234375 78.128906 C 73.234375 80.269531 74.976562 82.015625 77.117188 82.015625 L 79.464844 82.015625 L 79.464844 86.507812 L 77.117188 86.507812 C 74.882812 86.5 73.113281 88.40625 73.234375 90.628906 C 73.234375 92.769531 74.976562 94.511719 77.117188 94.511719 L 79.464844 94.511719 L 79.464844 99.003906 L 77.117188 99.003906 C 71.964844 99.117188 71.960938 106.902344 77.117188 107.011719 C 77.117188 107.011719 79.464844 107.011719 79.464844 107.011719 L 79.464844 111.507812 L 77.117188 111.507812 C 74.882812 111.5 73.113281 113.40625 73.234375 115.628906 C 73.234375 117.769531 74.976562 119.515625 77.117188 119.515625 L 79.464844 119.515625 L 79.464844 124.003906 L 77.117188 124.003906 C 74.882812 123.996094 73.113281 125.90625 73.234375 128.128906 C 73.234375 130.269531 74.976562 132.011719 77.117188 132.011719 L 79.464844 132.011719 L 79.464844 136.503906 L 77.117188 136.503906 C 74.976562 136.503906 73.234375 138.246094 73.234375 140.390625 C 73.113281 142.609375 74.882812 144.523438 77.117188 144.511719 C 77.117188 144.511719 79.464844 144.511719 79.464844 144.511719 L 79.464844 151.308594 C 79.5 151.667969 79.621094 152.015625 79.832031 152.316406 C 79.832031 152.316406 85.304688 158.796875 85.304688 158.796875 C 85.601562 159.148438 86.039062 159.351562 86.5 159.351562 C 86.5 159.351562 145.183594 159.351562 145.183594 159.351562 C 149.449219 159.351562 152.917969 155.886719 152.917969 151.628906 L 152.917969 83.167969 C 152.917969 80.46875 151.546875 78.019531 149.253906 76.613281 Z M 76.359375 78.128906 C 76.289062 77.636719 76.582031 77.125 77.117188 77.128906 C 77.117188 77.128906 85.078125 77.132812 85.117188 77.128906 C 85.652344 77.125 85.949219 77.636719 85.878906 78.128906 C 85.878906 78.550781 85.535156 78.890625 85.117188 78.890625 C 85.117188 78.890625 77.179688 78.886719 77.117188 78.890625 C 76.699219 78.890625 76.359375 78.550781 76.359375 78.128906 Z M 76.359375 90.628906 C 76.289062 90.140625 76.582031 89.625 77.117188 89.628906 C 77.117188 89.628906 85.117188 89.628906 85.117188 89.628906 C 85.652344 89.625 85.949219 90.136719 85.878906 90.628906 C 85.878906 91.046875 85.535156 91.390625 85.117188 91.390625 L 81.0625 91.390625 C 81.039062 91.382812 77.117188 91.390625 77.117188 91.390625 C 76.699219 91.390625 76.359375 91.046875 76.359375 90.628906 Z M 76.359375 103.128906 C 76.289062 102.636719 76.582031 102.125 77.117188 102.128906 C 77.117188 102.128906 85.117188 102.128906 85.117188 102.128906 C 86.144531 102.113281 86.148438 103.90625 85.117188 103.890625 C 85.117188 103.890625 77.117188 103.890625 77.117188 103.890625 C 76.699219 103.890625 76.359375 103.550781 76.359375 103.128906 Z M 76.359375 115.628906 C 76.289062 115.140625 76.582031 114.625 77.117188 114.628906 C 77.117188 114.628906 85.117188 114.628906 85.117188 114.628906 C 86.144531 114.613281 86.144531 116.402344 85.117188 116.390625 C 85.117188 116.390625 77.117188 116.390625 77.117188 116.390625 C 76.699219 116.390625 76.359375 116.050781 76.359375 115.628906 Z M 76.359375 128.128906 C 76.289062 127.636719 76.582031 127.125 77.117188 127.128906 C 77.117188 127.128906 85.117188 127.128906 85.117188 127.128906 C 85.535156 127.128906 85.878906 127.46875 85.878906 127.890625 C 85.949219 128.378906 85.65625 128.894531 85.117188 128.890625 C 85.117188 128.890625 77.117188 128.890625 77.117188 128.890625 C 76.699219 128.890625 76.359375 128.546875 76.359375 128.128906 Z M 76.359375 140.628906 C 76.289062 140.136719 76.582031 139.621094 77.117188 139.628906 C 77.117188 139.628906 85.035156 139.632812 85.117188 139.628906 C 85.652344 139.621094 85.949219 140.136719 85.878906 140.628906 C 85.878906 141.046875 85.535156 141.390625 85.117188 141.390625 C 85.117188 141.390625 77.136719 141.386719 77.117188 141.390625 C 76.699219 141.390625 76.359375 141.046875 76.359375 140.628906 Z M 85.117188 144.511719 C 90.285156 144.390625 90.269531 136.621094 85.117188 136.503906 C 85.117188 136.503906 82.589844 136.503906 82.589844 136.503906 L 82.589844 132.011719 L 85.117188 132.011719 C 90.285156 131.894531 90.269531 124.117188 85.117188 124.003906 C 85.117188 124.003906 82.589844 124.003906 82.589844 124.003906 L 82.589844 119.515625 L 85.117188 119.515625 C 87.261719 119.515625 89.003906 117.769531 89.003906 115.628906 C 89.125 113.40625 87.355469 111.5 85.117188 111.507812 C 85.117188 111.507812 82.589844 111.507812 82.589844 111.507812 L 82.589844 107.011719 L 85.117188 107.011719 C 90.28125 106.902344 90.269531 99.113281 85.117188 99.007812 C 85.117188 99.007812 82.589844 99.007812 82.589844 99.007812 L 82.589844 94.511719 L 85.117188 94.511719 C 87.355469 94.519531 89.125 92.609375 89.003906 90.390625 C 89.003906 88.25 87.261719 86.507812 85.117188 86.507812 C 85.117188 86.507812 82.589844 86.507812 82.589844 86.507812 C 82.589844 86.507812 82.589844 82.015625 82.589844 82.015625 L 85.117188 82.015625 C 87.261719 82.015625 89.003906 80.269531 89.003906 78.128906 C 89.125 75.910156 87.355469 73.996094 85.117188 74.003906 C 85.117188 74.003906 82.589844 74.003906 82.589844 74.003906 L 82.589844 68.773438 L 138.773438 68.773438 C 141.316406 68.773438 143.382812 70.835938 143.382812 73.371094 C 143.382812 73.371094 143.359375 145.085938 143.382812 145.148438 C 143.382812 147.683594 141.316406 149.746094 138.773438 149.746094 L 82.589844 149.746094 L 82.589844 144.511719 C 82.589844 144.511719 85.117188 144.511719 85.117188 144.511719 Z M 149.796875 151.628906 C 149.796875 154.164062 147.726562 156.226562 145.183594 156.226562 L 87.226562 156.226562 C 87.226562 156.226562 84.386719 152.867188 84.386719 152.867188 L 138.773438 152.867188 C 143.039062 152.867188 146.507812 149.402344 146.507812 145.148438 L 146.507812 78.96875 C 148.539062 79.167969 149.78125 81.269531 149.796875 83.167969 C 149.796875 83.167969 149.796875 151.628906 149.796875 151.628906 Z M 149.796875 151.628906 "/></g><path style=" stroke:none;fill-rule:nonzero;fill:#000000;fill-opacity:1;" d="M 97.601562 89.363281 L 128.363281 89.363281 C 129.226562 89.363281 129.925781 88.664062 129.925781 87.800781 L 129.925781 78.011719 C 129.925781 77.148438 129.226562 76.449219 128.363281 76.449219 L 97.601562 76.449219 C 96.738281 76.449219 96.039062 77.148438 96.039062 78.011719 L 96.039062 87.800781 C 96.039062 88.664062 96.738281 89.363281 97.601562 89.363281 Z M 99.164062 79.574219 L 126.800781 79.574219 L 126.800781 86.238281 L 99.164062 86.238281 Z M 99.164062 79.574219 "/></g></svg>