<svg xmlns="http://www.w3.org/2000/svg" xmlns:xlink="http://www.w3.org/1999/xlink" width="300" zoomAndPan="magnify" viewBox="0 0 224.87999 225" height="300" preserveAspectRatio="xMidYMid meet" version="1.2"><defs><clipPath id="ecd0de8354"><path d="M 51.792969 87 L 173.226562 87 L 173.226562 159.226562 L 51.792969 159.226562 Z M 51.792969 87 "/></clipPath></defs><g id="4d0c0056ff"><path style=" stroke:none;fill-rule:nonzero;fill:#000000;fill-opacity:1;" d="M 67.167969 72.617188 C 67.539062 70.878906 69.109375 69.621094 70.894531 69.617188 C 71.15625 69.617188 71.417969 69.648438 71.679688 69.703125 L 135.640625 83.363281 L 153.789062 83.363281 L 72.472656 65.996094 C 71.945312 65.882812 71.414062 65.828125 70.894531 65.828125 C 67.390625 65.828125 64.21875 68.277344 63.457031 71.824219 L 60.976562 83.363281 L 64.859375 83.363281 Z M 67.167969 72.617188 "/><g clip-rule="nonzero" clip-path="url(#ecd0de8354)"><path style=" stroke:none;fill-rule:nonzero;fill:#000000;fill-opacity:1;" d="M 165.636719 87.152344 L 59.382812 87.152344 C 55.207031 87.152344 51.792969 90.5625 51.792969 94.730469 L 51.792969 151.585938 C 51.792969 155.757812 55.207031 159.167969 59.382812 159.167969 L 165.636719 159.167969 C 169.8125 159.167969 173.226562 155.757812 173.226562 151.585938 L 173.226562 94.730469 C 173.226562 90.5625 169.8125 87.152344 165.636719 87.152344 Z M 169.433594 151.585938 C 169.433594 153.675781 167.730469 155.378906 165.636719 155.378906 L 59.382812 155.378906 C 57.289062 155.378906 55.585938 153.675781 55.585938 151.585938 L 55.585938 94.730469 C 55.585938 92.644531 57.289062 90.941406 59.382812 90.941406 L 165.636719 90.941406 C 167.730469 90.941406 169.433594 92.644531 169.433594 94.730469 Z M 169.433594 151.585938 "/></g><path style=" stroke:none;fill-rule:nonzero;fill:#000000;fill-opacity:1;" d="M 157.101562 132.636719 L 122.945312 132.636719 C 121.898438 132.636719 121.046875 133.484375 121.046875 134.53125 C 121.046875 135.578125 121.898438 136.425781 122.945312 136.425781 L 157.101562 136.425781 C 158.148438 136.425781 158.996094 135.578125 158.996094 134.53125 C 158.996094 133.484375 158.148438 132.636719 157.101562 132.636719 Z M 157.101562 132.636719 "/><path style=" stroke:none;fill-rule:nonzero;fill:#000000;fill-opacity:1;" d="M 157.101562 140.214844 L 122.945312 140.214844 C 121.898438 140.214844 121.046875 141.066406 121.046875 142.109375 C 121.046875 143.15625 121.898438 144.007812 122.945312 144.007812 L 157.101562 144.007812 C 158.148438 144.007812 158.996094 143.15625 158.996094 142.109375 C 158.996094 141.066406 158.148438 140.214844 157.101562 140.214844 Z M 157.101562 140.214844 "/><path style=" stroke:none;fill-rule:nonzero;fill:#000000;fill-opacity:1;" d="M 157.101562 147.796875 L 122.945312 147.796875 C 121.898438 147.796875 121.046875 148.644531 121.046875 149.691406 C 121.046875 150.738281 121.898438 151.585938 122.945312 151.585938 L 157.101562 151.585938 C 158.148438 151.585938 158.996094 150.738281 158.996094 149.691406 C 158.996094 148.644531 158.148438 147.796875 157.101562 147.796875 Z M 157.101562 147.796875 "/><path style=" stroke:none;fill-rule:nonzero;fill:#000000;fill-opacity:1;" d="M 157.101562 94.730469 L 130.535156 94.730469 C 129.488281 94.730469 128.636719 95.582031 128.636719 96.628906 C 128.636719 97.675781 129.488281 98.523438 130.535156 98.523438 L 157.101562 98.523438 C 158.148438 98.523438 158.996094 97.675781 158.996094 96.628906 C 158.996094 95.582031 158.148438 94.730469 157.101562 94.730469 Z M 157.101562 94.730469 "/><path style=" stroke:none;fill-rule:nonzero;fill:#000000;fill-opacity:1;" d="M 157.101562 102.3125 L 145.714844 102.3125 C 144.667969 102.3125 143.816406 103.160156 143.816406 104.210938 C 143.816406 105.253906 144.667969 106.101562 145.714844 106.101562 L 157.101562 106.101562 C 158.148438 106.101562 158.996094 105.253906 158.996094 104.210938 C 158.996094 103.160156 158.148438 102.3125 157.101562 102.3125 Z M 157.101562 102.3125 "/><path style=" stroke:none;fill-rule:nonzero;fill:#000000;fill-opacity:1;" d="M 80.253906 103.261719 C 70.824219 103.261719 63.175781 110.898438 63.175781 120.316406 C 63.175781 129.738281 70.824219 137.375 80.253906 137.375 C 89.683594 137.375 97.332031 129.738281 97.332031 120.316406 C 97.332031 110.898438 89.683594 103.261719 80.253906 103.261719 Z M 80.253906 133.582031 C 75.765625 133.582031 71.796875 131.339844 69.390625 127.925781 L 73.285156 123.128906 L 76.902344 126.664062 L 76.789062 126.835938 C 76.199219 127.699219 76.425781 128.878906 77.289062 129.464844 C 77.617188 129.6875 77.988281 129.792969 78.355469 129.792969 C 78.960938 129.792969 79.5625 129.503906 79.929688 128.960938 L 86.34375 119.515625 L 92.175781 125.492188 C 92.242188 125.5625 92.320312 125.617188 92.394531 125.675781 C 90.328125 130.328125 85.667969 133.582031 80.253906 133.582031 Z M 93.480469 121.398438 L 87.4375 115.203125 C 87.039062 114.796875 86.488281 114.589844 85.910156 114.640625 C 85.34375 114.691406 84.828125 114.992188 84.507812 115.464844 L 79.066406 123.476562 L 74.453125 118.964844 C 74.070312 118.589844 73.546875 118.394531 73.019531 118.425781 C 72.484375 118.457031 71.988281 118.710938 71.652344 119.125 L 67.550781 124.175781 C 67.175781 122.957031 66.972656 121.660156 66.972656 120.316406 C 66.972656 113 72.929688 107.050781 80.253906 107.050781 C 87.578125 107.050781 93.535156 113 93.535156 120.316406 C 93.535156 120.679688 93.511719 121.039062 93.480469 121.398438 Z M 93.480469 121.398438 "/><path style=" stroke:none;fill-rule:nonzero;fill:#000000;fill-opacity:1;" d="M 93.0625 141.164062 L 67.445312 141.164062 C 66.398438 141.164062 65.550781 142.011719 65.550781 143.058594 C 65.550781 144.105469 66.398438 144.953125 67.445312 144.953125 L 93.0625 144.953125 C 94.109375 144.953125 94.960938 144.105469 94.960938 143.058594 C 94.960938 142.011719 94.109375 141.164062 93.0625 141.164062 Z M 93.0625 141.164062 "/><path style=" stroke:none;fill-rule:nonzero;fill:#000000;fill-opacity:1;" d="M 79.386719 114.394531 C 79.386719 114.648438 79.335938 114.886719 79.242188 115.121094 C 79.144531 115.351562 79.007812 115.558594 78.828125 115.734375 C 78.652344 115.914062 78.445312 116.050781 78.214844 116.148438 C 77.980469 116.242188 77.738281 116.289062 77.488281 116.289062 C 77.234375 116.289062 76.992188 116.242188 76.761719 116.148438 C 76.53125 116.050781 76.324219 115.914062 76.148438 115.734375 C 75.96875 115.558594 75.832031 115.351562 75.734375 115.121094 C 75.640625 114.886719 75.589844 114.648438 75.589844 114.394531 C 75.589844 114.144531 75.640625 113.902344 75.734375 113.667969 C 75.832031 113.4375 75.96875 113.230469 76.148438 113.054688 C 76.324219 112.875 76.53125 112.738281 76.761719 112.644531 C 76.992188 112.546875 77.234375 112.5 77.488281 112.5 C 77.738281 112.5 77.980469 112.546875 78.214844 112.644531 C 78.445312 112.738281 78.652344 112.875 78.828125 113.054688 C 79.007812 113.230469 79.144531 113.4375 79.242188 113.667969 C 79.335938 113.902344 79.386719 114.144531 79.386719 114.394531 Z M 79.386719 114.394531 "/></g></svg>