<svg xmlns="http://www.w3.org/2000/svg" xmlns:xlink="http://www.w3.org/1999/xlink" width="300" zoomAndPan="magnify" viewBox="0 0 224.87999 225" height="300" preserveAspectRatio="xMidYMid meet" version="1.2"><defs><clipPath id="57f26a6413"><path d="M 65.34375 78.769531 L 159.34375 78.769531 L 159.34375 146.230469 L 65.34375 146.230469 Z M 65.34375 78.769531 "/></clipPath></defs><g id="7bc0536068"><g clip-rule="nonzero" clip-path="url(#57f26a6413)"><path style=" stroke:none;fill-rule:nonzero;fill:#000000;fill-opacity:1;" d="M 75.320312 143.042969 C 73.949219 143.042969 72.644531 142.648438 71.523438 141.917969 L 98.320312 114.460938 L 106.957031 123.246094 C 108.378906 124.691406 110.277344 125.488281 112.304688 125.488281 C 114.332031 125.488281 116.230469 124.691406 117.652344 123.246094 L 126.308594 114.457031 L 153.160156 141.917969 C 152.042969 142.648438 150.738281 143.042969 149.371094 143.042969 Z M 69.410156 139.765625 C 68.722656 138.671875 68.355469 137.40625 68.355469 136.082031 L 68.355469 88.757812 C 68.355469 87.425781 68.726562 86.152344 69.421875 85.058594 L 96.207031 112.308594 Z M 75.320312 81.796875 L 149.371094 81.796875 C 150.734375 81.796875 152.03125 82.1875 153.144531 82.90625 L 125.238281 111.246094 L 115.5 121.132812 C 114.652344 121.996094 113.515625 122.472656 112.304688 122.472656 C 111.09375 122.472656 109.957031 121.996094 109.105469 121.128906 L 99.390625 111.25 L 71.539062 82.910156 C 72.65625 82.1875 73.953125 81.796875 75.320312 81.796875 Z M 128.425781 112.308594 L 155.269531 85.054688 C 155.960938 86.152344 156.332031 87.425781 156.332031 88.757812 L 156.332031 136.082031 C 156.332031 137.40625 155.964844 138.671875 155.273438 139.769531 Z M 156.449219 81.730469 C 156.449219 81.730469 156.449219 81.730469 156.445312 81.730469 C 156.445312 81.726562 156.445312 81.726562 156.445312 81.726562 C 156.445312 81.726562 156.445312 81.722656 156.445312 81.722656 C 154.558594 79.828125 152.050781 78.78125 149.371094 78.78125 L 75.320312 78.78125 C 72.636719 78.78125 70.125 79.828125 68.238281 81.730469 C 68.238281 81.730469 68.238281 81.734375 68.234375 81.734375 C 66.367188 83.609375 65.339844 86.105469 65.339844 88.757812 L 65.339844 136.082031 C 65.339844 138.730469 66.367188 141.222656 68.226562 143.101562 C 68.230469 143.105469 68.238281 143.109375 68.242188 143.113281 C 68.242188 143.113281 68.242188 143.117188 68.242188 143.117188 C 68.246094 143.117188 68.25 143.117188 68.25 143.121094 C 70.136719 145.015625 72.644531 146.054688 75.320312 146.054688 L 149.371094 146.054688 C 152.046875 146.054688 154.554688 145.015625 156.441406 143.121094 C 156.441406 143.117188 156.441406 143.117188 156.441406 143.117188 C 156.445312 143.117188 156.445312 143.117188 156.445312 143.117188 C 156.449219 143.113281 156.453125 143.105469 156.457031 143.101562 C 158.324219 141.222656 159.347656 138.730469 159.347656 136.082031 L 159.347656 88.757812 C 159.347656 86.101562 158.320312 83.609375 156.449219 81.730469 "/></g></g></svg>