<svg xmlns="http://www.w3.org/2000/svg" xmlns:xlink="http://www.w3.org/1999/xlink" width="300" zoomAndPan="magnify" viewBox="0 0 224.87999 225" height="300" preserveAspectRatio="xMidYMid meet" version="1.2"><defs><clipPath id="5b00ccc429"><path d="M 67.464844 67.523438 L 157.414062 67.523438 L 157.414062 157.476562 L 67.464844 157.476562 Z M 67.464844 67.523438 "/></clipPath></defs><g id="5ee94087f3"><g clip-rule="nonzero" clip-path="url(#5b00ccc429)"><path style=" stroke:none;fill-rule:nonzero;fill:#000000;fill-opacity:1;" d="M 112.6875 67.523438 C 100.296875 67.523438 98.8125 67.523438 94.101562 67.773438 C 89.394531 67.773438 85.925781 68.761719 83.199219 69.753906 C 80.226562 70.992188 77.746094 72.480469 75.269531 74.960938 C 72.789062 77.433594 71.304688 79.914062 70.066406 82.886719 C 68.828125 85.859375 68.082031 89.082031 68.082031 93.789062 C 67.589844 98.996094 67.589844 100.480469 67.589844 112.625 C 67.589844 125.011719 67.589844 126.5 67.835938 131.210938 C 67.835938 135.917969 68.828125 139.386719 69.816406 142.113281 C 71.058594 145.085938 72.542969 147.566406 75.019531 150.039062 C 77.5 152.519531 79.976562 154.007812 82.953125 155.246094 C 85.925781 156.484375 89.144531 157.226562 93.855469 157.226562 C 98.5625 157.226562 100.296875 157.476562 112.441406 157.476562 C 124.582031 157.476562 126.316406 157.476562 131.023438 157.226562 C 135.734375 157.226562 139.203125 156.238281 141.925781 155.246094 C 144.902344 154.007812 147.378906 152.519531 149.859375 150.039062 C 152.335938 147.566406 153.824219 145.085938 155.0625 142.113281 C 156.050781 139.140625 157.042969 135.917969 157.042969 131.210938 C 157.042969 126.5 157.292969 124.765625 157.292969 112.625 C 157.292969 100.234375 157.292969 98.746094 157.042969 94.039062 C 157.042969 89.332031 156.050781 85.859375 155.0625 83.132812 C 153.824219 80.160156 152.335938 77.683594 149.859375 75.203125 C 147.378906 72.726562 144.902344 71.242188 141.925781 70.003906 C 138.953125 68.761719 135.734375 68.019531 131.023438 68.019531 C 126.566406 67.523438 125.078125 67.523438 112.6875 67.523438 Z M 108.722656 75.703125 C 109.960938 75.703125 111.199219 75.703125 112.6875 75.703125 C 124.828125 75.703125 126.070312 75.703125 131.023438 75.949219 C 135.484375 75.949219 137.714844 76.941406 139.453125 77.433594 C 141.679688 78.179688 143.167969 79.171875 144.652344 80.90625 C 146.140625 82.390625 147.132812 83.878906 148.125 86.109375 C 148.621094 87.597656 149.363281 90.074219 149.609375 94.535156 C 149.609375 99.242188 149.859375 100.730469 149.859375 112.871094 C 149.859375 125.011719 149.859375 126.253906 149.609375 131.210938 C 149.609375 135.667969 148.621094 137.898438 148.125 139.632812 C 147.378906 141.867188 146.390625 143.351562 144.652344 144.839844 C 143.167969 146.324219 141.679688 147.316406 139.453125 148.308594 C 137.964844 149.050781 135.484375 149.546875 131.023438 149.796875 C 126.316406 149.796875 124.828125 150.039062 112.6875 150.039062 C 100.542969 150.039062 99.304688 150.039062 94.351562 149.796875 C 89.890625 149.796875 87.660156 148.804688 85.925781 148.308594 C 83.695312 147.566406 82.207031 146.570312 80.722656 144.839844 C 79.234375 143.351562 78.246094 141.867188 77.253906 139.632812 C 76.757812 138.148438 76.015625 135.667969 75.765625 131.210938 C 75.765625 126.5 75.515625 125.011719 75.515625 112.871094 C 75.515625 100.730469 75.515625 99.488281 75.765625 94.535156 C 75.765625 90.074219 76.757812 87.84375 77.253906 86.109375 C 77.996094 83.878906 78.988281 82.390625 80.722656 80.90625 C 82.207031 79.417969 83.695312 78.429688 85.925781 77.433594 C 87.414062 76.691406 89.890625 76.195312 94.351562 75.949219 C 98.5625 75.949219 100.050781 75.949219 108.472656 75.703125 Z M 112.6875 89.578125 C 99.800781 89.578125 89.394531 99.988281 89.394531 112.871094 C 89.394531 125.757812 99.800781 136.164062 112.6875 136.164062 C 125.574219 136.164062 135.980469 125.757812 135.980469 112.871094 C 135.980469 99.988281 125.574219 89.578125 112.6875 89.578125 Z M 112.6875 97.757812 C 121.113281 97.757812 127.804688 104.445312 127.804688 112.871094 C 127.804688 121.296875 121.113281 127.988281 112.6875 127.988281 C 104.261719 127.988281 97.570312 121.296875 97.570312 112.871094 C 97.570312 104.445312 104.261719 97.757812 112.6875 97.757812 Z M 112.6875 97.757812 "/></g></g></svg>