<svg xmlns="http://www.w3.org/2000/svg" xmlns:xlink="http://www.w3.org/1999/xlink" width="300" zoomAndPan="magnify" viewBox="0 0 224.87999 225" height="300" preserveAspectRatio="xMidYMid meet" version="1.2"><defs><clipPath id="2e2249e9f1"><path d="M 67.464844 67.605469 L 157.414062 67.605469 L 157.414062 157.558594 L 67.464844 157.558594 Z M 67.464844 67.605469 "/></clipPath></defs><g id="6ffc326fa5"><g clip-rule="nonzero" clip-path="url(#2e2249e9f1)"><path style=" stroke:none;fill-rule:nonzero;fill:#000000;fill-opacity:1;" d="M 144.214844 79.886719 C 135.722656 72.003906 124.4375 67.664062 112.445312 67.664062 C 100.449219 67.664062 89.164062 72.003906 80.675781 79.886719 C 72.15625 87.792969 67.464844 98.320312 67.464844 109.515625 C 67.464844 121.824219 73.210938 133.394531 83.261719 141.367188 L 83.261719 155.976562 C 83.261719 156.445312 83.503906 156.882812 83.902344 157.128906 C 84.121094 157.265625 84.371094 157.335938 84.621094 157.335938 C 84.828125 157.335938 85.03125 157.289062 85.222656 157.195312 L 100.242188 149.8125 C 104.195312 150.847656 108.296875 151.371094 112.445312 151.371094 C 124.4375 151.371094 135.722656 147.03125 144.214844 139.148438 C 152.730469 131.238281 157.421875 120.714844 157.421875 109.515625 C 157.421875 98.316406 152.730469 87.792969 144.214844 79.886719 Z M 140.222656 98.886719 L 117.628906 123.710938 C 117.542969 123.800781 117.425781 123.855469 117.304688 123.859375 C 117.300781 123.859375 117.296875 123.859375 117.292969 123.859375 C 117.175781 123.859375 117.058594 123.8125 116.972656 123.726562 L 105.355469 112.109375 L 85.148438 123.105469 C 84.953125 123.214844 84.703125 123.160156 84.570312 122.980469 C 84.433594 122.800781 84.453125 122.550781 84.613281 122.390625 L 107.628906 99.375 C 107.804688 99.195312 108.09375 99.195312 108.269531 99.375 L 119.519531 110.628906 L 139.652344 98.195312 C 139.84375 98.074219 140.09375 98.113281 140.238281 98.289062 C 140.382812 98.464844 140.375 98.714844 140.222656 98.886719 Z M 140.222656 98.886719 "/></g></g></svg>