<svg xmlns="http://www.w3.org/2000/svg" xmlns:xlink="http://www.w3.org/1999/xlink" width="300" zoomAndPan="magnify" viewBox="0 0 224.87999 225" height="300" preserveAspectRatio="xMidYMid meet" version="1.2"><defs><clipPath id="7cfa3e1126"><path d="M 69.5625 67.523438 L 155.316406 67.523438 L 155.316406 157.476562 L 69.5625 157.476562 Z M 69.5625 67.523438 "/></clipPath></defs><g id="8cdbda472e"><g clip-rule="nonzero" clip-path="url(#7cfa3e1126)"><path style=" stroke:none;fill-rule:nonzero;fill:#000000;fill-opacity:1;" d="M 136.386719 110.828125 L 136.382812 110.828125 C 135.636719 110.828125 135.035156 110.226562 135.027344 109.484375 C 134.992188 101.101562 132.582031 94.5625 127.867188 90.050781 C 120.324219 82.835938 109.363281 83.191406 109.265625 83.1875 C 108.527344 83.257812 107.894531 82.640625 107.859375 81.894531 C 107.832031 81.144531 108.414062 80.515625 109.15625 80.488281 C 109.660156 80.457031 121.378906 80.097656 129.734375 88.09375 C 135.003906 93.136719 137.695312 100.328125 137.734375 109.472656 C 137.738281 110.21875 137.132812 110.828125 136.386719 110.828125 Z M 119.289062 99.1875 C 117.199219 97.117188 113.761719 97.265625 113.734375 97.265625 C 112.980469 97.320312 112.34375 96.746094 112.300781 96 C 112.253906 95.253906 112.820312 94.609375 113.566406 94.566406 C 113.75 94.5625 118.210938 94.3125 121.191406 97.265625 C 123.027344 99.078125 123.871094 101.640625 123.703125 104.878906 C 123.667969 105.597656 123.070312 106.160156 122.351562 106.160156 L 122.28125 106.160156 C 121.539062 106.121094 120.964844 105.484375 121 104.738281 C 121.128906 102.304688 120.550781 100.4375 119.289062 99.1875 Z M 124.085938 95.023438 C 119.328125 89.984375 111.679688 89.921875 111.605469 89.921875 C 110.855469 89.921875 110.253906 89.316406 110.253906 88.570312 C 110.253906 87.820312 110.859375 87.21875 111.605469 87.21875 C 111.96875 87.21875 120.503906 87.289062 126.054688 93.164062 C 129.371094 96.675781 130.878906 101.460938 130.546875 107.394531 C 130.503906 108.113281 129.90625 108.671875 129.195312 108.671875 L 129.117188 108.671875 C 128.367188 108.628906 127.800781 107.988281 127.84375 107.242188 C 128.132812 102.082031 126.871094 97.96875 124.085938 95.023438 Z M 128.398438 128.554688 C 108.996094 132.554688 92.605469 110.652344 88.847656 100.023438 C 85.097656 89.382812 89.730469 86.285156 93.359375 84.503906 C 96.980469 82.71875 98.738281 84.503906 98.738281 84.503906 C 98.738281 84.503906 105.03125 92.980469 104.746094 96.265625 C 104.574219 98.183594 99.570312 100.554688 100.113281 102.394531 C 103.117188 112.660156 112.628906 119.664062 117.886719 118.417969 C 120.015625 117.90625 122.089844 112.707031 124.269531 112.410156 C 126.648438 112.089844 132 115.875 134.066406 117.414062 C 134.5 117.734375 135.027344 118.160156 135.027344 118.789062 C 136.320312 127.25 128.398438 128.554688 128.398438 128.554688 Z M 124.601562 67.523438 L 100.28125 67.523438 C 83.410156 67.523438 69.605469 81.324219 69.605469 98.195312 L 69.605469 112.371094 C 69.605469 124.769531 77.078125 135.488281 87.726562 140.3125 L 89.445312 157.472656 L 104.589844 143.042969 L 124.601562 143.042969 C 141.46875 143.042969 155.273438 129.238281 155.273438 112.371094 L 155.273438 98.195312 C 155.273438 81.324219 141.46875 67.523438 124.601562 67.523438 "/></g><path style=" stroke:none;fill-rule:nonzero;fill:#ffffff;fill-opacity:1;" d="M 134.066406 117.414062 C 132 115.875 126.648438 112.089844 124.269531 112.410156 C 122.089844 112.707031 120.015625 117.910156 117.886719 118.417969 C 112.628906 119.664062 103.117188 112.660156 100.113281 102.398438 C 99.570312 100.554688 104.574219 98.183594 104.746094 96.265625 C 105.03125 92.980469 98.738281 84.503906 98.738281 84.503906 C 98.738281 84.503906 96.980469 82.71875 93.359375 84.503906 C 89.730469 86.285156 85.097656 89.382812 88.847656 100.023438 C 92.605469 110.652344 108.996094 132.554688 128.398438 128.554688 C 128.398438 128.554688 136.320312 127.25 135.027344 118.789062 C 135.027344 118.160156 134.5 117.734375 134.066406 117.414062 "/><path style=" stroke:none;fill-rule:nonzero;fill:#ffffff;fill-opacity:1;" d="M 122.28125 106.160156 L 122.351562 106.160156 C 123.070312 106.160156 123.667969 105.597656 123.703125 104.878906 C 123.871094 101.640625 123.027344 99.078125 121.191406 97.265625 C 118.210938 94.3125 113.75 94.5625 113.566406 94.566406 C 112.820312 94.613281 112.253906 95.253906 112.300781 96 C 112.34375 96.746094 112.980469 97.324219 113.734375 97.265625 C 113.761719 97.265625 117.199219 97.117188 119.289062 99.1875 C 120.550781 100.4375 121.128906 102.304688 121 104.738281 C 120.964844 105.484375 121.539062 106.121094 122.28125 106.160156 "/><path style=" stroke:none;fill-rule:nonzero;fill:#ffffff;fill-opacity:1;" d="M 129.117188 108.671875 L 129.195312 108.671875 C 129.90625 108.671875 130.503906 108.113281 130.546875 107.394531 C 130.878906 101.460938 129.367188 96.675781 126.054688 93.164062 C 120.503906 87.289062 111.96875 87.21875 111.605469 87.21875 C 110.859375 87.21875 110.253906 87.824219 110.253906 88.570312 C 110.253906 89.320312 110.855469 89.921875 111.605469 89.921875 C 111.679688 89.921875 119.328125 89.984375 124.085938 95.023438 C 126.871094 97.96875 128.132812 102.082031 127.84375 107.242188 C 127.800781 107.988281 128.367188 108.628906 129.117188 108.671875 "/><path style=" stroke:none;fill-rule:nonzero;fill:#ffffff;fill-opacity:1;" d="M 109.15625 80.488281 C 108.414062 80.515625 107.832031 81.144531 107.859375 81.894531 C 107.894531 82.640625 108.527344 83.257812 109.265625 83.191406 C 109.363281 83.195312 120.324219 82.835938 127.867188 90.050781 C 132.582031 94.5625 134.992188 101.105469 135.027344 109.484375 C 135.03125 110.226562 135.636719 110.828125 136.382812 110.828125 L 136.386719 110.828125 C 137.132812 110.828125 137.738281 110.21875 137.734375 109.472656 C 137.695312 100.328125 135.003906 93.136719 129.734375 88.09375 C 121.378906 80.097656 109.660156 80.457031 109.15625 80.488281 "/></g></svg>